<svg width="134" height="135" viewBox="0 0 134 135" fill="none" xmlns="http://www.w3.org/2000/svg">
<path d="M0.0415421 67.2113C0.0415421 30.2495 30.005 0.28595 66.9669 0.28595V0.28595C103.929 0.28595 133.892 30.2495 133.892 67.2113V67.2113C133.892 104.173 103.929 134.137 66.9669 134.137V134.137C30.005 134.137 0.0415421 104.173 0.0415421 67.2113V67.2113Z" fill="#0067B1"/>
<path d="M0.0415421 67.2113C0.0415421 30.2495 30.005 0.28595 66.9669 0.28595V0.28595C103.929 0.28595 133.892 30.2495 133.892 67.2113V67.2113C133.892 104.173 103.929 134.137 66.9669 134.137V134.137C30.005 134.137 0.0415421 104.173 0.0415421 67.2113V67.2113Z" fill="url(#paint0_linear_111_11)"/>
<path d="M67.7491 52.9007L67.7491 79.6007" stroke="white" stroke-width="2.84436" stroke-linecap="round"/>
<path d="M54.9613 72.5744L67.7492 81.0059L80.5371 72.5744" stroke="white" stroke-width="2.84436" stroke-linecap="round"/>
<defs>
<linearGradient id="paint0_linear_111_11" x1="133.892" y1="0.285945" x2="56.4323" y2="153.347" gradientUnits="userSpaceOnUse">
<stop stop-color="#0E96E2"/>
<stop offset="0.85303" stop-color="#005FA4"/>
</linearGradient>
</defs>
</svg>
