<svg width="268" height="268" viewBox="0 0 268 268" fill="none" xmlns="http://www.w3.org/2000/svg">
<path opacity="0.48" d="M41.0713 134.066C41.0713 82.8416 82.5972 41.3157 133.822 41.3157V41.3157C185.047 41.3157 226.573 82.8416 226.573 134.066V134.066C226.573 185.291 185.047 226.817 133.822 226.817V226.817C82.5972 226.817 41.0713 185.291 41.0713 134.066V134.066Z" fill="white"/>
<path opacity="0.19" d="M0.260994 134.066C0.260994 60.3027 60.0583 0.505432 133.822 0.505432V0.505432C207.586 0.505432 267.383 60.3027 267.383 134.066V134.066C267.383 207.83 207.586 267.627 133.822 267.627V267.627C60.0583 267.627 0.260994 207.83 0.260994 134.066V134.066Z" fill="white"/>
<path d="M67.0415 134.211C67.0415 97.2495 97.005 67.2859 133.967 67.2859V67.2859C170.929 67.2859 200.892 97.2495 200.892 134.211V134.211C200.892 171.173 170.929 201.137 133.967 201.137V201.137C97.005 201.137 67.0415 171.173 67.0415 134.211V134.211Z" fill="#0067B1"/>
<path d="M67.0415 134.211C67.0415 97.2495 97.005 67.2859 133.967 67.2859V67.2859C170.929 67.2859 200.892 97.2495 200.892 134.211V134.211C200.892 171.173 170.929 201.137 133.967 201.137V201.137C97.005 201.137 67.0415 171.173 67.0415 134.211V134.211Z" fill="url(#paint0_linear_93_9)"/>
<defs>
<linearGradient id="paint0_linear_93_9" x1="200.892" y1="67.2859" x2="123.432" y2="220.347" gradientUnits="userSpaceOnUse">
<stop stop-color="#0E96E2"/>
<stop offset="0.85303" stop-color="#005FA4"/>
</linearGradient>
</defs>
</svg>
