<svg width="32" height="32" viewBox="0 0 32 32" fill="none" xmlns="http://www.w3.org/2000/svg">
<rect width="32" height="32" rx="16" fill="#3E78E4"/>
<path d="M11.7485 16.8099C10.8565 17.2595 9.79009 17.5438 9.73644 17.557H9.72303C9.5956 17.5835 9.46817 17.5107 9.42793 17.3851C9.39439 17.2529 9.46817 17.1206 9.6023 17.081C9.60901 17.081 10.8699 16.7504 11.165 16.5322C11.1784 16.519 11.1784 16.5058 11.1784 16.4992C11.1784 16.4925 11.165 16.4793 11.1449 16.4793C11.0778 16.4793 9.76997 16.7372 8.85115 16.5124C8.7036 16.4793 8.60299 16.3339 8.62311 16.1884C8.64994 16.0231 8.81761 15.9173 8.97857 15.957C8.99199 15.957 10.0181 16.2082 10.9571 15.9306C10.9906 15.9173 11.0174 15.8843 11.004 15.8446C10.9973 15.8116 10.9638 15.7917 10.9302 15.7917C9.91082 15.8711 8.87127 15.4744 8.81761 15.4479C8.67006 15.3884 8.59629 15.2231 8.65665 15.0777C8.71701 14.9322 8.88468 14.8595 9.03223 14.919C9.04564 14.919 9.8974 15.2496 10.729 15.2297C10.776 15.2297 10.8162 15.1901 10.8229 15.1438C10.8229 15.0975 10.7894 15.0578 10.7425 15.0512C9.88399 14.9388 9.05905 14.5223 9.01211 14.4959C8.86456 14.4165 8.8109 14.2248 8.9048 14.0859C8.98528 13.9669 9.15295 13.9273 9.28708 14C9.6962 14.2116 10.8095 14.6611 11.5003 14.476C11.5674 14.4562 11.5942 14.3768 11.554 14.324C11.1985 13.8744 10.9906 13.4711 10.9772 13.438C10.89 13.2661 10.9638 13.0611 11.1314 12.9818C11.3058 12.8959 11.5137 12.9686 11.5942 13.1339C11.5942 13.1471 12.2716 14.4628 13.2709 14.8595C13.9885 15.0843 18.1132 16.2413 22.0635 12.5058C22.7945 11.8182 22.8817 10.7008 22.2781 9.90743C20.132 7.09751 17.1139 5.35206 15.7524 2C13.9215 7.46776 6.95312 9.04131 6.95312 17.2661V17.2793C6.95312 18.2314 7.52991 19.0843 8.40179 19.4876C12.2448 21.2463 15.9134 20.5653 17.3755 20.1752C17.8315 20.0496 18.462 19.6661 18.7638 19.3091C19.2869 18.681 19.6155 17.9934 19.6222 17.9868C19.7027 17.8149 19.9173 17.7289 20.0984 17.8082C20.2795 17.881 20.36 18.0859 20.2795 18.2644C20.2661 18.2909 20.1387 18.5554 19.9173 18.9124C19.8771 18.9785 19.9375 19.0578 20.0112 19.0446C21.0441 18.8463 21.7885 18.152 21.8019 18.1388C21.9227 18.0264 22.1104 18.0264 22.2245 18.1388C22.3385 18.2512 22.3385 18.4297 22.2245 18.5487C22.1909 18.5818 21.6276 19.1173 20.7557 19.4413C20.7289 19.4479 20.7087 19.4744 20.7087 19.5008C20.7087 19.5471 20.749 19.5801 20.7959 19.5669C21.708 19.3091 22.3787 18.7603 22.3921 18.7471C22.5263 18.6347 22.7342 18.6545 22.8348 18.7934C22.9287 18.919 22.8884 19.0909 22.7677 19.1901C21.9361 19.8446 20.816 20.1553 20.749 20.1686C20.7154 20.1752 20.6886 20.2082 20.6886 20.2413C20.6886 20.2876 20.7289 20.3206 20.7758 20.3206C21.7818 20.2281 22.5732 19.7917 22.5866 19.7851C22.7342 19.7058 22.9153 19.752 22.9957 19.8843C23.0762 20.0231 23.0293 20.195 22.8817 20.281C22.8482 20.3008 22.2848 20.6115 21.4867 20.7901C21.252 20.843 20.9904 20.8826 20.7221 20.9025C20.6953 20.9025 20.6685 20.9289 20.6685 20.9553C20.6685 20.9818 20.6886 21.0082 20.7221 21.0082C21.4532 21.0281 22.1708 20.8826 22.3049 20.8496C22.3385 20.843 22.3251 20.8496 22.3385 20.843C22.4324 20.8231 22.5397 20.8562 22.6 20.9289C22.7208 21.0876 22.6269 21.2859 22.4525 21.3256H22.4123C22.1909 21.3851 21.1849 21.5901 20.2594 21.471C19.4009 21.471 14.1964 23.3091 8.95845 21.8611C8.66336 21.7818 8.42191 22.1124 8.603 22.357C10.2059 24.552 12.8149 25.9934 15.7658 26C20.7356 26.0198 24.7194 21.9405 24.6523 17.0413C24.6389 15.9041 24.5048 14.9058 24.2767 14.0066C24.203 13.7223 23.8609 13.6165 23.6329 13.8082C18.4418 18.2182 12.721 16.638 11.7284 16.8165L11.7485 16.8099Z" fill="white"/>
</svg>
