<svg width="16" height="16" viewBox="0 0 16 16" fill="none" xmlns="http://www.w3.org/2000/svg">
<rect width="16" height="16" rx="8" fill="#3E78E4"/>
<path d="M5.87424 8.40495C5.42824 8.62974 4.89505 8.77189 4.86822 8.7785H4.86151C4.7978 8.79173 4.73408 8.75536 4.71396 8.69255C4.6972 8.62644 4.73408 8.56032 4.80115 8.54049C4.80451 8.54049 5.43494 8.3752 5.58249 8.26611C5.5892 8.25949 5.5892 8.25288 5.5892 8.24958C5.5892 8.24627 5.58249 8.23966 5.57243 8.23966C5.5389 8.23966 4.88499 8.36859 4.42557 8.25619C4.3518 8.23966 4.3015 8.16693 4.31156 8.09421C4.32497 8.01156 4.40881 7.95867 4.48929 7.9785C4.49599 7.9785 5.00906 8.10412 5.47854 7.96528C5.4953 7.95867 5.50872 7.94214 5.50201 7.92231C5.49866 7.90578 5.48189 7.89586 5.46512 7.89586C4.95541 7.93553 4.43563 7.73718 4.40881 7.72396C4.33503 7.69421 4.29814 7.61156 4.32832 7.53883C4.3585 7.46611 4.44234 7.42974 4.51611 7.4595C4.52282 7.4595 4.9487 7.62478 5.36452 7.61487C5.388 7.61487 5.40812 7.59503 5.41147 7.57189C5.41147 7.54875 5.3947 7.52892 5.37123 7.52561C4.94199 7.46941 4.52953 7.26115 4.50605 7.24793C4.43228 7.20826 4.40545 7.11239 4.4524 7.04297C4.49264 6.98346 4.57647 6.96363 4.64354 6.99999C4.8481 7.10578 5.40476 7.33057 5.75016 7.23801C5.7837 7.22809 5.79711 7.18842 5.77699 7.16198C5.59926 6.93718 5.4953 6.73553 5.4886 6.719C5.445 6.63305 5.48189 6.53057 5.56572 6.4909C5.65291 6.44793 5.75687 6.48429 5.79711 6.56694C5.79711 6.57355 6.1358 7.2314 6.63546 7.42974C6.99427 7.54214 9.05661 8.12065 11.0318 6.25289C11.3973 5.90908 11.4409 5.35041 11.1391 4.95371C10.066 3.54876 8.55695 2.67603 7.87621 1C6.96074 3.73388 3.47656 4.52066 3.47656 8.63305V8.63966C3.47656 9.11569 3.76495 9.54214 4.20089 9.74379C6.12239 10.6231 7.95669 10.2826 8.68773 10.0876C8.91576 10.0248 9.23098 9.83305 9.38188 9.65453C9.64345 9.34049 9.80776 8.99668 9.81112 8.99338C9.85136 8.90743 9.95867 8.86445 10.0492 8.90412C10.1397 8.94049 10.18 9.04297 10.1398 9.13222C10.133 9.14544 10.0693 9.27768 9.95867 9.45619C9.93855 9.48925 9.96873 9.52891 10.0056 9.5223C10.522 9.42313 10.8943 9.07602 10.901 9.06941C10.9613 9.01321 11.0552 9.01321 11.1122 9.06941C11.1692 9.12561 11.1692 9.21487 11.1122 9.27437C11.0955 9.2909 10.8138 9.55867 10.3778 9.72065C10.3644 9.72396 10.3544 9.73718 10.3544 9.7504C10.3544 9.77354 10.3745 9.79007 10.398 9.78346C10.854 9.65453 11.1894 9.38015 11.1961 9.37354C11.2631 9.31734 11.3671 9.32726 11.4174 9.39668C11.4643 9.45949 11.4442 9.54544 11.3839 9.59503C10.968 9.9223 10.408 10.0777 10.3745 10.0843C10.3577 10.0876 10.3443 10.1041 10.3443 10.1206C10.3443 10.1438 10.3644 10.1603 10.3879 10.1603C10.8909 10.114 11.2866 9.89586 11.2933 9.89255C11.3671 9.85288 11.4576 9.87602 11.4979 9.94214C11.5381 10.0116 11.5146 10.0975 11.4409 10.1405C11.4241 10.1504 11.1424 10.3058 10.7434 10.395C10.626 10.4215 10.4952 10.4413 10.3611 10.4512C10.3477 10.4512 10.3342 10.4645 10.3342 10.4777C10.3342 10.4909 10.3443 10.5041 10.3611 10.5041C10.7266 10.514 11.0854 10.4413 11.1525 10.4248C11.1692 10.4215 11.1625 10.4248 11.1692 10.4215C11.2162 10.4116 11.2698 10.4281 11.3 10.4645C11.3604 10.5438 11.3134 10.643 11.2262 10.6628H11.2061C11.0955 10.6925 10.5925 10.795 10.1297 10.7355C9.70046 10.7355 7.09822 11.6545 4.47923 10.9306C4.33168 10.8909 4.21096 11.0562 4.3015 11.1785C5.10296 12.276 6.40743 12.9967 7.88292 13C10.3678 13.0099 12.3597 10.9702 12.3262 8.52065C12.3195 7.95206 12.2524 7.45288 12.1384 7.0033C12.1015 6.86115 11.9305 6.80826 11.8164 6.90412C9.22092 9.10908 6.36048 8.319 5.86418 8.40825L5.87424 8.40495Z" fill="white"/>
</svg>
