<svg width="27" height="27" viewBox="0 0 27 27" fill="none" xmlns="http://www.w3.org/2000/svg">
<g clip-path="url(#clip0_1_75)">
<path d="M13.4406 2.37921C16.9707 2.37921 17.3887 2.39469 18.777 2.45662C20.0673 2.51339 20.764 2.73015 21.2285 2.91079C21.8427 3.14819 22.2865 3.43721 22.7458 3.89653C23.2103 4.36102 23.4942 4.7997 23.7316 5.41386C23.9122 5.87835 24.129 6.58024 24.1857 7.86532C24.2477 9.25878 24.2632 9.67682 24.2632 13.2018C24.2632 16.7319 24.2477 17.1499 24.1857 18.5382C24.129 19.8285 23.9122 20.5252 23.7316 20.9897C23.4942 21.6038 23.2052 22.0477 22.7458 22.507C22.2813 22.9715 21.8427 23.2553 21.2285 23.4927C20.764 23.6734 20.0621 23.8901 18.777 23.9469C17.3836 24.0088 16.9655 24.0243 13.4406 24.0243C9.9105 24.0243 9.49246 24.0088 8.10416 23.9469C6.81392 23.8901 6.11718 23.6734 5.6527 23.4927C5.03854 23.2553 4.5947 22.9663 4.13537 22.507C3.67088 22.0425 3.38703 21.6038 3.14963 20.9897C2.96899 20.5252 2.75223 19.8233 2.69546 18.5382C2.63353 17.1448 2.61805 16.7267 2.61805 13.2018C2.61805 9.67166 2.63353 9.25362 2.69546 7.86532C2.75223 6.57508 2.96899 5.87835 3.14963 5.41386C3.38703 4.7997 3.67604 4.35586 4.13537 3.89653C4.59986 3.43205 5.03854 3.14819 5.6527 2.91079C6.11718 2.73015 6.81908 2.51339 8.10416 2.45662C9.49246 2.39469 9.9105 2.37921 13.4406 2.37921ZM13.4406 0C9.85373 0 9.40472 0.0154829 7.99578 0.0774146C6.59199 0.139346 5.62689 0.366429 4.79081 0.69157C3.91861 1.03219 3.18059 1.4812 2.44773 2.21922C1.70971 2.95208 1.26071 3.6901 0.920086 4.55714C0.594945 5.39838 0.367862 6.35832 0.30593 7.7621C0.243999 9.17621 0.228516 9.62521 0.228516 13.2121C0.228516 16.799 0.243999 17.248 0.30593 18.6569C0.367862 20.0607 0.594945 21.0258 0.920086 21.8619C1.26071 22.7341 1.70971 23.4721 2.44773 24.205C3.18059 24.9378 3.91861 25.392 4.78565 25.7274C5.62689 26.0526 6.58683 26.2797 7.99062 26.3416C9.39956 26.4035 9.84857 26.419 13.4354 26.419C17.0223 26.419 17.4713 26.4035 18.8803 26.3416C20.2841 26.2797 21.2492 26.0526 22.0852 25.7274C22.9523 25.392 23.6903 24.9378 24.4231 24.205C25.156 23.4721 25.6102 22.7341 25.9456 21.867C26.2708 21.0258 26.4979 20.0659 26.5598 18.6621C26.6217 17.2531 26.6372 16.8041 26.6372 13.2172C26.6372 9.63037 26.6217 9.18137 26.5598 7.77242C26.4979 6.36864 26.2708 5.40354 25.9456 4.56746C25.6205 3.69009 25.1715 2.95208 24.4335 2.21922C23.7006 1.48636 22.9626 1.03219 22.0956 0.696731C21.2543 0.37159 20.2944 0.144507 18.8906 0.0825756C17.4765 0.0154829 17.0275 0 13.4406 0Z" fill="white"/>
<path d="M13.4405 6.42538C9.69368 6.42538 6.65387 9.4652 6.65387 13.2121C6.65387 16.9589 9.69368 19.9987 13.4405 19.9987C17.1874 19.9987 20.2272 16.9589 20.2272 13.2121C20.2272 9.4652 17.1874 6.42538 13.4405 6.42538ZM13.4405 17.6144C11.0097 17.6144 9.03824 15.6429 9.03824 13.2121C9.03824 10.7812 11.0097 8.80975 13.4405 8.80975C15.8714 8.80975 17.8429 10.7812 17.8429 13.2121C17.8429 15.6429 15.8714 17.6144 13.4405 17.6144Z" fill="white"/>
<path d="M22.08 6.15696C22.08 7.03433 21.3678 7.74138 20.4956 7.74138C19.6182 7.74138 18.9112 7.02917 18.9112 6.15696C18.9112 5.27959 19.6234 4.57254 20.4956 4.57254C21.3678 4.57254 22.08 5.28476 22.08 6.15696Z" fill="white"/>
</g>
<defs>
<clipPath id="clip0_1_75">
<rect width="26.4242" height="26.4242" fill="white" transform="translate(0.228516)"/>
</clipPath>
</defs>
</svg>
