<svg width="24" height="24" viewBox="0 0 24 24" fill="none" xmlns="http://www.w3.org/2000/svg">
<g clip-path="url(#clip0_1070_117)">
<path d="M11.9065 2.69018C14.9844 2.69018 15.3489 2.70368 16.5594 2.75768C17.6844 2.80718 18.2919 2.99618 18.6969 3.15367C19.2324 3.36067 19.6194 3.61267 20.0198 4.01316C20.4248 4.41815 20.6723 4.80064 20.8793 5.33613C21.0368 5.74113 21.2258 6.35311 21.2753 7.47359C21.3293 8.68857 21.3428 9.05306 21.3428 12.1265C21.3428 15.2044 21.3293 15.5689 21.2753 16.7794C21.2258 17.9044 21.0368 18.5119 20.8793 18.9169C20.6723 19.4524 20.4203 19.8394 20.0198 20.2398C19.6149 20.6448 19.2324 20.8923 18.6969 21.0993C18.2919 21.2568 17.6799 21.4458 16.5594 21.4953C15.3444 21.5493 14.9799 21.5628 11.9065 21.5628C8.82856 21.5628 8.46407 21.5493 7.25359 21.4953C6.12861 21.4458 5.52112 21.2568 5.11613 21.0993C4.58064 20.8923 4.19365 20.6403 3.79315 20.2398C3.38816 19.8349 3.14067 19.4524 2.93367 18.9169C2.77617 18.5119 2.58718 17.8999 2.53768 16.7794C2.48368 15.5644 2.47018 15.1999 2.47018 12.1265C2.47018 9.04856 2.48368 8.68407 2.53768 7.47359C2.58718 6.34861 2.77617 5.74113 2.93367 5.33613C3.14067 4.80064 3.39266 4.41365 3.79315 4.01316C4.19815 3.60817 4.58064 3.36067 5.11613 3.15367C5.52112 2.99618 6.13311 2.80718 7.25359 2.75768C8.46407 2.70368 8.82856 2.69018 11.9065 2.69018ZM11.9065 0.615723C8.77906 0.615723 8.38757 0.629222 7.15909 0.683221C5.93511 0.73722 5.09363 0.935216 4.36464 1.21871C3.60416 1.51571 2.96067 1.9072 2.32168 2.55069C1.67819 3.18967 1.2867 3.83316 0.989707 4.58915C0.706213 5.32263 0.508216 6.15962 0.454217 7.38359C0.400218 8.61657 0.386719 9.00806 0.386719 12.1355C0.386719 15.2629 0.400218 15.6544 0.454217 16.8829C0.508216 18.1069 0.706213 18.9484 0.989707 19.6774C1.2867 20.4378 1.67819 21.0813 2.32168 21.7203C2.96067 22.3593 3.60416 22.7553 4.36014 23.0478C5.09363 23.3313 5.93061 23.5293 7.15459 23.5833C8.38307 23.6373 8.77456 23.6508 11.902 23.6508C15.0294 23.6508 15.4209 23.6373 16.6494 23.5833C17.8734 23.5293 18.7149 23.3313 19.4439 23.0478C20.1998 22.7553 20.8433 22.3593 21.4823 21.7203C22.1213 21.0813 22.5173 20.4378 22.8098 19.6819C23.0933 18.9484 23.2913 18.1114 23.3453 16.8874C23.3993 15.6589 23.4128 15.2674 23.4128 12.14C23.4128 9.01256 23.3993 8.62107 23.3453 7.39259C23.2913 6.16862 23.0933 5.32713 22.8098 4.59815C22.5263 3.83316 22.1348 3.18967 21.4913 2.55069C20.8523 1.9117 20.2088 1.51571 19.4529 1.22321C18.7194 0.939716 17.8824 0.74172 16.6584 0.687721C15.4254 0.629222 15.0339 0.615723 11.9065 0.615723Z" fill="#183A6C"/>
<path d="M11.9057 6.21802C8.63873 6.21802 5.98828 8.86847 5.98828 12.1354C5.98828 15.4023 8.63873 18.0528 11.9057 18.0528C15.1726 18.0528 17.8231 15.4023 17.8231 12.1354C17.8231 8.86847 15.1726 6.21802 11.9057 6.21802ZM11.9057 15.9738C9.78621 15.9738 8.06724 14.2549 8.06724 12.1354C8.06724 10.0159 9.78621 8.29698 11.9057 8.29698C14.0251 8.29698 15.7441 10.0159 15.7441 12.1354C15.7441 14.2549 14.0251 15.9738 11.9057 15.9738Z" fill="#183A6C"/>
<path d="M19.4387 5.98401C19.4387 6.749 18.8177 7.36549 18.0573 7.36549C17.2923 7.36549 16.6758 6.7445 16.6758 5.98401C16.6758 5.21903 17.2968 4.60254 18.0573 4.60254C18.8177 4.60254 19.4387 5.22353 19.4387 5.98401Z" fill="#183A6C"/>
</g>
<defs>
<clipPath id="clip0_1070_117">
<rect width="23.0396" height="23.0396" fill="white" transform="translate(0.386719 0.615723)"/>
</clipPath>
</defs>
</svg>
