<svg width="81" height="81" viewBox="0 0 81 81" fill="none" xmlns="http://www.w3.org/2000/svg">
<circle cx="40" cy="40.4824" r="38.1984" stroke="transparent" stroke-width="3.6033"/>
<path fill-rule="evenodd" clip-rule="evenodd" d="M58.8538 51.422C58.8535 51.6738 58.7743 51.9197 58.6266 52.128C58.4786 52.3366 58.2688 52.4979 58.024 52.5912L46.8686 56.8441C46.5534 56.9646 46.2012 56.9641 45.886 56.8424L35.3498 52.7778L24.626 56.8449C24.22 56.9992 23.7604 56.9511 23.3987 56.7167C23.0371 56.4823 22.8208 56.0919 22.8208 55.6745V31.218V31.2183C22.8208 30.9667 22.8997 30.7211 23.0474 30.5128C23.1948 30.3045 23.4043 30.1432 23.6488 30.0496L34.7658 25.7962C35.0801 25.6753 35.4314 25.6753 35.7457 25.7962L46.3738 29.8624L57.0464 25.7954C57.4525 25.6408 57.9124 25.6883 58.2743 25.9227C58.6363 26.1568 58.8531 26.5472 58.8534 26.9649L58.8538 51.422ZM33.9539 28.8204V39.9143L25.4576 38.4384V32.071L33.9539 28.8204ZM56.2173 41.4613L47.7217 38.08V32.2827C47.7217 32.2107 47.7155 32.1388 47.7032 32.0677L56.2176 28.8241L56.2173 41.4613ZM45.0852 37.7365L36.5904 39.6093V28.832L45.101 32.0882L45.1007 32.0885C45.0901 32.1526 45.0848 32.2175 45.0851 32.2824L45.0852 37.7365ZM36.5904 42.1932L45.0852 40.3213V53.8185L36.5768 50.5361C36.5857 50.4774 36.5901 50.4184 36.5898 50.359L36.5904 42.1932ZM47.7217 53.8081V40.8081L56.1495 44.1627C56.1724 44.1711 56.1942 44.1796 56.2172 44.1872V50.5688L47.7217 53.8081ZM25.4583 40.9988L33.9539 42.4739V50.3593V50.359C33.9539 50.4363 33.9612 50.5136 33.976 50.5898V50.5906L25.4585 53.821L25.4583 40.9988Z" fill="white"/>
</svg>
