<svg width="18" height="18" viewBox="0 0 18 18" fill="none" xmlns="http://www.w3.org/2000/svg">
<path fill-rule="evenodd" clip-rule="evenodd" d="M16.0267 3.36378C16.5937 2.79671 16.5937 1.87732 16.0267 1.31026C15.4596 0.743198 14.5402 0.743198 13.9731 1.31026L13.9428 1.34058L13.9125 1.37096L13.882 1.4014L13.8515 1.43191L13.8209 1.46248L13.7903 1.49312L13.7596 1.52382L13.7288 1.55459L13.698 1.58542L13.6671 1.61631L13.6362 1.64726L13.6051 1.67827L13.5741 1.70934L13.5429 1.74047L13.5117 1.77166L13.4805 1.80291L13.4492 1.83422L13.4178 1.86559L13.3864 1.89701L13.3549 1.92849L13.3234 1.96003L13.2918 1.99162L13.2601 2.02327L13.2284 2.05498L13.1967 2.08673L13.1649 2.11855L13.133 2.15041L13.1011 2.18233L13.0691 2.21431L13.0371 2.24633L13.005 2.27841L12.9729 2.31053L12.9407 2.34271L12.9085 2.37494L12.8762 2.40721L12.8439 2.43954L12.8115 2.47192L12.7791 2.50434L12.7466 2.53681L12.7141 2.56933L12.6815 2.60189L12.6489 2.63451L12.6162 2.66716L12.5835 2.69986L12.5508 2.73261L12.518 2.7654L12.4852 2.79824L12.4523 2.83112L12.4194 2.86404L12.3864 2.897L12.3534 2.93L12.3204 2.96305L12.2873 2.99614L12.2541 3.02927L12.221 3.06243L12.1878 3.09564L12.1545 3.12889L12.1212 3.16217L12.0879 3.19549L12.0546 3.22885L12.0212 3.26225L11.9877 3.29568L11.9543 3.32915L11.9208 3.36265L11.8872 3.39619L11.8536 3.42977L11.82 3.46337L11.7864 3.49701L11.7527 3.53069L11.719 3.5644L11.6853 3.59813L11.6515 3.6319L11.6177 3.6657L11.5839 3.69954L11.55 3.7334L11.5161 3.76729L11.4822 3.80121L11.4482 3.83516L11.4143 3.86914L11.3803 3.90314L11.3462 3.93717L11.3122 3.97123L11.2781 4.00531L11.244 4.03942L11.2098 4.07356L11.1757 4.10772L11.1415 4.1419L11.1073 4.17611L11.0731 4.21034L11.0388 4.2446L11.0045 4.27887L10.9702 4.31317L10.9359 4.34749L10.9016 4.38183L10.8672 4.41619L10.8328 4.45057L10.7984 4.48497L10.764 4.51938L10.7296 4.55382L10.6951 4.58827L10.6607 4.62274L10.6262 4.65723L10.5917 4.69174L10.5571 4.72626L10.5226 4.76079L10.4881 4.79534L10.4535 4.82991L10.4189 4.86448L10.3843 4.89908L10.3497 4.93368L10.3151 4.9683L10.2805 5.00293L10.2458 5.03757L10.2112 5.07222L10.1765 5.10688L10.1419 5.14155L10.1072 5.17623L10.0725 5.21092L10.0378 5.24562L10.0031 5.28033L9.96836 5.31504L9.93364 5.34977L9.89891 5.38449L9.86418 5.41923L9.82944 5.45397L9.79469 5.48871L9.75995 5.52346L9.72519 5.55821L9.69044 5.59297L9.65568 5.62773L9.62091 5.66249L9.58615 5.69726L9.55138 5.73202L9.51662 5.76679L9.48185 5.80156L9.44708 5.83633L9.41231 5.87109L9.37755 5.90586L9.34278 5.94063L9.30802 5.97539L9.27325 6.01015L9.2385 6.04491L9.20374 6.07967L9.16899 6.11442L9.13424 6.14916L9.0995 6.18391L9.06476 6.21864L9.03003 6.25338L8.9953 6.2881L8.96058 6.32282L8.92587 6.35753L8.89117 6.39224L8.85647 6.42693L8.82179 6.46162L8.78711 6.4963L8.75244 6.53097L8.71778 6.56562L8.71459 6.56882L3.45615 1.31038C2.88909 0.743321 1.9697 0.743321 1.40264 1.31038C0.835575 1.87745 0.835575 2.79684 1.40264 3.3639L6.66107 8.62233L6.64226 8.64115L6.60919 8.67422L6.57616 8.70725L6.54317 8.74024L6.51022 8.77319L6.47731 8.80609L6.44445 8.83896L6.41163 8.87178L6.37885 8.90455L6.34612 8.93728L6.31344 8.96997L6.2808 9.00261L6.2482 9.0352L6.21565 9.06775L6.18315 9.10025L6.1507 9.13271L6.11829 9.16511L6.08594 9.19747L6.05363 9.22978L6.02137 9.26204L5.98916 9.29425L5.957 9.32641L5.92489 9.35852L5.89283 9.39057L5.86083 9.42258L5.82887 9.45453L5.79697 9.48643L5.76513 9.51828L5.73333 9.55007L5.70159 9.58181L5.66991 9.6135L5.63828 9.64513L5.60671 9.6767L5.57519 9.70822L5.54373 9.73968L5.51232 9.77108L5.48098 9.80243L5.44969 9.83372L5.41846 9.86494L5.38729 9.89611L5.35618 9.92722L5.32513 9.95827L5.29414 9.98926L5.26321 10.0202L5.23235 10.0511L5.20154 10.0819L5.1708 10.1126L5.14012 10.1433L5.10951 10.1739L5.07895 10.2045L5.04847 10.2349L5.01805 10.2654L4.98769 10.2957L4.9574 10.326L4.92718 10.3562L4.89702 10.3864L4.86693 10.4165L4.83691 10.4465L4.80696 10.4765L4.77707 10.5063L4.74726 10.5361L4.71751 10.5659L4.68784 10.5956L4.65823 10.6252L4.6287 10.6547L4.59924 10.6842L4.56985 10.7136L4.54054 10.7429L4.5113 10.7721L4.48213 10.8013L4.45304 10.8304L4.42402 10.8594L4.39508 10.8883L4.36621 10.9172L4.33742 10.946L4.3087 10.9747L4.28007 11.0033L4.25151 11.0319L4.22303 11.0604L4.19462 11.0888L4.1663 11.1171L4.13806 11.1453L4.10989 11.1735L4.08181 11.2016L4.05381 11.2296L4.02589 11.2575L3.99805 11.2854L3.9703 11.3131L3.94263 11.3408L3.91504 11.3684L3.88754 11.3959L3.86012 11.4233L3.83278 11.4506L3.80553 11.4779L3.77837 11.505L3.7513 11.5321L3.72431 11.5591L3.69741 11.586L3.67059 11.6128L3.64387 11.6395L3.61723 11.6662L3.59069 11.6927L3.56423 11.7192L3.53787 11.7455L3.51159 11.7718L3.48541 11.798L3.45932 11.8241L3.43332 11.8501L3.40742 11.876L3.3816 11.9018L3.35589 11.9275L3.33026 11.9531L3.30473 11.9787L3.2793 12.0041L3.25396 12.0294L3.22872 12.0547L3.20358 12.0798L3.17853 12.1049L3.15358 12.1298L3.12873 12.1547L3.10398 12.1794L3.07933 12.2041L3.05477 12.2286L3.03032 12.2531L3.00597 12.2774L2.98172 12.3017L2.95757 12.3258L2.93353 12.3499L2.90958 12.3738L2.88574 12.3977L2.86201 12.4214L2.83837 12.445L2.81485 12.4686L2.79143 12.492L2.76811 12.5153L2.7449 12.5385L2.72179 12.5616L2.6988 12.5846L2.67591 12.6075L2.65313 12.6303L2.63046 12.6529L2.60789 12.6755L2.58544 12.698L2.5631 12.7203L2.54086 12.7425L2.51874 12.7647L2.49673 12.7867L2.47484 12.8086L2.45305 12.8304L2.43138 12.852L2.40982 12.8736L2.38838 12.895L2.36705 12.9164L2.34583 12.9376L2.32473 12.9587L2.30375 12.9797L2.28288 13.0005L2.26213 13.0213L2.2415 13.0419L2.22098 13.0624L2.20059 13.0828L2.18031 13.1031L2.16015 13.1233L2.14011 13.1433L2.1202 13.1632L2.1004 13.183L2.08072 13.2027L2.06117 13.2222L2.04174 13.2417L2.02243 13.261L2.00325 13.2802L1.98419 13.2992L1.96525 13.3182L1.94644 13.337L1.92775 13.3557L1.90919 13.3742L1.89075 13.3927L1.87245 13.411L1.85427 13.4291L1.83621 13.4472L1.81829 13.4651L1.80049 13.4829L1.78283 13.5006L1.76529 13.5181L1.74788 13.5355L1.73061 13.5528L1.71346 13.5699L1.69645 13.587L1.67957 13.6038L1.66282 13.6206L1.64621 13.6372L1.62972 13.6537L1.61338 13.67L1.59716 13.6862L1.58109 13.7023L1.56514 13.7183L1.54934 13.7341L1.53367 13.7497L1.51814 13.7653L1.50274 13.7807L1.48748 13.7959L1.47237 13.811L1.45739 13.826L1.44255 13.8409L1.42785 13.8556L1.41329 13.8701L1.39887 13.8845L1.38459 13.8988L1.37046 13.9129L1.35647 13.9269L1.34262 13.9408L1.32891 13.9545L1.31535 13.9681L1.30193 13.9815L1.28866 13.9947L1.27553 14.0079L1.26255 14.0209L1.24972 14.0337L1.23703 14.0464L1.22449 14.0589L1.2121 14.0713L1.19985 14.0836L1.18775 14.0957L1.17581 14.1076L1.16401 14.1194L1.15237 14.131L1.14087 14.1425L1.12953 14.1539L1.11833 14.1651L1.10729 14.1761L1.09641 14.187L1.08567 14.1977L1.07509 14.2083L1.06467 14.2187L1.05439 14.229L1.04428 14.2391L1.03432 14.2491L1.02451 14.2589L1.01486 14.2685L1.00537 14.278L0.99604 14.2874L0.986865 14.2965L0.977849 14.3056L0.968991 14.3144L0.960295 14.3231L0.951757 14.3316L0.943379 14.34L0.935164 14.3482L0.92711 14.3563L0.919217 14.3642L0.911488 14.3719L0.903922 14.3795L0.896519 14.3869L0.88928 14.3941L0.882205 14.4012L0.875296 14.4081L0.868552 14.4149L0.861973 14.4214L0.855563 14.4278L0.849318 14.4341L0.843241 14.4402L0.837331 14.4461L0.831591 14.4518L0.826018 14.4574L0.820617 14.4628L0.815384 14.468L0.810322 14.4731L0.80543 14.478L0.800711 14.4827L0.796162 14.4872L0.791787 14.4916L0.787584 14.4958L0.783554 14.4999L0.779698 14.5037L0.776018 14.5074L0.772511 14.5109L0.76918 14.5142L0.766024 14.5174L0.763045 14.5204L0.760242 14.5232L0.757618 14.5258L0.75517 14.5282L0.752901 14.5305L0.750811 14.5326L0.748898 14.5345L0.747168 14.5362L0.745615 14.5378L0.744245 14.5392L0.743056 14.5404L0.742048 14.5414L0.741221 14.5422L0.740579 14.5428L0.740118 14.5433L0.739843 14.5436C0.739781 14.5436 0.73975 14.5437 1.76651 15.5704L0.73975 14.5437C0.172688 15.1107 0.172687 16.0301 0.73975 16.5972C1.30681 17.1642 2.2262 17.1642 2.79327 16.5972L1.76651 15.5704C2.79327 16.5972 2.7933 16.5971 2.79336 16.5971L2.79363 16.5968L2.79409 16.5963L2.79474 16.5957L2.79556 16.5949L2.79657 16.5939L2.79776 16.5927L2.79913 16.5913L2.80068 16.5898L2.80241 16.588L2.80433 16.5861L2.80642 16.584L2.80869 16.5818L2.81113 16.5793L2.81376 16.5767L2.81656 16.5739L2.81954 16.5709L2.8227 16.5677L2.82603 16.5644L2.82953 16.5609L2.83321 16.5572L2.83707 16.5534L2.8411 16.5493L2.8453 16.5451L2.84968 16.5408L2.85423 16.5362L2.85895 16.5315L2.86384 16.5266L2.8689 16.5215L2.87413 16.5163L2.87953 16.5109L2.88511 16.5053L2.89085 16.4996L2.89676 16.4937L2.90283 16.4876L2.90908 16.4814L2.91549 16.4749L2.92207 16.4684L2.92881 16.4616L2.93572 16.4547L2.9428 16.4476L2.95003 16.4404L2.95744 16.433L2.965 16.4254L2.97273 16.4177L2.98063 16.4098L2.98868 16.4018L2.99689 16.3935L3.00527 16.3852L3.01381 16.3766L3.02251 16.3679L3.03136 16.3591L3.04038 16.3501L3.04956 16.3409L3.05889 16.3315L3.06838 16.3221L3.07803 16.3124L3.08783 16.3026L3.09779 16.2926L3.10791 16.2825L3.11818 16.2723L3.12861 16.2618L3.13919 16.2513L3.14992 16.2405L3.16081 16.2296L3.17185 16.2186L3.18304 16.2074L3.19438 16.1961L3.20588 16.1846L3.21753 16.1729L3.22932 16.1611L3.24127 16.1492L3.25337 16.1371L3.26561 16.1248L3.278 16.1124L3.29054 16.0999L3.30323 16.0872L3.31607 16.0744L3.32905 16.0614L3.34218 16.0483L3.35545 16.035L3.36887 16.0216L3.38243 16.008L3.39613 15.9943L3.40998 15.9805L3.42397 15.9665L3.43811 15.9523L3.45239 15.9381L3.4668 15.9236L3.48136 15.9091L3.49606 15.8944L3.5109 15.8795L3.52588 15.8646L3.541 15.8494L3.55626 15.8342L3.57165 15.8188L3.58718 15.8033L3.60285 15.7876L3.61866 15.7718L3.6346 15.7558L3.65068 15.7398L3.66689 15.7235L3.68324 15.7072L3.69972 15.6907L3.71634 15.6741L3.73308 15.6574L3.74996 15.6405L3.76698 15.6235L3.78412 15.6063L3.8014 15.589L3.81881 15.5716L3.83634 15.5541L3.85401 15.5364L3.8718 15.5186L3.88973 15.5007L3.90778 15.4827L3.92596 15.4645L3.94427 15.4462L3.9627 15.4277L3.98127 15.4092L3.99995 15.3905L4.01876 15.3717L4.0377 15.3527L4.05676 15.3337L4.07595 15.3145L4.09525 15.2952L4.11469 15.2758L4.13424 15.2562L4.15391 15.2365L4.17371 15.2167L4.19363 15.1968L4.21367 15.1768L4.23382 15.1566L4.2541 15.1363L4.2745 15.1159L4.29501 15.0954L4.31565 15.0748L4.3364 15.054L4.35726 15.0332L4.37825 15.0122L4.39935 14.9911L4.42056 14.9699L4.44189 14.9485L4.46334 14.9271L4.48489 14.9055L4.50657 14.8839L4.52835 14.8621L4.55025 14.8402L4.57226 14.8182L4.59438 14.7961L4.61661 14.7738L4.63896 14.7515L4.66141 14.729L4.68397 14.7065L4.70664 14.6838L4.72942 14.661L4.75231 14.6381L4.77531 14.6151L4.79841 14.592L4.82162 14.5688L4.84494 14.5455L4.86836 14.5221L4.89189 14.4985L4.91552 14.4749L4.93926 14.4512L4.9631 14.4273L4.98704 14.4034L5.01109 14.3793L5.03524 14.3552L5.05949 14.331L5.08384 14.3066L5.10829 14.2821L5.13284 14.2576L5.1575 14.2329L5.18225 14.2082L5.2071 14.1833L5.23205 14.1584L5.25709 14.1333L5.28224 14.1082L5.30748 14.083L5.33282 14.0576L5.35825 14.0322L5.38378 14.0067L5.4094 13.981L5.43512 13.9553L5.46093 13.9295L5.48684 13.9036L5.51284 13.8776L5.53893 13.8515L5.56511 13.8253L5.59138 13.7991L5.61775 13.7727L5.6442 13.7462L5.67075 13.7197L5.69739 13.6931L5.72411 13.6663L5.75092 13.6395L5.77782 13.6126L5.80481 13.5856L5.83189 13.5585L5.85905 13.5314L5.8863 13.5041L5.91363 13.4768L5.94105 13.4494L5.96855 13.4219L5.99614 13.3943L6.02381 13.3666L6.05157 13.3389L6.07941 13.311L6.10733 13.2831L6.13533 13.2551L6.16341 13.227L6.19157 13.1989L6.21982 13.1706L6.24814 13.1423L6.27654 13.1139L6.30502 13.0854L6.33358 13.0569L6.36222 13.0282L6.39093 12.9995L6.41972 12.9707L6.44859 12.9418L6.47753 12.9129L6.50655 12.8839L6.53565 12.8548L6.56481 12.8256L6.59405 12.7964L6.62337 12.7671L6.65276 12.7377L6.68222 12.7082L6.71175 12.6787L6.74135 12.6491L6.77103 12.6194L6.80077 12.5897L6.83059 12.5599L6.86047 12.53L6.89042 12.5L6.92044 12.47L6.95053 12.4399L6.98069 12.4097L7.01091 12.3795L7.04121 12.3492L7.07156 12.3189L7.10198 12.2885L7.13247 12.258L7.16302 12.2274L7.19364 12.1968L7.22432 12.1661L7.25506 12.1354L7.28586 12.1046L7.31673 12.0737L7.34766 12.0428L7.37865 12.0118L7.4097 11.9807L7.44081 11.9496L7.47198 11.9185L7.50321 11.8872L7.53449 11.8559L7.56584 11.8246L7.59724 11.7932L7.6287 11.7617L7.66022 11.7302L7.69179 11.6986L7.72342 11.667L7.75511 11.6353L7.78685 11.6036L7.81864 11.5718L7.85049 11.5399L7.88239 11.508L7.91434 11.4761L7.94635 11.4441L7.9784 11.412L8.01051 11.3799L8.04267 11.3478L8.07488 11.3156L8.10714 11.2833L8.13945 11.251L8.17181 11.2186L8.20421 11.1862L8.23667 11.1538L8.26917 11.1213L8.30172 11.0887L8.33431 11.0561L8.36695 11.0235L8.39964 10.9908L8.43237 10.9581L8.46515 10.9253L8.49796 10.8925L8.53083 10.8596L8.56373 10.8267L8.59668 10.7938L8.62967 10.7608L8.6627 10.7277L8.69578 10.6947L8.71459 10.6758L14.636 16.5973C15.2031 17.1644 16.1225 17.1644 16.6895 16.5973C17.2566 16.0302 17.2566 15.1108 16.6895 14.5438L10.7681 8.62233L10.7713 8.61914L10.806 8.58448L10.8406 8.54981L10.8753 8.51513L10.91 8.48045L10.9447 8.44575L10.9794 8.41105L11.0141 8.37634L11.0488 8.34162L11.0835 8.30689L11.1183 8.27216L11.153 8.23742L11.1878 8.20268L11.2225 8.16793L11.2573 8.13318L11.292 8.09843L11.3268 8.06367L11.3615 8.02891L11.3963 7.99414L11.4311 7.95938L11.4658 7.92461L11.5006 7.88984L11.5354 7.85507L11.5701 7.82031L11.6049 7.78554L11.6397 7.75077L11.6744 7.71601L11.7092 7.68124L11.744 7.64649L11.7787 7.61173L11.8135 7.57698L11.8482 7.54223L11.883 7.50748L11.9177 7.47274L11.9524 7.43801L11.9872 7.40328L12.0219 7.36856L12.0566 7.33385L12.0913 7.29914L12.126 7.26444L12.1607 7.22975L12.1954 7.19507L12.23 7.1604L12.2647 7.12573L12.2994 7.09108L12.334 7.05644L12.3686 7.02181L12.4032 6.9872L12.4378 6.95259L12.4724 6.918L12.507 6.88342L12.5416 6.84886L12.5761 6.81431L12.6107 6.77977L12.6452 6.74525L12.6797 6.71075L12.7142 6.67626L12.7486 6.64179L12.7831 6.60733L12.8175 6.5729L12.852 6.53848L12.8864 6.50408L12.9207 6.4697L12.9551 6.43534L12.9894 6.401L13.0238 6.36668L13.058 6.33239L13.0923 6.29811L13.1266 6.26386L13.1608 6.22963L13.195 6.19542L13.2292 6.16124L13.2634 6.12708L13.2975 6.09294L13.3316 6.05883L13.3657 6.02475L13.3997 5.99069L13.4338 5.95666L13.4678 5.92265L13.5018 5.88867L13.5357 5.85473L13.5696 5.82081L13.6035 5.78691L13.6374 5.75305L13.6712 5.71922L13.705 5.68542L13.7388 5.65165L13.7725 5.61791L13.8062 5.5842L13.8399 5.55053L13.8735 5.51689L13.9072 5.48328L13.9407 5.44971L13.9743 5.41617L14.0078 5.38267L14.0412 5.3492L14.0747 5.31576L14.1081 5.28237L14.1414 5.24901L14.1748 5.21569L14.208 5.1824L14.2413 5.14916L14.2745 5.11595L14.3077 5.08278L14.3408 5.04965L14.3739 5.01657L14.4069 4.98352L14.4399 4.95052L14.4729 4.91755L14.5058 4.88463L14.5387 4.85175L14.5715 4.81892L14.6043 4.78613L14.6371 4.75338L14.6698 4.72068L14.7024 4.68802L14.735 4.65541L14.7676 4.62284L14.8001 4.59033L14.8326 4.55786L14.865 4.52543L14.8974 4.49306L14.9297 4.46073L14.962 4.42845L14.9942 4.39623L15.0264 4.36405L15.0585 4.33192L15.0906 4.29984L15.1226 4.26782L15.1546 4.23585L15.1865 4.20393L15.2184 4.17206L15.2502 4.14025L15.2819 4.10849L15.3136 4.07679L15.3453 4.04514L15.3769 4.01354L15.4084 3.98201L15.4399 3.95053L15.4713 3.9191L15.5027 3.88774L15.534 3.85643L15.5653 3.82518L15.5965 3.79399L15.6276 3.76285L15.6587 3.73178L15.6897 3.70077L15.7206 3.66982L15.7515 3.63893L15.7823 3.6081L15.8131 3.57734L15.8438 3.54664L15.8744 3.516L15.905 3.48543L15.9355 3.45492L15.966 3.42447L15.9963 3.39409L16.0267 3.36378Z" fill="#4F698F"/>
</svg>
