<svg width="381" height="194" viewBox="0 0 381 194" fill="none" xmlns="http://www.w3.org/2000/svg">
<path d="M58.2038 154C58.7798 154 59.2598 153.544 59.2598 152.944C59.2598 152.368 58.7798 151.912 58.2038 151.912H52.3958V138.472C52.3958 137.848 51.9158 137.344 51.2678 137.344C50.6438 137.344 50.1638 137.848 50.1638 138.472V152.848C50.1638 153.472 50.6918 154 51.2918 154H58.2038ZM68.7332 153.016C68.7332 153.616 69.2132 154.12 69.8372 154.12C70.4372 154.12 70.9172 153.616 70.9172 153.016V143.776C70.9172 143.176 70.4372 142.672 69.8372 142.672C69.2132 142.672 68.7332 143.176 68.7332 143.776V148.84C68.7332 151.216 67.1492 152.104 65.5652 152.104C64.0292 152.104 63.0932 151 63.0932 149.128V143.776C63.0932 143.176 62.6132 142.672 62.0132 142.672C61.3892 142.672 60.9092 143.176 60.9092 143.776V149.272C60.9092 152.416 62.4452 154.24 65.2292 154.24C66.4532 154.24 68.0612 153.664 68.7332 152.32V153.016ZM62.1332 139.528C62.1332 140.344 62.8052 140.944 63.6212 140.944C64.4132 140.944 65.0852 140.344 65.0852 139.528C65.0852 138.712 64.4132 138.112 63.6212 138.112C62.8052 138.112 62.1332 138.712 62.1332 139.528ZM66.8852 139.528C66.8852 140.344 67.5572 140.944 68.3732 140.944C69.1892 140.944 69.8612 140.344 69.8612 139.528C69.8612 138.712 69.1892 138.112 68.3732 138.112C67.5572 138.112 66.8852 138.712 66.8852 139.528ZM75.2046 144.64V153.016C75.2046 153.616 75.6846 154.12 76.2846 154.12C76.9086 154.12 77.3886 153.616 77.3886 153.016V144.64H78.9726C79.4766 144.64 79.9086 144.232 79.9086 143.728C79.9086 143.2 79.4766 142.792 78.9726 142.792H77.3886V139.552C77.3886 138.952 76.9086 138.448 76.2846 138.448C75.6846 138.448 75.2046 138.952 75.2046 139.552V142.792H74.0046C73.5006 142.792 73.0686 143.2 73.0686 143.704C73.0686 144.232 73.5006 144.64 74.0046 144.64H75.2046ZM85.1018 144.64H87.0458C87.5498 144.64 87.9818 144.232 87.9818 143.728C87.9818 143.2 87.5498 142.792 87.0458 142.792H85.1018V141.544C85.0778 140.104 85.4138 138.664 87.2138 138.664H87.5258C88.1018 138.664 88.5818 138.208 88.5818 137.632C88.5818 137.032 88.1018 136.576 87.5258 136.576H87.2138C84.1898 136.576 82.9178 138.592 82.9178 141.544V142.792H81.5738C81.0698 142.792 80.6378 143.2 80.6378 143.704C80.6378 144.232 81.0698 144.64 81.5738 144.64H82.9178V153.016C82.9178 153.616 83.3978 154.12 83.9978 154.12C84.6218 154.12 85.1018 153.616 85.1018 153.016V144.64ZM91.299 147.52C91.563 145.648 93.003 144.52 94.851 144.52C96.651 144.52 97.995 145.648 98.259 147.52H91.299ZM100.419 148.36C100.419 144.808 98.043 142.552 94.851 142.552C91.659 142.552 89.115 144.808 89.115 148.36C89.115 151.912 91.659 154.24 94.851 154.24C96.675 154.24 98.355 153.568 99.435 152.176C99.771 151.792 99.675 151.144 99.243 150.808C98.811 150.496 98.187 150.64 97.779 151.096C97.011 151.936 96.267 152.272 94.923 152.272C93.027 152.272 91.563 151.096 91.299 149.224H99.555C100.011 149.224 100.419 148.864 100.419 148.36ZM105.166 143.776C105.166 143.176 104.686 142.672 104.062 142.672C103.462 142.672 102.982 143.176 102.982 143.776V153.016C102.982 153.616 103.462 154.12 104.062 154.12C104.686 154.12 105.166 153.616 105.166 153.016V147.952C105.166 145.576 106.75 144.688 108.334 144.688C109.87 144.688 110.806 145.792 110.806 147.664V153.016C110.806 153.616 111.286 154.12 111.886 154.12C112.51 154.12 112.99 153.616 112.99 153.016V147.52C112.99 144.376 111.454 142.552 108.67 142.552C107.446 142.552 105.838 143.128 105.166 144.472V143.776ZM123.993 148.432C123.993 146.176 125.769 144.664 127.785 144.664C128.577 144.664 129.321 144.904 129.921 145.336C130.425 145.696 131.097 145.624 131.457 145.24C131.865 144.784 131.817 144.016 131.337 143.68C130.329 142.984 129.129 142.552 127.785 142.552C124.617 142.552 121.881 144.856 121.857 148.36C121.857 151.912 124.593 154.24 127.785 154.24C129.129 154.24 130.353 153.832 131.337 153.112C131.817 152.776 131.865 152.008 131.457 151.552C131.049 151.096 130.449 151.12 129.921 151.456C129.321 151.888 128.577 152.128 127.785 152.128C125.793 152.128 124.041 150.64 123.993 148.432ZM133.956 138.688C133.956 139.504 134.652 140.104 135.468 140.104C136.308 140.104 136.98 139.504 136.98 138.688C136.98 137.872 136.308 137.272 135.468 137.272C134.652 137.272 133.956 137.872 133.956 138.688ZM136.572 153.016C136.572 153.616 136.092 154.12 135.468 154.12C134.868 154.12 134.388 153.616 134.388 153.016V143.776C134.388 143.176 134.868 142.672 135.468 142.672C136.092 142.672 136.572 143.176 136.572 143.776V153.016ZM150.476 147.52C150.5 144.376 148.748 142.552 145.94 142.552C144.716 142.552 142.916 143.128 142.244 144.472V137.68C142.244 137.08 141.764 136.576 141.14 136.576C140.54 136.576 140.06 137.08 140.06 137.68V153.016C140.06 153.616 140.54 154.12 141.14 154.12C141.764 154.12 142.244 153.616 142.244 153.016V147.952C142.244 145.552 144.116 144.688 145.652 144.688C147.188 144.688 148.292 145.816 148.292 147.664V153.016C148.292 153.616 148.772 154.12 149.372 154.12C149.996 154.12 150.476 153.616 150.476 153.016V147.52ZM162.817 153.016C162.817 153.616 163.297 154.12 163.897 154.12C164.521 154.12 165.001 153.616 165.001 153.016V143.776C165.001 143.176 164.521 142.672 163.897 142.672C163.297 142.672 162.817 143.176 162.817 143.776V144.472C162.073 143.2 160.441 142.552 158.881 142.552C155.809 142.552 153.193 144.808 153.193 148.384C153.193 151.936 155.809 154.24 158.881 154.24C160.441 154.24 162.073 153.544 162.817 152.272V153.016ZM162.793 148.36C162.793 150.736 161.065 152.104 159.073 152.104C157.057 152.104 155.425 150.568 155.425 148.36C155.425 146.128 157.057 144.688 159.073 144.688C160.873 144.688 162.793 145.96 162.793 148.36ZM168.106 151.744C167.746 152.152 167.578 152.488 167.578 152.92V152.968C167.578 153.544 168.106 154 168.802 154H176.626C177.202 154 177.682 153.544 177.682 152.968C177.682 152.368 177.202 151.912 176.626 151.912H170.77L177.154 145.048C177.514 144.64 177.682 144.304 177.682 143.872V143.824C177.682 143.248 177.154 142.792 176.458 142.792H169.018C168.442 142.792 167.962 143.248 167.962 143.848C167.962 144.424 168.442 144.88 169.018 144.88H174.37L168.106 151.744ZM182.603 143.776C182.603 143.176 182.123 142.672 181.499 142.672C180.899 142.672 180.419 143.176 180.419 143.776V153.016C180.419 153.616 180.899 154.12 181.499 154.12C182.123 154.12 182.603 153.616 182.603 153.016V143.776ZM188.252 143.776C188.252 143.176 187.772 142.672 187.148 142.672C186.548 142.672 186.068 143.176 186.068 143.776V153.016C186.068 153.616 186.548 154.12 187.148 154.12C187.772 154.12 188.252 153.616 188.252 153.016V147.952C188.252 145.576 189.836 144.688 191.42 144.688C192.956 144.688 193.892 145.792 193.892 147.664V153.016C193.892 153.616 194.372 154.12 194.972 154.12C195.596 154.12 196.076 153.616 196.076 153.016V147.52C196.076 144.376 194.54 142.552 191.756 142.552C190.532 142.552 188.924 143.128 188.252 144.472V143.776ZM201.611 143.776C201.611 143.176 201.131 142.672 200.507 142.672C199.907 142.672 199.427 143.176 199.427 143.776V153.016C199.427 153.616 199.907 154.12 200.507 154.12C201.131 154.12 201.611 153.616 201.611 153.016V143.776ZM204.716 151.744C204.356 152.152 204.188 152.488 204.188 152.92V152.968C204.188 153.544 204.716 154 205.412 154H213.236C213.812 154 214.292 153.544 214.292 152.968C214.292 152.368 213.812 151.912 213.236 151.912H207.38L213.764 145.048C214.124 144.64 214.292 144.304 214.292 143.872V143.824C214.292 143.248 213.764 142.792 213.068 142.792H205.628C205.052 142.792 204.572 143.248 204.572 143.848C204.572 144.424 205.052 144.88 205.628 144.88H210.98L204.716 151.744ZM219.213 143.776C219.213 143.176 218.733 142.672 218.109 142.672C217.509 142.672 217.029 143.176 217.029 143.776V153.016C217.029 153.616 217.509 154.12 218.109 154.12C218.733 154.12 219.213 153.616 219.213 153.016V143.776ZM237.817 144.472C237.073 143.2 235.513 142.552 233.881 142.552C230.785 142.552 228.217 144.808 228.217 148.384C228.217 151.936 230.833 154.24 233.905 154.24C235.465 154.24 237.073 153.544 237.817 152.272V153.016C237.817 153.616 238.297 154.12 238.921 154.12C239.521 154.12 240.001 153.616 240.001 153.016V137.68C240.001 137.08 239.521 136.576 238.921 136.576C238.297 136.576 237.817 137.08 237.817 137.68V144.472ZM237.793 148.36C237.793 150.736 236.065 152.104 234.073 152.104C232.057 152.104 230.449 150.568 230.449 148.36C230.449 146.128 232.057 144.688 234.073 144.688C235.873 144.688 237.793 145.96 237.793 148.36ZM248.721 154.24C245.529 154.24 242.865 151.912 242.865 148.36C242.865 144.808 245.529 142.552 248.721 142.552C251.913 142.552 254.601 144.808 254.601 148.36C254.601 151.912 251.913 154.24 248.721 154.24ZM248.721 152.128C250.737 152.128 252.417 150.64 252.417 148.36C252.417 146.104 250.737 144.688 248.721 144.688C246.705 144.688 245.025 146.104 245.025 148.36C245.025 150.64 246.705 152.128 248.721 152.128ZM244.857 139.528C244.857 140.344 245.529 140.944 246.345 140.944C247.137 140.944 247.809 140.344 247.809 139.528C247.809 138.712 247.137 138.112 246.345 138.112C245.529 138.112 244.857 138.712 244.857 139.528ZM249.609 139.528C249.609 140.344 250.281 140.944 251.097 140.944C251.913 140.944 252.585 140.344 252.585 139.528C252.585 138.712 251.913 138.112 251.097 138.112C250.281 138.112 249.609 138.712 249.609 139.528ZM259.595 143.776C259.595 143.176 259.115 142.672 258.491 142.672C257.891 142.672 257.411 143.176 257.411 143.776V153.016C257.411 153.616 257.891 154.12 258.491 154.12C259.115 154.12 259.595 153.616 259.595 153.016V147.952C259.595 145.576 261.179 144.688 262.763 144.688C264.299 144.688 265.235 145.792 265.235 147.664V153.016C265.235 153.616 265.715 154.12 266.315 154.12C266.939 154.12 267.419 153.616 267.419 153.016V147.52C267.419 144.376 265.883 142.552 263.099 142.552C261.875 142.552 260.267 143.128 259.595 144.472V143.776ZM279.723 144.472C278.979 143.2 277.419 142.552 275.787 142.552C272.691 142.552 270.123 144.808 270.123 148.384C270.123 151.936 272.739 154.24 275.811 154.24C277.371 154.24 278.979 153.544 279.723 152.272V153.016C279.723 153.616 280.203 154.12 280.827 154.12C281.427 154.12 281.907 153.616 281.907 153.016V137.68C281.907 137.08 281.427 136.576 280.827 136.576C280.203 136.576 279.723 137.08 279.723 137.68V144.472ZM279.699 148.36C279.699 150.736 277.971 152.104 275.979 152.104C273.963 152.104 272.355 150.568 272.355 148.36C272.355 146.128 273.963 144.688 275.979 144.688C277.779 144.688 279.699 145.96 279.699 148.36ZM293.147 153.016C293.147 153.616 293.627 154.12 294.251 154.12C294.851 154.12 295.331 153.616 295.331 153.016V143.776C295.331 143.176 294.851 142.672 294.251 142.672C293.627 142.672 293.147 143.176 293.147 143.776V148.84C293.147 151.216 291.563 152.104 289.979 152.104C288.443 152.104 287.507 151 287.507 149.128V143.776C287.507 143.176 287.027 142.672 286.427 142.672C285.803 142.672 285.323 143.176 285.323 143.776V149.272C285.323 152.416 286.859 154.24 289.643 154.24C290.867 154.24 292.475 153.664 293.147 152.32V153.016ZM286.547 139.528C286.547 140.344 287.219 140.944 288.035 140.944C288.827 140.944 289.499 140.344 289.499 139.528C289.499 138.712 288.827 138.112 288.035 138.112C287.219 138.112 286.547 138.712 286.547 139.528ZM291.299 139.528C291.299 140.344 291.971 140.944 292.787 140.944C293.603 140.944 294.275 140.344 294.275 139.528C294.275 138.712 293.603 138.112 292.787 138.112C291.971 138.112 291.299 138.712 291.299 139.528ZM304.539 144.664C305.307 144.736 305.931 144.592 306.051 143.896C306.243 142.72 304.899 142.552 304.083 142.552C302.619 142.552 301.539 143.344 300.963 145.312V143.776C300.963 143.176 300.483 142.672 299.859 142.672C299.259 142.672 298.779 143.176 298.779 143.776V153.016C298.779 153.616 299.259 154.12 299.859 154.12C300.483 154.12 300.963 153.616 300.963 153.016V149.92C300.963 146.944 301.875 144.64 304.035 144.64C304.179 144.64 304.371 144.64 304.539 144.664ZM315.741 153.016C315.741 153.616 316.221 154.12 316.845 154.12C317.445 154.12 317.925 153.616 317.925 153.016V143.776C317.925 143.176 317.445 142.672 316.845 142.672C316.221 142.672 315.741 143.176 315.741 143.776V148.84C315.741 151.216 314.157 152.104 312.573 152.104C311.037 152.104 310.101 151 310.101 149.128V143.776C310.101 143.176 309.621 142.672 309.021 142.672C308.397 142.672 307.917 143.176 307.917 143.776V149.272C307.917 152.416 309.453 154.24 312.237 154.24C313.461 154.24 315.069 153.664 315.741 152.32V153.016ZM309.141 139.528C309.141 140.344 309.813 140.944 310.629 140.944C311.421 140.944 312.093 140.344 312.093 139.528C312.093 138.712 311.421 138.112 310.629 138.112C309.813 138.112 309.141 138.712 309.141 139.528ZM313.893 139.528C313.893 140.344 314.565 140.944 315.381 140.944C316.197 140.944 316.869 140.344 316.869 139.528C316.869 138.712 316.197 138.112 315.381 138.112C314.565 138.112 313.893 138.712 313.893 139.528ZM323.556 143.776C323.556 143.176 323.076 142.672 322.452 142.672C321.852 142.672 321.372 143.176 321.372 143.776V153.016C321.372 153.616 321.852 154.12 322.452 154.12C323.076 154.12 323.556 153.616 323.556 153.016V147.952C323.556 145.576 325.14 144.688 326.724 144.688C328.26 144.688 329.196 145.792 329.196 147.664V153.016C329.196 153.616 329.676 154.12 330.276 154.12C330.9 154.12 331.38 153.616 331.38 153.016V147.52C331.38 144.376 329.844 142.552 327.06 142.552C325.836 142.552 324.228 143.128 323.556 144.472V143.776Z" fill="white"/>
<path opacity="0.7" d="M25.4128 185.608V177.368H28.1968C30.4848 177.368 31.6688 179.192 31.6688 181.512C31.6688 183.832 30.4848 185.608 28.1968 185.608H25.4128ZM28.1968 187C31.3328 187 33.1568 184.632 33.1568 181.512C33.1568 178.376 31.3328 175.976 28.1968 175.976H24.5488C24.2128 175.976 23.9248 176.264 23.9248 176.616V186.36C23.9248 186.712 24.2128 187 24.5488 187H28.1968ZM34.7703 176.792C34.7703 177.336 35.2343 177.736 35.7783 177.736C36.3383 177.736 36.7863 177.336 36.7863 176.792C36.7863 176.248 36.3383 175.848 35.7783 175.848C35.2343 175.848 34.7703 176.248 34.7703 176.792ZM36.5143 186.344C36.5143 186.744 36.1943 187.08 35.7783 187.08C35.3783 187.08 35.0583 186.744 35.0583 186.344V180.184C35.0583 179.784 35.3783 179.448 35.7783 179.448C36.1943 179.448 36.5143 179.784 36.5143 180.184V186.344ZM38.5679 176.776C38.5679 177.32 39.0319 177.72 39.5759 177.72C40.1359 177.72 40.5839 177.32 40.5839 176.776C40.5839 176.232 40.1359 175.832 39.5759 175.832C39.0319 175.832 38.5679 176.232 38.5679 176.776ZM37.6239 190.664C39.6399 190.664 40.2959 189.32 40.2959 187.464V180.184C40.2959 179.784 39.9759 179.448 39.5599 179.448C39.1599 179.448 38.8399 179.784 38.8399 180.184V187.448C38.8559 188.296 38.7119 189.304 37.4959 189.304H37.1919C36.8239 189.304 36.5039 189.608 36.5039 189.992C36.5039 190.36 36.8239 190.664 37.1919 190.664H37.6239ZM42.3328 176.792C42.3328 177.336 42.7968 177.736 43.3408 177.736C43.9008 177.736 44.3488 177.336 44.3488 176.792C44.3488 176.248 43.9008 175.848 43.3408 175.848C42.7968 175.848 42.3328 176.248 42.3328 176.792ZM44.0768 186.344C44.0768 186.744 43.7568 187.08 43.3408 187.08C42.9408 187.08 42.6208 186.744 42.6208 186.344V180.184C42.6208 179.784 42.9408 179.448 43.3408 179.448C43.7568 179.448 44.0768 179.784 44.0768 180.184V186.344ZM46.9464 180.76V186.344C46.9464 186.744 47.2664 187.08 47.6664 187.08C48.0824 187.08 48.4024 186.744 48.4024 186.344V180.76H49.4584C49.7944 180.76 50.0824 180.488 50.0824 180.152C50.0824 179.8 49.7944 179.528 49.4584 179.528H48.4024V177.368C48.4024 176.968 48.0824 176.632 47.6664 176.632C47.2664 176.632 46.9464 176.968 46.9464 177.368V179.528H46.1464C45.8104 179.528 45.5224 179.8 45.5224 180.136C45.5224 180.488 45.8104 180.76 46.1464 180.76H46.9464ZM57.3235 186.344C57.3235 186.744 57.6435 187.08 58.0435 187.08C58.4595 187.08 58.7795 186.744 58.7795 186.344V180.184C58.7795 179.784 58.4595 179.448 58.0435 179.448C57.6435 179.448 57.3235 179.784 57.3235 180.184V180.648C56.8275 179.8 55.7395 179.368 54.6995 179.368C52.6515 179.368 50.9075 180.872 50.9075 183.256C50.9075 185.624 52.6515 187.16 54.6995 187.16C55.7395 187.16 56.8275 186.696 57.3235 185.848V186.344ZM57.3075 183.24C57.3075 184.824 56.1555 185.736 54.8275 185.736C53.4835 185.736 52.3955 184.712 52.3955 183.24C52.3955 181.752 53.4835 180.792 54.8275 180.792C56.0275 180.792 57.3075 181.64 57.3075 183.24ZM62.5615 176.12C62.5615 175.72 62.2415 175.384 61.8255 175.384C61.4255 175.384 61.1055 175.72 61.1055 176.12V186.344C61.1055 186.744 61.4255 187.08 61.8255 187.08C62.2415 187.08 62.5615 186.744 62.5615 186.344V176.12ZM73.9234 180.664C74.1954 180.392 74.2114 179.944 73.9234 179.64C73.6514 179.384 73.2034 179.384 72.9314 179.656L70.4834 182.136V176.12C70.4834 175.72 70.1634 175.384 69.7474 175.384C69.3474 175.384 69.0274 175.72 69.0274 176.12V186.344C69.0274 186.744 69.3474 187.08 69.7474 187.08C70.1634 187.08 70.4834 186.744 70.4834 186.344V183.352L73.7474 186.872C74.0194 187.128 74.4674 187.176 74.7714 186.872C75.0594 186.632 75.0594 186.184 74.8034 185.88L71.8114 182.776L73.9234 180.664ZM76.1921 176.792C76.1921 177.336 76.6561 177.736 77.2001 177.736C77.7601 177.736 78.2081 177.336 78.2081 176.792C78.2081 176.248 77.7601 175.848 77.2001 175.848C76.6561 175.848 76.1921 176.248 76.1921 176.792ZM77.9361 186.344C77.9361 186.744 77.6161 187.08 77.2001 187.08C76.8001 187.08 76.4801 186.744 76.4801 186.344V180.184C76.4801 179.784 76.8001 179.448 77.2001 179.448C77.6161 179.448 77.9361 179.784 77.9361 180.184V186.344ZM80.8058 180.76V186.344C80.8058 186.744 81.1258 187.08 81.5258 187.08C81.9418 187.08 82.2618 186.744 82.2618 186.344V180.76H83.3177C83.6538 180.76 83.9418 180.488 83.9418 180.152C83.9418 179.8 83.6538 179.528 83.3177 179.528H82.2618V177.368C82.2618 176.968 81.9418 176.632 81.5258 176.632C81.1258 176.632 80.8058 176.968 80.8058 177.368V179.528H80.0058C79.6698 179.528 79.3818 179.8 79.3818 180.136C79.3818 180.488 79.6698 180.76 80.0058 180.76H80.8058ZM91.1829 186.344C91.1829 186.744 91.5029 187.08 91.9029 187.08C92.3189 187.08 92.6389 186.744 92.6389 186.344V180.184C92.6389 179.784 92.3189 179.448 91.9029 179.448C91.5029 179.448 91.1829 179.784 91.1829 180.184V180.648C90.6869 179.8 89.5989 179.368 88.5589 179.368C86.5109 179.368 84.7669 180.872 84.7669 183.256C84.7669 185.624 86.5109 187.16 88.5589 187.16C89.5989 187.16 90.6869 186.696 91.1829 185.848V186.344ZM91.1669 183.24C91.1669 184.824 90.0149 185.736 88.6869 185.736C87.3429 185.736 86.2549 184.712 86.2549 183.24C86.2549 181.752 87.3429 180.792 88.6869 180.792C89.8869 180.792 91.1669 181.64 91.1669 183.24ZM96.4369 183.304C96.4369 181.72 97.5729 180.792 98.8849 180.792C100.229 180.792 101.301 181.816 101.301 183.304C101.301 184.792 100.229 185.736 98.8849 185.736C97.6849 185.736 96.4369 184.904 96.4369 183.304ZM96.4209 185.88C96.9169 186.744 97.9889 187.16 99.0289 187.16C101.077 187.16 102.773 185.656 102.773 183.288C102.773 180.92 101.077 179.368 99.0289 179.368C97.9889 179.368 96.9169 179.848 96.4209 180.696V180.184C96.4209 179.784 96.1009 179.448 95.6849 179.448C95.2849 179.448 94.9649 179.784 94.9649 180.184V189.944C94.9649 190.344 95.2849 190.68 95.6849 190.68C96.1009 190.68 96.4209 190.344 96.4209 189.944V185.88ZM106.064 185.928C106.064 185.896 106.064 185.864 106.064 185.848C106.064 185.416 105.728 185.08 105.264 185.08C104.88 185.08 104.544 185.384 104.512 185.784C104.432 186.84 104.096 187.704 103.632 188.392C103.568 188.488 103.536 188.616 103.536 188.712C103.536 188.888 103.776 189.016 104 189.016C104.608 189.016 105.824 188.008 106.064 185.928ZM112.763 179.944C112.603 179.544 112.235 179.368 111.835 179.48C111.451 179.592 111.275 180.056 111.403 180.424L114.027 186.776L112.843 189.688C112.699 190.056 112.843 190.472 113.195 190.632C113.579 190.776 113.995 190.6 114.139 190.232L118.235 180.44C118.395 180.072 118.235 179.64 117.851 179.496C117.483 179.352 117.051 179.528 116.907 179.896L114.827 184.936L112.763 179.944ZM125.73 186.344C125.73 186.744 126.05 187.08 126.45 187.08C126.866 187.08 127.186 186.744 127.186 186.344V180.184C127.186 179.784 126.866 179.448 126.45 179.448C126.05 179.448 125.73 179.784 125.73 180.184V180.648C125.234 179.8 124.146 179.368 123.106 179.368C121.058 179.368 119.314 180.872 119.314 183.256C119.314 185.624 121.058 187.16 123.106 187.16C124.146 187.16 125.234 186.696 125.73 185.848V186.344ZM125.714 183.24C125.714 184.824 124.562 185.736 123.234 185.736C121.89 185.736 120.802 184.712 120.802 183.24C120.802 181.752 121.89 180.792 123.234 180.792C124.434 180.792 125.714 181.64 125.714 183.24ZM130.056 180.76V186.344C130.056 186.744 130.376 187.08 130.776 187.08C131.192 187.08 131.512 186.744 131.512 186.344V180.76H132.568C132.904 180.76 133.192 180.488 133.192 180.152C133.192 179.8 132.904 179.528 132.568 179.528H131.512V177.368C131.512 176.968 131.192 176.632 130.776 176.632C130.376 176.632 130.056 176.968 130.056 177.368V179.528H129.256C128.92 179.528 128.632 179.8 128.632 180.136C128.632 180.488 128.92 180.76 129.256 180.76H130.056ZM140.433 186.344C140.433 186.744 140.753 187.08 141.153 187.08C141.569 187.08 141.889 186.744 141.889 186.344V180.184C141.889 179.784 141.569 179.448 141.153 179.448C140.753 179.448 140.433 179.784 140.433 180.184V180.648C139.937 179.8 138.849 179.368 137.809 179.368C135.761 179.368 134.017 180.872 134.017 183.256C134.017 185.624 135.761 187.16 137.809 187.16C138.849 187.16 139.937 186.696 140.433 185.848V186.344ZM140.417 183.24C140.417 184.824 139.265 185.736 137.937 185.736C136.593 185.736 135.505 184.712 135.505 183.24C135.505 181.752 136.593 180.792 137.937 180.792C139.137 180.792 140.417 181.64 140.417 183.24ZM144.919 179.944C144.759 179.544 144.391 179.368 143.991 179.48C143.607 179.592 143.431 180.056 143.559 180.424L146.183 186.776L144.999 189.688C144.855 190.056 144.999 190.472 145.351 190.632C145.735 190.776 146.151 190.6 146.295 190.232L150.391 180.44C150.551 180.072 150.391 179.64 150.007 179.496C149.639 179.352 149.207 179.528 149.063 179.896L146.983 184.936L144.919 179.944ZM155.824 186.344C155.824 186.744 156.144 187.08 156.544 187.08C156.96 187.08 157.28 186.744 157.28 186.344V182.968C157.28 181.4 158.32 180.76 159.36 180.76C160.336 180.76 160.976 181.528 160.976 182.76V186.344C160.976 186.744 161.296 187.08 161.696 187.08C162.112 187.08 162.432 186.744 162.432 186.344V182.968C162.432 181.72 163.184 180.776 164.416 180.792C165.488 180.792 166.128 181.544 166.128 182.776V186.344C166.128 186.744 166.448 187.08 166.848 187.08C167.264 187.08 167.584 186.744 167.584 186.344V182.68C167.584 180.584 166.576 179.368 164.704 179.368C163.968 179.368 162.8 179.576 162.112 180.904C161.76 180.088 161.104 179.56 160.16 179.416C159.904 179.368 159.632 179.352 159.344 179.368C158.736 179.416 157.68 179.816 157.28 180.648V180.184C157.28 179.784 156.96 179.448 156.544 179.448C156.144 179.448 155.824 179.784 155.824 180.184V186.344ZM173.296 187.16C175.424 187.16 177.216 185.608 177.216 183.24C177.216 180.872 175.424 179.368 173.296 179.368C171.168 179.368 169.392 180.872 169.392 183.24C169.392 185.608 171.168 187.16 173.296 187.16ZM173.296 185.752C171.952 185.752 170.832 184.76 170.832 183.24C170.832 181.736 171.952 180.792 173.296 180.792C174.64 180.792 175.76 181.736 175.76 183.24C175.76 184.76 174.64 185.752 173.296 185.752ZM185.058 180.648C184.562 179.8 183.522 179.368 182.434 179.368C180.37 179.368 178.658 180.872 178.658 183.256C178.658 185.624 180.402 187.16 182.45 187.16C183.49 187.16 184.562 186.696 185.058 185.848V186.344C185.058 186.744 185.378 187.08 185.794 187.08C186.194 187.08 186.514 186.744 186.514 186.344V176.12C186.514 175.72 186.194 175.384 185.794 175.384C185.378 175.384 185.058 175.72 185.058 176.12V180.648ZM185.042 183.24C185.042 184.824 183.89 185.736 182.562 185.736C181.218 185.736 180.146 184.712 180.146 183.24C180.146 181.752 181.218 180.792 182.562 180.792C183.762 180.792 185.042 181.64 185.042 183.24ZM192.692 176.792C192.692 177.336 193.156 177.736 193.7 177.736C194.26 177.736 194.708 177.336 194.708 176.792C194.708 176.248 194.26 175.848 193.7 175.848C193.156 175.848 192.692 176.248 192.692 176.792ZM194.436 186.344C194.436 186.744 194.116 187.08 193.7 187.08C193.3 187.08 192.98 186.744 192.98 186.344V180.184C192.98 179.784 193.3 179.448 193.7 179.448C194.116 179.448 194.436 179.784 194.436 180.184V186.344ZM200.746 187.128C201.45 187.048 202.09 186.808 202.618 186.408C202.938 186.184 202.97 185.672 202.698 185.368C202.426 185.064 202.026 185.08 201.674 185.304C201.274 185.592 200.778 185.752 200.25 185.752C198.922 185.752 197.754 184.76 197.722 183.288C197.722 181.784 198.906 180.776 200.25 180.776C200.778 180.776 201.274 180.936 201.674 181.224C202.01 181.464 202.458 181.416 202.698 181.16C202.97 180.856 202.938 180.344 202.618 180.12C201.946 179.656 201.146 179.368 200.25 179.368C198.138 179.368 196.314 180.904 196.298 183.24C196.298 185.464 197.898 186.968 199.85 187.144L200.234 188.44C200.25 188.504 200.266 188.6 200.266 188.664C200.266 188.952 200.026 189.224 199.626 189.224C199.45 189.224 199.21 189.16 199.098 188.872C199.018 188.68 199.018 188.296 198.522 188.376C198.218 188.424 198.042 188.68 198.09 188.968C198.298 189.752 198.954 190.264 199.626 190.264C200.794 190.264 201.306 189.464 201.306 188.664C201.306 188.456 201.29 188.216 201.178 187.992L200.746 187.128ZM204.364 176.792C204.364 177.336 204.828 177.736 205.372 177.736C205.932 177.736 206.38 177.336 206.38 176.792C206.38 176.248 205.932 175.848 205.372 175.848C204.828 175.848 204.364 176.248 204.364 176.792ZM206.108 186.344C206.108 186.744 205.788 187.08 205.372 187.08C204.972 187.08 204.652 186.744 204.652 186.344V180.184C204.652 179.784 204.972 179.448 205.372 179.448C205.788 179.448 206.108 179.784 206.108 180.184V186.344ZM209.874 180.184C209.874 179.784 209.554 179.448 209.138 179.448C208.738 179.448 208.418 179.784 208.418 180.184V186.344C208.418 186.744 208.738 187.08 209.138 187.08C209.554 187.08 209.874 186.744 209.874 186.344V182.968C209.874 181.384 210.93 180.792 211.986 180.792C213.01 180.792 213.634 181.528 213.634 182.776V186.344C213.634 186.744 213.954 187.08 214.354 187.08C214.77 187.08 215.09 186.744 215.09 186.344V182.68C215.09 180.584 214.066 179.368 212.21 179.368C211.394 179.368 210.322 179.752 209.874 180.648V180.184ZM224.921 187.16C222.793 187.16 221.017 185.608 221.017 183.24C221.017 180.872 222.793 179.368 224.921 179.368C227.049 179.368 228.841 180.872 228.841 183.24C228.841 185.608 227.049 187.16 224.921 187.16ZM224.921 185.752C226.265 185.752 227.385 184.76 227.385 183.24C227.385 181.736 226.265 180.792 224.921 180.792C223.577 180.792 222.457 181.736 222.457 183.24C222.457 184.76 223.577 185.752 224.921 185.752ZM222.345 177.352C222.345 177.896 222.793 178.296 223.337 178.296C223.865 178.296 224.313 177.896 224.313 177.352C224.313 176.808 223.865 176.408 223.337 176.408C222.793 176.408 222.345 176.808 222.345 177.352ZM225.513 177.352C225.513 177.896 225.961 178.296 226.505 178.296C227.049 178.296 227.497 177.896 227.497 177.352C227.497 176.808 227.049 176.408 226.505 176.408C225.961 176.408 225.513 176.808 225.513 177.352ZM230.35 185.496C230.11 185.768 229.998 185.992 229.998 186.28V186.312C229.998 186.696 230.35 187 230.814 187H236.03C236.414 187 236.734 186.696 236.734 186.312C236.734 185.912 236.414 185.608 236.03 185.608H232.126L236.382 181.032C236.622 180.76 236.734 180.536 236.734 180.248V180.216C236.734 179.832 236.382 179.528 235.918 179.528H230.958C230.574 179.528 230.254 179.832 230.254 180.232C230.254 180.616 230.574 180.92 230.958 180.92H234.526L230.35 185.496ZM239.457 182.68C239.633 181.432 240.593 180.68 241.825 180.68C243.025 180.68 243.921 181.432 244.097 182.68H239.457ZM245.537 183.24C245.537 180.872 243.953 179.368 241.825 179.368C239.697 179.368 238.001 180.872 238.001 183.24C238.001 185.608 239.697 187.16 241.825 187.16C243.041 187.16 244.161 186.712 244.881 185.784C245.105 185.528 245.041 185.096 244.753 184.872C244.465 184.664 244.049 184.76 243.777 185.064C243.265 185.624 242.769 185.848 241.873 185.848C240.609 185.848 239.633 185.064 239.457 183.816H244.961C245.265 183.816 245.537 183.576 245.537 183.24ZM248.718 176.12C248.718 175.72 248.398 175.384 247.982 175.384C247.582 175.384 247.262 175.72 247.262 176.12V186.344C247.262 186.744 247.582 187.08 247.982 187.08C248.398 187.08 248.718 186.744 248.718 186.344V176.12ZM255.571 180.76V186.344C255.571 186.744 255.891 187.08 256.291 187.08C256.707 187.08 257.027 186.744 257.027 186.344V180.76H258.083C258.419 180.76 258.707 180.488 258.707 180.152C258.707 179.8 258.419 179.528 258.083 179.528H257.027V177.368C257.027 176.968 256.707 176.632 256.291 176.632C255.891 176.632 255.571 176.968 255.571 177.368V179.528H254.771C254.435 179.528 254.147 179.8 254.147 180.136C254.147 180.488 254.435 180.76 254.771 180.76H255.571ZM265.949 186.344C265.949 186.744 266.269 187.08 266.669 187.08C267.085 187.08 267.405 186.744 267.405 186.344V180.184C267.405 179.784 267.085 179.448 266.669 179.448C266.269 179.448 265.949 179.784 265.949 180.184V180.648C265.453 179.8 264.365 179.368 263.325 179.368C261.277 179.368 259.533 180.872 259.533 183.256C259.533 185.624 261.277 187.16 263.325 187.16C264.365 187.16 265.453 186.696 265.949 185.848V186.344ZM265.933 183.24C265.933 184.824 264.781 185.736 263.453 185.736C262.109 185.736 261.021 184.712 261.021 183.24C261.021 181.752 262.109 180.792 263.453 180.792C264.653 180.792 265.933 181.64 265.933 183.24ZM270.579 184.984C270.467 184.696 270.211 184.568 269.955 184.568C269.618 184.568 269.251 184.76 269.251 185.144C269.251 185.208 269.267 185.288 269.283 185.368C269.635 186.52 270.819 187.16 271.971 187.16C273.523 187.16 274.867 186.312 274.867 184.92C274.867 184.072 274.483 183.128 272.931 182.744L271.827 182.472C271.347 182.36 270.883 182.088 270.883 181.608C270.883 181.048 271.347 180.632 272.051 180.632C272.515 180.632 272.899 180.808 273.235 181.256C273.395 181.464 273.555 181.576 273.763 181.576C273.987 181.576 274.451 181.4 274.451 180.92C274.451 180.824 274.435 180.696 274.371 180.584C273.939 179.72 272.995 179.368 272.019 179.368C270.515 179.368 269.411 180.328 269.411 181.56C269.411 182.744 270.163 183.368 271.427 183.704L272.451 183.944C273.011 184.072 273.443 184.344 273.443 184.888C273.443 185.48 272.883 185.88 272.131 185.88C271.379 185.88 270.787 185.528 270.579 184.984ZM282.62 186.344C282.62 186.744 282.94 187.08 283.34 187.08C283.756 187.08 284.076 186.744 284.076 186.344V180.184C284.076 179.784 283.756 179.448 283.34 179.448C282.94 179.448 282.62 179.784 282.62 180.184V180.648C282.124 179.8 281.036 179.368 279.996 179.368C277.948 179.368 276.204 180.872 276.204 183.256C276.204 185.624 277.948 187.16 279.996 187.16C281.036 187.16 282.124 186.696 282.62 185.848V186.344ZM282.604 183.24C282.604 184.824 281.452 185.736 280.124 185.736C278.78 185.736 277.692 184.712 277.692 183.24C277.692 181.752 278.78 180.792 280.124 180.792C281.324 180.792 282.604 181.64 282.604 183.24ZM290.226 180.776C290.738 180.824 291.154 180.728 291.234 180.264C291.362 179.48 290.466 179.368 289.922 179.368C288.946 179.368 288.226 179.896 287.842 181.208V180.184C287.842 179.784 287.522 179.448 287.106 179.448C286.706 179.448 286.386 179.784 286.386 180.184V186.344C286.386 186.744 286.706 187.08 287.106 187.08C287.522 187.08 287.842 186.744 287.842 186.344V184.28C287.842 182.296 288.45 180.76 289.89 180.76C289.986 180.76 290.114 180.76 290.226 180.776ZM294.015 176.12C294.015 175.72 293.695 175.384 293.279 175.384C292.879 175.384 292.559 175.72 292.559 176.12V186.344C292.559 186.744 292.879 187.08 293.279 187.08C293.695 187.08 294.015 186.744 294.015 186.344V176.12ZM302.324 186.344C302.324 186.744 302.644 187.08 303.044 187.08C303.46 187.08 303.78 186.744 303.78 186.344V180.184C303.78 179.784 303.46 179.448 303.044 179.448C302.644 179.448 302.324 179.784 302.324 180.184V180.648C301.828 179.8 300.74 179.368 299.7 179.368C297.652 179.368 295.908 180.872 295.908 183.256C295.908 185.624 297.652 187.16 299.7 187.16C300.74 187.16 301.828 186.696 302.324 185.848V186.344ZM302.308 183.24C302.308 184.824 301.156 185.736 299.828 185.736C298.484 185.736 297.396 184.712 297.396 183.24C297.396 181.752 298.484 180.792 299.828 180.792C301.028 180.792 302.308 181.64 302.308 183.24ZM307.546 180.184C307.546 179.784 307.226 179.448 306.81 179.448C306.41 179.448 306.09 179.784 306.09 180.184V186.344C306.09 186.744 306.41 187.08 306.81 187.08C307.226 187.08 307.546 186.744 307.546 186.344V182.968C307.546 181.384 308.602 180.792 309.658 180.792C310.682 180.792 311.306 181.528 311.306 182.776V186.344C311.306 186.744 311.626 187.08 312.026 187.08C312.442 187.08 312.762 186.744 312.762 186.344V182.68C312.762 180.584 311.738 179.368 309.882 179.368C309.066 179.368 307.994 179.752 307.546 180.648V180.184ZM314.996 186.344C314.996 186.744 315.316 187.08 315.716 187.08C316.132 187.08 316.452 186.744 316.452 186.344V182.968C316.452 181.4 317.492 180.76 318.532 180.76C319.508 180.76 320.148 181.528 320.148 182.76V186.344C320.148 186.744 320.468 187.08 320.868 187.08C321.284 187.08 321.604 186.744 321.604 186.344V182.968C321.604 181.72 322.356 180.776 323.588 180.792C324.66 180.792 325.3 181.544 325.3 182.776V186.344C325.3 186.744 325.62 187.08 326.02 187.08C326.436 187.08 326.756 186.744 326.756 186.344V182.68C326.756 180.584 325.748 179.368 323.876 179.368C323.14 179.368 321.972 179.576 321.284 180.904C320.932 180.088 320.276 179.56 319.332 179.416C319.076 179.368 318.804 179.352 318.516 179.368C317.908 179.416 316.852 179.816 316.452 180.648V180.184C316.452 179.784 316.132 179.448 315.716 179.448C315.316 179.448 314.996 179.784 314.996 180.184V186.344ZM330.452 180.184C330.452 179.784 330.132 179.448 329.716 179.448C329.316 179.448 328.996 179.784 328.996 180.184V186.344C328.996 186.744 329.316 187.08 329.716 187.08C330.132 187.08 330.452 186.744 330.452 186.344V180.184ZM335.353 188.44C335.369 188.504 335.385 188.6 335.385 188.664C335.385 188.952 335.145 189.224 334.745 189.224C334.569 189.224 334.329 189.16 334.217 188.872C334.137 188.68 334.137 188.296 333.641 188.376C333.337 188.424 333.161 188.68 333.209 188.968C333.417 189.752 334.073 190.264 334.745 190.264C335.913 190.264 336.457 189.528 336.457 188.728C336.457 188.52 336.409 188.216 336.297 187.992L335.833 187.08C337.017 186.84 337.913 186.056 337.913 184.92C337.913 184.072 337.529 183.128 335.977 182.744L334.873 182.472C334.393 182.36 333.929 182.088 333.929 181.608C333.929 181.048 334.393 180.632 335.097 180.632C335.561 180.632 335.945 180.808 336.281 181.256C336.441 181.464 336.601 181.576 336.809 181.576C337.033 181.576 337.497 181.4 337.497 180.92C337.497 180.824 337.481 180.696 337.417 180.584C336.985 179.72 336.041 179.368 335.065 179.368C333.561 179.368 332.457 180.328 332.457 181.56C332.457 182.744 333.209 183.368 334.473 183.704L335.497 183.944C336.057 184.072 336.489 184.344 336.489 184.888C336.489 185.48 335.929 185.88 335.177 185.88C334.425 185.88 333.833 185.528 333.625 184.984C333.513 184.696 333.257 184.568 333.001 184.568C332.665 184.568 332.297 184.76 332.297 185.144C332.297 185.208 332.313 185.288 332.329 185.368C332.665 186.504 333.833 187.144 334.969 187.16L335.353 188.44ZM340.243 180.76V186.344C340.243 186.744 340.563 187.08 340.963 187.08C341.379 187.08 341.699 186.744 341.699 186.344V180.76H342.755C343.091 180.76 343.379 180.488 343.379 180.152C343.379 179.8 343.091 179.528 342.755 179.528H341.699V177.368C341.699 176.968 341.379 176.632 340.963 176.632C340.563 176.632 340.243 176.968 340.243 177.368V179.528H339.443C339.107 179.528 338.819 179.8 338.819 180.136C338.819 180.488 339.107 180.76 339.443 180.76H340.243ZM346.217 180.184C346.217 179.784 345.897 179.448 345.481 179.448C345.081 179.448 344.761 179.784 344.761 180.184V186.344C344.761 186.744 345.081 187.08 345.481 187.08C345.897 187.08 346.217 186.744 346.217 186.344V180.184ZM352.367 180.776C352.879 180.824 353.295 180.728 353.375 180.264C353.503 179.48 352.607 179.368 352.063 179.368C351.087 179.368 350.367 179.896 349.983 181.208V180.184C349.983 179.784 349.663 179.448 349.247 179.448C348.847 179.448 348.527 179.784 348.527 180.184V186.344C348.527 186.744 348.847 187.08 349.247 187.08C349.663 187.08 349.983 186.744 349.983 186.344V184.28C349.983 182.296 350.591 180.76 352.031 180.76C352.127 180.76 352.255 180.76 352.367 180.776Z" fill="white"/>
<path opacity="0.3" fill-rule="evenodd" clip-rule="evenodd" d="M139 0.5C132.649 0.5 127.5 5.64873 127.5 12V78C127.5 84.3513 132.649 89.5 139 89.5H151.16C152.541 89.5 153.66 88.3807 153.66 87C153.66 85.6193 152.541 84.5 151.16 84.5H139C135.41 84.5 132.5 81.5899 132.5 78V12C132.5 8.41015 135.41 5.5 139 5.5H140.325L141.713 7.63496C142.266 8.48634 143.213 9 144.228 9H161.772C162.787 9 163.734 8.48634 164.287 7.63496L165.675 5.5H167C170.59 5.5 173.5 8.41015 173.5 12V36C173.5 37.3807 174.619 38.5 176 38.5C177.381 38.5 178.5 37.3807 178.5 36V12C178.5 5.64873 173.351 0.5 167 0.5H139Z" fill="white"/>
<path d="M214 93L238 93C242.971 93 247 88.9706 247 84L247 56C247 51.0294 242.971 47 238 47L172 47C167.029 47 163 51.0294 163 56L163 68.16" stroke="white" stroke-width="5" stroke-linecap="round"/>
<path d="M196 47L172 47C167.029 47 163 51.0294 163 56L163 84C163 88.9706 167.029 93 172 93L238 93C242.971 93 247 88.9706 247 84L247 71.84" stroke="white" stroke-width="5" stroke-linecap="round"/>
<path fill-rule="evenodd" clip-rule="evenodd" d="M245 57L245 83L242.365 81.2873C241.514 80.7339 241 79.7874 241 78.7719L241 61.2281C241 60.2126 241.514 59.2661 242.365 58.7127L245 57Z" fill="white"/>
<path d="M211.143 35.7654C211.143 23.2554 201.98 12.8853 190 11" stroke="white" stroke-width="3" stroke-linecap="round"/>
<path d="M205 32.0513L210.36 36.5178C210.731 36.8268 211.269 36.8268 211.64 36.5178L217 32.0513" stroke="white" stroke-width="3" stroke-linecap="round"/>
</svg>
