<svg width="334" height="117" viewBox="0 0 334 117" fill="none" xmlns="http://www.w3.org/2000/svg">
<path opacity="0.7" d="M39.3608 83.87C39.6968 83.87 39.9768 83.604 39.9768 83.268C39.9768 82.918 39.6968 82.652 39.3608 82.652H36.0288V79.572H39.8928C40.2288 79.572 40.5088 79.306 40.5088 78.956C40.5088 78.62 40.2288 78.354 39.8928 78.354H35.3848C35.0348 78.354 34.7268 78.662 34.7268 79.026V87.328C34.7268 87.692 35.0348 88 35.3848 88H40.0608C40.3968 88 40.6768 87.734 40.6768 87.398C40.6768 87.048 40.3968 86.782 40.0608 86.782H36.0288V83.87H39.3608ZM46.5521 82.456C46.7901 82.218 46.8041 81.826 46.5521 81.56C46.3141 81.336 45.9221 81.336 45.6841 81.574L43.5421 83.744V78.48C43.5421 78.13 43.2621 77.836 42.8981 77.836C42.5481 77.836 42.2681 78.13 42.2681 78.48V87.426C42.2681 87.776 42.5481 88.07 42.8981 88.07C43.2621 88.07 43.5421 87.776 43.5421 87.426V84.808L46.3981 87.888C46.6361 88.112 47.0281 88.154 47.2941 87.888C47.5461 87.678 47.5461 87.286 47.3221 87.02L44.7041 84.304L46.5521 82.456ZM52.1493 82.554C52.5973 82.596 52.9613 82.512 53.0313 82.106C53.1433 81.42 52.3593 81.322 51.8833 81.322C51.0293 81.322 50.3993 81.784 50.0633 82.932V82.036C50.0633 81.686 49.7833 81.392 49.4193 81.392C49.0693 81.392 48.7893 81.686 48.7893 82.036V87.426C48.7893 87.776 49.0693 88.07 49.4193 88.07C49.7833 88.07 50.0633 87.776 50.0633 87.426V85.62C50.0633 83.884 50.5953 82.54 51.8553 82.54C51.9393 82.54 52.0513 82.54 52.1493 82.554ZM59.1932 87.426C59.1932 87.776 59.4732 88.07 59.8232 88.07C60.1872 88.07 60.4672 87.776 60.4672 87.426V82.036C60.4672 81.686 60.1872 81.392 59.8232 81.392C59.4732 81.392 59.1932 81.686 59.1932 82.036V82.442C58.7592 81.7 57.8072 81.322 56.8972 81.322C55.1052 81.322 53.5792 82.638 53.5792 84.724C53.5792 86.796 55.1052 88.14 56.8972 88.14C57.8072 88.14 58.7592 87.734 59.1932 86.992V87.426ZM59.1792 84.71C59.1792 86.096 58.1712 86.894 57.0092 86.894C55.8332 86.894 54.8812 85.998 54.8812 84.71C54.8812 83.408 55.8332 82.568 57.0092 82.568C58.0592 82.568 59.1792 83.31 59.1792 84.71ZM63.7625 82.036C63.7625 81.686 63.4825 81.392 63.1185 81.392C62.7685 81.392 62.4885 81.686 62.4885 82.036V87.426C62.4885 87.776 62.7685 88.07 63.1185 88.07C63.4825 88.07 63.7625 87.776 63.7625 87.426V84.472C63.7625 83.086 64.6865 82.568 65.6105 82.568C66.5065 82.568 67.0525 83.212 67.0525 84.304V87.426C67.0525 87.776 67.3325 88.07 67.6825 88.07C68.0465 88.07 68.3265 87.776 68.3265 87.426V84.22C68.3265 82.386 67.4305 81.322 65.8065 81.322C65.0925 81.322 64.1545 81.658 63.7625 82.442V82.036ZM71.5554 82.036C71.5554 81.686 71.2754 81.392 70.9114 81.392C70.5614 81.392 70.2814 81.686 70.2814 82.036V87.426C70.2814 87.776 70.5614 88.07 70.9114 88.07C71.2754 88.07 71.5554 87.776 71.5554 87.426V82.036ZM74.8504 82.036C74.8504 81.686 74.5704 81.392 74.2064 81.392C73.8564 81.392 73.5764 81.686 73.5764 82.036V87.426C73.5764 87.776 73.8564 88.07 74.2064 88.07C74.5704 88.07 74.8504 87.776 74.8504 87.426V84.472C74.8504 83.086 75.7744 82.568 76.6984 82.568C77.5944 82.568 78.1404 83.212 78.1404 84.304V87.426C78.1404 87.776 78.4204 88.07 78.7704 88.07C79.1344 88.07 79.4144 87.776 79.4144 87.426V84.22C79.4144 82.386 78.5184 81.322 76.8944 81.322C76.1804 81.322 75.2424 81.658 74.8504 82.442V82.036ZM82.6433 82.036C82.6433 81.686 82.3633 81.392 81.9993 81.392C81.6493 81.392 81.3693 81.686 81.3693 82.036V87.426C81.3693 87.776 81.6493 88.07 81.9993 88.07C82.3633 88.07 82.6433 87.776 82.6433 87.426V82.036ZM84.4543 86.684C84.2443 86.922 84.1463 87.118 84.1463 87.37V87.398C84.1463 87.734 84.4543 88 84.8603 88H89.4243C89.7603 88 90.0403 87.734 90.0403 87.398C90.0403 87.048 89.7603 86.782 89.4243 86.782H86.0083L89.7323 82.778C89.9423 82.54 90.0403 82.344 90.0403 82.092V82.064C90.0403 81.728 89.7323 81.462 89.3263 81.462H84.9863C84.6503 81.462 84.3703 81.728 84.3703 82.078C84.3703 82.414 84.6503 82.68 84.9863 82.68H88.1083L84.4543 86.684ZM100.468 82.442C100.034 81.7 99.1243 81.322 98.1723 81.322C96.3663 81.322 94.8683 82.638 94.8683 84.724C94.8683 86.796 96.3943 88.14 98.1863 88.14C99.0963 88.14 100.034 87.734 100.468 86.992V87.426C100.468 87.776 100.748 88.07 101.112 88.07C101.462 88.07 101.742 87.776 101.742 87.426V78.48C101.742 78.13 101.462 77.836 101.112 77.836C100.748 77.836 100.468 78.13 100.468 78.48V82.442ZM100.454 84.71C100.454 86.096 99.4463 86.894 98.2843 86.894C97.1083 86.894 96.1703 85.998 96.1703 84.71C96.1703 83.408 97.1083 82.568 98.2843 82.568C99.3343 82.568 100.454 83.31 100.454 84.71ZM106.829 88.14C104.967 88.14 103.413 86.782 103.413 84.71C103.413 82.638 104.967 81.322 106.829 81.322C108.691 81.322 110.259 82.638 110.259 84.71C110.259 86.782 108.691 88.14 106.829 88.14ZM106.829 86.908C108.005 86.908 108.985 86.04 108.985 84.71C108.985 83.394 108.005 82.568 106.829 82.568C105.653 82.568 104.673 83.394 104.673 84.71C104.673 86.04 105.653 86.908 106.829 86.908ZM104.575 79.558C104.575 80.034 104.967 80.384 105.443 80.384C105.905 80.384 106.297 80.034 106.297 79.558C106.297 79.082 105.905 78.732 105.443 78.732C104.967 78.732 104.575 79.082 104.575 79.558ZM107.347 79.558C107.347 80.034 107.739 80.384 108.215 80.384C108.691 80.384 109.083 80.034 109.083 79.558C109.083 79.082 108.691 78.732 108.215 78.732C107.739 78.732 107.347 79.082 107.347 79.558ZM113.173 82.036C113.173 81.686 112.893 81.392 112.529 81.392C112.179 81.392 111.899 81.686 111.899 82.036V87.426C111.899 87.776 112.179 88.07 112.529 88.07C112.893 88.07 113.173 87.776 113.173 87.426V84.472C113.173 83.086 114.097 82.568 115.021 82.568C115.917 82.568 116.463 83.212 116.463 84.304V87.426C116.463 87.776 116.743 88.07 117.093 88.07C117.457 88.07 117.737 87.776 117.737 87.426V84.22C117.737 82.386 116.841 81.322 115.217 81.322C114.503 81.322 113.565 81.658 113.173 82.442V82.036ZM119.692 87.426C119.692 87.776 119.972 88.07 120.322 88.07C120.686 88.07 120.966 87.776 120.966 87.426V84.472C120.966 83.1 121.876 82.54 122.786 82.54C123.64 82.54 124.2 83.212 124.2 84.29V87.426C124.2 87.776 124.48 88.07 124.83 88.07C125.194 88.07 125.474 87.776 125.474 87.426V84.472C125.474 83.38 126.132 82.554 127.21 82.568C128.148 82.568 128.708 83.226 128.708 84.304V87.426C128.708 87.776 128.988 88.07 129.338 88.07C129.702 88.07 129.982 87.776 129.982 87.426V84.22C129.982 82.386 129.1 81.322 127.462 81.322C126.818 81.322 125.796 81.504 125.194 82.666C124.886 81.952 124.312 81.49 123.486 81.364C123.262 81.322 123.024 81.308 122.772 81.322C122.24 81.364 121.316 81.714 120.966 82.442V82.036C120.966 81.686 120.686 81.392 120.322 81.392C119.972 81.392 119.692 81.686 119.692 82.036V87.426ZM136.45 87.426C136.45 87.776 136.73 88.07 137.094 88.07C137.444 88.07 137.724 87.776 137.724 87.426V82.036C137.724 81.686 137.444 81.392 137.094 81.392C136.73 81.392 136.45 81.686 136.45 82.036V84.99C136.45 86.376 135.526 86.894 134.602 86.894C133.706 86.894 133.16 86.25 133.16 85.158V82.036C133.16 81.686 132.88 81.392 132.53 81.392C132.166 81.392 131.886 81.686 131.886 82.036V85.242C131.886 87.076 132.782 88.14 134.406 88.14C135.12 88.14 136.058 87.804 136.45 87.02V87.426ZM132.6 79.558C132.6 80.034 132.992 80.384 133.468 80.384C133.93 80.384 134.322 80.034 134.322 79.558C134.322 79.082 133.93 78.732 133.468 78.732C132.992 78.732 132.6 79.082 132.6 79.558ZM135.372 79.558C135.372 80.034 135.764 80.384 136.24 80.384C136.716 80.384 137.108 80.034 137.108 79.558C137.108 79.082 136.716 78.732 136.24 78.732C135.764 78.732 135.372 79.082 135.372 79.558ZM140.365 81.826C140.225 81.476 139.903 81.322 139.553 81.42C139.217 81.518 139.063 81.924 139.175 82.246L141.471 87.804L140.435 90.352C140.309 90.674 140.435 91.038 140.743 91.178C141.079 91.304 141.443 91.15 141.569 90.828L145.153 82.26C145.293 81.938 145.153 81.56 144.817 81.434C144.495 81.308 144.117 81.462 143.991 81.784L142.171 86.194L140.365 81.826ZM149.513 88.14C151.375 88.14 152.943 86.782 152.943 84.71C152.943 82.638 151.375 81.322 149.513 81.322C147.651 81.322 146.097 82.638 146.097 84.71C146.097 86.782 147.651 88.14 149.513 88.14ZM149.513 86.908C148.337 86.908 147.357 86.04 147.357 84.71C147.357 83.394 148.337 82.568 149.513 82.568C150.689 82.568 151.669 83.394 151.669 84.71C151.669 86.04 150.689 86.908 149.513 86.908ZM157.942 82.554C158.39 82.596 158.754 82.512 158.824 82.106C158.936 81.42 158.152 81.322 157.676 81.322C156.822 81.322 156.192 81.784 155.856 82.932V82.036C155.856 81.686 155.576 81.392 155.212 81.392C154.862 81.392 154.582 81.686 154.582 82.036V87.426C154.582 87.776 154.862 88.07 155.212 88.07C155.576 88.07 155.856 87.776 155.856 87.426V85.62C155.856 83.884 156.388 82.54 157.648 82.54C157.732 82.54 157.844 82.54 157.942 82.554ZM160.725 86.236C160.627 85.984 160.403 85.872 160.179 85.872C159.885 85.872 159.563 86.04 159.563 86.376C159.563 86.432 159.577 86.502 159.591 86.572C159.899 87.58 160.935 88.14 161.943 88.14C163.301 88.14 164.477 87.398 164.477 86.18C164.477 85.438 164.141 84.612 162.783 84.276L161.817 84.038C161.397 83.94 160.991 83.702 160.991 83.282C160.991 82.792 161.397 82.428 162.013 82.428C162.419 82.428 162.755 82.582 163.049 82.974C163.189 83.156 163.329 83.254 163.511 83.254C163.707 83.254 164.113 83.1 164.113 82.68C164.113 82.596 164.099 82.484 164.043 82.386C163.665 81.63 162.839 81.322 161.985 81.322C160.669 81.322 159.703 82.162 159.703 83.24C159.703 84.276 160.361 84.822 161.467 85.116L162.363 85.326C162.853 85.438 163.231 85.676 163.231 86.152C163.231 86.67 162.741 87.02 162.083 87.02C161.425 87.02 160.907 86.712 160.725 86.236ZM171.262 87.426C171.262 87.776 171.542 88.07 171.892 88.07C172.256 88.07 172.536 87.776 172.536 87.426V82.036C172.536 81.686 172.256 81.392 171.892 81.392C171.542 81.392 171.262 81.686 171.262 82.036V82.442C170.828 81.7 169.876 81.322 168.966 81.322C167.174 81.322 165.648 82.638 165.648 84.724C165.648 86.796 167.174 88.14 168.966 88.14C169.876 88.14 170.828 87.734 171.262 86.992V87.426ZM171.248 84.71C171.248 86.096 170.24 86.894 169.078 86.894C167.902 86.894 166.95 85.998 166.95 84.71C166.95 83.408 167.902 82.568 169.078 82.568C170.128 82.568 171.248 83.31 171.248 84.71ZM179.02 84.752C179.02 83.436 180.056 82.554 181.232 82.554C181.694 82.554 182.128 82.694 182.478 82.946C182.772 83.156 183.164 83.114 183.374 82.89C183.612 82.624 183.584 82.176 183.304 81.98C182.716 81.574 182.016 81.322 181.232 81.322C179.384 81.322 177.788 82.666 177.774 84.71C177.774 86.782 179.37 88.14 181.232 88.14C182.016 88.14 182.73 87.902 183.304 87.482C183.584 87.286 183.612 86.838 183.374 86.572C183.136 86.306 182.786 86.32 182.478 86.516C182.128 86.768 181.694 86.908 181.232 86.908C180.07 86.908 179.048 86.04 179.02 84.752ZM184.832 79.068C184.832 79.544 185.238 79.894 185.714 79.894C186.204 79.894 186.596 79.544 186.596 79.068C186.596 78.592 186.204 78.242 185.714 78.242C185.238 78.242 184.832 78.592 184.832 79.068ZM186.358 87.426C186.358 87.776 186.078 88.07 185.714 88.07C185.364 88.07 185.084 87.776 185.084 87.426V82.036C185.084 81.686 185.364 81.392 185.714 81.392C186.078 81.392 186.358 81.686 186.358 82.036V87.426ZM194.469 84.22C194.483 82.386 193.461 81.322 191.823 81.322C191.109 81.322 190.059 81.658 189.667 82.442V78.48C189.667 78.13 189.387 77.836 189.023 77.836C188.673 77.836 188.393 78.13 188.393 78.48V87.426C188.393 87.776 188.673 88.07 189.023 88.07C189.387 88.07 189.667 87.776 189.667 87.426V84.472C189.667 83.072 190.759 82.568 191.655 82.568C192.551 82.568 193.195 83.226 193.195 84.304V87.426C193.195 87.776 193.475 88.07 193.825 88.07C194.189 88.07 194.469 87.776 194.469 87.426V84.22ZM201.668 87.426C201.668 87.776 201.948 88.07 202.298 88.07C202.662 88.07 202.942 87.776 202.942 87.426V82.036C202.942 81.686 202.662 81.392 202.298 81.392C201.948 81.392 201.668 81.686 201.668 82.036V82.442C201.234 81.7 200.282 81.322 199.372 81.322C197.58 81.322 196.054 82.638 196.054 84.724C196.054 86.796 197.58 88.14 199.372 88.14C200.282 88.14 201.234 87.734 201.668 86.992V87.426ZM201.654 84.71C201.654 86.096 200.646 86.894 199.484 86.894C198.308 86.894 197.356 85.998 197.356 84.71C197.356 83.408 198.308 82.568 199.484 82.568C200.534 82.568 201.654 83.31 201.654 84.71ZM204.753 86.684C204.543 86.922 204.445 87.118 204.445 87.37V87.398C204.445 87.734 204.753 88 205.159 88H209.723C210.059 88 210.339 87.734 210.339 87.398C210.339 87.048 210.059 86.782 209.723 86.782H206.307L210.031 82.778C210.241 82.54 210.339 82.344 210.339 82.092V82.064C210.339 81.728 210.031 81.462 209.625 81.462H205.285C204.949 81.462 204.669 81.728 204.669 82.078C204.669 82.414 204.949 82.68 205.285 82.68H208.407L204.753 86.684ZM220.781 87.426C220.781 87.776 221.061 88.07 221.411 88.07C221.775 88.07 222.055 87.776 222.055 87.426V82.036C222.055 81.686 221.775 81.392 221.411 81.392C221.061 81.392 220.781 81.686 220.781 82.036V82.442C220.347 81.7 219.395 81.322 218.485 81.322C216.693 81.322 215.167 82.638 215.167 84.724C215.167 86.796 216.693 88.14 218.485 88.14C219.395 88.14 220.347 87.734 220.781 86.992V87.426ZM220.767 84.71C220.767 86.096 219.759 86.894 218.597 86.894C217.421 86.894 216.469 85.998 216.469 84.71C216.469 83.408 217.421 82.568 218.597 82.568C219.647 82.568 220.767 83.31 220.767 84.71ZM224.706 81.826C224.566 81.476 224.244 81.322 223.894 81.42C223.558 81.518 223.404 81.924 223.516 82.246L225.812 87.804L224.776 90.352C224.65 90.674 224.776 91.038 225.084 91.178C225.42 91.304 225.784 91.15 225.91 90.828L229.494 82.26C229.634 81.938 229.494 81.56 229.158 81.434C228.836 81.308 228.458 81.462 228.332 81.784L226.512 86.194L224.706 81.826ZM236.053 87.426C236.053 87.776 236.333 88.07 236.683 88.07C237.047 88.07 237.327 87.776 237.327 87.426V82.036C237.327 81.686 237.047 81.392 236.683 81.392C236.333 81.392 236.053 81.686 236.053 82.036V82.442C235.619 81.7 234.667 81.322 233.757 81.322C231.965 81.322 230.439 82.638 230.439 84.724C230.439 86.796 231.965 88.14 233.757 88.14C234.667 88.14 235.619 87.734 236.053 86.992V87.426ZM236.039 84.71C236.039 86.096 235.031 86.894 233.869 86.894C232.693 86.894 231.741 85.998 231.741 84.71C231.741 83.408 232.693 82.568 233.869 82.568C234.919 82.568 236.039 83.31 236.039 84.71ZM242.708 82.554C243.156 82.596 243.52 82.512 243.59 82.106C243.702 81.42 242.918 81.322 242.442 81.322C241.588 81.322 240.958 81.784 240.622 82.932V82.036C240.622 81.686 240.342 81.392 239.978 81.392C239.628 81.392 239.348 81.686 239.348 82.036V87.426C239.348 87.776 239.628 88.07 239.978 88.07C240.342 88.07 240.622 87.776 240.622 87.426V85.62C240.622 83.884 241.154 82.54 242.414 82.54C242.498 82.54 242.61 82.54 242.708 82.554ZM246.023 78.48C246.023 78.13 245.743 77.836 245.379 77.836C245.029 77.836 244.749 78.13 244.749 78.48V87.426C244.749 87.776 245.029 88.07 245.379 88.07C245.743 88.07 246.023 87.776 246.023 87.426V78.48ZM253.293 87.426C253.293 87.776 253.573 88.07 253.923 88.07C254.287 88.07 254.567 87.776 254.567 87.426V82.036C254.567 81.686 254.287 81.392 253.923 81.392C253.573 81.392 253.293 81.686 253.293 82.036V82.442C252.859 81.7 251.907 81.322 250.997 81.322C249.205 81.322 247.679 82.638 247.679 84.724C247.679 86.796 249.205 88.14 250.997 88.14C251.907 88.14 252.859 87.734 253.293 86.992V87.426ZM253.279 84.71C253.279 86.096 252.271 86.894 251.109 86.894C249.933 86.894 248.981 85.998 248.981 84.71C248.981 83.408 249.933 82.568 251.109 82.568C252.159 82.568 253.279 83.31 253.279 84.71ZM259.948 82.554C260.396 82.596 260.76 82.512 260.83 82.106C260.942 81.42 260.158 81.322 259.682 81.322C258.828 81.322 258.198 81.784 257.862 82.932V82.036C257.862 81.686 257.582 81.392 257.218 81.392C256.868 81.392 256.588 81.686 256.588 82.036V87.426C256.588 87.776 256.868 88.07 257.218 88.07C257.582 88.07 257.862 87.776 257.862 87.426V85.62C257.862 83.884 258.394 82.54 259.654 82.54C259.738 82.54 259.85 82.54 259.948 82.554ZM263.249 82.036C263.249 81.686 262.969 81.392 262.605 81.392C262.255 81.392 261.975 81.686 261.975 82.036V87.426C261.975 87.776 262.255 88.07 262.605 88.07C262.969 88.07 263.249 87.776 263.249 87.426V82.036ZM266.544 82.036C266.544 81.686 266.264 81.392 265.9 81.392C265.55 81.392 265.27 81.686 265.27 82.036V87.426C265.27 87.776 265.55 88.07 265.9 88.07C266.264 88.07 266.544 87.776 266.544 87.426V84.472C266.544 83.086 267.468 82.568 268.392 82.568C269.288 82.568 269.834 83.212 269.834 84.304V87.426C269.834 87.776 270.114 88.07 270.464 88.07C270.828 88.07 271.108 87.776 271.108 87.426V84.22C271.108 82.386 270.212 81.322 268.588 81.322C267.874 81.322 266.936 81.658 266.544 82.442V82.036ZM278.285 82.442C277.851 81.7 276.941 81.322 275.989 81.322C274.183 81.322 272.685 82.638 272.685 84.724C272.685 86.796 274.211 88.14 276.003 88.14C276.913 88.14 277.851 87.734 278.285 86.992V87.426C278.285 87.776 278.565 88.07 278.929 88.07C279.279 88.07 279.559 87.776 279.559 87.426V78.48C279.559 78.13 279.279 77.836 278.929 77.836C278.565 77.836 278.285 78.13 278.285 78.48V82.442ZM278.271 84.71C278.271 86.096 277.263 86.894 276.101 86.894C274.925 86.894 273.987 85.998 273.987 84.71C273.987 83.408 274.925 82.568 276.101 82.568C277.151 82.568 278.271 83.31 278.271 84.71ZM286.844 87.426C286.844 87.776 287.124 88.07 287.474 88.07C287.838 88.07 288.118 87.776 288.118 87.426V82.036C288.118 81.686 287.838 81.392 287.474 81.392C287.124 81.392 286.844 81.686 286.844 82.036V82.442C286.41 81.7 285.458 81.322 284.548 81.322C282.756 81.322 281.23 82.638 281.23 84.724C281.23 86.796 282.756 88.14 284.548 88.14C285.458 88.14 286.41 87.734 286.844 86.992V87.426ZM286.83 84.71C286.83 86.096 285.822 86.894 284.66 86.894C283.484 86.894 282.532 85.998 282.532 84.71C282.532 83.408 283.484 82.568 284.66 82.568C285.71 82.568 286.83 83.31 286.83 84.71ZM291.413 82.036C291.413 81.686 291.133 81.392 290.769 81.392C290.419 81.392 290.139 81.686 290.139 82.036V87.426C290.139 87.776 290.419 88.07 290.769 88.07C291.133 88.07 291.413 87.776 291.413 87.426V84.472C291.413 83.086 292.337 82.568 293.261 82.568C294.157 82.568 294.703 83.212 294.703 84.304V87.426C294.703 87.776 294.983 88.07 295.333 88.07C295.697 88.07 295.977 87.776 295.977 87.426V84.22C295.977 82.386 295.081 81.322 293.457 81.322C292.743 81.322 291.805 81.658 291.413 82.442V82.036ZM58.6683 103.826C58.5283 103.476 58.2063 103.322 57.8563 103.42C57.5203 103.518 57.3663 103.924 57.4783 104.246L59.7743 109.804L58.7383 112.352C58.6123 112.674 58.7383 113.038 59.0463 113.178C59.3823 113.304 59.7463 113.15 59.8723 112.828L63.4563 104.26C63.5963 103.938 63.4563 103.56 63.1203 103.434C62.7983 103.308 62.4203 103.462 62.2943 103.784L60.4743 108.194L58.6683 103.826ZM67.8165 110.14C65.9545 110.14 64.4005 108.782 64.4005 106.71C64.4005 104.638 65.9545 103.322 67.8165 103.322C69.6785 103.322 71.2465 104.638 71.2465 106.71C71.2465 108.782 69.6785 110.14 67.8165 110.14ZM67.8165 108.908C68.9925 108.908 69.9725 108.04 69.9725 106.71C69.9725 105.394 68.9925 104.568 67.8165 104.568C66.6405 104.568 65.6605 105.394 65.6605 106.71C65.6605 108.04 66.6405 108.908 67.8165 108.908ZM65.5625 101.558C65.5625 102.034 65.9545 102.384 66.4305 102.384C66.8925 102.384 67.2845 102.034 67.2845 101.558C67.2845 101.082 66.8925 100.732 66.4305 100.732C65.9545 100.732 65.5625 101.082 65.5625 101.558ZM68.3345 101.558C68.3345 102.034 68.7265 102.384 69.2025 102.384C69.6785 102.384 70.0705 102.034 70.0705 101.558C70.0705 101.082 69.6785 100.732 69.2025 100.732C68.7265 100.732 68.3345 101.082 68.3345 101.558ZM74.1599 104.036C74.1599 103.686 73.8799 103.392 73.5159 103.392C73.1659 103.392 72.8859 103.686 72.8859 104.036V109.426C72.8859 109.776 73.1659 110.07 73.5159 110.07C73.8799 110.07 74.1599 109.776 74.1599 109.426V106.472C74.1599 105.086 75.0839 104.568 76.0079 104.568C76.9039 104.568 77.4499 105.212 77.4499 106.304V109.426C77.4499 109.776 77.7299 110.07 78.0799 110.07C78.4439 110.07 78.7239 109.776 78.7239 109.426V106.22C78.7239 104.386 77.8279 103.322 76.2039 103.322C75.4899 103.322 74.5519 103.658 74.1599 104.442V104.036ZM88.5863 104.456C88.8243 104.218 88.8383 103.826 88.5863 103.56C88.3483 103.336 87.9563 103.336 87.7183 103.574L85.5763 105.744V100.48C85.5763 100.13 85.2963 99.836 84.9323 99.836C84.5823 99.836 84.3023 100.13 84.3023 100.48V109.426C84.3023 109.776 84.5823 110.07 84.9323 110.07C85.2963 110.07 85.5763 109.776 85.5763 109.426V106.808L88.4323 109.888C88.6703 110.112 89.0623 110.154 89.3283 109.888C89.5803 109.678 89.5803 109.286 89.3563 109.02L86.7383 106.304L88.5863 104.456ZM90.5714 101.068C90.5714 101.544 90.9774 101.894 91.4534 101.894C91.9434 101.894 92.3354 101.544 92.3354 101.068C92.3354 100.592 91.9434 100.242 91.4534 100.242C90.9774 100.242 90.5714 100.592 90.5714 101.068ZM92.0974 109.426C92.0974 109.776 91.8174 110.07 91.4534 110.07C91.1034 110.07 90.8234 109.776 90.8234 109.426V104.036C90.8234 103.686 91.1034 103.392 91.4534 103.392C91.8174 103.392 92.0974 103.686 92.0974 104.036V109.426ZM95.4064 100.48C95.4064 100.13 95.1264 99.836 94.7624 99.836C94.4124 99.836 94.1324 100.13 94.1324 100.48V109.426C94.1324 109.776 94.4124 110.07 94.7624 110.07C95.1264 110.07 95.4064 109.776 95.4064 109.426V100.48ZM97.1886 101.068C97.1886 101.544 97.5946 101.894 98.0706 101.894C98.5606 101.894 98.9526 101.544 98.9526 101.068C98.9526 100.592 98.5606 100.242 98.0706 100.242C97.5946 100.242 97.1886 100.592 97.1886 101.068ZM98.7146 109.426C98.7146 109.776 98.4346 110.07 98.0706 110.07C97.7206 110.07 97.4406 109.776 97.4406 109.426V104.036C97.4406 103.686 97.7206 103.392 98.0706 103.392C98.4346 103.392 98.7146 103.686 98.7146 104.036V109.426ZM105.958 104.442C105.524 103.7 104.614 103.322 103.662 103.322C101.856 103.322 100.358 104.638 100.358 106.724C100.358 108.796 101.884 110.14 103.676 110.14C104.586 110.14 105.524 109.734 105.958 108.992V109.426C105.958 109.776 106.238 110.07 106.602 110.07C106.952 110.07 107.232 109.776 107.232 109.426V100.48C107.232 100.13 106.952 99.836 106.602 99.836C106.238 99.836 105.958 100.13 105.958 100.48V104.442ZM105.944 106.71C105.944 108.096 104.936 108.894 103.774 108.894C102.598 108.894 101.66 107.998 101.66 106.71C101.66 105.408 102.598 104.568 103.774 104.568C104.824 104.568 105.944 105.31 105.944 106.71ZM109.028 101.068C109.028 101.544 109.434 101.894 109.91 101.894C110.4 101.894 110.792 101.544 110.792 101.068C110.792 100.592 110.4 100.242 109.91 100.242C109.434 100.242 109.028 100.592 109.028 101.068ZM110.554 109.426C110.554 109.776 110.274 110.07 109.91 110.07C109.56 110.07 109.28 109.776 109.28 109.426V104.036C109.28 103.686 109.56 103.392 109.91 103.392C110.274 103.392 110.554 103.686 110.554 104.036V109.426ZM113.849 104.036C113.849 103.686 113.569 103.392 113.205 103.392C112.855 103.392 112.575 103.686 112.575 104.036V109.426C112.575 109.776 112.855 110.07 113.205 110.07C113.569 110.07 113.849 109.776 113.849 109.426V106.472C113.849 105.086 114.773 104.568 115.697 104.568C116.593 104.568 117.139 105.212 117.139 106.304V109.426C117.139 109.776 117.419 110.07 117.769 110.07C118.133 110.07 118.413 109.776 118.413 109.426V106.22C118.413 104.386 117.517 103.322 115.893 103.322C115.179 103.322 114.241 103.658 113.849 104.442V104.036ZM120.116 101.068C120.116 101.544 120.522 101.894 120.998 101.894C121.488 101.894 121.88 101.544 121.88 101.068C121.88 100.592 121.488 100.242 120.998 100.242C120.522 100.242 120.116 100.592 120.116 101.068ZM121.642 109.426C121.642 109.776 121.362 110.07 120.998 110.07C120.648 110.07 120.368 109.776 120.368 109.426V104.036C120.368 103.686 120.648 103.392 120.998 103.392C121.362 103.392 121.642 103.686 121.642 104.036V109.426ZM131.571 104.456C131.809 104.218 131.823 103.826 131.571 103.56C131.333 103.336 130.941 103.336 130.703 103.574L128.561 105.744V100.48C128.561 100.13 128.281 99.836 127.917 99.836C127.567 99.836 127.287 100.13 127.287 100.48V109.426C127.287 109.776 127.567 110.07 127.917 110.07C128.281 110.07 128.561 109.776 128.561 109.426V106.808L131.417 109.888C131.655 110.112 132.047 110.154 132.313 109.888C132.565 109.678 132.565 109.286 132.341 109.02L129.723 106.304L131.571 104.456ZM138.907 109.426C138.907 109.776 139.187 110.07 139.537 110.07C139.901 110.07 140.181 109.776 140.181 109.426V104.036C140.181 103.686 139.901 103.392 139.537 103.392C139.187 103.392 138.907 103.686 138.907 104.036V104.442C138.473 103.7 137.521 103.322 136.611 103.322C134.819 103.322 133.293 104.638 133.293 106.724C133.293 108.796 134.819 110.14 136.611 110.14C137.521 110.14 138.473 109.734 138.907 108.992V109.426ZM138.893 106.71C138.893 108.096 137.885 108.894 136.723 108.894C135.547 108.894 134.595 107.998 134.595 106.71C134.595 105.408 135.547 104.568 136.723 104.568C137.773 104.568 138.893 105.31 138.893 106.71ZM143.49 100.48C143.49 100.13 143.21 99.836 142.846 99.836C142.496 99.836 142.216 100.13 142.216 100.48V109.426C142.216 109.776 142.496 110.07 142.846 110.07C143.21 110.07 143.49 109.776 143.49 109.426V100.48ZM150.747 104.442C150.313 103.7 149.403 103.322 148.451 103.322C146.645 103.322 145.147 104.638 145.147 106.724C145.147 108.796 146.673 110.14 148.465 110.14C149.375 110.14 150.313 109.734 150.747 108.992V109.426C150.747 109.776 151.027 110.07 151.391 110.07C151.741 110.07 152.021 109.776 152.021 109.426V100.48C152.021 100.13 151.741 99.836 151.391 99.836C151.027 99.836 150.747 100.13 150.747 100.48V104.442ZM150.733 106.71C150.733 108.096 149.725 108.894 148.563 108.894C147.387 108.894 146.449 107.998 146.449 106.71C146.449 105.408 147.387 104.568 148.563 104.568C149.613 104.568 150.733 105.31 150.733 106.71ZM155.344 104.036C155.344 103.686 155.064 103.392 154.7 103.392C154.35 103.392 154.07 103.686 154.07 104.036V109.426C154.07 109.776 154.35 110.07 154.7 110.07C155.064 110.07 155.344 109.776 155.344 109.426V104.036ZM160.724 104.554C161.172 104.596 161.536 104.512 161.606 104.106C161.718 103.42 160.934 103.322 160.458 103.322C159.604 103.322 158.974 103.784 158.638 104.932V104.036C158.638 103.686 158.358 103.392 157.994 103.392C157.644 103.392 157.364 103.686 157.364 104.036V109.426C157.364 109.776 157.644 110.07 157.994 110.07C158.358 110.07 158.638 109.776 158.638 109.426V107.62C158.638 105.884 159.17 104.54 160.43 104.54C160.514 104.54 160.626 104.54 160.724 104.554ZM167.754 104.442C167.32 103.7 166.41 103.322 165.458 103.322C163.652 103.322 162.154 104.638 162.154 106.724C162.154 108.796 163.68 110.14 165.472 110.14C166.382 110.14 167.32 109.734 167.754 108.992V109.426C167.754 109.776 168.034 110.07 168.398 110.07C168.748 110.07 169.028 109.776 169.028 109.426V100.48C169.028 100.13 168.748 99.836 168.398 99.836C168.034 99.836 167.754 100.13 167.754 100.48V104.442ZM167.74 106.71C167.74 108.096 166.732 108.894 165.57 108.894C164.394 108.894 163.456 107.998 163.456 106.71C163.456 105.408 164.394 104.568 165.57 104.568C166.62 104.568 167.74 105.31 167.74 106.71ZM172.351 104.036C172.351 103.686 172.071 103.392 171.707 103.392C171.357 103.392 171.077 103.686 171.077 104.036V109.426C171.077 109.776 171.357 110.07 171.707 110.07C172.071 110.07 172.351 109.776 172.351 109.426V104.036ZM175.702 111.358C175.45 111.078 175.1 110.938 174.834 111.106C174.54 111.274 174.442 111.666 174.624 111.932C175.282 112.8 176.262 113.262 177.298 113.262C179.454 113.262 180.868 112.086 180.882 109.006V104.036C180.882 103.686 180.602 103.392 180.238 103.392C179.888 103.392 179.608 103.686 179.608 104.036V104.484C179.174 103.728 178.222 103.322 177.312 103.322C175.52 103.322 173.994 104.666 173.994 106.752C173.994 108.824 175.52 110.14 177.312 110.14C178.222 110.14 179.216 109.706 179.608 108.936C179.622 108.992 179.622 109.034 179.622 109.09C179.622 111.26 178.712 112.058 177.298 112.058C176.724 112.058 176.122 111.82 175.702 111.358ZM179.594 106.738C179.594 108.124 178.474 108.894 177.424 108.894C176.248 108.894 175.296 108.068 175.296 106.738C175.296 105.464 176.248 104.568 177.424 104.568C178.586 104.568 179.594 105.338 179.594 106.738ZM177.634 102.426C178.516 102.426 179.048 102.062 179.426 101.348C179.51 101.208 179.58 100.984 179.58 100.844C179.58 100.592 179.412 100.396 179.174 100.396C178.95 100.396 178.824 100.508 178.754 100.676C178.586 101.152 178.32 101.46 177.634 101.46C176.948 101.46 176.682 101.152 176.514 100.676C176.444 100.508 176.318 100.396 176.094 100.396C175.856 100.396 175.688 100.592 175.688 100.844C175.688 100.984 175.758 101.208 175.842 101.348C176.22 102.062 176.752 102.426 177.634 102.426ZM184.191 104.036C184.191 103.686 183.911 103.392 183.547 103.392C183.197 103.392 182.917 103.686 182.917 104.036V109.426C182.917 109.776 183.197 110.07 183.547 110.07C183.911 110.07 184.191 109.776 184.191 109.426V104.036ZM187.486 104.036C187.486 103.686 187.206 103.392 186.842 103.392C186.492 103.392 186.212 103.686 186.212 104.036V109.426C186.212 109.776 186.492 110.07 186.842 110.07C187.206 110.07 187.486 109.776 187.486 109.426V106.472C187.486 105.086 188.41 104.568 189.334 104.568C190.23 104.568 190.776 105.212 190.776 106.304V109.426C190.776 109.776 191.056 110.07 191.406 110.07C191.77 110.07 192.05 109.776 192.05 109.426V106.22C192.05 104.386 191.154 103.322 189.53 103.322C188.816 103.322 187.878 103.658 187.486 104.442V104.036ZM195.279 104.036C195.279 103.686 194.999 103.392 194.635 103.392C194.285 103.392 194.005 103.686 194.005 104.036V109.426C194.005 109.776 194.285 110.07 194.635 110.07C194.999 110.07 195.279 109.776 195.279 109.426V104.036ZM197.09 108.684C196.88 108.922 196.782 109.118 196.782 109.37V109.398C196.782 109.734 197.09 110 197.496 110H202.06C202.396 110 202.676 109.734 202.676 109.398C202.676 109.048 202.396 108.782 202.06 108.782H198.644L202.368 104.778C202.578 104.54 202.676 104.344 202.676 104.092V104.064C202.676 103.728 202.368 103.462 201.962 103.462H197.622C197.286 103.462 197.006 103.728 197.006 104.078C197.006 104.414 197.286 104.68 197.622 104.68H200.744L197.09 108.684ZM209.399 109.426C209.399 109.776 209.679 110.07 210.029 110.07C210.393 110.07 210.673 109.776 210.673 109.426V104.036C210.673 103.686 210.393 103.392 210.029 103.392C209.679 103.392 209.399 103.686 209.399 104.036V104.442C208.965 103.7 208.013 103.322 207.103 103.322C205.311 103.322 203.785 104.638 203.785 106.724C203.785 108.796 205.311 110.14 207.103 110.14C208.013 110.14 208.965 109.734 209.399 108.992V109.426ZM209.385 106.71C209.385 108.096 208.377 108.894 207.215 108.894C206.039 108.894 205.087 107.998 205.087 106.71C205.087 105.408 206.039 104.568 207.215 104.568C208.265 104.568 209.385 105.31 209.385 106.71ZM217.2 106.22C217.354 105.128 218.194 104.47 219.272 104.47C220.322 104.47 221.106 105.128 221.26 106.22H217.2ZM222.52 106.71C222.52 104.638 221.134 103.322 219.272 103.322C217.41 103.322 215.926 104.638 215.926 106.71C215.926 108.782 217.41 110.14 219.272 110.14C220.336 110.14 221.316 109.748 221.946 108.936C222.142 108.712 222.086 108.334 221.834 108.138C221.582 107.956 221.218 108.04 220.98 108.306C220.532 108.796 220.098 108.992 219.314 108.992C218.208 108.992 217.354 108.306 217.2 107.214H222.016C222.282 107.214 222.52 107.004 222.52 106.71ZM224.015 109.426C224.015 109.776 224.295 110.07 224.645 110.07C225.009 110.07 225.289 109.776 225.289 109.426V106.472C225.289 105.1 226.199 104.54 227.109 104.54C227.963 104.54 228.523 105.212 228.523 106.29V109.426C228.523 109.776 228.803 110.07 229.153 110.07C229.517 110.07 229.797 109.776 229.797 109.426V106.472C229.797 105.38 230.455 104.554 231.533 104.568C232.471 104.568 233.031 105.226 233.031 106.304V109.426C233.031 109.776 233.311 110.07 233.661 110.07C234.025 110.07 234.305 109.776 234.305 109.426V106.22C234.305 104.386 233.423 103.322 231.785 103.322C231.141 103.322 230.119 103.504 229.517 104.666C229.209 103.952 228.635 103.49 227.809 103.364C227.585 103.322 227.347 103.308 227.095 103.322C226.563 103.364 225.639 103.714 225.289 104.442V104.036C225.289 103.686 225.009 103.392 224.645 103.392C224.295 103.392 224.015 103.686 224.015 104.036V109.426ZM236.013 101.068C236.013 101.544 236.419 101.894 236.895 101.894C237.385 101.894 237.777 101.544 237.777 101.068C237.777 100.592 237.385 100.242 236.895 100.242C236.419 100.242 236.013 100.592 236.013 101.068ZM237.539 109.426C237.539 109.776 237.259 110.07 236.895 110.07C236.545 110.07 236.265 109.776 236.265 109.426V104.036C236.265 103.686 236.545 103.392 236.895 103.392C237.259 103.392 237.539 103.686 237.539 104.036V109.426ZM240.834 104.036C240.834 103.686 240.554 103.392 240.19 103.392C239.84 103.392 239.56 103.686 239.56 104.036V109.426C239.56 109.776 239.84 110.07 240.19 110.07C240.554 110.07 240.834 109.776 240.834 109.426V106.472C240.834 105.086 241.758 104.568 242.682 104.568C243.578 104.568 244.124 105.212 244.124 106.304V109.426C244.124 109.776 244.404 110.07 244.754 110.07C245.118 110.07 245.398 109.776 245.398 109.426V106.22C245.398 104.386 244.502 103.322 242.878 103.322C242.164 103.322 241.226 103.658 240.834 104.442V104.036ZM254 110.14C255.862 110.14 257.43 108.782 257.43 106.71C257.43 104.638 255.862 103.322 254 103.322C252.138 103.322 250.584 104.638 250.584 106.71C250.584 108.782 252.138 110.14 254 110.14ZM254 108.908C252.824 108.908 251.844 108.04 251.844 106.71C251.844 105.394 252.824 104.568 254 104.568C255.176 104.568 256.156 105.394 256.156 106.71C256.156 108.04 255.176 108.908 254 108.908ZM260.358 100.48C260.358 100.13 260.078 99.836 259.714 99.836C259.364 99.836 259.084 100.13 259.084 100.48V109.426C259.084 109.776 259.364 110.07 259.714 110.07C260.078 110.07 260.358 109.776 260.358 109.426V100.48ZM266.9 109.426C266.9 109.776 267.18 110.07 267.544 110.07C267.894 110.07 268.174 109.776 268.174 109.426V104.036C268.174 103.686 267.894 103.392 267.544 103.392C267.18 103.392 266.9 103.686 266.9 104.036V106.99C266.9 108.376 265.976 108.894 265.052 108.894C264.156 108.894 263.61 108.25 263.61 107.158V104.036C263.61 103.686 263.33 103.392 262.98 103.392C262.616 103.392 262.336 103.686 262.336 104.036V107.242C262.336 109.076 263.232 110.14 264.856 110.14C265.57 110.14 266.508 109.804 266.9 109.02V109.426ZM271.459 104.036C271.459 103.686 271.179 103.392 270.815 103.392C270.465 103.392 270.185 103.686 270.185 104.036V109.426C270.185 109.776 270.465 110.07 270.815 110.07C271.179 110.07 271.459 109.776 271.459 109.426V106.472C271.459 105.086 272.383 104.568 273.307 104.568C274.203 104.568 274.749 105.212 274.749 106.304V109.426C274.749 109.776 275.029 110.07 275.379 110.07C275.743 110.07 276.023 109.776 276.023 109.426V106.22C276.023 104.386 275.127 103.322 273.503 103.322C272.789 103.322 271.851 103.658 271.459 104.442V104.036Z" fill="white"/>
<path d="M189.407 26.3571C189.407 12.3528 178.054 1 164.05 1C150.045 1 138.692 12.3528 138.692 26.3571C138.692 40.3615 150.045 51.7143 164.05 51.7143V51.7143C171.243 51.7143 177.736 48.7193 182.351 43.9084" stroke="white" stroke-width="2" stroke-linecap="round"/>
<path d="M185.505 23.4312L189.407 26.357L193.308 23.4312" stroke="white" stroke-width="2" stroke-linecap="round"/>
<rect x="155" y="22.2856" width="18" height="14.4643" rx="3" fill="white" stroke="white" stroke-width="2" stroke-linecap="round"/>
<path d="M158.273 22.2857V19.875C158.273 16.7684 160.837 14.25 164 14.25C166.34 14.25 168.352 15.628 169.241 17.6027" stroke="white" stroke-width="2" stroke-linecap="round"/>
</svg>
