<svg width="152" height="151" viewBox="0 0 152 151" fill="none" xmlns="http://www.w3.org/2000/svg">
<path d="M151.25 75.5C151.25 117.198 117.392 151 75.625 151C33.8585 151 0 117.198 0 75.5C0 33.8025 33.8585 0 75.625 0C117.392 0 151.25 33.8025 151.25 75.5ZM4.25664 75.5C4.25664 114.851 36.2093 146.75 75.625 146.75C115.041 146.75 146.993 114.851 146.993 75.5C146.993 36.1495 115.041 4.2496 75.625 4.2496C36.2093 4.2496 4.25664 36.1495 4.25664 75.5Z" fill="white"/>
<path d="M101.25 82.2676H92.7949C90.03 82.2676 87.7886 84.509 87.7886 87.274V93.5804C87.7886 96.3453 90.03 98.5867 92.7949 98.5867H96.2437C99.0086 98.5867 101.25 96.3453 101.25 93.5804V82.2676V75.548C101.25 60.7035 93.5578 48.6696 76.2501 48.6696C58.9425 48.6696 51.2502 60.7035 51.2502 75.548V82.2676V93.5804C51.2502 96.3453 53.4917 98.5867 56.2566 98.5867H59.7054C62.4703 98.5867 64.7117 96.3453 64.7117 93.5804V86.6837C64.7117 83.7786 62.2471 81.4834 59.3493 81.6901L51.2502 82.2676" stroke="white" stroke-width="5.00634" stroke-linecap="round"/>
</svg>
