<svg width="64" height="48" viewBox="0 0 64 48" fill="none" xmlns="http://www.w3.org/2000/svg">
<path d="M34.1421 0.791776C26.6381 1.24954 20.0918 5.62903 16.142 12.0568L7.0701 12.0572C3.1839 12.0572 0 15.3118 0 19.2553V29.3229C0 33.2664 3.1839 36.5188 7.0701 36.5188H16.142C20.0938 42.951 26.6341 47.3301 34.1421 47.7861C35.318 47.853 36.3243 46.9411 36.3922 45.7475C36.394 45.7049 36.3962 45.6601 36.394 45.6176L36.3944 2.94584C36.3927 1.75207 35.4364 0.787701 34.2565 0.789553C34.2181 0.789553 34.1824 0.789554 34.1422 0.791364L34.1421 0.791776ZM32.126 5.84986V42.7097C26.5702 41.6295 21.576 38.5066 18.8665 33.3431C18.4946 32.6338 17.7683 32.1919 16.9763 32.1942H7.07044C5.48243 32.1942 4.27042 30.9562 4.27042 29.3227V19.2551C4.27042 17.6217 5.48243 16.3836 7.07044 16.3836H16.9946C17.7866 16.3854 18.5125 15.9439 18.8826 15.2347C21.5925 10.0712 26.5747 6.93422 32.1261 5.85L32.126 5.84986ZM52.5216 24.2804C52.5216 29.31 48.4595 33.4403 43.4974 33.4403H43.4934C42.3152 33.4403 41.3613 32.4696 41.3634 31.2759C41.3634 30.0821 42.3192 29.1155 43.4974 29.1155C46.1475 29.1155 48.2515 26.9778 48.2515 24.2805C48.2515 21.5832 46.1475 19.4454 43.4974 19.4454C42.3175 19.4454 41.3634 18.477 41.3634 17.2851C41.3634 16.0896 42.3192 15.1229 43.4974 15.1229C48.4576 15.1206 52.5215 19.2509 52.5215 24.2805L52.5216 24.2804ZM49.1197 6.16831C49.3318 6.15428 49.5438 6.17012 49.7496 6.21716C57.9077 8.05685 64 15.4616 64 24.2644C64 33.1261 57.8321 40.5839 49.5919 42.3591C49.5879 42.3591 49.5861 42.3591 49.5821 42.3609C48.4303 42.6083 47.2941 41.8624 47.05 40.6949C46.804 39.5279 47.5401 38.3784 48.6919 38.1292C54.9901 36.7736 59.7322 31.0971 59.7322 24.2647C59.7322 17.4778 55.054 11.8522 48.8201 10.4464C47.8719 10.2497 47.1742 9.43319 47.1161 8.45655C47.0443 7.26556 47.9443 6.2419 49.1201 6.16906L49.1197 6.16831Z" fill="white"/>
</svg>
