<svg width="27" height="26" viewBox="0 0 27 26" fill="none" xmlns="http://www.w3.org/2000/svg">
<path d="M13.0983 0.311646C6.15785 0.311646 0.53125 5.93768 0.53125 12.8787C0.53125 19.8197 6.15785 25.4457 13.0983 25.4457C20.0387 25.4457 25.6653 19.8197 25.6653 12.8787C25.6653 5.93768 20.0387 0.311646 13.0983 0.311646ZM19.2295 18.4278C19.0276 18.7852 18.6563 18.9863 18.2736 18.9863C18.0946 18.9863 17.9099 18.9415 17.7405 18.8473C16.1715 17.9676 14.4616 17.4287 12.6546 17.2457C10.8438 17.0643 9.05589 17.248 7.33839 17.7964C6.76526 17.9794 6.14834 17.6627 5.96555 17.0886C5.78085 16.5136 6.09883 15.8988 6.67387 15.7148C8.67697 15.0749 10.7658 14.8572 12.8755 15.0716C14.9814 15.286 16.9769 15.9144 18.8087 16.9411C19.3361 17.2347 19.5246 17.9007 19.2295 18.4278ZM20.7337 14.6106C20.5395 14.9844 20.1587 15.1988 19.7645 15.1988C19.5932 15.1988 19.4218 15.1596 19.2599 15.0749C17.3311 14.0703 15.248 13.4482 13.064 13.2266C10.8629 13.0013 8.68269 13.1976 6.58057 13.8039C5.99982 13.9688 5.39432 13.6367 5.22866 13.0561C5.0611 12.4765 5.39621 11.871 5.97505 11.7037C8.34756 11.0195 10.8077 10.8004 13.2849 11.0517C15.745 11.3023 18.0946 12.003 20.271 13.1371C20.8042 13.416 21.0136 14.0756 20.7337 14.6106ZM21.2783 11.435C21.1145 11.435 20.9489 11.3981 20.7908 11.3204C18.5021 10.1791 16.0401 9.46825 13.4715 9.20758C10.899 8.94444 8.33995 9.14779 5.86272 9.80928C5.28007 9.96389 4.68218 9.61829 4.52604 9.03469C4.3699 8.45185 4.71646 7.85263 5.30102 7.69706C8.0334 6.96741 10.8591 6.7452 13.6943 7.03348C16.5257 7.32005 19.2409 8.10473 21.7657 9.36391C22.3065 9.63315 22.5255 10.2899 22.257 10.8295C22.0666 11.2135 21.68 11.435 21.2783 11.435Z" fill="#183A6C"/>
</svg>
