<svg width="30" height="30" viewBox="0 0 30 30" fill="none" xmlns="http://www.w3.org/2000/svg">
<path d="M15.0221 0.504395C7.06206 0.504395 0.608887 6.95692 0.608887 14.9176C0.608887 22.8782 7.06206 29.3308 15.0221 29.3308C22.9821 29.3308 29.4353 22.8782 29.4353 14.9176C29.4353 6.95692 22.9821 0.504395 15.0221 0.504395ZM22.054 21.2819C21.8225 21.6918 21.3966 21.9224 20.9577 21.9224C20.7524 21.9224 20.5406 21.8711 20.3462 21.763C18.5468 20.754 16.5857 20.136 14.5133 19.9262C12.4364 19.718 10.3858 19.9288 8.41603 20.5577C7.7587 20.7676 7.05115 20.4044 6.84151 19.746C6.62968 19.0865 6.99437 18.3813 7.65388 18.1704C9.95126 17.4364 12.3469 17.1868 14.7666 17.4327C17.1819 17.6786 19.4705 18.3992 21.5713 19.5768C22.1763 19.9135 22.3924 20.6774 22.054 21.2819ZM23.7792 16.904C23.5564 17.3327 23.1197 17.5786 22.6676 17.5786C22.4711 17.5786 22.2745 17.5336 22.0889 17.4364C19.8767 16.2842 17.4876 15.5708 14.9828 15.3166C12.4583 15.0582 9.95781 15.2834 7.54688 15.9787C6.88081 16.1678 6.18636 15.787 5.99637 15.1211C5.8042 14.4564 6.18853 13.7619 6.85241 13.5699C9.57345 12.7853 12.3949 12.5339 15.2361 12.8222C18.0576 13.1096 20.7524 13.9132 23.2485 15.2139C23.86 15.5339 24.1002 16.2903 23.7792 16.904ZM24.4037 13.2618C24.2159 13.2618 24.026 13.2194 23.8447 13.1303C21.2198 11.8214 18.3961 11.0061 15.4501 10.7072C12.4998 10.4054 9.56472 10.6386 6.72357 11.3973C6.05532 11.5746 5.3696 11.1782 5.19053 10.5089C5.01146 9.84043 5.40893 9.15318 6.07936 8.97476C9.21313 8.13792 12.4539 7.88307 15.7056 8.2137C18.9529 8.54237 22.0671 9.44232 24.9628 10.8865C25.583 11.1953 25.8341 11.9485 25.5262 12.5674C25.3078 13.0078 24.8645 13.2618 24.4037 13.2618Z" fill="white"/>
</svg>
