<svg width="25" height="25" viewBox="0 0 25 25" fill="none" xmlns="http://www.w3.org/2000/svg">
<path fill-rule="evenodd" clip-rule="evenodd" d="M19.6639 4.68828C20.1123 4.36576 20.7372 4.46775 21.0597 4.91609C22.5953 7.05078 23.5 9.67125 23.5 12.5001C23.5 15.3289 22.5953 17.9493 21.0597 20.084C20.7372 20.5324 20.1123 20.6343 19.6639 20.3118C19.2156 19.9893 19.1136 19.3644 19.4361 18.9161C20.7352 17.1103 21.5 14.896 21.5 12.5001C21.5 10.1041 20.7352 7.8898 19.4361 6.08402C19.1136 5.63569 19.2156 5.0108 19.6639 4.68828Z" fill="#0067B1"/>
<path fill-rule="evenodd" clip-rule="evenodd" d="M15.6732 7.67987C16.1262 7.36391 16.7495 7.47498 17.0655 7.92796C17.9696 9.22417 18.5 10.8017 18.5 12.5001C18.5 14.1984 17.9696 15.7759 17.0655 17.0722C16.7495 17.5251 16.1262 17.6362 15.6732 17.3202C15.2202 17.0043 15.1092 16.3809 15.4251 15.928C16.1027 14.9565 16.5 13.7762 16.5 12.5001C16.5 11.2239 16.1027 10.0436 15.4251 9.07215C15.1092 8.61918 15.2202 7.99583 15.6732 7.67987Z" fill="#0067B1"/>
<path fill-rule="evenodd" clip-rule="evenodd" d="M10.8823 3.21179C11.361 3.17411 11.8288 3.36787 12.1406 3.73299C12.4199 4.05994 12.4642 4.45319 12.4811 4.64408C12.5001 4.85805 12.5 5.12381 12.5 5.39419C12.5 5.40659 12.5 5.41901 12.5 5.43143L12.5 19.6059C12.5 19.8763 12.5001 20.1421 12.4811 20.356C12.4642 20.5469 12.4199 20.9402 12.1406 21.2671C11.8288 21.6322 11.361 21.826 10.8823 21.7883C10.4537 21.7546 10.1442 21.5079 9.9973 21.3849C9.83259 21.247 9.64469 21.059 9.45353 20.8678L6.26153 17.6758C6.1689 17.5832 6.1225 17.5371 6.08738 17.505L6.08472 17.5026L6.08114 17.5025C6.03365 17.5003 5.96826 17.5001 5.83726 17.5001L4.06812 17.5001C3.81574 17.5001 3.56994 17.5001 3.36178 17.4831C3.13318 17.4644 2.86345 17.4204 2.59202 17.2821C2.2157 17.0903 1.90974 16.7844 1.71799 16.408C1.57969 16.1366 1.53563 15.8669 1.51695 15.6383C1.49994 15.4301 1.49997 15.1843 1.5 14.932L1.50001 10.1001C1.50001 10.0894 1.5 10.0788 1.5 10.0682C1.49997 9.81577 1.49994 9.56998 1.51695 9.36182C1.53563 9.13323 1.57969 8.8635 1.71799 8.59207C1.90974 8.21575 2.2157 7.90979 2.59202 7.71804C2.86345 7.57974 3.13318 7.53568 3.36178 7.517C3.56993 7.49999 3.81572 7.50002 4.06811 7.50005C4.07873 7.50005 4.08936 7.50005 4.10001 7.50005H5.83726C5.96826 7.50005 6.03365 7.49982 6.08114 7.49764L6.08472 7.49747L6.08738 7.49506C6.1225 7.46301 6.1689 7.41695 6.26153 7.32432L9.42721 4.15863C9.436 4.14985 9.44477 4.14107 9.45354 4.1323C9.6447 3.94108 9.83259 3.75314 9.9973 3.61525C10.1442 3.49223 10.4537 3.24552 10.8823 3.21179Z" fill="#0067B1"/>
</svg>
