<svg width="24" height="25" viewBox="0 0 24 25" fill="none" xmlns="http://www.w3.org/2000/svg">
<path fill-rule="evenodd" clip-rule="evenodd" d="M11.6406 3.73287C11.3288 3.36775 10.861 3.17399 10.3823 3.21166C9.95368 3.2454 9.64424 3.4921 9.4973 3.61512C9.33259 3.75301 9.1447 3.94096 8.95354 4.13218L5.76153 7.3242C5.6689 7.41683 5.6225 7.46289 5.58738 7.49494L5.58472 7.49735L5.58114 7.49752C5.53365 7.49969 5.46826 7.49993 5.33726 7.49993L3.56811 7.49993C3.31573 7.4999 3.06993 7.49987 2.86178 7.51688C2.63318 7.53555 2.36345 7.57962 2.09202 7.71792C1.7157 7.90967 1.40974 8.21563 1.21799 8.59195C1.07969 8.86338 1.03563 9.13311 1.01695 9.3617C0.999943 9.56986 0.999973 9.81564 1 10.068L1 14.9318C0.999973 15.1842 0.999943 15.43 1.01695 15.6382C1.03563 15.8668 1.07969 16.1365 1.21799 16.4079C1.40974 16.7842 1.7157 17.0902 2.09202 17.2819C2.36345 17.4202 2.63318 17.4643 2.86178 17.483C3.06994 17.5 3.31574 17.5 3.56812 17.4999L5.33726 17.4999C5.46826 17.4999 5.53365 17.5002 5.58114 17.5023L5.58472 17.5025L5.58738 17.5049C5.6225 17.537 5.6689 17.583 5.76153 17.6757L8.95353 20.8677C9.14468 21.0589 9.3326 21.2469 9.4973 21.3847C9.64424 21.5078 9.95368 21.7545 10.3823 21.7882C10.861 21.8259 11.3288 21.6321 11.6406 21.267C11.9199 20.9401 11.9642 20.5468 11.9811 20.3559C12.0001 20.1419 12 19.8762 12 19.6058V5.39407C12 5.12369 12.0001 4.85793 11.9811 4.64396C11.9642 4.45307 11.9199 4.05981 11.6406 3.73287Z" fill="white"/>
<path d="M22.7071 8.79289C23.0976 9.18342 23.0976 9.81658 22.7071 10.2071L20.4142 12.5L22.7071 14.7929C23.0976 15.1834 23.0976 15.8166 22.7071 16.2071C22.3166 16.5976 21.6834 16.5976 21.2929 16.2071L19 13.9142L16.7071 16.2071C16.3166 16.5976 15.6834 16.5976 15.2929 16.2071C14.9024 15.8166 14.9024 15.1834 15.2929 14.7929L17.5858 12.5L15.2929 10.2071C14.9024 9.81658 14.9024 9.18342 15.2929 8.79289C15.6834 8.40237 16.3166 8.40237 16.7071 8.79289L19 11.0858L21.2929 8.79289C21.6834 8.40237 22.3166 8.40237 22.7071 8.79289Z" fill="white"/>
</svg>
