<svg width="78" height="31" viewBox="0 0 78 31" fill="none" xmlns="http://www.w3.org/2000/svg">
<path fill-rule="evenodd" clip-rule="evenodd" d="M5.98583 18.8106C5.98968 18.8086 5.99351 18.8066 5.99735 18.8046L5.97312 18.8128C5.97729 18.812 5.98152 18.8113 5.98583 18.8106ZM3.5742 19.7336C3.63859 19.7172 4.91393 19.3662 5.98583 18.8106C6.21366 18.7724 6.63452 18.8075 7.20864 18.8554C9.73597 19.0663 15.2334 19.5251 20.3101 15.0721C20.5847 14.8337 20.9967 14.9653 21.0855 15.3188C21.3601 16.4369 21.5217 17.6783 21.5378 19.0923C21.6186 25.1843 16.8208 30.2568 10.8356 30.2322C7.28162 30.224 4.1396 28.4317 2.20916 25.7023C1.99107 25.3981 2.28185 24.987 2.63725 25.0857C7.60772 26.5043 12.5531 25.3862 14.9329 24.8482C15.5734 24.7034 16.028 24.6006 16.2473 24.6006C17.3619 24.7486 18.5735 24.4937 18.8401 24.4197H18.8885C19.0985 24.3704 19.2116 24.1238 19.0662 23.9265C18.9935 23.836 18.8643 23.7949 18.7512 23.8196C18.7431 23.8237 18.7431 23.8237 18.7401 23.8237C18.7371 23.8237 18.731 23.8237 18.7108 23.8278C18.5493 23.8689 17.685 24.0498 16.8046 24.0251C16.7642 24.0251 16.74 23.9922 16.74 23.9593C16.74 23.9265 16.7723 23.8936 16.8046 23.8936C17.1277 23.8689 17.4427 23.8196 17.7254 23.7538C18.6866 23.5318 19.3651 23.1454 19.4055 23.1208C19.5832 23.0139 19.6397 22.8001 19.5428 22.6275C19.4459 22.4631 19.2278 22.4055 19.0501 22.5042C19.0495 22.5045 19.048 22.5053 19.0454 22.5067C18.9701 22.5481 18.0404 23.0588 16.8692 23.1701C16.8127 23.1701 16.7642 23.129 16.7642 23.0714C16.7642 23.0303 16.7965 22.9892 16.8369 22.981C16.9177 22.9646 18.2666 22.5782 19.2682 21.7643C19.4135 21.6409 19.462 21.4272 19.3489 21.271C19.2278 21.0983 18.9774 21.0737 18.8158 21.2134C18.7997 21.2299 17.992 21.9122 16.8935 22.2329C16.8369 22.2493 16.7885 22.2082 16.7885 22.1507C16.7885 22.1178 16.8127 22.0849 16.845 22.0767C17.895 21.6738 18.5735 21.0079 18.6139 20.9668C18.7512 20.8188 18.7512 20.5968 18.6139 20.4571C18.4766 20.3173 18.2504 20.3173 18.105 20.4571C18.0889 20.4735 17.1923 21.3368 15.9484 21.5834C15.8596 21.5998 15.7869 21.5012 15.8354 21.419C16.0815 21.0089 16.2313 20.6971 16.2654 20.6259C16.2683 20.62 16.2703 20.6158 16.2715 20.6133C16.3685 20.3913 16.2715 20.1364 16.0534 20.046C15.8354 19.9474 15.5769 20.0542 15.48 20.268C15.479 20.2689 15.4731 20.2809 15.4623 20.3024C15.3786 20.4701 15.0043 21.2202 14.4461 21.9122C14.0826 22.3562 13.3234 22.833 12.7741 22.9892C11.0133 23.4743 6.59506 24.3211 1.96684 22.1342C0.916805 21.6327 0.222168 20.5722 0.222168 19.3883V19.3719C0.222168 13.2237 3.25498 10.0644 6.15328 7.04526C8.07622 5.04213 9.93994 3.10068 10.8194 0.388916C11.8479 3.00352 13.6615 4.83205 15.5084 6.69428C16.6059 7.80082 17.7151 8.91925 18.6785 10.2216C19.4055 11.2081 19.3005 12.5975 18.4201 13.4525C13.6626 18.0976 8.69513 16.6588 7.83087 16.3793C6.62737 15.886 5.81158 14.25 5.81158 14.2336C5.71465 14.028 5.46426 13.9376 5.25425 14.0445C5.05232 14.1431 4.96347 14.398 5.06848 14.6117C5.08463 14.6528 5.33502 15.1543 5.76311 15.7134C5.81158 15.7792 5.77927 15.8778 5.6985 15.9025C4.86655 16.1327 3.52573 15.5736 3.03303 15.3106C2.87148 15.2201 2.66955 15.2694 2.57263 15.4174C2.45955 15.5901 2.52416 15.8285 2.70186 15.9271C2.7584 15.96 3.7519 16.478 4.78578 16.6177C4.84232 16.626 4.8827 16.6753 4.8827 16.7328C4.87462 16.7904 4.82616 16.8397 4.76962 16.8397C3.8776 16.8617 2.96636 16.538 2.76628 16.467C2.74171 16.4582 2.72786 16.4533 2.7261 16.4533C2.5484 16.3793 2.34647 16.4698 2.27377 16.6506C2.20108 16.8315 2.28993 17.037 2.46763 17.111C2.53224 17.1439 3.7842 17.6372 5.01194 17.5385C5.05232 17.5385 5.09271 17.5632 5.10078 17.6043C5.11694 17.6536 5.08463 17.6947 5.04424 17.7112C3.99423 18.0318 2.85368 17.7853 2.68313 17.7485C2.67001 17.7456 2.66263 17.7441 2.66148 17.7441C2.46762 17.6947 2.2657 17.8263 2.23339 18.0318C2.20916 18.2127 2.33031 18.3935 2.50801 18.4346C3.45636 18.6742 4.7488 18.473 5.14985 18.4105C5.21676 18.4001 5.25886 18.3935 5.2704 18.3935C5.29464 18.3935 5.31079 18.41 5.31079 18.4182C5.31079 18.4264 5.31079 18.4429 5.29464 18.4593C4.93924 18.7306 3.42073 19.1417 3.41265 19.1417C3.25111 19.191 3.16226 19.3554 3.20265 19.5198C3.25111 19.6761 3.40458 19.7665 3.55804 19.7336H3.5742ZM30.9165 8.85237L32.7019 13.7454V13.753L34.2973 8.85998H35.1482L33.0514 14.902C32.6335 16.1196 32.1169 16.5533 31.3116 16.5533C30.9621 16.5533 30.605 16.462 30.2555 16.2794L30.5063 15.5945C30.7342 15.7315 30.9773 15.8076 31.2812 15.8076C31.7294 15.8076 32.0029 15.5564 32.3068 14.7955L30.0276 8.85237H30.9165ZM36.1359 9.24046C36.6981 8.97412 37.2755 8.78389 38.0048 8.78389L37.9972 8.79911C38.719 8.79911 39.2736 8.98934 39.6611 9.37743C40.0409 9.72748 40.2309 10.2678 40.2309 10.9831V14.8031H39.4255V13.9356C39.0685 14.4835 38.4911 14.9248 37.625 14.9248C36.6221 14.9248 35.7028 14.2476 35.7028 13.0757V13.0301C35.7028 11.7973 36.5917 11.1124 37.8985 11.1124C38.5367 11.1124 38.9849 11.219 39.4255 11.3635V10.9983C39.4255 10.0395 38.8785 9.52963 37.9213 9.52963C37.3135 9.52963 36.8045 9.71226 36.3942 9.92533L36.1359 9.24046ZM37.7997 14.2324C38.7038 14.2324 39.4407 13.5932 39.4407 12.7409V11.9799C39.0609 11.8582 38.5822 11.7516 38.0048 11.7516C37.0476 11.7516 36.5385 12.231 36.5385 12.992V13.0377C36.5385 13.7758 37.0704 14.2324 37.7997 14.2324ZM42.6544 8.85237V10.1612H42.662C43.0115 9.32417 43.7332 8.72301 44.6981 8.76867V9.65899H44.6373C43.5433 9.65899 42.6544 10.4352 42.6544 11.9647V14.7955H41.8339V8.85237H42.6544ZM46.719 14.7955H45.8985V8.85237H46.719V14.7955ZM49.2869 9.81879C49.6212 9.22524 50.1454 8.73823 51.0419 8.73823C52.2651 8.73823 52.9792 9.56007 52.9792 10.8918V14.7955H52.1587V11.1353C52.1587 10.0775 51.6573 9.48397 50.7912 9.48397C49.9251 9.48397 49.2869 10.1764 49.2869 11.1809V14.7955H48.4664V8.85237H49.2869V9.81879ZM55.4712 14.7955H54.6506V8.85237H55.4712V14.7955ZM58.0391 9.81879C58.3733 9.22524 58.8976 8.73823 59.794 8.73823C61.0172 8.73823 61.7314 9.56007 61.7314 10.8918V14.7955H60.9109V11.1353C60.9109 10.0775 60.4094 9.48397 59.5433 9.48397C58.6772 9.48397 58.0391 10.1764 58.0391 11.1809V14.7955H57.2185V8.85237H58.0391V9.81879ZM32.9031 20.5801C32.9655 20.6091 33.0302 20.6392 33.097 20.6706C33.9858 21.1044 34.7152 21.5229 34.7152 22.5046V22.5274C34.7152 23.7906 33.7807 24.4298 32.5651 24.4298C31.8358 24.4298 30.9925 24.1863 30.2555 23.5851L30.9621 22.4437C31.5091 22.8698 32.0865 23.1285 32.5879 23.1285C33.0438 23.1285 33.2337 22.9231 33.2337 22.6644V22.6415C33.2337 22.3227 32.8619 22.1681 32.2906 21.9303C32.2345 21.907 32.1766 21.8829 32.1169 21.8577C31.2508 21.4925 30.5138 21.0359 30.5138 20.0086V19.9858C30.5138 18.7987 31.4255 18.1138 32.6107 18.1138C33.2793 18.1138 34.001 18.3345 34.624 18.7758L33.9782 19.9401C33.5224 19.6281 33.0286 19.4151 32.5879 19.4151C32.1853 19.4151 31.9953 19.6129 31.9953 19.8488V19.8716C31.9953 20.1582 32.3618 20.3285 32.9031 20.5801ZM38.1264 22.9687C38.6734 22.9687 39.0153 22.6187 39.0153 21.8882V18.2051H40.6335V24.3156H39.0153V23.4938C38.6886 23.9884 38.2176 24.4298 37.4578 24.4298C36.303 24.4298 35.6573 23.646 35.6573 22.3676V18.2051H37.2603V21.8882C37.2603 22.6187 37.5794 22.9687 38.1264 22.9687ZM43.1634 18.2051L44.3106 22.2534L45.4275 18.2051H47.0685L45.0628 24.3994C44.6449 25.6245 44.1967 26.0887 43.2318 26.0887C42.7456 26.0887 42.3201 25.9517 41.9251 25.7234L42.3657 24.5135C42.5632 24.6429 42.814 24.719 43.0267 24.719C43.2926 24.719 43.4293 24.6353 43.5509 24.3309L41.4768 18.2051H43.1634ZM50.3581 22.9687C50.9051 22.9687 51.247 22.6187 51.247 21.8882V18.2051H52.8653V24.3156H51.247V23.4938C50.9203 23.9884 50.4493 24.4298 49.6896 24.4298C48.5348 24.4298 47.889 23.646 47.889 22.3676V18.2051H49.492V21.8882C49.492 22.6187 49.8111 22.9687 50.3581 22.9687ZM55.9118 24.3156H54.1492V22.5578H55.9118V24.3156ZM58.3961 21.287C58.3961 22.2991 58.852 23.0068 59.6725 23.0068V23.0144C60.1587 23.0144 60.455 22.7861 60.7741 22.4589L61.625 23.5319C61.1236 24.095 60.5082 24.4678 59.5509 24.4678C57.9327 24.4678 56.7855 23.1514 56.7855 21.3631V21.2261C56.7855 19.4074 57.9707 18.0986 59.6117 18.0986C60.4854 18.0986 61.0704 18.3878 61.6022 18.9204L60.7285 20.0923C60.417 19.7803 60.1207 19.5444 59.6345 19.5444C58.8976 19.5444 58.3961 20.2521 58.3961 21.2414V21.287ZM62.1416 21.2185C62.1416 19.3998 63.3724 18.091 65.021 18.091H65.0286C66.6697 18.091 67.8852 19.377 67.8852 21.2033V21.3251C67.8852 23.1438 66.6697 24.4526 65.0134 24.4526C63.3572 24.4526 62.1416 23.1666 62.1416 21.3403V21.2185ZM65.021 23.0525C65.8036 23.0525 66.2822 22.3067 66.2822 21.3175H66.2898V21.2414C66.2898 20.2369 65.8263 19.4988 65.0134 19.4988C64.2005 19.4988 63.7371 20.2445 63.7371 21.2338V21.3098C63.7371 22.2763 64.2385 23.0525 65.021 23.0525ZM73.644 18.9813C74.0923 18.441 74.6393 18.091 75.3762 18.091V18.0834C76.4702 18.0834 77.1844 18.7835 77.1844 20.138V24.3156H75.5813V20.6326C75.5813 19.9173 75.2775 19.552 74.738 19.552C74.1986 19.552 73.8719 19.9173 73.8719 20.6326V24.3156H72.2537V20.6326C72.2537 19.9173 71.965 19.552 71.4256 19.552C70.8862 19.552 70.5595 19.9173 70.5595 20.6326V24.3156H68.9413V18.2051H70.5595V19.027C70.9242 18.5095 71.38 18.091 72.1397 18.091C72.8615 18.091 73.3629 18.4334 73.644 18.9813Z" fill="white"/>
</svg>
