<svg width="168" height="99" viewBox="0 0 168 99" fill="none" xmlns="http://www.w3.org/2000/svg">
<path fill-rule="evenodd" clip-rule="evenodd" d="M73.1672 38.8885C73.1753 38.8843 73.1834 38.8801 73.1915 38.8759L73.1404 38.8933C73.1492 38.8916 73.1581 38.8901 73.1672 38.8885ZM68.0762 40.8371C68.2121 40.8025 70.9044 40.0614 73.1672 38.8885C73.6482 38.808 74.5366 38.8821 75.7486 38.9833C81.0838 39.4284 92.6891 40.3968 103.406 30.9966C103.986 30.4933 104.855 30.771 105.043 31.5173C105.623 33.8776 105.964 36.4982 105.998 39.4834C106.168 52.3436 96.04 63.0519 83.4052 62.9998C75.9027 62.9825 69.2698 59.199 65.1946 53.437C64.7342 52.7949 65.348 51.9271 66.0983 52.1354C76.5911 55.1302 87.0309 52.7699 92.0546 51.6341C93.4068 51.3284 94.3665 51.1114 94.8294 51.1114C97.1824 51.4238 99.7401 50.8858 100.303 50.7296H100.405C100.848 50.6255 101.087 50.1048 100.78 49.6883C100.627 49.4974 100.354 49.4106 100.115 49.4627C100.103 49.4691 100.099 49.4707 100.096 49.4712C100.09 49.4719 100.084 49.4691 100.03 49.48C99.689 49.5668 97.8645 49.9486 96.0059 49.8965C95.9207 49.8965 95.8695 49.8271 95.8695 49.7577C95.8695 49.6883 95.9377 49.6189 96.0059 49.6189C96.688 49.5668 97.353 49.4627 97.9498 49.3238C99.9788 48.8552 101.411 48.0395 101.496 47.9875C101.872 47.7618 101.991 47.3106 101.786 46.9461C101.582 46.599 101.121 46.4775 100.746 46.6858C100.745 46.6864 100.742 46.6882 100.736 46.6912C100.578 46.7784 98.6149 47.8567 96.1423 48.0916C96.023 48.0916 95.9207 48.0048 95.9207 47.8833C95.9207 47.7966 95.9889 47.7098 96.0741 47.6924C96.2446 47.6577 99.0922 46.842 101.207 45.1238C101.513 44.8635 101.616 44.4123 101.377 44.0825C101.121 43.718 100.593 43.666 100.252 43.961C100.218 43.9957 98.5124 45.4362 96.1935 46.1131C96.0741 46.1478 95.9718 46.061 95.9718 45.9395C95.9718 45.8701 96.023 45.8007 96.0912 45.7833C98.3078 44.9329 99.7401 43.5271 99.8254 43.4404C100.115 43.128 100.115 42.6594 99.8254 42.3643C99.5355 42.0693 99.0581 42.0693 98.7512 42.3643C98.717 42.399 96.8244 44.2214 94.1985 44.742C94.0109 44.7767 93.8575 44.5685 93.9598 44.3949C94.4795 43.5294 94.7955 42.8711 94.8677 42.7208C94.8736 42.7083 94.8779 42.6994 94.8806 42.6941C95.0852 42.2255 94.8806 41.6875 94.4202 41.4966C93.9598 41.2883 93.4142 41.5139 93.2095 41.9652C93.2076 41.9671 93.195 41.9923 93.1723 42.0379C92.9956 42.3919 92.2054 43.9754 91.027 45.4362C90.2597 46.3734 88.6569 47.38 87.4974 47.7098C83.7803 48.7337 74.4533 50.5213 64.683 45.9048C62.4664 44.8461 61 42.6073 61 40.1081V40.0734C61 27.0945 67.4023 20.4252 73.5207 14.0517C77.5801 9.82304 81.5144 5.72459 83.3711 0C85.5423 5.51948 89.3707 9.37954 93.2696 13.3108C95.5864 15.6467 97.9281 18.0077 99.9618 20.757C101.496 22.8396 101.275 25.7726 99.4162 27.5776C89.373 37.3834 78.8866 34.3462 77.0621 33.7561C74.5215 32.7148 72.7994 29.2611 72.7994 29.2264C72.5948 28.7925 72.0662 28.6016 71.6228 28.8272C71.1966 29.0354 71.009 29.5735 71.2307 30.0247C71.2648 30.1115 71.7934 31.1702 72.6971 32.3503C72.7994 32.4892 72.7312 32.6974 72.5607 32.7495C70.8044 33.2354 67.9739 32.0553 66.9338 31.4999C66.5928 31.309 66.1665 31.4131 65.9619 31.7255C65.7232 32.09 65.8596 32.5933 66.2347 32.8016C66.354 32.871 68.4513 33.9644 70.6339 34.2594C70.7532 34.2768 70.8385 34.3809 70.8385 34.5024C70.8214 34.6239 70.7191 34.728 70.5998 34.728C68.7167 34.7744 66.793 34.0911 66.3707 33.9411C66.3188 33.9227 66.2896 33.9123 66.2859 33.9123C65.9107 33.7561 65.4844 33.947 65.331 34.3288C65.1775 34.7106 65.3651 35.1445 65.7402 35.3007C65.8766 35.3701 68.5195 36.4115 71.1113 36.2032C71.1966 36.2032 71.2818 36.2553 71.2989 36.342C71.333 36.4462 71.2648 36.5329 71.1795 36.5677C68.9629 37.2445 66.5552 36.7242 66.1952 36.6464C66.1674 36.6404 66.1519 36.6371 66.1494 36.6371C65.7402 36.5329 65.3139 36.8106 65.2457 37.2445C65.1946 37.6263 65.4503 38.0082 65.8255 38.0949C67.8275 38.6006 70.5558 38.1758 71.4024 38.044C71.5437 38.022 71.6326 38.0081 71.6569 38.0081C71.7081 38.0081 71.7422 38.0429 71.7422 38.0602C71.7422 38.0776 71.7422 38.1123 71.7081 38.147C70.9579 38.7197 67.7522 39.5875 67.7352 39.5875C67.3942 39.6916 67.2066 40.0387 67.2919 40.3858C67.3942 40.7156 67.7181 40.9065 68.0421 40.8371H68.0762ZM1.87647 82.6265L5.64544 92.9557V92.9718L9.01346 82.6426H10.8097L6.3832 95.3974C5.5011 97.9677 4.4105 98.8833 2.71045 98.8833C1.9727 98.8833 1.2189 98.6906 0.481145 98.305L1.01041 96.8593C1.49155 97.1484 2.00477 97.3091 2.6463 97.3091C3.59255 97.3091 4.16993 96.7789 4.81145 95.1725L0 82.6265H1.87647ZM12.8947 83.4458C14.0815 82.8835 15.3004 82.4819 16.8401 82.4819L16.8241 82.5141C18.3477 82.5141 19.5185 82.9157 20.3364 83.7349C21.1383 84.4739 21.5393 85.6144 21.5393 87.1244V95.1886H19.8392V93.3573C19.0854 94.5139 17.8665 95.4456 16.0382 95.4456C13.9211 95.4456 11.9805 94.0159 11.9805 91.5421V91.4457C11.9805 88.8433 13.857 87.3975 16.6156 87.3975C17.9628 87.3975 18.909 87.6224 19.8392 87.9276V87.1566C19.8392 85.1325 18.6845 84.0562 16.6637 84.0562C15.3806 84.0562 14.3061 84.4417 13.44 84.8915L12.8947 83.4458ZM16.4071 93.9838C18.3156 93.9838 19.8713 92.6344 19.8713 90.8352V89.2288C19.0694 88.9718 18.059 88.7469 16.8401 88.7469C14.8193 88.7469 13.7447 89.7589 13.7447 91.3654V91.4617C13.7447 93.02 14.8674 93.9838 16.4071 93.9838ZM26.6555 82.6265V85.3895H26.6715C27.4093 83.6225 28.9329 82.3534 30.9697 82.4498V84.3293H30.8414C28.5319 84.3293 26.6555 85.9678 26.6555 89.1967V95.1725H24.9233V82.6265H26.6555ZM35.2359 95.1725H33.5038V82.6265H35.2359V95.1725ZM40.6568 84.6666C41.3625 83.4136 42.4691 82.3855 44.3616 82.3855C46.9438 82.3855 48.4513 84.1205 48.4513 86.9317V95.1725H46.7192V87.4457C46.7192 85.2128 45.6607 83.9598 43.8324 83.9598C42.004 83.9598 40.6568 85.4217 40.6568 87.5421V95.1725H38.9247V82.6265H40.6568V84.6666ZM53.7119 95.1725H51.9797V82.6265H53.7119V95.1725ZM59.1328 84.6666C59.8385 83.4136 60.9451 82.3855 62.8376 82.3855C65.4197 82.3855 66.9273 84.1205 66.9273 86.9317V95.1725H65.1952V87.4457C65.1952 85.2128 64.1367 83.9598 62.3083 83.9598C60.48 83.9598 59.1328 85.4217 59.1328 87.5421V95.1725H57.4007V82.6265H59.1328V84.6666ZM74.5211 87.2707C74.6529 87.3319 74.7895 87.3954 74.9304 87.4618C76.8069 88.3774 78.3465 89.261 78.3465 91.3332V91.3814C78.3465 94.0481 76.3738 95.3974 73.8077 95.3974C72.2681 95.3974 70.4878 94.8834 68.9321 93.6143L70.4237 91.2047C71.5784 92.1043 72.7973 92.6505 73.8558 92.6505C74.8181 92.6505 75.2191 92.2168 75.2191 91.6706V91.6224C75.2191 90.9494 74.4343 90.6229 73.2281 90.121C73.1098 90.0718 72.9875 90.0209 72.8615 89.9678C71.0331 89.1967 69.4774 88.2329 69.4774 86.0642V86.016C69.4774 83.51 71.402 82.0643 73.9039 82.0643C75.3153 82.0643 76.8389 82.5301 78.1541 83.4618L76.7908 85.9196C75.8285 85.261 74.786 84.8112 73.8558 84.8112C73.0058 84.8112 72.6049 85.2289 72.6049 85.7269V85.7751C72.6049 86.38 73.3785 86.7396 74.5211 87.2707ZM85.5477 92.3131C86.7024 92.3131 87.4241 91.5742 87.4241 90.032V82.257H90.8403V95.1565H87.4241V93.4216C86.7345 94.4657 85.7401 95.3974 84.1363 95.3974C81.6985 95.3974 80.3353 93.7428 80.3353 91.0441V82.257H83.7193V90.032C83.7193 91.5742 84.3929 92.3131 85.5477 92.3131ZM96.181 82.257L98.6027 90.8031L100.96 82.257H104.425L100.191 95.3332C99.3084 97.9195 98.3622 98.8994 96.3253 98.8994C95.2989 98.8994 94.4007 98.6102 93.5667 98.1283L94.497 95.5741C94.914 95.8472 95.4432 96.0079 95.8923 96.0079C96.4536 96.0079 96.7423 95.8312 96.9989 95.1886L92.6205 82.257H96.181ZM111.369 92.3131C112.524 92.3131 113.246 91.5742 113.246 90.032V82.257H116.662V95.1565H113.246V93.4216C112.556 94.4657 111.562 95.3974 109.958 95.3974C107.52 95.3974 106.157 93.7428 106.157 91.0441V82.257H109.541V90.032C109.541 91.5742 110.214 92.3131 111.369 92.3131ZM123.093 95.1565H119.372V91.4457H123.093V95.1565ZM128.338 88.763C128.338 90.8995 129.3 92.3935 131.032 92.3935V92.4095C132.058 92.4095 132.684 91.9276 133.357 91.2368L135.154 93.5019C134.095 94.6906 132.796 95.4778 130.775 95.4778C127.359 95.4778 124.937 92.6987 124.937 88.9236V88.6345C124.937 84.7952 127.439 82.0321 130.904 82.0321C132.748 82.0321 133.983 82.6426 135.106 83.7671L133.261 86.2409C132.604 85.5823 131.978 85.0843 130.952 85.0843C129.396 85.0843 128.338 86.5783 128.338 88.6666V88.763ZM136.244 88.6184C136.244 84.7791 138.843 82.0161 142.323 82.0161H142.339C145.803 82.0161 148.369 84.7309 148.369 88.5863V88.8433C148.369 92.6826 145.803 95.4456 142.307 95.4456C138.81 95.4456 136.244 92.7308 136.244 88.8754V88.6184ZM142.323 92.4898C143.975 92.4898 144.985 90.9156 144.985 88.8272H145.001V88.6666C145.001 86.5461 144.023 84.9879 142.307 84.9879C140.591 84.9879 139.612 86.5622 139.612 88.6505V88.8112C139.612 90.8513 140.671 92.4898 142.323 92.4898ZM160.526 83.8956C161.472 82.755 162.627 82.0161 164.183 82.0161V82C166.492 82 168 83.4779 168 86.3373V95.1565H164.616V87.3815C164.616 85.8715 163.974 85.1004 162.836 85.1004C161.697 85.1004 161.007 85.8715 161.007 87.3815V95.1565H157.591V87.3815C157.591 85.8715 156.982 85.1004 155.843 85.1004C154.704 85.1004 154.015 85.8715 154.015 87.3815V95.1565H150.599V82.257H154.015V83.992C154.784 82.8996 155.747 82.0161 157.351 82.0161C158.874 82.0161 159.933 82.7389 160.526 83.8956Z" fill="white"/>
</svg>
