<svg width="32" height="32" viewBox="0 0 32 32" fill="none" xmlns="http://www.w3.org/2000/svg">
<g clip-path="url(#clip0_1_74)">
<path d="M30.9175 9.36864C30.9175 9.36864 30.6125 7.21557 29.6732 6.27018C28.4839 5.02591 27.1542 5.01981 26.5443 4.94662C22.1772 4.62946 15.6204 4.62946 15.6204 4.62946H15.6082C15.6082 4.62946 9.05141 4.62946 4.68429 4.94662C4.07435 5.01981 2.7447 5.02591 1.55533 6.27018C0.616032 7.21557 0.317165 9.36864 0.317165 9.36864C0.317165 9.36864 0 11.8999 0 14.425V16.7915C0 19.3166 0.311066 21.8479 0.311066 21.8479C0.311066 21.8479 0.616032 24.0009 1.54923 24.9463C2.7386 26.1906 4.30003 26.1479 4.99535 26.2821C7.49608 26.52 15.6143 26.5931 15.6143 26.5931C15.6143 26.5931 22.1772 26.5809 26.5443 26.2699C27.1542 26.1967 28.4839 26.1906 29.6732 24.9463C30.6125 24.0009 30.9175 21.8479 30.9175 21.8479C30.9175 21.8479 31.2286 19.3227 31.2286 16.7915V14.425C31.2286 11.8999 30.9175 9.36864 30.9175 9.36864ZM12.3877 19.6643V10.8874L20.8231 15.2911L12.3877 19.6643Z" fill="white"/>
</g>
<defs>
<clipPath id="clip0_1_74">
<rect width="31.2286" height="31.2286" fill="white"/>
</clipPath>
</defs>
</svg>
