<svg width="28" height="28" viewBox="0 0 28 28" fill="none" xmlns="http://www.w3.org/2000/svg">
<g clip-path="url(#clip0_1070_116)">
<path d="M27.1156 8.16865C27.1156 8.16865 26.8496 6.29137 26.0307 5.46706C24.9936 4.38217 23.8343 4.37686 23.3025 4.31304C19.4947 4.0365 13.7778 4.0365 13.7778 4.0365H13.7672C13.7672 4.0365 8.05023 4.0365 4.24249 4.31304C3.71068 4.37686 2.55134 4.38217 1.51431 5.46706C0.695329 6.29137 0.434743 8.16865 0.434743 8.16865C0.434743 8.16865 0.158203 10.3757 0.158203 12.5773V14.6408C0.158203 16.8424 0.429425 19.0494 0.429425 19.0494C0.429425 19.0494 0.695329 20.9267 1.509 21.751C2.54602 22.8359 3.90745 22.7987 4.51371 22.9157C6.69412 23.1231 13.7725 23.1869 13.7725 23.1869C13.7725 23.1869 19.4947 23.1763 23.3025 22.9051C23.8343 22.8412 24.9936 22.8359 26.0307 21.751C26.8496 20.9267 27.1156 19.0494 27.1156 19.0494C27.1156 19.0494 27.3868 16.8478 27.3868 14.6408V12.5773C27.3868 10.3757 27.1156 8.16865 27.1156 8.16865ZM10.9592 17.1456V9.49285L18.3141 13.3325L10.9592 17.1456Z" fill="#183A6C"/>
</g>
<defs>
<clipPath id="clip0_1070_116">
<rect width="27.2286" height="27.2286" fill="white" transform="translate(0.158203)"/>
</clipPath>
</defs>
</svg>
