<svg width="72" height="36" viewBox="0 0 72 36" fill="none" xmlns="http://www.w3.org/2000/svg">
<path d="M20.8334 18L17.5274 13.345C18.7624 12.585 19.5034 11.312 19.5034 9.773C19.5034 7.17 17.4514 5.46 14.6584 5.46H9.7374V18H13.0054V14.105H14.3544L17.1854 18H20.8334ZM13.0054 8.31H14.6774C15.5894 8.31 16.1784 8.88 16.1784 9.773C16.1784 10.666 15.5894 11.255 14.6774 11.255H13.0054V8.31ZM22.1319 18H31.0619V15.055H25.3999V12.87H29.2759V10.134H25.3999V8.405H30.8339V5.46H22.1319V18ZM32.2808 15.416C33.1928 17.145 35.0168 18.228 37.2778 18.228C39.8808 18.228 41.8757 16.746 41.8757 14.314C41.8757 12.547 40.8498 11.445 38.6648 10.533L37.2208 9.925C36.4038 9.602 36.1378 9.355 36.1378 8.899C36.1378 8.367 36.5748 8.101 37.2588 8.101C38.1518 8.101 38.7218 8.519 39.3298 9.431L41.5148 7.759C40.7548 6.22 39.2918 5.232 37.2208 5.232C34.6558 5.232 32.8318 6.714 32.8318 8.937C32.8318 10.628 33.9338 11.806 36.0048 12.718L37.2968 13.288C38.2848 13.725 38.5698 13.896 38.5698 14.447C38.5698 15.055 38.1328 15.359 37.2778 15.359C36.0048 15.359 35.2258 14.732 34.4848 13.744L32.2808 15.416ZM43.7296 18H46.9976V5.46H43.7296V18ZM43.3496 2.458C43.3496 3.541 44.2236 4.377 45.3446 4.377C46.4656 4.377 47.3586 3.522 47.3586 2.458C47.3586 1.375 46.4656 0.52 45.3446 0.52C44.2236 0.52 43.3496 1.375 43.3496 2.458ZM61.2231 5.232L55.8841 11.749L50.5451 5.232H49.5001V18H52.7681V12.756L55.3521 15.777H56.3971L59.0001 12.737V18H62.2681V5.232H61.2231ZM0.710543 35H3.97854V31.105H5.63154C8.36754 31.105 10.4765 29.338 10.4765 26.773C10.4765 24.17 8.42454 22.46 5.63154 22.46H0.710543V35ZM3.97854 28.255V25.31H5.65054C6.56254 25.31 7.15154 25.88 7.15154 26.773C7.15154 27.666 6.56254 28.255 5.65054 28.255H3.97854ZM23.3476 35L20.0416 30.345C21.2766 29.585 22.0176 28.312 22.0176 26.773C22.0176 24.17 19.9656 22.46 17.1726 22.46H12.2516V35H15.5196V31.105H16.8686L19.6996 35H23.3476ZM15.5196 25.31H17.1916C18.1036 25.31 18.6926 25.88 18.6926 26.773C18.6926 27.666 18.1036 28.255 17.1916 28.255H15.5196V25.31ZM23.7218 28.73C23.6458 32.359 26.7998 35.285 30.4668 35.228C34.1148 35.285 37.3258 32.359 37.2498 28.73C37.3258 25.139 34.1148 22.156 30.4668 22.232C26.7998 22.156 23.6458 25.139 23.7218 28.73ZM33.9058 28.73C33.9058 30.82 32.4238 32.226 30.4858 32.226C29.4788 32.226 28.6428 31.903 28.0158 31.276C27.3888 30.63 27.0658 29.775 27.0658 28.73C27.0658 26.659 28.4718 25.234 30.4858 25.234C32.4238 25.234 33.9058 26.659 33.9058 28.73ZM37.8144 35C38.4414 35.152 39.0874 35.228 39.7334 35.228C42.4504 35.228 43.9134 33.936 43.9134 31.371V22.46H40.6454V31.01C40.6454 31.922 40.2084 32.264 39.0114 32.264L37.8144 32.226V35ZM46.4293 35H55.3593V32.055H49.6973V29.87H53.5733V27.134H49.6973V25.405H55.1313V22.46H46.4293V35ZM56.5781 32.416C57.4901 34.145 59.3141 35.228 61.5751 35.228C64.1781 35.228 66.1731 33.746 66.1731 31.314C66.1731 29.547 65.1471 28.445 62.9621 27.533L61.5181 26.925C60.7011 26.602 60.4351 26.355 60.4351 25.899C60.4351 25.367 60.8721 25.101 61.5561 25.101C62.4491 25.101 63.0191 25.519 63.6271 26.431L65.8121 24.759C65.0521 23.22 63.5891 22.232 61.5181 22.232C58.9531 22.232 57.1291 23.714 57.1291 25.937C57.1291 27.628 58.2311 28.806 60.3021 29.718L61.5941 30.288C62.5821 30.725 62.8671 30.896 62.8671 31.447C62.8671 32.055 62.4301 32.359 61.5751 32.359C60.3021 32.359 59.5231 31.732 58.7821 30.744L56.5781 32.416ZM68.0269 35H71.2949V22.46H68.0269V35ZM67.6469 19.458C67.6469 20.541 68.5209 21.377 69.6419 21.377C70.7629 21.377 71.6559 20.522 71.6559 19.458C71.6559 18.375 70.7629 17.52 69.6419 17.52C68.5209 17.52 67.6469 18.375 67.6469 19.458Z" fill="#fff"/>
</svg>
