<svg width="93" height="45" viewBox="0 0 93 45" fill="none" xmlns="http://www.w3.org/2000/svg">
<path d="M37.62 19.5852C36.885 16.2505 34.1455 12.0992 30.2033 8.62843C23.1207 2.50355 11.3609 -2.12414 1.73926 1.00635C1.13791 1.21051 0.0020214 2.84382 0.0020214 3.72852C-0.0647957 4.74933 1.53881 5.15766 2.74152 4.88544C3.07561 4.81739 3.67696 4.74933 3.54333 4.2049C3.07561 3.4563 2.2738 3.72852 1.80608 3.38825C1.93971 3.04798 2.40743 3.04798 2.74152 2.91187C8.88869 1.823 13.5659 2.91187 18.9113 5.36182C24.7243 8.15205 31.6065 11.9631 34.0119 19.2449C34.7469 21.899 34.2792 25.5739 32.141 27.3433C28.2656 30.678 22.1853 31.0183 17.4413 29.8613C17.3076 26.5267 17.5749 23.4642 17.5081 19.9254C20.8489 19.9935 25.7266 20.674 26.4616 22.1712C26.5952 22.4434 26.3279 22.9198 25.9939 23.124C25.2589 23.5323 24.5907 24.0087 24.7243 24.2809C24.9248 24.6892 26.3948 25.3698 26.9961 25.0295C27.8647 24.6212 28.5997 23.6684 28.9338 22.5795C29.2011 21.6268 28.867 20.3338 28.2656 19.6532C25.927 17.1352 19.5126 16.5227 17.5081 16.6588C17.5081 16.6588 17.3745 13.3242 17.3076 12.0992C17.174 10.1256 15.8377 8.69648 15.6372 9.37702C14.7686 11.7589 14.5681 15.1616 14.5013 16.7269C13.6327 16.863 11.9623 17.1352 9.6905 18.0199C8.42097 18.5643 6.88418 19.1768 5.74829 20.4018C5.21375 21.0143 5.08012 22.1712 5.28057 22.8518C6.08238 25.3698 10.4255 29.385 14.1004 31.2905C14.2341 32.5155 14.2341 34.3529 14.9022 34.7612C15.4368 35.0335 15.9713 35.2376 16.6395 34.9654C17.3745 34.6932 17.4413 33.1279 17.4413 32.6516C22.9203 34.3529 29.3347 34.0807 33.9451 30.4738C37.7537 27.2072 38.355 22.9198 37.62 19.5852ZM14.1004 28.7044C11.4946 27.6836 8.08688 25.5059 6.48327 22.9198C6.08237 22.2393 5.94874 21.6268 7.15144 21.0823C9.28959 20.1296 12.7641 19.9254 14.3677 19.9254C14.3009 22.3073 14.1672 25.9142 14.1004 28.7044ZM42.03 19.0407C42.4309 22.8518 42.4977 30.2697 42.0968 31.1544C41.8295 31.8349 40.8941 31.8349 40.2927 31.6308C39.0232 31.2905 39.3573 29.5211 39.2236 28.2961C39.2905 24.7573 39.3573 21.1504 39.8918 17.8157C40.0254 17.2033 40.2259 16.931 40.6936 16.931C41.2281 16.931 41.8963 18.156 42.03 19.0407ZM45.4376 27.6156C45.9722 28.7725 48.9789 29.0447 50.1816 28.8405C52.8543 28.4322 54.3243 27.2753 54.5247 26.3906C54.792 25.0295 52.9211 24.6212 51.6516 24.2809C49.313 23.6684 47.1749 24.0767 44.8363 23.3962C44.2349 23.2601 43.9008 22.7837 43.9008 22.1712C43.7672 20.8782 44.1681 19.449 44.9699 18.7005C47.3085 16.6588 54.6584 16.2505 56.9302 17.6116C57.3311 17.8838 57.1974 18.5643 56.9302 18.9727C56.3956 19.7893 55.3265 19.5171 54.3911 19.6532C51.7184 19.9254 48.9121 19.6532 46.5067 20.606C46.1058 20.7421 46.1726 21.5587 46.9744 21.6948C50.1816 22.2393 55.1261 21.899 56.1952 24.4851C56.7297 25.7781 56.5961 28.6364 55.7275 29.5891C53.8566 31.7669 50.1816 31.6308 48.6448 31.2905C47.5758 31.0183 44.9699 30.0655 44.3017 27.4794C44.1681 26.5267 44.4354 25.7781 44.9699 25.3698C46.3731 24.2128 48.0435 24.4851 49.9144 24.8253C50.9834 25.0295 52.7207 25.7781 52.8543 26.0503C53.1216 26.5947 52.988 27.1392 50.8498 27.4114C48.6449 27.6156 47.509 25.3698 45.8385 26.2545C45.5044 26.4586 45.304 27.3433 45.4376 27.6156ZM60.6051 18.4282C62.2755 20.1976 64.0796 24.417 65.3491 26.5267C65.6164 26.935 66.0173 26.6628 66.0173 26.2545C66.0841 22.5115 64.7478 19.5852 64.3469 16.1144C64.28 15.7741 64.1464 15.0936 64.4805 15.0255C65.2155 14.8894 65.9505 15.9783 66.4182 16.6588C68.0886 18.9046 68.8904 23.3962 68.4895 26.867C68.3559 27.9558 67.8214 30.3377 66.8859 30.746C66.4182 30.9502 65.3491 31.0863 65.015 30.8141C63.4114 29.5211 61.2733 22.9879 60.6719 23.0559C60.5383 23.0559 60.4047 23.3281 60.3378 23.8726C60.1374 25.71 60.0037 30.5419 60.0037 30.5419C59.8701 31.6988 59.1351 31.5627 58.801 31.5627C58.1329 31.5627 57.6651 31.1544 57.5983 30.746C57.3979 29.1127 57.4647 26.7989 57.5983 25.1656C57.7988 23.0559 58.4001 20.3338 59.1351 18.8366C59.4692 18.0199 60.2042 18.0199 60.6051 18.4282ZM71.2958 23.2601L72.2313 20.8101C71.5631 20.674 70.1599 19.9935 69.8927 18.7005C69.8927 18.4963 70.8949 18.2241 71.2958 18.156C74.3026 17.8157 76.3739 17.4755 79.0466 17.6116C79.648 17.6116 81.1848 19.6532 80.7839 20.4018C80.5166 20.9462 78.2448 20.8782 77.3762 20.8101C76.5076 20.7421 74.8371 20.9462 74.8371 20.9462L74.0353 23.2601C75.3049 23.192 77.3762 22.9879 77.9775 23.3962C78.2448 23.5323 78.2448 24.7573 78.1112 25.0295C77.8439 25.71 76.3739 25.5059 75.5053 25.5059C74.5699 25.5059 73.0999 25.5739 73.0999 25.5739C73.1667 25.4378 71.964 28.0919 72.2313 28.7044C72.4317 29.1808 76.7748 27.8197 77.8439 28.0239C78.5121 28.16 79.0466 29.453 78.5789 29.8613C76.5744 31.8349 73.3003 33.4682 71.5631 32.8557C69.8927 32.3113 69.1577 30.3377 69.4918 28.8405C69.759 27.6156 70.3604 25.4378 70.3604 25.4378C70.2936 25.4378 70.0263 25.2337 69.9595 23.8726C69.9595 23.3281 71.2958 23.2601 71.2958 23.2601ZM92.1427 19.5852C91.675 19.0407 90.7396 18.5643 90.0046 18.9046C88.0669 19.7213 86.931 21.2865 85.461 23.0559C84.5256 24.2809 83.4565 26.2545 82.7884 27.2753C82.5879 27.0711 82.4543 26.3225 82.5211 25.8461C82.8552 22.6476 85.9288 20.2657 85.5947 17.4755C85.5279 16.931 84.392 18.156 84.0579 18.4963C82.0534 20.9462 80.2493 24.0767 80.6502 27.6836C80.7839 28.9086 81.3852 30.1336 81.3852 30.1336C81.3852 30.1336 79.1802 35.0335 78.5121 38.3681C78.178 40.0695 78.1112 41.7708 78.5789 42.9958C79.0466 44.1527 80.7839 45.6499 80.9843 44.6972C81.7861 40.4778 82.9888 36.2584 84.1247 32.3113C84.1247 32.3113 84.8597 32.5835 85.7283 32.5155C88.8687 32.1752 91.8087 29.1808 92.6773 25.4378C93.145 23.3281 93.2118 21.2185 92.1427 19.5852ZM89.4033 27.4114C88.2674 28.4322 86.7974 29.2489 85.5947 29.1127C86.2628 27.8878 86.9978 26.3906 87.8665 25.0975C88.5346 24.1448 89.8042 22.3754 90.8732 21.7629C91.2073 21.5587 91.4078 21.9671 91.4078 22.5795C91.3409 24.4851 90.6728 26.1864 89.4033 27.4114ZM48.6448 5.8382C48.2439 5.42988 47.4421 5.29377 46.8408 5.36182C46.5735 3.4563 43.099 3.66047 41.7627 4.00074C39.2236 4.68128 37.5532 6.51874 36.6178 8.49232C35.9496 9.92146 36.2837 12.0311 37.2191 12.6436C37.0855 12.9839 37.0855 13.5964 37.1523 13.9367C37.2859 14.6853 37.8873 15.4338 38.355 15.4338C38.8227 15.4338 39.2236 14.2769 39.3573 14.0728C40.4932 14.413 41.8295 14.6853 43.2327 14.345C46.039 13.6644 48.1103 11.4867 48.9789 9.37702C49.4467 8.2201 49.5135 6.72291 48.6448 5.8382ZM38.2882 10.7381C37.9541 10.3298 38.0877 9.51313 38.2214 9.1048C38.355 8.76453 38.6891 8.28815 39.0232 7.94788C39.4909 7.40345 40.0254 7.06318 40.6268 6.72291C40.9609 6.5868 41.6291 6.38264 42.03 6.51874C40.6268 7.53956 39.1568 9.30897 38.2882 10.7381ZM44.2349 11.827C42.6981 12.4395 40.8941 12.1672 40.4263 11.9631C41.7627 9.51313 44.1013 7.40345 45.7049 7.06318C46.5735 6.92707 47.3085 6.92707 47.509 7.67567C47.7762 8.83259 46.9744 10.7381 44.2349 11.827Z" fill="white"/>
</svg>
