<svg width="103" height="33" viewBox="0 0 103 33" fill="none" xmlns="http://www.w3.org/2000/svg">
<path d="M50.7832 0C51.1021 2.45834 51.4448 4.91325 51.7708 7.37044C51.9981 8.98498 52.2236 10.6018 52.3553 12.226C51.8091 11.948 51.296 11.5715 50.6813 11.4482C50.6754 11.7285 50.7318 12.0045 50.7773 12.2803C51.1788 14.5725 51.5591 16.8698 51.8401 19.1797C51.8773 19.5063 51.937 19.8317 51.9435 20.1617C51.8773 20.1377 51.8065 20.1217 51.7604 20.0675C51.4144 19.7232 51.0808 19.3675 50.733 19.0256C51.4044 23.0488 52.1259 27.0663 52.7849 31.0917C52.8973 31.7323 52.9768 32.3272 53.1126 32.9386C53.2289 32.5481 53.239 32.1371 53.3045 31.7369C53.5425 29.2683 53.6824 26.7914 53.8773 24.3193C54.0952 24.7589 54.3355 25.1871 54.5652 25.621C54.714 25.8825 54.8339 26.1599 55.011 26.406C55.0636 26.4151 55.1167 26.4243 55.1704 26.4345C55.1746 25.3304 55.1858 24.2268 55.1852 23.1233C55.2124 22.4941 55.161 21.8638 55.2206 21.2364C55.223 20.0158 55.2242 18.7961 55.2413 17.5755C55.6658 18.397 56.0818 19.2214 56.5093 20.0418C56.5743 19.9584 56.6983 19.8882 56.6717 19.7678C56.5394 17.6691 56.3818 15.571 56.279 13.4706C56.2306 13.0487 56.2407 12.6225 56.2259 12.1989C56.3275 12.2349 56.3765 12.3322 56.4326 12.4144C56.9587 13.2377 57.4886 14.0587 58.0018 14.8893C58.075 14.9972 58.2303 14.9658 58.3442 14.9664C58.9335 14.9122 59.5066 14.7503 60.064 14.5625C60.8983 14.2702 61.7277 13.8868 62.3447 13.2537C62.7852 13.3365 63.2174 13.4803 63.629 13.6562C63.6384 15.0595 63.6127 16.4633 63.6216 17.8666C63.6553 18.6556 63.5561 19.4646 63.7899 20.233C63.9688 20.7834 64.4385 21.1725 64.8631 21.5504C65.6195 22.191 66.4128 22.7896 67.2058 23.3873C67.5494 23.6562 68.0212 23.6143 68.434 23.5914C68.9282 23.5555 69.3663 23.3171 69.8098 23.1247C70.2272 22.9386 70.6373 22.7353 71.0395 22.5195C71.5738 22.2341 72.0315 21.8127 72.3444 21.3064C72.5428 20.9958 72.5898 20.6267 72.6529 20.2744C72.771 19.5174 72.8251 18.7521 72.8197 17.9865C72.8475 16.6049 72.6013 15.2373 72.4655 13.866L72.4374 13.8232C72.428 13.5525 72.3757 13.2859 72.3385 13.0182C72.2824 12.6596 72.2428 12.2908 72.0816 11.9591C71.9352 11.6428 71.7043 11.3694 71.4439 11.1342C70.7513 10.5153 69.9964 9.95124 69.1573 9.52991C68.8025 9.33352 68.3918 9.5065 68.0457 9.63268C66.8376 10.1277 65.7213 10.8062 64.6195 11.4896C64.3603 11.6403 64.1424 11.8735 64.0674 12.1618C64.0037 12.405 63.8749 12.6248 63.7249 12.8269C63.3181 12.7875 62.9499 12.6034 62.5602 12.4972C62.7114 10.5744 62.9198 8.65642 63.0621 6.73245C63.0828 6.36707 63.1782 5.97685 63.0134 5.62917C62.838 5.22268 62.5283 4.89298 62.2532 4.54872C61.2346 3.34011 60.2223 2.12607 59.1665 0.94771C58.9415 0.915739 58.7204 0.969405 58.5125 1.04762C57.8276 1.2874 57.1462 1.5406 56.4547 1.76268C56.3573 1.79523 56.254 1.80607 56.1536 1.81977C56.0514 1.24373 56.1902 0.663397 56.2008 0.0856365C55.2212 0.0742183 54.239 0.129311 53.2588 0.0785001C52.5655 0.0368237 51.8712 0.0274037 51.1773 0H50.7832ZM58.2173 2.46918C58.3095 2.46694 58.3994 2.49588 58.48 2.5434C58.5361 2.64046 58.5565 2.75007 58.5671 2.86026C58.8765 4.47879 58.9731 6.12358 59.0676 7.76437C59.0953 8.14174 59.0605 8.52511 59.1148 8.89906C59.1337 9.68577 59.1408 10.4722 59.1296 11.2583C58.9459 11.2903 58.7599 11.2709 58.5775 11.2469C58.0437 11.1955 57.5084 11.2738 56.9847 11.364C56.7154 11.3931 56.4494 11.443 56.1801 11.4681C56.117 9.22447 56.1527 6.97937 56.1285 4.7357C56.1297 4.22302 56.1264 3.7112 56.1299 3.19852C56.1288 3.07007 56.1713 2.89822 56.3278 2.87596C56.9159 2.70411 57.5267 2.61734 58.1243 2.48203C58.155 2.47389 58.1865 2.46993 58.2173 2.46918H58.2173ZM68.8872 10.499C68.9657 10.7702 68.8943 11.0534 68.8045 11.3126C68.6073 11.7299 68.2565 12.0553 67.8775 12.3202C67.5391 12.572 67.0812 12.6034 66.7659 12.8911C66.7228 12.8255 66.7042 12.755 66.7083 12.6785C66.7095 12.4278 66.69 12.1735 66.7585 11.9292C67.4387 11.4136 68.1703 10.9649 68.8872 10.499ZM56.9153 12.1204C57.1119 12.1295 57.3133 12.1181 57.5058 12.1689C58.0325 12.21 58.5542 12.3014 59.0661 12.4287L59.1178 12.5529C59.1201 12.6003 59.1234 12.6476 59.1281 12.6956C58.9315 13.0039 58.6932 13.2834 58.4594 13.5648C58.2362 13.6436 58.1219 13.4187 57.9855 13.2993C57.6212 12.9128 57.2589 12.5235 56.9153 12.1204ZM69.1012 13.1395C69.2642 14.3133 69.4266 15.4879 69.5205 16.6691C69.5559 17.0876 69.5231 17.5092 69.5721 17.9266C69.5993 18.2708 69.5349 18.6128 69.5456 18.9571C69.5385 19.6256 69.4726 20.2918 69.3906 20.9552C69.3333 21.3006 69.3011 21.658 69.1558 21.9829C68.8228 22.1679 68.4916 22.3594 68.1284 22.4839C68.0393 22.5227 67.9409 22.527 67.8465 22.5195C67.592 22.2666 67.302 22.0306 67.1231 21.7188C67.0039 20.4566 66.894 19.1894 66.8486 17.9209C66.7942 17.5258 66.8158 17.125 66.7998 16.7277C66.7284 15.7308 66.757 14.7295 66.7482 13.7304C66.8999 13.6647 67.0517 13.5988 67.2087 13.5434C67.4928 13.4144 67.7889 13.3125 68.0694 13.1737C68.4118 13.1441 68.757 13.1435 69.1012 13.1395Z" fill="white"/>
<path d="M37.3515 2.90056C37.4998 2.86345 37.6946 2.90455 37.7619 3.05128C37.818 3.79917 37.795 4.55448 37.8546 5.3018C37.8629 5.34062 37.88 5.41884 37.8883 5.45823C37.955 5.45195 38.0271 5.45252 38.0826 5.40799C38.4811 5.14366 38.872 4.86848 39.2789 4.61614C39.4725 4.50196 39.6674 4.37807 39.8888 4.32041C40.0955 4.29129 40.2478 4.46199 40.3518 4.61157C40.6529 5.04318 40.8814 5.51761 41.1111 5.98804C41.3697 6.56751 41.6732 7.13785 41.8197 7.75671C41.8953 7.99593 41.6408 8.13351 41.4778 8.25398C40.6582 8.8089 39.8138 9.33186 38.9399 9.80457C38.7386 9.92846 38.6382 9.62702 38.5012 9.53339C38.6707 9.33756 38.8484 9.14745 39.0309 8.96191C39.1029 8.89911 39.0563 8.79805 39.0409 8.72041C38.8266 8.06272 38.6447 7.39533 38.428 6.73878C38.4221 6.70396 38.4103 6.63488 38.4044 6.60005C38.2136 6.55324 38.017 6.58292 37.8434 6.66856C37.8275 6.69768 37.7956 6.75591 37.7796 6.78503C37.7389 7.83379 37.7844 8.88312 37.7767 9.93245C37.772 11.2273 37.7844 12.5221 37.7826 13.8169C37.8281 14.1766 37.8015 14.5391 37.808 14.9005C37.8127 15.8368 37.8192 16.7731 37.8334 17.7094C38.004 18.1216 38.4197 18.3602 38.6831 18.7011C38.4416 18.713 38.2018 18.6885 37.9645 18.6531C37.6114 18.6474 37.2547 18.6217 36.9051 18.6188C36.3371 18.5663 35.7614 18.6034 35.1981 18.6771C34.9442 18.7079 34.6844 18.6816 34.4334 18.7336C34.1051 18.7342 33.7555 18.7941 33.4473 18.6554C33.2867 18.5846 33.1249 18.5144 32.959 18.4556C32.9673 18.4367 32.9832 18.3996 32.9915 18.3808C33.2885 18.2141 33.5459 17.9903 33.7933 17.7625C34.0112 17.549 34.2338 17.3115 34.2946 17.0072C34.4765 16.1651 34.4978 15.3024 34.5545 14.4472C34.5621 11.9523 34.597 9.45803 34.6271 6.96429C34.6188 6.87009 34.6483 6.76447 34.5981 6.67884C34.682 6.46646 34.6159 6.21811 34.6365 5.99146C34.4895 6.03314 34.3437 6.0771 34.199 6.12391C34.1323 6.1262 34.0655 6.12848 34 6.13076C33.9693 6.08224 33.9362 6.03428 33.9067 5.98632C34.0065 5.86072 34.1393 5.76766 34.261 5.66319C35.1331 4.83366 36.0029 4.00127 36.8715 3.16831C36.9949 3.02787 37.1691 2.94337 37.3515 2.90056Z" fill="white"/>
<path d="M11.4251 3.4591C11.9276 3.50478 12.4283 3.59555 12.9361 3.58585C13.7628 3.62638 14.593 3.63323 15.4191 3.57157C16.0787 3.54703 16.7347 3.43627 17.3948 3.45225C17.3635 3.65664 17.1563 3.75255 17.0577 3.91983C16.7677 4.3914 16.5345 4.90122 16.4058 5.43617C16.3515 5.82895 16.3284 6.22573 16.3273 6.62195C16.3054 8.73146 16.3196 10.8415 16.3473 12.9511C16.3243 13.0493 16.4341 13.0886 16.5138 13.0521C17.7722 12.749 19.0747 12.6553 20.3685 12.6924C20.8338 12.7118 21.318 12.6747 21.7661 12.8146C21.7573 12.8637 21.749 12.9128 21.7407 12.9619C21.6002 13.0116 21.4538 13.0578 21.3404 13.156C20.9855 13.4398 20.6619 13.7583 20.3283 14.0649C20.2445 14.1534 20.1057 14.2413 20.1482 14.3812C20.2769 15.0783 20.3077 15.789 20.4488 16.4838C20.7239 17.4527 21.0487 18.4084 21.3044 19.3835C21.4113 19.3835 21.5105 19.3458 21.5831 19.2682C21.739 19.1135 21.9261 18.9924 22.0915 18.848C22.1529 18.2194 22.1759 17.5863 22.1925 16.9548C22.2367 16.5192 22.2208 16.0819 22.235 15.6452C22.2521 13.3507 22.206 11.0505 21.9197 8.77028C21.788 8.80054 21.6545 8.82908 21.5329 8.88732C20.9099 9.15964 20.3006 9.46279 19.7207 9.81276C19.5642 9.90125 19.4178 10.0251 19.3605 10.197C19.2289 10.5943 19.2661 11.0197 19.2885 11.4302C19.1934 11.4593 19.0989 11.489 19.0045 11.5186C18.5091 10.7473 17.9953 9.97833 17.6446 9.13224C17.5442 8.84222 17.3877 8.54763 17.4474 8.23305C17.6889 8.12173 17.8855 7.94303 18.1058 7.79973C18.9862 7.19742 19.9144 6.64878 20.9135 6.25085C21.0493 6.20632 21.24 6.11441 21.3522 6.24914C22.2775 7.14547 23.1732 8.07035 24.0601 9.00207C24.5378 9.51817 25.061 10.056 25.2045 10.7599C25.3403 11.582 25.3604 12.4155 25.3639 13.2462C25.3562 14.1968 25.3887 15.1491 25.3178 16.0979C25.3125 16.8275 25.2907 17.5566 25.2901 18.2862C25.629 18.4352 26.0217 18.4489 26.3789 18.3576C26.3636 18.4626 26.2797 18.5346 26.2041 18.6031C25.7099 19.0387 25.2086 19.4674 24.7032 19.8905C24.3583 20.1702 24.1865 20.595 23.8434 20.8764C23.4773 21.1881 22.9282 21.215 22.4812 21.0762C22.0236 20.8467 22.0248 20.2918 21.9876 19.8608C21.3906 20.2758 20.8054 20.7074 20.222 21.1402C19.9469 21.3457 19.5825 21.2292 19.2761 21.1722C19.0523 21.1122 18.7659 21.0272 18.7045 20.7794C18.4453 20.0212 18.1908 19.2613 17.9304 18.5037C17.6487 17.6519 17.3181 16.8115 17.1285 15.9341C17.0476 15.6526 17.1917 15.3769 17.3364 15.1411C17.7267 14.533 18.2865 14.0546 18.8173 13.5659C17.9912 13.7184 17.1315 13.8457 16.394 14.2607C16.3875 16.2247 16.4123 18.188 16.4058 20.1519C16.4453 20.99 16.404 21.8293 16.4329 22.6674C16.4347 23.655 16.4406 24.6427 16.4672 25.6298C16.528 26.4 16.6561 27.2386 17.2088 27.8358C17.4078 28.0745 17.7308 28.1544 17.9522 28.3656C17.9233 28.4553 17.8843 28.5409 17.8383 28.6237C17.7385 28.6243 17.6393 28.63 17.5407 28.6174C16.4442 28.4456 15.3382 28.3217 14.2281 28.2788C13.183 28.2714 12.1331 28.2332 11.0933 28.3548C11.0413 28.1898 10.8683 28.0602 10.8807 27.8821C11.46 27.5686 12.018 27.133 12.2459 26.5079C12.5352 25.7149 12.573 24.8648 12.6445 24.0347C12.7183 22.5315 12.7413 21.0254 12.697 19.5211C12.6574 18.5134 12.6663 17.5012 12.5352 16.4993C11.4481 17.3219 10.1025 17.737 8.77211 18.0224C8.78333 20.1137 8.81285 22.2049 8.82762 24.2962C8.84946 24.7352 8.80636 25.1777 8.86009 25.615C8.99236 26.0945 9.48009 26.3406 9.88693 26.577C9.98023 26.6369 10.1308 26.7659 10.0469 26.8756C9.87748 26.8961 9.7216 26.8167 9.5604 26.7831C9.04255 26.6752 8.51289 26.642 7.98678 26.5969C6.23661 26.4833 4.48112 26.4548 2.72741 26.4457C2.66482 26.4274 2.49181 26.3692 2.62112 26.3132C2.62585 26.2641 2.63529 26.1671 2.64002 26.118C3.26533 25.8793 3.89419 25.5322 4.24139 24.9539C4.45337 24.6085 4.45868 24.1974 4.4947 23.8098C4.54371 23.0482 4.52954 22.2843 4.56025 21.5216C4.56143 20.4659 4.53781 19.4103 4.52187 18.3547C3.69225 17.9831 2.86145 17.612 2.05249 17.1992C1.48859 16.9303 1.08884 16.4359 0.746362 15.9415C0.4588 15.5047 0.201352 15.0469 0 14.5662V14.4491C0.902247 14.0535 1.89602 13.9165 2.86912 13.7874C2.86971 13.8805 2.89747 14.0032 2.79472 14.0569C2.1883 14.408 1.54764 14.7043 0.956571 15.0817C1.15497 15.3061 1.40238 15.4808 1.64979 15.6503C2.33356 16.1082 3.07402 16.481 3.82274 16.8287C4.02705 16.9172 4.2284 17.0371 4.45927 17.0393C4.49588 16.67 4.47227 16.2977 4.4764 15.9272C4.44983 15.1679 4.47049 14.4063 4.41145 13.6481C4.39196 13.0761 4.41204 12.5023 4.3583 11.9326C4.31047 10.0269 4.22249 8.1223 4.14927 6.21831C4.02882 5.62114 3.48735 5.21408 2.91813 5.02854C2.92817 4.91493 2.99844 4.80074 3.12008 4.77505C3.31966 4.75735 3.52101 4.77791 3.72059 4.79047C3.99457 4.82929 4.2715 4.80474 4.54726 4.81045C4.95941 4.80531 5.37333 4.82872 5.7843 4.78419C6.41375 4.7722 7.04379 4.76934 7.67383 4.7545C8.21234 4.71397 8.75322 4.70654 9.2935 4.70426C9.27461 4.81673 9.25512 4.92863 9.23623 5.04053C8.90143 5.20609 8.68945 5.53436 8.60028 5.87919C8.53533 6.23715 8.54419 6.60254 8.53946 6.96506C8.53946 7.91677 8.5371 8.86848 8.57253 9.81904C8.5932 10.6183 8.57962 11.4193 8.63512 12.2174C8.64575 12.8272 8.6487 13.4375 8.67232 14.0472C8.72015 14.8242 8.72074 15.6046 8.78038 16.3822C9.16891 16.3303 9.51847 16.1413 9.86508 15.9757C10.8051 15.4745 11.721 14.9178 12.5541 14.2613C12.563 11.0265 12.4703 7.78946 12.2051 4.56553C12.1927 4.22812 11.914 3.98605 11.62 3.85018C11.4558 3.78624 11.4056 3.61611 11.4251 3.4591Z" fill="white"/>
<path d="M77.1656 3.39277C77.3451 3.35966 77.3888 3.54692 77.3829 3.67994C77.3894 4.47122 77.423 5.26193 77.4325 6.05321C77.4596 6.5185 77.4142 6.99007 77.4838 7.4508C78.0554 7.44452 78.627 7.46964 79.1992 7.46735C79.211 7.56783 79.221 7.66889 79.2346 7.76937C79.2836 7.93436 79.2565 8.10963 79.3078 8.27405C79.3273 8.45274 79.345 8.63258 79.3557 8.81242C78.8059 8.82384 78.2562 8.83297 77.7065 8.83754C77.6303 8.8324 77.5588 8.85352 77.4909 8.87921C77.3876 10.4852 77.4726 12.0946 77.4384 13.7023C77.4089 15.0936 77.3404 16.4837 77.3008 17.875C77.2524 18.0794 77.2807 18.2918 77.2654 18.4996C77.2028 20.0776 77.1142 21.6567 77.0581 23.2353C77.0339 23.6372 76.9453 24.1008 77.2175 24.4462C77.6586 24.8778 78.1688 25.2415 78.6925 25.5743C78.5839 25.6931 78.4853 25.8272 78.3495 25.9169C78.2432 25.9174 78.1523 25.8524 78.059 25.817C76.9802 25.2991 75.8901 24.8002 74.8503 24.2104C74.5858 24.0603 74.3266 23.8833 74.1595 23.6298C73.9953 23.3969 73.9487 23.1097 73.9463 22.834C73.9664 21.3496 73.9865 19.8652 74.049 18.382C74.0998 16.9142 74.2681 15.4544 74.2982 13.986C74.3283 12.4657 74.3136 10.9379 74.1541 9.42615C74.1417 9.2052 74.111 8.98654 74.0632 8.77074C73.2247 8.77417 72.3868 8.75932 71.549 8.75932C71.5383 8.6166 71.5324 8.47387 71.5437 8.33114C72.5599 7.78364 73.4946 7.09912 74.3714 6.36093C75.2288 5.62674 76.0047 4.80406 76.6861 3.91401C76.832 3.72904 76.9719 3.5355 77.1656 3.39277Z" fill="white"/>
<path d="M28.6165 4.44659C28.7506 4.37523 28.8781 4.25077 29.0423 4.26504C29.2832 4.3033 29.4993 4.41919 29.7266 4.49798C29.8536 5.05861 29.8524 5.64493 29.9445 6.21185C29.9516 6.27807 29.9587 6.34487 29.9658 6.41167C29.987 6.42708 30.0284 6.45734 30.0496 6.47275C30.3638 6.2284 30.7127 6.02973 31.0523 5.8202C31.3658 5.63066 31.7325 5.46453 32.1116 5.52105C32.3513 5.577 32.4794 5.80422 32.5946 5.99433C32.8532 6.50073 33.077 7.02368 33.2913 7.54892C33.534 8.11926 33.7944 8.69188 33.9119 9.30047C33.8978 9.49401 33.8033 9.67327 33.6285 9.77547C32.8562 10.2607 32.0649 10.718 31.2737 11.1736C31.1851 11.221 31.0995 11.2872 30.9932 11.2792C30.9359 11.1816 30.8633 11.0943 30.7818 11.0161C30.9737 10.8328 31.1509 10.6358 31.3292 10.4411C31.3174 10.4332 31.2926 10.4166 31.2808 10.4086C31.23 10.114 31.1296 9.83027 31.0499 9.54197C30.8686 8.90654 30.6702 8.27569 30.4842 7.64198C30.4452 7.46614 30.2279 7.26118 30.0543 7.42161C30.0053 7.60601 30.0366 7.79898 30.0378 7.98681C30.0803 9.28449 30.1358 10.581 30.163 11.8787C30.2309 12.328 30.1648 12.7899 30.2404 13.2397C30.2941 14.0818 30.411 14.9194 30.4606 15.762C30.5805 16.7885 30.5746 17.8304 30.7434 18.8529C30.8515 19.1378 31.1621 19.2766 31.4225 19.4067C31.4396 19.4341 31.4733 19.4895 31.4898 19.5175C31.4798 19.5506 31.4585 19.618 31.4479 19.6511C29.8028 19.6899 28.1566 19.6825 26.5103 19.6842C26.3355 19.6842 26.1596 19.6927 25.986 19.6648C26.0769 19.4467 26.2346 19.2526 26.446 19.1338C26.6591 19.0179 26.874 18.8952 27.0441 18.7233C27.1061 18.664 27.1309 18.5823 27.1238 18.5001C27.125 16.8816 27.122 15.2636 27.1185 13.6457C27.1368 13.4162 27.0766 13.1907 27.0866 12.9611C27.0878 11.7417 27.0695 10.5216 27.0583 9.30218C26.9904 8.59026 27.0512 7.86977 26.9514 7.15956C26.3521 7.15899 25.748 7.13158 25.1522 7.20466C25.0471 7.17726 24.8871 7.11674 24.8765 6.99685C26.1135 6.13478 27.3482 5.26642 28.6165 4.44659Z" fill="white"/>
<path d="M82.385 4.97808C82.4653 4.8245 82.5521 4.65951 82.7233 4.58301C82.7617 4.60356 82.839 4.64467 82.8774 4.66522C82.9382 5.1465 82.927 5.63177 82.9548 6.11476C82.9991 6.3003 82.9748 6.49213 82.9884 6.6811C83.028 7.61796 83.0888 8.55369 83.1242 9.49112C83.4041 9.48484 83.6858 9.49797 83.9657 9.47399C84.1629 9.51053 84.3595 9.45515 84.5579 9.45858C84.8673 9.462 85.1773 9.45915 85.4867 9.4483C85.4678 9.82453 85.495 10.2082 85.4188 10.5793C84.6725 10.6084 83.9249 10.6415 83.1809 10.7054C83.1892 11.5538 83.1756 12.4022 83.1886 13.25C83.2276 13.3773 83.2105 13.5109 83.2134 13.6416C83.2099 15.0501 83.237 16.4591 83.2417 17.8675C83.2984 18.5126 83.2665 19.1618 83.289 19.8092C83.3097 20.9875 83.3433 22.1642 83.3646 23.3437C83.4059 23.9825 83.3835 24.6254 83.4543 25.2625C84.0814 25.5731 84.6979 25.9031 85.3238 26.2154C85.4932 26.2799 85.658 26.4534 85.8487 26.3992C86.2703 26.1223 86.6458 25.7843 87.0338 25.4663C87.1312 25.4075 87.0686 25.295 87.0462 25.214C86.4061 25.0233 85.7395 24.9411 85.0876 24.8001C84.8614 24.7401 84.5585 24.7572 84.4369 24.5243C84.8596 24.4141 85.3031 24.4769 85.7353 24.4918C86.7379 24.542 87.7406 24.6037 88.7426 24.6642C88.8483 24.6836 89.0142 24.6853 89.019 24.8309C89.0426 25.0204 88.8513 25.1061 88.7349 25.218C88.2702 25.6285 87.8569 26.0886 87.4176 26.5236C87.1536 26.7817 86.9806 27.1242 86.6565 27.3223C86.5443 27.4148 86.3843 27.4017 86.2538 27.364C85.1885 27.0455 84.131 26.7006 83.0935 26.3067C82.1393 25.9379 81.165 25.5674 80.3337 24.9713C80.2221 24.8697 80.0685 24.7715 80.0603 24.6094C79.9687 23.0862 79.9924 21.5607 79.99 20.0353C79.9947 19.4449 80.0095 18.8552 80.029 18.2654C80.0366 15.7277 79.9699 13.1912 79.9156 10.6541C79.4928 10.6746 79.0683 10.674 78.6473 10.6386C78.463 10.6318 78.3733 10.4126 78.4441 10.2664C78.4973 10.1791 78.5681 10.1037 78.6419 10.0312C79.4657 9.22622 80.2386 8.36814 80.9005 7.43128C81.4685 6.65769 81.9451 5.82531 82.385 4.97808Z" fill="white"/>
<path d="M97.0165 7.24699C97.1818 7.1271 97.359 7.28124 97.3849 7.44681C97.483 7.94806 97.4776 8.46245 97.565 8.96543C98.1797 8.60861 98.7991 8.25921 99.4067 7.8904C99.5414 7.81105 99.6488 7.67688 99.8153 7.65747C99.9263 7.63749 100.081 7.6432 100.146 7.75053C100.421 8.12219 100.654 8.52183 100.901 8.91176C101.283 9.55746 101.673 10.2026 101.953 10.8968C102.053 11.1235 102.069 11.3804 102.021 11.6207C101.843 11.9707 101.488 12.1825 101.198 12.4377C100.366 13.088 99.5225 13.7251 98.6751 14.3565C98.596 14.2389 98.4862 14.1464 98.3823 14.0522C98.6102 13.7137 98.8794 13.402 99.1186 13.0708C99.1363 12.9938 99.1091 12.9173 99.0885 12.8442C98.8812 12.2208 98.6881 11.5928 98.4814 10.9687C98.3787 10.6508 98.2789 10.3328 98.1732 10.0165C97.9553 10.1626 97.7369 10.3093 97.5113 10.4447C97.5373 12.1602 97.627 13.8741 97.6548 15.5903C97.7168 16.1772 97.6802 16.7732 97.715 17.3635C97.7752 17.871 97.7262 18.3883 97.7835 18.897C97.8136 20.1958 97.8845 21.4929 97.9483 22.79C98.0061 23.2387 98.358 23.5824 98.7424 23.8045C99.2278 24.0854 99.7752 24.2515 100.324 24.3737C100.418 24.3983 100.514 24.4142 100.612 24.4405C100.84 24.4696 101.068 24.5153 101.299 24.5376C101.296 24.6632 101.29 24.7888 101.286 24.9144C100.787 24.9418 100.287 24.9087 99.7888 24.9166C99.5738 24.9035 99.3565 24.9269 99.1463 24.8852C98.4696 24.887 97.7947 24.8127 97.1375 24.6586C96.4797 24.5182 95.8302 24.3446 95.1866 24.1539C94.3753 23.9233 93.5268 23.7514 92.6783 23.8496C92.6222 23.7234 92.5637 23.5978 92.5271 23.466C93.2363 23.4055 93.7275 22.822 94.0989 22.2893C94.3877 21.7161 94.3871 21.0596 94.4007 20.4361C94.4202 18.6458 94.3759 16.856 94.3641 15.0656C94.3121 14.5957 94.3464 14.1167 94.3257 13.6435C94.3304 12.6558 94.2554 11.6715 94.2731 10.6839C93.9797 10.6679 93.688 10.7227 93.3951 10.7113C93.3892 10.6422 93.3845 10.5725 93.3809 10.5035C93.5085 10.3168 93.6177 10.1135 93.7948 9.96452C94.8807 9.07276 95.9371 8.14674 97.0165 7.24699Z" fill="white"/>
<path d="M89.2305 8.63304C89.0722 8.63736 88.9142 8.65551 88.764 8.69441C87.6356 9.54563 86.5435 10.4448 85.4086 11.2863C85.2875 11.8338 85.2757 12.401 85.199 12.9548C85.1925 13.3225 85.0449 13.6733 85.0484 14.041C85.1151 15.543 85.0995 17.0457 85.1207 18.5483C85.1148 18.916 84.9923 19.2694 84.9775 19.6359C85.1984 19.858 85.4021 20.096 85.6212 20.321C86.4077 21.1031 87.1963 21.8978 88.1292 22.519C88.2745 22.628 88.4625 22.6489 88.6385 22.6803C89.0873 22.7202 89.5402 22.7708 89.9907 22.7045C90.2092 22.7177 90.3739 22.557 90.4956 22.4005C90.9054 21.8182 91.3695 21.2738 91.8123 20.7149C92.0485 20.3946 92.3408 20.1083 92.5179 19.7515C92.1294 19.2097 91.8354 18.5931 91.3606 18.1158C91.3069 18.1204 91.1988 18.1304 91.1451 18.1344C91.1049 18.4912 91.0181 18.8392 90.9384 19.1892C90.7087 20.0992 90.4587 21.0132 90.0365 21.861C89.9886 21.9461 89.9376 22.1174 89.8077 22.0323C89.1546 21.6772 88.6733 21.0312 88.5056 20.3267C88.4041 19.7404 88.4374 19.1421 88.3861 18.5512C88.3695 17.8101 88.3557 17.0691 88.3551 16.3275C88.3498 16.2316 88.3639 16.1288 88.3137 16.042C88.3716 15.9541 88.348 15.8516 88.3256 15.758C88.3527 15.3561 88.2249 14.9185 88.4422 14.5434C89.0675 14.5365 89.6701 14.7169 90.2741 14.8517C90.6361 14.9367 90.9963 15.0284 91.3577 15.1186C91.4338 15.1408 91.5097 15.1574 91.5894 15.1757C91.8516 15.243 92.1158 15.3035 92.3792 15.3698C92.4743 15.3903 92.6003 15.418 92.67 15.3284C93.1949 14.8557 93.5185 14.2197 93.848 13.6156C93.7346 13.2366 93.5613 12.8712 93.4273 12.4967C93.2271 11.9857 93.0246 11.4756 92.8309 10.9623C92.7063 10.6712 92.6183 10.3649 92.4825 10.0789C92.0816 9.83451 91.6505 9.63413 91.2366 9.40805C91.0813 9.32983 90.9254 9.25276 90.7701 9.17683C90.3598 8.981 89.9556 8.76092 89.5139 8.63874C89.4202 8.6334 89.3254 8.63044 89.2305 8.63304ZM89.1271 9.63355C89.2382 9.6361 89.3349 9.69029 89.3574 9.81767C89.5871 10.3886 89.8203 10.9569 90.0542 11.5261C90.3565 12.246 90.6311 12.9779 90.9517 13.6899C90.9499 13.7384 90.9496 13.7869 90.9502 13.8355C90.59 13.8531 90.231 13.7875 89.8756 13.7498C89.3654 13.7213 88.8582 13.651 88.3492 13.6099C88.3509 13.0276 88.4153 12.4484 88.4377 11.8672C88.511 11.185 88.4566 10.4648 88.7596 9.82766C88.8187 9.71109 88.9844 9.63028 89.1271 9.63355H89.1271Z" fill="white"/>
<path d="M45.1283 9.79932C45.6284 9.89466 46.1439 9.83129 46.6494 9.88838C47.1023 9.89694 47.5516 9.94433 47.9998 9.99914C48.2519 10.0077 48.5082 10.0197 48.7568 9.9626C48.7509 10.0106 48.7456 10.0591 48.7403 10.107C48.5259 10.445 48.3204 10.7921 48.1657 11.1604C47.6178 12.3045 46.9771 13.4029 46.3417 14.5036C45.7702 15.4787 45.2618 16.4875 44.699 17.4678C43.2146 20.0466 41.5961 22.5609 39.7414 24.9073C38.7323 24.9262 37.7243 24.8422 36.7229 24.7269C35.7722 24.5836 34.8251 24.4026 33.901 24.1406C33.5822 24.0578 33.2686 23.9556 32.9563 23.8534C32.7384 23.7775 32.5181 23.7084 32.3038 23.6239C32.08 23.5417 31.8609 23.4498 31.6419 23.359C31.2504 23.194 30.8683 23.0102 30.4934 22.8144C30.4668 22.602 30.6292 22.4153 30.7231 22.2332C31.1187 21.6314 31.643 21.1239 32.1756 20.6369C32.9456 20.6871 33.7132 20.7762 34.482 20.8379C34.6728 20.8915 34.8977 20.8145 35.066 20.9355C35.0477 21.0411 34.9332 21.0508 34.8517 21.0805C34.2175 21.2495 33.5798 21.4048 32.9486 21.584C32.8151 21.608 32.7974 21.757 32.7443 21.8552C32.6421 22.1247 32.5039 22.393 32.4963 22.6859C32.9509 22.896 33.4652 22.9263 33.9553 23.0102C35.5673 23.2214 37.2047 23.3179 38.8262 23.1586C39.4143 22.2263 40.0284 21.3089 40.6271 20.3823C40.8054 20.1299 40.9531 19.8576 41.1515 19.619C41.2424 19.5094 41.1887 19.3558 41.165 19.2313C40.7511 17.8212 40.2941 16.423 39.8447 15.0231C39.6499 14.4323 39.4562 13.8408 39.2572 13.2516C39.1551 12.9673 39.0647 12.6784 38.9608 12.3947C38.8504 12.1052 38.7624 11.8066 38.6225 11.5286C38.4518 11.3242 38.1548 11.282 37.9003 11.2569C37.9233 11.1803 37.9617 11.1096 38.0119 11.0462C38.2156 11.0439 38.4187 11.0376 38.6225 11.0262C39.2673 10.9645 39.9209 10.9965 40.5681 10.9531C41.4089 10.9645 42.2462 10.8504 43.0841 10.8241C42.9211 11.1655 42.4369 11.1244 42.2261 11.4213C42.1198 11.536 42.1063 11.6993 42.1488 11.8426C42.4765 13.0541 42.8054 14.2661 43.1597 15.4707C43.211 15.6066 43.2234 15.7682 43.3457 15.867C43.9403 14.9672 44.4558 14.0212 45.0008 13.0923C45.2192 12.7035 45.4413 12.3165 45.6438 11.9197C45.7418 11.7273 45.7507 11.5086 45.8286 11.3099C45.9024 11.0787 45.9816 10.8486 46.066 10.6209C46.1061 10.5215 46.1487 10.4222 46.1894 10.3228C45.7808 10.2852 45.433 10.0471 45.1283 9.79932Z" fill="white"/>
</svg>
