<svg width="120" height="28" viewBox="0 0 120 28" fill="none" xmlns="http://www.w3.org/2000/svg">
<path fill-rule="evenodd" clip-rule="evenodd" d="M59.7771 27.6716H0V0.75708H59.7771V27.6716Z" fill="#ED1C24"/>
<path fill-rule="evenodd" clip-rule="evenodd" d="M33.7546 4.32593H37.4721L39.1078 16.2219L40.7435 4.32593H44.3123L41.1896 24.0286H37.026L33.7546 4.32593Z" fill="white"/>
<path fill-rule="evenodd" clip-rule="evenodd" d="M32.8623 16.4449L35.0928 24.0286H31.524L29.8883 17.6345C29.5909 17.6345 29.3679 17.7089 29.0705 17.7089V24.0286H25.5017V4.32593H29.0705C33.1597 4.32593 35.0928 7.82036 35.1672 11.0174C35.1672 13.0992 34.4237 15.181 32.8623 16.4449ZM29.0705 7.89471C30.7062 7.89471 31.4497 9.30735 31.4497 10.8687C31.4497 12.43 30.7062 14.1401 29.0705 14.1401V7.89471Z" fill="white"/>
<path fill-rule="evenodd" clip-rule="evenodd" d="M18.2156 4.32593C19.7769 4.32593 21.3383 4.32593 22.8996 4.32593L25.8736 24.0286H22.3048L21.9331 20.9802H19.1078L18.736 24.0286H15.1672L18.2156 4.32593ZM21.5613 17.8576L20.5204 9.45605L19.5539 17.8576H21.5613Z" fill="white"/>
<path fill-rule="evenodd" clip-rule="evenodd" d="M3.27124 4.32593H7.80657L9.36791 14.2888L10.9292 4.32593H15.4646V24.0286H11.8958V14.4375L10.4088 24.1029H8.32701L6.84002 14.4375V24.0286H3.27124V4.32593Z" fill="white"/>
<path fill-rule="evenodd" clip-rule="evenodd" d="M54.8701 20.4598H57.844V24.0286H51.3013V4.32593H54.8701V20.4598Z" fill="white"/>
<path fill-rule="evenodd" clip-rule="evenodd" d="M47.5095 20.4598H50.7065V24.0286H43.9407V4.32593H50.7065V7.96906H47.5095V12.3557H50.7065V15.9988H47.5095V20.4598Z" fill="white"/>
<path fill-rule="evenodd" clip-rule="evenodd" d="M99.3311 4.32593H101.636V24.0286H99.3311V4.32593Z" fill="white"/>
<path fill-rule="evenodd" clip-rule="evenodd" d="M89.8887 4.32593C91.1526 4.32593 92.3422 4.32593 93.6062 4.32593C96.8775 4.32593 98.0671 5.96162 98.0671 8.7869C98.0671 12.3557 98.0671 15.9245 98.0671 19.5676C98.0671 22.3929 96.9519 24.0286 93.6062 24.0286C92.3422 24.0286 91.1526 24.0286 89.8887 24.0286V4.32593ZM95.6879 8.34081C95.6879 7.29991 95.0931 6.40772 93.4574 6.40772H92.1935V21.9468H93.4574C95.0931 21.9468 95.6879 21.0546 95.6879 20.0137C95.6879 16.1475 95.6879 12.2813 95.6879 8.34081Z" fill="white"/>
<path fill-rule="evenodd" clip-rule="evenodd" d="M80.4464 4.32593H82.7513V20.5341C82.7513 21.1289 82.9 22.0955 84.1639 22.0955H84.7587C86.097 22.0955 86.1713 21.1289 86.1713 20.5341C86.1713 15.1066 86.1713 9.75345 86.1713 4.32593H88.4762C88.4762 9.75345 88.4762 15.2553 88.4762 20.6828C88.4762 23.1364 87.0635 24.1773 85.2048 24.1773H83.7178C81.8591 24.1773 80.3721 23.062 80.3721 20.6828V4.32593H80.4464Z" fill="white"/>
<path fill-rule="evenodd" clip-rule="evenodd" d="M105.205 20.6085C105.205 21.2033 105.353 22.1699 106.692 22.1699H107.287C108.699 22.1699 108.774 21.2033 108.774 20.6085C108.774 16.3706 108.774 12.1327 108.774 7.89473C108.774 7.29993 108.699 6.33338 107.287 6.33338H106.692C105.353 6.33338 105.205 7.29993 105.205 7.89473C105.205 12.0583 105.205 16.2962 105.205 20.6085ZM111.153 20.6829C111.153 23.1364 109.74 24.1773 107.807 24.1773H106.32C104.387 24.1773 102.9 23.062 102.9 20.6829C102.9 16.3706 102.9 11.984 102.9 7.67168C102.9 5.29249 104.387 4.17725 106.32 4.17725H107.807C109.74 4.17725 111.153 5.21814 111.153 7.67168C111.153 12.0583 111.153 16.3706 111.153 20.6829Z" fill="white"/>
<path fill-rule="evenodd" clip-rule="evenodd" d="M76.729 6.48207V24.0286H74.4242V6.48207H71.4502V4.32593H79.6287V6.48207H76.729Z" fill="white"/>
<path fill-rule="evenodd" clip-rule="evenodd" d="M115.465 4.17725C113.532 4.17725 112.045 5.36684 112.045 7.74603C112.045 8.48952 112.045 9.15867 112.045 9.90217C112.045 11.4635 112.268 12.2814 112.863 12.9505C113.457 13.694 115.167 14.7349 116.506 15.7758C117.324 16.3706 117.621 16.8167 117.621 17.5602C117.621 18.6011 117.621 19.5676 117.621 20.6085C117.621 21.2033 117.547 22.2442 116.208 22.2442H115.688C114.275 22.2442 114.201 21.2777 114.201 20.6085V17.9319H111.97V20.7572C111.97 23.2107 113.309 24.326 115.316 24.326H116.431C118.513 24.326 119.852 23.2107 119.852 20.7572C119.852 19.7163 119.852 18.6754 119.852 17.6345C119.852 15.8501 119.182 15.1066 118.29 14.3631C117.398 13.6196 115.985 12.7275 115.093 11.984C114.424 11.4635 114.201 11.1661 114.201 10.1996C114.201 9.38172 114.201 8.63822 114.201 7.82038C114.201 7.22558 114.275 6.25904 115.614 6.25904H116.06C117.472 6.25904 117.472 7.22558 117.472 7.82038V9.53042H119.777V7.74603C119.777 5.29249 118.29 4.17725 116.357 4.17725H115.465Z" fill="white"/>
<path fill-rule="evenodd" clip-rule="evenodd" d="M66.5428 4.17725C64.6097 4.17725 63.1227 5.36684 63.1227 7.74603C63.1227 8.48952 63.1227 9.15867 63.1227 9.90217C63.1227 11.4635 63.4201 12.2814 63.9405 12.9505C64.5353 13.694 66.2454 14.7349 67.5837 15.7758C68.4015 16.3706 68.6989 16.8167 68.6989 17.5602C68.6989 18.6011 68.6989 19.5676 68.6989 20.6085C68.6989 21.2033 68.6246 22.2442 67.2863 22.2442H66.7658C65.3532 22.2442 65.2788 21.2777 65.2788 20.6085V17.9319H63.0483V20.7572C63.0483 23.2107 64.3866 24.326 66.3941 24.326H67.658C69.7398 24.326 71.0781 23.2107 71.0781 20.7572C71.0781 19.7163 71.0781 18.6754 71.0781 17.6345C71.0781 15.8501 70.4089 15.1066 69.5168 14.3631C68.6246 13.6196 67.2119 12.7275 66.3197 11.984C65.6506 11.4635 65.4275 11.1661 65.4275 10.1996C65.4275 9.38172 65.4275 8.63822 65.4275 7.82038C65.4275 7.22558 65.5019 6.25904 66.8402 6.25904H67.2863C68.6989 6.25904 68.6989 7.22558 68.6989 7.82038V9.53042H71.0037V7.74603C71.0037 5.29249 69.5168 4.17725 67.5837 4.17725H66.5428Z" fill="white"/>
<path fill-rule="evenodd" clip-rule="evenodd" d="M63.0483 0.75708H120V1.79797H63.0483V0.75708Z" fill="white"/>
<path fill-rule="evenodd" clip-rule="evenodd" d="M63.0483 26.6306H120V27.6715H63.0483V26.6306Z" fill="white"/>
</svg>
