<svg width="86" height="39" viewBox="0 0 86 39" fill="none" xmlns="http://www.w3.org/2000/svg">
<path d="M24.5983 29.6076C28.9968 29.6076 32.425 27.1496 32.425 22.9452C32.425 19.8081 30.5168 17.997 26.9593 16.5093L24.5013 15.4744C23.1753 14.9246 22.6579 14.5041 22.6579 13.7279C22.6579 12.7577 23.4664 12.3696 24.566 12.3696C26.1831 12.3696 27.121 13.2105 28.0912 14.6335L31.8105 11.7874C30.5815 9.32949 28.2206 7.48603 24.5013 7.48603C20.1676 7.48603 17.0304 9.97632 17.0304 13.7926C17.0304 16.8004 19.0356 18.7409 22.4315 20.2286L24.6307 21.1988C26.1184 21.8456 26.7976 22.169 26.7976 23.1716C26.7976 24.2066 26.086 24.724 24.5983 24.724C22.2051 24.724 20.8791 23.3657 19.8441 21.975L16.0925 24.821C17.6126 27.6994 20.685 29.6076 24.5983 29.6076ZM35.5805 29.2195H41.1433V7.87412H35.5805V29.2195ZM49.9955 29.2195H55.5582V12.8871H61.9618V7.87412H43.5919V12.8871H49.9955V29.2195ZM64.4162 29.2195H69.979V20.6813H77.7732V29.2195H83.336V7.87412H77.7732V15.6684H69.979V7.87412H64.4162V29.2195Z" fill="white"/>
<path d="M11.8784 27.6409L11.8784 26.6707L4.5394 26.6707L4.5394 23.7724L3.66866 23.7724L3.66866 30.5268L4.5394 30.5268L4.5394 27.6409L11.8784 27.6409ZM11.8784 22.4034L11.8784 21.4331L7.92281 21.4331L7.92281 16.8307L11.8784 16.8307L11.8784 15.8605L3.66866 15.8605L3.66866 16.8307L7.05208 16.8307L7.05208 21.4331L3.66866 21.4331L3.66866 22.4034L11.8784 22.4034ZM11.8784 13.5965L11.8784 8.18549L11.0077 8.18549L11.0077 12.6262L7.92281 12.6262L7.92281 9.34232L7.05208 9.34232L7.05208 12.6262L4.53939 12.6262L4.53939 8.33476L3.66866 8.33476L3.66866 13.5965L11.8784 13.5965Z" fill="white"/>
</svg>
