<svg width="445" height="182" viewBox="0 0 445 182" fill="none" xmlns="http://www.w3.org/2000/svg">
<mask id="mask0" mask-type="alpha" maskUnits="userSpaceOnUse" x="0" y="0" width="445" height="182">
<path d="M0 181.405L65.6791 0H96.615L162.056 181.405H0ZM269.38 181.405H217.027H171.575V2.13978H236.54C276.043 2.13978 303.409 25.2018 303.409 63.48C303.409 86.0665 293.652 103.66 277.233 113.884L301.743 181.168H269.38V181.405ZM445 42.7955H405.021V181.168H345.529V42.7955H305.313V2.13978H445V42.7955Z" fill="white"/>
</mask>
<g mask="url(#mask0)">
<path d="M181.858 229.113C193.174 222.587 196.934 208.234 190.408 196.919C183.882 185.603 169.529 181.842 158.213 188.368C146.898 194.895 143.137 209.247 149.663 220.563C156.189 231.879 170.542 235.639 181.858 229.113Z" fill="#D1D3D4"/>
<path d="M226.391 217.324C237.706 210.798 241.467 196.445 234.941 185.13C228.415 173.814 214.062 170.053 202.746 176.579C191.43 183.105 187.67 197.458 194.196 208.774C200.722 220.09 215.075 223.85 226.391 217.324Z" fill="#A7A9AC"/>
<path d="M271.906 204.881C283.222 198.355 286.982 184.002 280.456 172.686C273.93 161.371 259.577 157.61 248.261 164.136C236.946 170.662 233.185 185.015 239.711 196.331C246.237 207.646 260.59 211.407 271.906 204.881Z" fill="#A7A9AC"/>
<path d="M317.748 192.765C329.064 186.239 332.825 171.886 326.299 160.57C319.773 149.255 305.42 145.494 294.104 152.02C282.788 158.546 279.028 172.899 285.554 184.215C292.08 195.531 306.433 199.291 317.748 192.765Z" fill="#A7A9AC"/>
<path d="M363.591 179.667C374.907 173.14 378.667 158.788 372.141 147.472C365.615 136.156 351.262 132.395 339.946 138.922C328.631 145.448 324.87 159.801 331.396 171.116C337.922 182.432 352.275 186.193 363.591 179.667Z" fill="#A7A9AC"/>
<path d="M408.779 166.896C420.094 160.369 423.855 146.017 417.329 134.701C410.803 123.385 396.45 119.624 385.134 126.151C373.819 132.677 370.058 147.03 376.584 158.345C383.11 169.661 397.463 173.422 408.779 166.896Z" fill="#6D6E71"/>
<path d="M452.984 154.78C464.299 148.254 468.06 133.901 461.534 122.585C455.008 111.269 440.655 107.509 429.339 114.035C418.024 120.561 414.263 134.914 420.789 146.23C427.315 157.545 441.668 161.306 452.984 154.78Z" fill="#D1D3D4"/>
<path d="M74.7875 14.1983C86.1032 7.67221 89.8639 -6.68074 83.3378 -17.9964C76.8116 -29.3121 62.4587 -33.0728 51.143 -26.5467C39.8274 -20.0205 36.0667 -5.66757 42.5928 5.6481C49.1189 16.9638 63.4718 20.7245 74.7875 14.1983Z" fill="#A7A9AC"/>
<path d="M120.186 1.75547C131.501 -4.77066 135.262 -19.1236 128.736 -30.4393C122.21 -41.755 107.857 -45.5156 96.5411 -38.9895C85.2254 -32.4634 81.4647 -18.1104 87.9909 -6.79478C94.517 4.52089 108.87 8.28159 120.186 1.75547Z" fill="#D1D3D4"/>
<path d="M29.4833 25.6583C40.799 19.1322 44.5597 4.77922 38.0336 -6.53645C31.5074 -17.8521 17.1545 -21.6128 5.83883 -15.0867C-5.47685 -8.56056 -9.23754 5.79239 -2.71141 17.1081C3.81471 28.4237 18.1676 32.1844 29.4833 25.6583Z" fill="#D1D3D4"/>
<path d="M-15.7044 38.4288C-4.38875 31.9027 -0.628055 17.5497 -7.15418 6.23406C-13.6803 -5.08161 -28.0332 -8.84231 -39.3489 -2.31618C-50.6646 4.20994 -54.4253 18.5629 -47.8992 29.8786C-41.373 41.1942 -27.0201 44.9549 -15.7044 38.4288Z" fill="#D1D3D4"/>
<path d="M164.718 -10.0341C176.034 -16.5602 179.795 -30.9132 173.268 -42.2288C166.742 -53.5445 152.389 -57.3052 141.074 -50.7791C129.758 -44.2529 125.997 -29.9 132.523 -18.5843C139.05 -7.26866 153.403 -3.50796 164.718 -10.0341Z" fill="#D1D3D4"/>
<path d="M352.281 184.392C340.965 190.918 337.205 205.271 343.731 216.587C350.257 227.903 364.61 231.663 375.925 225.137C387.241 218.611 391.002 204.258 384.476 192.943C377.95 181.627 363.597 177.866 352.281 184.392Z" fill="#D1D3D4"/>
<path d="M397.469 171.622C386.153 178.148 382.392 192.501 388.919 203.817C395.445 215.132 409.798 218.893 421.113 212.367C432.429 205.841 436.19 191.488 429.664 180.172C423.137 168.856 408.784 165.096 397.469 171.622Z" fill="#A7A9AC"/>
<path d="M441.674 159.506C430.358 166.032 426.598 180.385 433.124 191.701C439.65 203.017 454.003 206.777 465.318 200.251C476.634 193.725 480.395 179.372 473.869 168.056C467.343 156.741 452.99 152.98 441.674 159.506Z" fill="#D1D3D4"/>
<path d="M63.478 18.925C52.1623 25.4512 48.4016 39.8041 54.9277 51.1198C61.4539 62.4354 75.8068 66.1961 87.1225 59.67C98.4382 53.1439 102.199 38.7909 95.6727 27.4753C89.1466 16.1596 74.7936 12.3989 63.478 18.925Z" fill="#6D6E71"/>
<path d="M108.876 6.48167C97.5605 13.0078 93.7998 27.3607 100.326 38.6764C106.852 49.9921 121.205 53.7528 132.521 47.2266C143.836 40.7005 147.597 26.3476 141.071 15.0319C134.545 3.71624 120.192 -0.0444484 108.876 6.48167Z" fill="#6D6E71"/>
<path d="M18.1729 30.3855C6.85726 36.9116 3.09657 51.2646 9.62269 62.5802C16.1488 73.8959 30.5018 77.6566 41.8174 71.1305C53.1331 64.6043 56.8938 50.2514 50.3677 38.9357C43.8415 27.62 29.4886 23.8594 18.1729 30.3855Z" fill="#6D6E71"/>
<path d="M-27.0148 43.1565C-38.3305 49.6826 -42.0912 64.0355 -35.5651 75.3512C-29.0389 86.6669 -14.686 90.4276 -3.3703 83.9015C7.94536 77.3753 11.706 63.0224 5.17992 51.7067C-1.3462 40.391 -15.6992 36.6304 -27.0148 43.1565Z" fill="#D1D3D4"/>
<path d="M153.409 -5.30788C142.093 1.21825 138.332 15.5712 144.859 26.8869C151.385 38.2025 165.738 41.9632 177.053 35.4371C188.369 28.911 192.13 14.558 185.604 3.24236C179.077 -8.07332 164.724 -11.834 153.409 -5.30788Z" fill="#6D6E71"/>
<path d="M198.924 -17.7512C187.608 -11.2251 183.847 3.12783 190.373 14.4435C196.9 25.7592 211.253 29.5199 222.568 22.9937C233.884 16.4676 237.645 2.11467 231.118 -9.201C224.592 -20.5167 210.239 -24.2774 198.924 -17.7512Z" fill="#A7A9AC"/>
<path d="M244.766 -29.867C233.451 -23.3408 229.69 -8.98789 236.216 2.32778C242.742 13.6435 257.095 17.4041 268.411 10.878C279.726 4.35189 283.487 -10.0011 276.961 -21.3167C270.435 -32.6324 256.082 -36.3931 244.766 -29.867Z" fill="#A7A9AC"/>
<path d="M290.609 -42.9651C279.293 -36.439 275.532 -22.086 282.058 -10.7704C288.584 0.545309 302.937 4.30599 314.253 -2.22013C325.569 -8.74625 329.329 -23.0992 322.803 -34.4149C316.277 -45.7305 301.924 -49.4912 290.609 -42.9651Z" fill="#D1D3D4"/>
<path d="M100.481 155.342C89.1656 161.868 85.4049 176.221 91.931 187.536C98.4572 198.852 112.81 202.613 124.126 196.087C135.441 189.56 139.202 175.207 132.676 163.892C126.15 152.576 111.797 148.815 100.481 155.342Z" fill="#6D6E71"/>
<path d="M145.879 142.898C134.564 149.424 130.803 163.777 137.329 175.093C143.855 186.409 158.208 190.169 169.524 183.643C180.84 177.117 184.6 162.764 178.074 151.448C171.548 140.133 157.195 136.372 145.879 142.898Z" fill="#A7A9AC"/>
<path d="M55.1762 166.801C43.8606 173.327 40.0999 187.68 46.626 198.996C53.1521 210.311 67.5051 214.072 78.8207 207.546C90.1364 201.02 93.8971 186.667 87.371 175.351C80.8448 164.036 66.4919 160.275 55.1762 166.801Z" fill="#D1D3D4"/>
<path d="M9.98835 179.571C-1.32731 186.097 -5.088 200.45 1.43812 211.765C7.96425 223.081 22.3172 226.842 33.6329 220.316C44.9485 213.789 48.7092 199.436 42.1831 188.121C35.657 176.805 21.304 173.044 9.98835 179.571Z" fill="#A7A9AC"/>
<path d="M190.412 131.109C179.096 137.635 175.336 151.988 181.862 163.303C188.388 174.619 202.741 178.38 214.057 171.854C225.372 165.327 229.133 150.975 222.607 139.659C216.081 128.343 201.728 124.583 190.412 131.109Z" fill="#A7A9AC"/>
<path d="M235.927 118.664C224.611 125.19 220.851 139.543 227.377 150.859C233.903 162.175 248.256 165.935 259.571 159.409C270.887 152.883 274.648 138.53 268.122 127.215C261.596 115.899 247.243 112.138 235.927 118.664Z" fill="#A7A9AC"/>
<path d="M281.769 106.549C270.454 113.075 266.693 127.428 273.219 138.743C279.745 150.059 294.098 153.82 305.414 147.294C316.73 140.767 320.49 126.414 313.964 115.099C307.438 103.783 293.085 100.022 281.769 106.549Z" fill="#A7A9AC"/>
<path d="M327.612 93.4504C316.297 99.9765 312.536 114.329 319.062 125.645C325.588 136.961 339.941 140.722 351.257 134.195C362.572 127.669 366.333 113.316 359.807 102.001C353.281 90.685 338.928 86.9243 327.612 93.4504Z" fill="#A7A9AC"/>
<path d="M372.8 80.6789C361.484 87.2051 357.723 101.558 364.249 112.874C370.776 124.189 385.128 127.95 396.444 121.424C407.76 114.898 411.521 100.545 404.994 89.2292C398.468 77.9135 384.115 74.1528 372.8 80.6789Z" fill="#A7A9AC"/>
<path d="M417.005 68.5632C405.69 75.0893 401.929 89.4423 408.455 100.758C414.981 112.074 429.334 115.834 440.65 109.308C451.965 102.782 455.726 88.4291 449.2 77.1134C442.674 65.7978 428.321 62.0371 417.005 68.5632Z" fill="#A7A9AC"/>
<path d="M462.848 56.7746C451.532 63.3008 447.771 77.6537 454.297 88.9694C460.823 100.285 475.176 104.046 486.492 97.5196C497.808 90.9935 501.568 76.6405 495.042 65.3249C488.516 54.0092 474.163 50.2485 462.848 56.7746Z" fill="#A7A9AC"/>
<path d="M88.1462 109.87C76.8305 116.396 73.0698 130.749 79.596 142.065C86.1221 153.38 100.475 157.141 111.791 150.615C123.106 144.089 126.867 129.736 120.341 118.42C113.815 107.104 99.4619 103.344 88.1462 109.87Z" fill="#6D6E71"/>
<path d="M133.544 97.427C122.229 103.953 118.468 118.306 124.994 129.622C131.52 140.937 145.873 144.698 157.189 138.172C168.504 131.646 172.265 117.293 165.739 105.977C159.213 94.6615 144.86 90.9009 133.544 97.427Z" fill="#6D6E71"/>
<path d="M42.8421 121.33C31.5264 127.856 27.7658 142.209 34.2919 153.525C40.818 164.84 55.171 168.601 66.4866 162.075C77.8023 155.549 81.563 141.196 75.0369 129.88C68.5107 118.564 54.1578 114.804 42.8421 121.33Z" fill="#D1D3D4"/>
<path d="M-2.34576 134.1C-13.6614 140.626 -17.4221 154.979 -10.896 166.295C-4.36986 177.611 9.9831 181.371 21.2988 174.845C32.6144 168.319 36.3751 153.966 29.849 142.651C23.3229 131.335 8.96991 127.574 -2.34576 134.1Z" fill="#A7A9AC"/>
<path d="M178.077 85.6369C166.761 92.1631 163.001 106.516 169.527 117.832C176.053 129.147 190.406 132.908 201.721 126.382C213.037 119.856 216.798 105.503 210.272 94.1872C203.746 82.8715 189.393 79.1108 178.077 85.6369Z" fill="#6D6E71"/>
<path d="M223.592 73.1931C212.277 79.7192 208.516 94.0722 215.042 105.388C221.568 116.704 235.921 120.464 247.237 113.938C258.553 107.412 262.313 93.059 255.787 81.7433C249.261 70.4277 234.908 66.667 223.592 73.1931Z" fill="#D1D3D4"/>
<path d="M269.435 61.0769C258.119 67.603 254.358 81.956 260.885 93.2716C267.411 104.587 281.764 108.348 293.079 101.822C304.395 95.2957 308.156 80.9428 301.63 69.6271C295.103 58.3115 280.75 54.5508 269.435 61.0769Z" fill="#A7A9AC"/>
<path d="M315.277 47.9787C303.962 54.5049 300.201 68.8578 306.727 80.1735C313.253 91.4892 327.606 95.2498 338.922 88.7237C350.237 82.1976 353.998 67.8446 347.472 56.529C340.946 45.2133 326.593 41.4526 315.277 47.9787Z" fill="#A7A9AC"/>
<path d="M360.465 35.2077C349.149 41.7339 345.389 56.0868 351.915 67.4025C358.441 78.7182 372.794 82.4788 384.11 75.9527C395.425 69.4266 399.186 55.0737 392.66 43.758C386.134 32.4423 371.781 28.6816 360.465 35.2077Z" fill="#6D6E71"/>
<path d="M404.671 23.0915C393.355 29.6177 389.594 43.9706 396.12 55.2863C402.646 66.6019 416.999 70.3626 428.315 63.8365C439.631 57.3104 443.391 42.9574 436.865 31.6418C430.339 20.3261 415.986 16.5654 404.671 23.0915Z" fill="#6D6E71"/>
<path d="M450.513 11.3035C439.197 17.8296 435.437 32.1825 441.963 43.4982C448.489 54.8139 462.842 58.5745 474.158 52.0484C485.473 45.5223 489.234 31.1694 482.708 19.8537C476.182 8.53801 461.829 4.77733 450.513 11.3035Z" fill="#6D6E71"/>
<path d="M75.8122 64.3982C64.4965 70.9243 60.7359 85.2772 67.262 96.5929C73.7881 107.909 88.141 111.669 99.4567 105.143C110.772 98.617 114.533 84.2641 108.007 72.9484C101.481 61.6327 87.1279 57.872 75.8122 64.3982Z" fill="#A7A9AC"/>
<path d="M121.21 51.9548C109.894 58.4809 106.134 72.8339 112.66 84.1496C119.186 95.4652 133.539 99.2259 144.855 92.6998C156.17 86.1737 159.931 71.8207 153.405 60.5051C146.879 49.1894 132.526 45.4287 121.21 51.9548Z" fill="#6D6E71"/>
<path d="M30.508 75.8586C19.1923 82.3847 15.4317 96.7377 21.9578 108.053C28.4839 119.369 42.8368 123.13 54.1525 116.604C65.4682 110.077 69.2289 95.7245 62.7028 84.4089C56.1766 73.0932 41.8237 69.3325 30.508 75.8586Z" fill="#A7A9AC"/>
<path d="M-14.6798 88.6291C-25.9955 95.1553 -29.7562 109.508 -23.2301 120.824C-16.704 132.14 -2.35103 135.9 8.96465 129.374C20.2803 122.848 24.041 108.495 17.5149 97.1794C10.9888 85.8637 -3.36417 82.103 -14.6798 88.6291Z" fill="#A7A9AC"/>
<path d="M165.743 40.1648C154.427 46.6909 150.667 61.0438 157.193 72.3595C163.719 83.6752 178.072 87.4359 189.387 80.9098C200.703 74.3836 204.464 60.0307 197.938 48.715C191.411 37.3993 177.059 33.6387 165.743 40.1648Z" fill="#6D6E71"/>
<path d="M211.258 27.7214C199.943 34.2475 196.182 48.6005 202.708 59.9162C209.234 71.2318 223.587 74.9925 234.903 68.4664C246.218 61.9403 249.979 47.5873 243.453 36.2717C236.927 24.956 222.574 21.1953 211.258 27.7214Z" fill="#A7A9AC"/>
<path d="M257.101 15.6052C245.785 22.1313 242.024 36.4843 248.551 47.7999C255.077 59.1156 269.43 62.8763 280.745 56.3502C292.061 49.8241 295.822 35.4711 289.296 24.1554C282.769 12.8398 268.416 9.07908 257.101 15.6052Z" fill="#A7A9AC"/>
<path d="M302.943 2.50657C291.628 9.0327 287.867 23.3856 294.393 34.7013C300.919 46.017 315.272 49.7777 326.588 43.2516C337.903 36.7254 341.664 22.3725 335.138 11.0568C328.612 -0.258862 314.259 -4.01955 302.943 2.50657Z" fill="#A7A9AC"/>
<path d="M348.131 -10.2639C336.815 -3.73781 333.055 10.6151 339.581 21.9308C346.107 33.2465 360.46 37.0072 371.776 30.481C383.091 23.9549 386.852 9.60197 380.326 -1.7137C373.8 -13.0294 359.447 -16.7901 348.131 -10.2639Z" fill="#A7A9AC"/>
<path d="M392.336 -22.3801C381.02 -15.854 377.26 -1.50107 383.786 9.8146C390.312 21.1303 404.665 24.891 415.981 18.3648C427.296 11.8387 431.057 -2.51424 424.531 -13.8299C418.005 -25.1456 403.652 -28.9063 392.336 -22.3801Z" fill="#A7A9AC"/>
<path d="M438.179 -34.1682C426.863 -27.6421 423.102 -13.2892 429.628 -1.97349C436.154 9.34218 450.507 13.1029 461.823 6.57675C473.139 0.0506234 476.899 -14.3023 470.373 -25.618C463.847 -36.9337 449.494 -40.6944 438.179 -34.1682Z" fill="#A7A9AC"/>
</g>
</svg>
