<svg width="17" height="18" viewBox="0 0 17 18" fill="none" xmlns="http://www.w3.org/2000/svg">
<path d="M0.200195 1.2002V1.2002C1.59075 1.2002 2.78307 2.19294 3.03499 3.56048L4.24768 10.1437C4.50987 11.567 5.7508 12.6002 7.19804 12.6002H12.8002C14.4571 12.6002 15.8002 11.257 15.8002 9.60019V7.14254C15.8002 6.65581 15.4498 6.23977 14.9701 6.15708L7.1002 4.8002" stroke="#FFD500" stroke-width="1.5" stroke-linecap="round"/>
<path fill-rule="evenodd" clip-rule="evenodd" d="M6.2 17.4C6.86274 17.4 7.4 16.8627 7.4 16.2C7.4 15.5373 6.86274 15 6.2 15C5.53726 15 5 15.5373 5 16.2C5 16.8627 5.53726 17.4 6.2 17.4Z" fill="#FFD500"/>
<path fill-rule="evenodd" clip-rule="evenodd" d="M13.4002 17.4C14.0629 17.4 14.6002 16.8627 14.6002 16.2C14.6002 15.5373 14.0629 15 13.4002 15C12.7375 15 12.2002 15.5373 12.2002 16.2C12.2002 16.8627 12.7375 17.4 13.4002 17.4Z" fill="#FFD500"/>
</svg>
