<svg width="50" height="50" viewBox="0 0 50 50" fill="none" xmlns="http://www.w3.org/2000/svg">
<rect opacity="0.7" x="0.5" y="0.5" width="49" height="49" rx="24.5" stroke="#000"/>
<path fill-rule="evenodd" clip-rule="evenodd" d="M30.3536 20.3531C30.5489 20.1578 30.5489 19.8412 30.3536 19.646C30.1584 19.4507 29.8418 19.4507 29.6465 19.646L24.9999 24.2926L20.3536 19.6462C20.1583 19.451 19.8417 19.451 19.6464 19.6462C19.4512 19.8415 19.4512 20.1581 19.6464 20.3533L24.2928 24.9997L19.6465 29.646C19.4513 29.8412 19.4513 30.1578 19.6465 30.3531C19.8418 30.5483 20.1584 30.5483 20.3536 30.3531L24.9999 25.7068L29.6464 30.3533C29.8417 30.5486 30.1583 30.5486 30.3536 30.3533C30.5488 30.1581 30.5488 29.8415 30.3536 29.6462L25.707 24.9997L30.3536 20.3531Z" fill="#000"/>
</svg>
