<svg width="63" height="62" viewBox="0 0 63 62" fill="none" xmlns="http://www.w3.org/2000/svg">
<rect opacity="0.4" x="1.26362" y="0.38764" width="60.4719" height="60.4719" stroke="white" stroke-width="0.775281"/>
<path opacity="0.3" fill-rule="evenodd" clip-rule="evenodd" d="M9.79292 9.30341C10.8634 9.30341 11.7311 8.43564 11.7311 7.3652C11.7311 6.29476 10.8634 5.427 9.79292 5.427C8.72249 5.427 7.85472 6.29476 7.85472 7.3652C7.85472 8.43564 8.72249 9.30341 9.79292 9.30341ZM35.3766 9.30343C36.4471 9.30343 37.3148 8.43567 37.3148 7.36523C37.3148 6.29479 36.4471 5.42703 35.3766 5.42703C34.3062 5.42703 33.4384 6.29479 33.4384 7.36523C33.4384 8.43567 34.3062 9.30343 35.3766 9.30343ZM20.2587 7.36523C20.2587 8.43567 19.3909 9.30343 18.3205 9.30343C17.25 9.30343 16.3823 8.43567 16.3823 7.36523C16.3823 6.29479 17.25 5.42703 18.3205 5.42703C19.3909 5.42703 20.2587 6.29479 20.2587 7.36523ZM43.9047 9.30343C44.9752 9.30343 45.8429 8.43567 45.8429 7.36523C45.8429 6.29479 44.9752 5.42703 43.9047 5.42703C42.8343 5.42703 41.9665 6.29479 41.9665 7.36523C41.9665 8.43567 42.8343 9.30343 43.9047 9.30343ZM28.7867 7.36523C28.7867 8.43567 27.919 9.30343 26.8485 9.30343C25.7781 9.30343 24.9103 8.43567 24.9103 7.36523C24.9103 6.29479 25.7781 5.42703 26.8485 5.42703C27.919 5.42703 28.7867 6.29479 28.7867 7.36523ZM52.4328 9.30343C53.5033 9.30343 54.371 8.43567 54.371 7.36523C54.371 6.29479 53.5033 5.42703 52.4328 5.42703C51.3624 5.42703 50.4946 6.29479 50.4946 7.36523C50.4946 8.43567 51.3624 9.30343 52.4328 9.30343ZM9.79269 17.0562C10.8631 17.0562 11.7309 16.1885 11.7309 15.118C11.7309 14.0476 10.8631 13.1798 9.79269 13.1798C8.72225 13.1798 7.85449 14.0476 7.85449 15.118C7.85449 16.1885 8.72225 17.0562 9.79269 17.0562ZM35.3774 17.0563C36.4478 17.0563 37.3156 16.1885 37.3156 15.1181C37.3156 14.0476 36.4478 13.1799 35.3774 13.1799C34.3069 13.1799 33.4392 14.0476 33.4392 15.1181C33.4392 16.1885 34.3069 17.0563 35.3774 17.0563ZM20.2594 15.1181C20.2594 16.1885 19.3916 17.0563 18.3212 17.0563C17.2508 17.0563 16.383 16.1885 16.383 15.1181C16.383 14.0476 17.2508 13.1799 18.3212 13.1799C19.3916 13.1799 20.2594 14.0476 20.2594 15.1181ZM43.9055 17.0563C44.9759 17.0563 45.8437 16.1885 45.8437 15.1181C45.8437 14.0476 44.9759 13.1799 43.9055 13.1799C42.835 13.1799 41.9673 14.0476 41.9673 15.1181C41.9673 16.1885 42.835 17.0563 43.9055 17.0563ZM28.7875 15.1181C28.7875 16.1885 27.9197 17.0563 26.8493 17.0563C25.7789 17.0563 24.9111 16.1885 24.9111 15.1181C24.9111 14.0476 25.7789 13.1799 26.8493 13.1799C27.9197 13.1799 28.7875 14.0476 28.7875 15.1181ZM52.4336 17.0563C53.504 17.0563 54.3718 16.1885 54.3718 15.1181C54.3718 14.0476 53.504 13.1799 52.4336 13.1799C51.3631 13.1799 50.4954 14.0476 50.4954 15.1181C50.4954 16.1885 51.3631 17.0563 52.4336 17.0563ZM11.7309 22.8708C11.7309 23.9413 10.8631 24.809 9.79269 24.809C8.72225 24.809 7.85449 23.9413 7.85449 22.8708C7.85449 21.8004 8.72225 20.9326 9.79269 20.9326C10.8631 20.9326 11.7309 21.8004 11.7309 22.8708ZM37.3156 22.8709C37.3156 23.9413 36.4478 24.8091 35.3774 24.8091C34.3069 24.8091 33.4392 23.9413 33.4392 22.8709C33.4392 21.8004 34.3069 20.9327 35.3774 20.9327C36.4478 20.9327 37.3156 21.8004 37.3156 22.8709ZM18.3212 24.8091C19.3916 24.8091 20.2594 23.9413 20.2594 22.8709C20.2594 21.8004 19.3916 20.9327 18.3212 20.9327C17.2508 20.9327 16.383 21.8004 16.383 22.8709C16.383 23.9413 17.2508 24.8091 18.3212 24.8091ZM45.8437 22.8709C45.8437 23.9413 44.9759 24.8091 43.9055 24.8091C42.835 24.8091 41.9673 23.9413 41.9673 22.8709C41.9673 21.8004 42.835 20.9327 43.9055 20.9327C44.9759 20.9327 45.8437 21.8004 45.8437 22.8709ZM26.8493 24.8091C27.9197 24.8091 28.7875 23.9413 28.7875 22.8709C28.7875 21.8004 27.9197 20.9327 26.8493 20.9327C25.7789 20.9327 24.9111 21.8004 24.9111 22.8709C24.9111 23.9413 25.7789 24.8091 26.8493 24.8091ZM54.3718 22.8709C54.3718 23.9413 53.504 24.8091 52.4336 24.8091C51.3631 24.8091 50.4954 23.9413 50.4954 22.8709C50.4954 21.8004 51.3631 20.9327 52.4336 20.9327C53.504 20.9327 54.3718 21.8004 54.3718 22.8709ZM9.79269 32.5619C10.8631 32.5619 11.7309 31.6941 11.7309 30.6237C11.7309 29.5532 10.8631 28.6855 9.79269 28.6855C8.72225 28.6855 7.85449 29.5532 7.85449 30.6237C7.85449 31.6941 8.72225 32.5619 9.79269 32.5619ZM35.3774 32.5619C36.4478 32.5619 37.3156 31.6941 37.3156 30.6237C37.3156 29.5532 36.4478 28.6855 35.3774 28.6855C34.3069 28.6855 33.4392 29.5532 33.4392 30.6237C33.4392 31.6941 34.3069 32.5619 35.3774 32.5619ZM20.2594 30.6237C20.2594 31.6941 19.3916 32.5619 18.3212 32.5619C17.2508 32.5619 16.383 31.6941 16.383 30.6237C16.383 29.5532 17.2508 28.6855 18.3212 28.6855C19.3916 28.6855 20.2594 29.5532 20.2594 30.6237ZM43.9055 32.5619C44.9759 32.5619 45.8437 31.6941 45.8437 30.6237C45.8437 29.5532 44.9759 28.6855 43.9055 28.6855C42.835 28.6855 41.9673 29.5532 41.9673 30.6237C41.9673 31.6941 42.835 32.5619 43.9055 32.5619ZM28.7875 30.6237C28.7875 31.6941 27.9197 32.5619 26.8493 32.5619C25.7789 32.5619 24.9111 31.6941 24.9111 30.6237C24.9111 29.5532 25.7789 28.6855 26.8493 28.6855C27.9197 28.6855 28.7875 29.5532 28.7875 30.6237ZM52.4336 32.5619C53.504 32.5619 54.3718 31.6941 54.3718 30.6237C54.3718 29.5532 53.504 28.6855 52.4336 28.6855C51.3631 28.6855 50.4954 29.5532 50.4954 30.6237C50.4954 31.6941 51.3631 32.5619 52.4336 32.5619ZM11.7309 38.3765C11.7309 39.4469 10.8631 40.3147 9.79269 40.3147C8.72225 40.3147 7.85449 39.4469 7.85449 38.3765C7.85449 37.306 8.72225 36.4383 9.79269 36.4383C10.8631 36.4383 11.7309 37.306 11.7309 38.3765ZM37.3156 38.3765C37.3156 39.4469 36.4478 40.3147 35.3774 40.3147C34.3069 40.3147 33.4392 39.4469 33.4392 38.3765C33.4392 37.3061 34.3069 36.4383 35.3774 36.4383C36.4478 36.4383 37.3156 37.3061 37.3156 38.3765ZM18.3212 40.3147C19.3916 40.3147 20.2594 39.4469 20.2594 38.3765C20.2594 37.3061 19.3916 36.4383 18.3212 36.4383C17.2508 36.4383 16.383 37.3061 16.383 38.3765C16.383 39.4469 17.2508 40.3147 18.3212 40.3147ZM45.8437 38.3765C45.8437 39.4469 44.9759 40.3147 43.9055 40.3147C42.835 40.3147 41.9673 39.4469 41.9673 38.3765C41.9673 37.3061 42.835 36.4383 43.9055 36.4383C44.9759 36.4383 45.8437 37.3061 45.8437 38.3765ZM26.8493 40.3147C27.9197 40.3147 28.7875 39.4469 28.7875 38.3765C28.7875 37.3061 27.9197 36.4383 26.8493 36.4383C25.7789 36.4383 24.9111 37.3061 24.9111 38.3765C24.9111 39.4469 25.7789 40.3147 26.8493 40.3147ZM54.3718 38.3765C54.3718 39.4469 53.504 40.3147 52.4336 40.3147C51.3631 40.3147 50.4954 39.4469 50.4954 38.3765C50.4954 37.3061 51.3631 36.4383 52.4336 36.4383C53.504 36.4383 54.3718 37.3061 54.3718 38.3765ZM9.79269 48.0675C10.8631 48.0675 11.7309 47.1997 11.7309 46.1293C11.7309 45.0588 10.8631 44.1911 9.79269 44.1911C8.72225 44.1911 7.85449 45.0588 7.85449 46.1293C7.85449 47.1997 8.72225 48.0675 9.79269 48.0675ZM35.3774 48.0675C36.4478 48.0675 37.3156 47.1997 37.3156 46.1293C37.3156 45.0589 36.4478 44.1911 35.3774 44.1911C34.3069 44.1911 33.4392 45.0589 33.4392 46.1293C33.4392 47.1997 34.3069 48.0675 35.3774 48.0675ZM20.2594 46.1293C20.2594 47.1997 19.3916 48.0675 18.3212 48.0675C17.2508 48.0675 16.383 47.1997 16.383 46.1293C16.383 45.0589 17.2508 44.1911 18.3212 44.1911C19.3916 44.1911 20.2594 45.0589 20.2594 46.1293ZM43.9055 48.0675C44.9759 48.0675 45.8437 47.1997 45.8437 46.1293C45.8437 45.0589 44.9759 44.1911 43.9055 44.1911C42.835 44.1911 41.9673 45.0589 41.9673 46.1293C41.9673 47.1997 42.835 48.0675 43.9055 48.0675ZM28.7875 46.1293C28.7875 47.1997 27.9197 48.0675 26.8493 48.0675C25.7789 48.0675 24.9111 47.1997 24.9111 46.1293C24.9111 45.0589 25.7789 44.1911 26.8493 44.1911C27.9197 44.1911 28.7875 45.0589 28.7875 46.1293ZM52.4336 48.0675C53.504 48.0675 54.3718 47.1997 54.3718 46.1293C54.3718 45.0589 53.504 44.1911 52.4336 44.1911C51.3631 44.1911 50.4954 45.0589 50.4954 46.1293C50.4954 47.1997 51.3631 48.0675 52.4336 48.0675ZM11.7309 53.8821C11.7309 54.9525 10.8631 55.8203 9.79269 55.8203C8.72225 55.8203 7.85449 54.9525 7.85449 53.8821C7.85449 52.8116 8.72225 51.9439 9.79269 51.9439C10.8631 51.9439 11.7309 52.8116 11.7309 53.8821ZM37.3156 53.8821C37.3156 54.9526 36.4478 55.8203 35.3774 55.8203C34.3069 55.8203 33.4392 54.9526 33.4392 53.8821C33.4392 52.8117 34.3069 51.9439 35.3774 51.9439C36.4478 51.9439 37.3156 52.8117 37.3156 53.8821ZM18.3212 55.8203C19.3916 55.8203 20.2594 54.9526 20.2594 53.8821C20.2594 52.8117 19.3916 51.9439 18.3212 51.9439C17.2508 51.9439 16.383 52.8117 16.383 53.8821C16.383 54.9526 17.2508 55.8203 18.3212 55.8203ZM45.8437 53.8821C45.8437 54.9526 44.9759 55.8203 43.9055 55.8203C42.835 55.8203 41.9673 54.9526 41.9673 53.8821C41.9673 52.8117 42.835 51.9439 43.9055 51.9439C44.9759 51.9439 45.8437 52.8117 45.8437 53.8821ZM26.8493 55.8203C27.9197 55.8203 28.7875 54.9526 28.7875 53.8821C28.7875 52.8117 27.9197 51.9439 26.8493 51.9439C25.7789 51.9439 24.9111 52.8117 24.9111 53.8821C24.9111 54.9526 25.7789 55.8203 26.8493 55.8203ZM54.3718 53.8821C54.3718 54.9526 53.504 55.8203 52.4336 55.8203C51.3631 55.8203 50.4954 54.9526 50.4954 53.8821C50.4954 52.8117 51.3631 51.9439 52.4336 51.9439C53.504 51.9439 54.3718 52.8117 54.3718 53.8821Z" fill="#C4C4C4"/>
<circle cx="43.9045" cy="7.3652" r="1.9382" fill="#E3000B"/>
<circle cx="35.3772" cy="22.8708" r="1.9382" fill="#E3000B"/>
<circle cx="18.321" cy="22.8708" r="1.9382" fill="#E3000B"/>
<circle cx="26.8493" cy="22.8708" r="1.9382" fill="#E3000B"/>
<circle cx="9.79269" cy="38.3764" r="1.9382" fill="#E3000B"/>
<circle cx="18.321" cy="38.3764" r="1.9382" fill="#E3000B"/>
</svg>
