<svg width="62" height="62" viewBox="0 0 62 62" fill="none" xmlns="http://www.w3.org/2000/svg">
<rect opacity="0.4" x="0.38764" y="0.38764" width="60.4719" height="60.4719" stroke="white" stroke-width="0.775281"/>
<path opacity="0.3" fill-rule="evenodd" clip-rule="evenodd" d="M8.91695 9.30341C9.98739 9.30341 10.8552 8.43564 10.8552 7.3652C10.8552 6.29476 9.98739 5.427 8.91695 5.427C7.84651 5.427 6.97875 6.29476 6.97875 7.3652C6.97875 8.43564 7.84651 9.30341 8.91695 9.30341ZM34.5007 9.30343C35.5711 9.30343 36.4389 8.43567 36.4389 7.36523C36.4389 6.29479 35.5711 5.42703 34.5007 5.42703C33.4302 5.42703 32.5625 6.29479 32.5625 7.36523C32.5625 8.43567 33.4302 9.30343 34.5007 9.30343ZM19.3827 7.36523C19.3827 8.43567 18.5149 9.30343 17.4445 9.30343C16.374 9.30343 15.5063 8.43567 15.5063 7.36523C15.5063 6.29479 16.374 5.42703 17.4445 5.42703C18.5149 5.42703 19.3827 6.29479 19.3827 7.36523ZM43.0287 9.30343C44.0992 9.30343 44.9669 8.43567 44.9669 7.36523C44.9669 6.29479 44.0992 5.42703 43.0287 5.42703C41.9583 5.42703 41.0905 6.29479 41.0905 7.36523C41.0905 8.43567 41.9583 9.30343 43.0287 9.30343ZM27.9108 7.36523C27.9108 8.43567 27.043 9.30343 25.9726 9.30343C24.9021 9.30343 24.0344 8.43567 24.0344 7.36523C24.0344 6.29479 24.9021 5.42703 25.9726 5.42703C27.043 5.42703 27.9108 6.29479 27.9108 7.36523ZM51.5568 9.30343C52.6273 9.30343 53.495 8.43567 53.495 7.36523C53.495 6.29479 52.6273 5.42703 51.5568 5.42703C50.4864 5.42703 49.6186 6.29479 49.6186 7.36523C49.6186 8.43567 50.4864 9.30343 51.5568 9.30343ZM8.91672 17.0562C9.98716 17.0562 10.8549 16.1885 10.8549 15.118C10.8549 14.0476 9.98716 13.1798 8.91672 13.1798C7.84628 13.1798 6.97852 14.0476 6.97852 15.118C6.97852 16.1885 7.84628 17.0562 8.91672 17.0562ZM34.5014 17.0563C35.5718 17.0563 36.4396 16.1885 36.4396 15.1181C36.4396 14.0476 35.5718 13.1799 34.5014 13.1799C33.431 13.1799 32.5632 14.0476 32.5632 15.1181C32.5632 16.1885 33.431 17.0563 34.5014 17.0563ZM19.3834 15.1181C19.3834 16.1885 18.5157 17.0563 17.4452 17.0563C16.3748 17.0563 15.507 16.1885 15.507 15.1181C15.507 14.0476 16.3748 13.1799 17.4452 13.1799C18.5157 13.1799 19.3834 14.0476 19.3834 15.1181ZM43.0295 17.0563C44.0999 17.0563 44.9677 16.1885 44.9677 15.1181C44.9677 14.0476 44.0999 13.1799 43.0295 13.1799C41.9591 13.1799 41.0913 14.0476 41.0913 15.1181C41.0913 16.1885 41.9591 17.0563 43.0295 17.0563ZM27.9115 15.1181C27.9115 16.1885 27.0438 17.0563 25.9733 17.0563C24.9029 17.0563 24.0351 16.1885 24.0351 15.1181C24.0351 14.0476 24.9029 13.1799 25.9733 13.1799C27.0438 13.1799 27.9115 14.0476 27.9115 15.1181ZM51.5576 17.0563C52.628 17.0563 53.4958 16.1885 53.4958 15.1181C53.4958 14.0476 52.628 13.1799 51.5576 13.1799C50.4871 13.1799 49.6194 14.0476 49.6194 15.1181C49.6194 16.1885 50.4871 17.0563 51.5576 17.0563ZM10.8549 22.8708C10.8549 23.9413 9.98716 24.809 8.91672 24.809C7.84628 24.809 6.97852 23.9413 6.97852 22.8708C6.97852 21.8004 7.84628 20.9326 8.91672 20.9326C9.98716 20.9326 10.8549 21.8004 10.8549 22.8708ZM36.4396 22.8709C36.4396 23.9413 35.5718 24.8091 34.5014 24.8091C33.431 24.8091 32.5632 23.9413 32.5632 22.8709C32.5632 21.8004 33.431 20.9327 34.5014 20.9327C35.5718 20.9327 36.4396 21.8004 36.4396 22.8709ZM17.4452 24.8091C18.5157 24.8091 19.3834 23.9413 19.3834 22.8709C19.3834 21.8004 18.5157 20.9327 17.4452 20.9327C16.3748 20.9327 15.507 21.8004 15.507 22.8709C15.507 23.9413 16.3748 24.8091 17.4452 24.8091ZM44.9677 22.8709C44.9677 23.9413 44.0999 24.8091 43.0295 24.8091C41.9591 24.8091 41.0913 23.9413 41.0913 22.8709C41.0913 21.8004 41.9591 20.9327 43.0295 20.9327C44.0999 20.9327 44.9677 21.8004 44.9677 22.8709ZM25.9733 24.8091C27.0438 24.8091 27.9115 23.9413 27.9115 22.8709C27.9115 21.8004 27.0438 20.9327 25.9733 20.9327C24.9029 20.9327 24.0351 21.8004 24.0351 22.8709C24.0351 23.9413 24.9029 24.8091 25.9733 24.8091ZM53.4958 22.8709C53.4958 23.9413 52.628 24.8091 51.5576 24.8091C50.4871 24.8091 49.6194 23.9413 49.6194 22.8709C49.6194 21.8004 50.4871 20.9327 51.5576 20.9327C52.628 20.9327 53.4958 21.8004 53.4958 22.8709ZM8.91672 32.5619C9.98716 32.5619 10.8549 31.6941 10.8549 30.6237C10.8549 29.5532 9.98716 28.6855 8.91672 28.6855C7.84628 28.6855 6.97852 29.5532 6.97852 30.6237C6.97852 31.6941 7.84628 32.5619 8.91672 32.5619ZM34.5014 32.5619C35.5718 32.5619 36.4396 31.6941 36.4396 30.6237C36.4396 29.5532 35.5718 28.6855 34.5014 28.6855C33.431 28.6855 32.5632 29.5532 32.5632 30.6237C32.5632 31.6941 33.431 32.5619 34.5014 32.5619ZM19.3834 30.6237C19.3834 31.6941 18.5157 32.5619 17.4452 32.5619C16.3748 32.5619 15.507 31.6941 15.507 30.6237C15.507 29.5532 16.3748 28.6855 17.4452 28.6855C18.5157 28.6855 19.3834 29.5532 19.3834 30.6237ZM43.0295 32.5619C44.0999 32.5619 44.9677 31.6941 44.9677 30.6237C44.9677 29.5532 44.0999 28.6855 43.0295 28.6855C41.9591 28.6855 41.0913 29.5532 41.0913 30.6237C41.0913 31.6941 41.9591 32.5619 43.0295 32.5619ZM27.9115 30.6237C27.9115 31.6941 27.0438 32.5619 25.9733 32.5619C24.9029 32.5619 24.0351 31.6941 24.0351 30.6237C24.0351 29.5532 24.9029 28.6855 25.9733 28.6855C27.0438 28.6855 27.9115 29.5532 27.9115 30.6237ZM51.5576 32.5619C52.628 32.5619 53.4958 31.6941 53.4958 30.6237C53.4958 29.5532 52.628 28.6855 51.5576 28.6855C50.4871 28.6855 49.6194 29.5532 49.6194 30.6237C49.6194 31.6941 50.4871 32.5619 51.5576 32.5619ZM10.8549 38.3765C10.8549 39.4469 9.98716 40.3147 8.91672 40.3147C7.84628 40.3147 6.97852 39.4469 6.97852 38.3765C6.97852 37.306 7.84628 36.4383 8.91672 36.4383C9.98716 36.4383 10.8549 37.306 10.8549 38.3765ZM36.4396 38.3765C36.4396 39.4469 35.5718 40.3147 34.5014 40.3147C33.431 40.3147 32.5632 39.4469 32.5632 38.3765C32.5632 37.3061 33.431 36.4383 34.5014 36.4383C35.5718 36.4383 36.4396 37.3061 36.4396 38.3765ZM17.4452 40.3147C18.5157 40.3147 19.3834 39.4469 19.3834 38.3765C19.3834 37.3061 18.5157 36.4383 17.4452 36.4383C16.3748 36.4383 15.507 37.3061 15.507 38.3765C15.507 39.4469 16.3748 40.3147 17.4452 40.3147ZM44.9677 38.3765C44.9677 39.4469 44.0999 40.3147 43.0295 40.3147C41.9591 40.3147 41.0913 39.4469 41.0913 38.3765C41.0913 37.3061 41.9591 36.4383 43.0295 36.4383C44.0999 36.4383 44.9677 37.3061 44.9677 38.3765ZM25.9733 40.3147C27.0438 40.3147 27.9115 39.4469 27.9115 38.3765C27.9115 37.3061 27.0438 36.4383 25.9733 36.4383C24.9029 36.4383 24.0351 37.3061 24.0351 38.3765C24.0351 39.4469 24.9029 40.3147 25.9733 40.3147ZM53.4958 38.3765C53.4958 39.4469 52.628 40.3147 51.5576 40.3147C50.4871 40.3147 49.6194 39.4469 49.6194 38.3765C49.6194 37.3061 50.4871 36.4383 51.5576 36.4383C52.628 36.4383 53.4958 37.3061 53.4958 38.3765ZM8.91672 48.0675C9.98716 48.0675 10.8549 47.1997 10.8549 46.1293C10.8549 45.0588 9.98716 44.1911 8.91672 44.1911C7.84628 44.1911 6.97852 45.0588 6.97852 46.1293C6.97852 47.1997 7.84628 48.0675 8.91672 48.0675ZM34.5014 48.0675C35.5718 48.0675 36.4396 47.1997 36.4396 46.1293C36.4396 45.0589 35.5718 44.1911 34.5014 44.1911C33.431 44.1911 32.5632 45.0589 32.5632 46.1293C32.5632 47.1997 33.431 48.0675 34.5014 48.0675ZM19.3834 46.1293C19.3834 47.1997 18.5157 48.0675 17.4452 48.0675C16.3748 48.0675 15.507 47.1997 15.507 46.1293C15.507 45.0589 16.3748 44.1911 17.4452 44.1911C18.5157 44.1911 19.3834 45.0589 19.3834 46.1293ZM43.0295 48.0675C44.0999 48.0675 44.9677 47.1997 44.9677 46.1293C44.9677 45.0589 44.0999 44.1911 43.0295 44.1911C41.9591 44.1911 41.0913 45.0589 41.0913 46.1293C41.0913 47.1997 41.9591 48.0675 43.0295 48.0675ZM27.9115 46.1293C27.9115 47.1997 27.0438 48.0675 25.9733 48.0675C24.9029 48.0675 24.0351 47.1997 24.0351 46.1293C24.0351 45.0589 24.9029 44.1911 25.9733 44.1911C27.0438 44.1911 27.9115 45.0589 27.9115 46.1293ZM51.5576 48.0675C52.628 48.0675 53.4958 47.1997 53.4958 46.1293C53.4958 45.0589 52.628 44.1911 51.5576 44.1911C50.4871 44.1911 49.6194 45.0589 49.6194 46.1293C49.6194 47.1997 50.4871 48.0675 51.5576 48.0675ZM10.8549 53.8821C10.8549 54.9525 9.98716 55.8203 8.91672 55.8203C7.84628 55.8203 6.97852 54.9525 6.97852 53.8821C6.97852 52.8116 7.84628 51.9439 8.91672 51.9439C9.98716 51.9439 10.8549 52.8116 10.8549 53.8821ZM36.4396 53.8821C36.4396 54.9526 35.5718 55.8203 34.5014 55.8203C33.431 55.8203 32.5632 54.9526 32.5632 53.8821C32.5632 52.8117 33.431 51.9439 34.5014 51.9439C35.5718 51.9439 36.4396 52.8117 36.4396 53.8821ZM17.4452 55.8203C18.5157 55.8203 19.3834 54.9526 19.3834 53.8821C19.3834 52.8117 18.5157 51.9439 17.4452 51.9439C16.3748 51.9439 15.507 52.8117 15.507 53.8821C15.507 54.9526 16.3748 55.8203 17.4452 55.8203ZM44.9677 53.8821C44.9677 54.9526 44.0999 55.8203 43.0295 55.8203C41.9591 55.8203 41.0913 54.9526 41.0913 53.8821C41.0913 52.8117 41.9591 51.9439 43.0295 51.9439C44.0999 51.9439 44.9677 52.8117 44.9677 53.8821ZM25.9733 55.8203C27.0438 55.8203 27.9115 54.9526 27.9115 53.8821C27.9115 52.8117 27.0438 51.9439 25.9733 51.9439C24.9029 51.9439 24.0351 52.8117 24.0351 53.8821C24.0351 54.9526 24.9029 55.8203 25.9733 55.8203ZM53.4958 53.8821C53.4958 54.9526 52.628 55.8203 51.5576 55.8203C50.4871 55.8203 49.6194 54.9526 49.6194 53.8821C49.6194 52.8117 50.4871 51.9439 51.5576 51.9439C52.628 51.9439 53.4958 52.8117 53.4958 53.8821Z" fill="#C4C4C4"/>
<circle cx="17.445" cy="15.1181" r="1.9382" fill="#2CAFE5"/>
<circle cx="25.9734" cy="15.1181" r="1.9382" fill="#2CAFE5"/>
<circle cx="25.9734" cy="38.3764" r="1.9382" fill="#2CAFE5"/>
<circle cx="43.0295" cy="46.1294" r="1.9382" fill="#2CAFE5"/>
<circle cx="43.0295" cy="53.882" r="1.9382" fill="#2CAFE5"/>
<circle cx="51.5573" cy="53.882" r="1.9382" fill="#2CAFE5"/>
<circle cx="25.9724" cy="30.6235" r="1.9382" fill="#2CAFE5"/>
</svg>
