<svg width="69" height="69" viewBox="0 0 69 69" fill="none" xmlns="http://www.w3.org/2000/svg">
<rect opacity="0.4" x="0.775281" y="0.775281" width="67.4494" height="67.4494" stroke="transparent" stroke-width="1.55056"/>
<rect opacity="0.4" x="4.26362" y="4.26411" width="60.4719" height="60.4719" stroke="white" stroke-width="0.775281"/>
<path opacity="0.3" fill-rule="evenodd" clip-rule="evenodd" d="M12.7929 13.1799C13.8634 13.1799 14.7311 12.3121 14.7311 11.2417C14.7311 10.1712 13.8634 9.30347 12.7929 9.30347C11.7225 9.30347 10.8547 10.1712 10.8547 11.2417C10.8547 12.3121 11.7225 13.1799 12.7929 13.1799ZM38.3766 13.1799C39.4471 13.1799 40.3148 12.3121 40.3148 11.2417C40.3148 10.1713 39.4471 9.30349 38.3766 9.30349C37.3062 9.30349 36.4384 10.1713 36.4384 11.2417C36.4384 12.3121 37.3062 13.1799 38.3766 13.1799ZM23.2587 11.2417C23.2587 12.3121 22.3909 13.1799 21.3205 13.1799C20.25 13.1799 19.3823 12.3121 19.3823 11.2417C19.3823 10.1713 20.25 9.30349 21.3205 9.30349C22.3909 9.30349 23.2587 10.1713 23.2587 11.2417ZM46.9047 13.1799C47.9752 13.1799 48.8429 12.3121 48.8429 11.2417C48.8429 10.1713 47.9752 9.30349 46.9047 9.30349C45.8343 9.30349 44.9665 10.1713 44.9665 11.2417C44.9665 12.3121 45.8343 13.1799 46.9047 13.1799ZM31.7867 11.2417C31.7867 12.3121 30.919 13.1799 29.8485 13.1799C28.7781 13.1799 27.9103 12.3121 27.9103 11.2417C27.9103 10.1713 28.7781 9.30349 29.8485 9.30349C30.919 9.30349 31.7867 10.1713 31.7867 11.2417ZM55.4328 13.1799C56.5033 13.1799 57.371 12.3121 57.371 11.2417C57.371 10.1713 56.5033 9.30349 55.4328 9.30349C54.3624 9.30349 53.4946 10.1713 53.4946 11.2417C53.4946 12.3121 54.3624 13.1799 55.4328 13.1799ZM12.7927 20.9327C13.8631 20.9327 14.7309 20.0649 14.7309 18.9945C14.7309 17.9241 13.8631 17.0563 12.7927 17.0563C11.7223 17.0563 10.8545 17.9241 10.8545 18.9945C10.8545 20.0649 11.7223 20.9327 12.7927 20.9327ZM38.3774 20.9327C39.4478 20.9327 40.3156 20.065 40.3156 18.9945C40.3156 17.9241 39.4478 17.0563 38.3774 17.0563C37.3069 17.0563 36.4392 17.9241 36.4392 18.9945C36.4392 20.065 37.3069 20.9327 38.3774 20.9327ZM23.2594 18.9945C23.2594 20.065 22.3916 20.9327 21.3212 20.9327C20.2508 20.9327 19.383 20.065 19.383 18.9945C19.383 17.9241 20.2508 17.0563 21.3212 17.0563C22.3916 17.0563 23.2594 17.9241 23.2594 18.9945ZM46.9055 20.9327C47.9759 20.9327 48.8437 20.065 48.8437 18.9945C48.8437 17.9241 47.9759 17.0563 46.9055 17.0563C45.835 17.0563 44.9673 17.9241 44.9673 18.9945C44.9673 20.065 45.835 20.9327 46.9055 20.9327ZM31.7875 18.9945C31.7875 20.065 30.9197 20.9327 29.8493 20.9327C28.7789 20.9327 27.9111 20.065 27.9111 18.9945C27.9111 17.9241 28.7789 17.0563 29.8493 17.0563C30.9197 17.0563 31.7875 17.9241 31.7875 18.9945ZM55.4336 20.9327C56.504 20.9327 57.3718 20.065 57.3718 18.9945C57.3718 17.9241 56.504 17.0563 55.4336 17.0563C54.3631 17.0563 53.4954 17.9241 53.4954 18.9945C53.4954 20.065 54.3631 20.9327 55.4336 20.9327ZM14.7309 26.7473C14.7309 27.8178 13.8631 28.6855 12.7927 28.6855C11.7223 28.6855 10.8545 27.8178 10.8545 26.7473C10.8545 25.6769 11.7223 24.8091 12.7927 24.8091C13.8631 24.8091 14.7309 25.6769 14.7309 26.7473ZM40.3156 26.7473C40.3156 27.8178 39.4478 28.6855 38.3774 28.6855C37.3069 28.6855 36.4392 27.8178 36.4392 26.7473C36.4392 25.6769 37.3069 24.8091 38.3774 24.8091C39.4478 24.8091 40.3156 25.6769 40.3156 26.7473ZM21.3212 28.6855C22.3916 28.6855 23.2594 27.8178 23.2594 26.7473C23.2594 25.6769 22.3916 24.8091 21.3212 24.8091C20.2508 24.8091 19.383 25.6769 19.383 26.7473C19.383 27.8178 20.2508 28.6855 21.3212 28.6855ZM48.8437 26.7473C48.8437 27.8178 47.9759 28.6855 46.9055 28.6855C45.835 28.6855 44.9673 27.8178 44.9673 26.7473C44.9673 25.6769 45.835 24.8091 46.9055 24.8091C47.9759 24.8091 48.8437 25.6769 48.8437 26.7473ZM29.8493 28.6855C30.9197 28.6855 31.7875 27.8178 31.7875 26.7473C31.7875 25.6769 30.9197 24.8091 29.8493 24.8091C28.7789 24.8091 27.9111 25.6769 27.9111 26.7473C27.9111 27.8178 28.7789 28.6855 29.8493 28.6855ZM57.3718 26.7473C57.3718 27.8178 56.504 28.6855 55.4336 28.6855C54.3631 28.6855 53.4954 27.8178 53.4954 26.7473C53.4954 25.6769 54.3631 24.8091 55.4336 24.8091C56.504 24.8091 57.3718 25.6769 57.3718 26.7473ZM12.7927 36.4383C13.8631 36.4383 14.7309 35.5706 14.7309 34.5001C14.7309 33.4297 13.8631 32.5619 12.7927 32.5619C11.7223 32.5619 10.8545 33.4297 10.8545 34.5001C10.8545 35.5706 11.7223 36.4383 12.7927 36.4383ZM38.3774 36.4384C39.4478 36.4384 40.3156 35.5706 40.3156 34.5002C40.3156 33.4297 39.4478 32.562 38.3774 32.562C37.3069 32.562 36.4392 33.4297 36.4392 34.5002C36.4392 35.5706 37.3069 36.4384 38.3774 36.4384ZM23.2594 34.5002C23.2594 35.5706 22.3916 36.4384 21.3212 36.4384C20.2508 36.4384 19.383 35.5706 19.383 34.5002C19.383 33.4297 20.2508 32.562 21.3212 32.562C22.3916 32.562 23.2594 33.4297 23.2594 34.5002ZM46.9055 36.4384C47.9759 36.4384 48.8437 35.5706 48.8437 34.5002C48.8437 33.4297 47.9759 32.562 46.9055 32.562C45.835 32.562 44.9673 33.4297 44.9673 34.5002C44.9673 35.5706 45.835 36.4384 46.9055 36.4384ZM31.7875 34.5002C31.7875 35.5706 30.9197 36.4384 29.8493 36.4384C28.7789 36.4384 27.9111 35.5706 27.9111 34.5002C27.9111 33.4297 28.7789 32.562 29.8493 32.562C30.9197 32.562 31.7875 33.4297 31.7875 34.5002ZM55.4336 36.4384C56.504 36.4384 57.3718 35.5706 57.3718 34.5002C57.3718 33.4297 56.504 32.562 55.4336 32.562C54.3631 32.562 53.4954 33.4297 53.4954 34.5002C53.4954 35.5706 54.3631 36.4384 55.4336 36.4384ZM14.7309 42.2529C14.7309 43.3234 13.8631 44.1911 12.7927 44.1911C11.7223 44.1911 10.8545 43.3234 10.8545 42.2529C10.8545 41.1825 11.7223 40.3147 12.7927 40.3147C13.8631 40.3147 14.7309 41.1825 14.7309 42.2529ZM40.3156 42.253C40.3156 43.3234 39.4478 44.1912 38.3774 44.1912C37.3069 44.1912 36.4392 43.3234 36.4392 42.253C36.4392 41.1825 37.3069 40.3148 38.3774 40.3148C39.4478 40.3148 40.3156 41.1825 40.3156 42.253ZM21.3212 44.1912C22.3916 44.1912 23.2594 43.3234 23.2594 42.253C23.2594 41.1825 22.3916 40.3148 21.3212 40.3148C20.2508 40.3148 19.383 41.1825 19.383 42.253C19.383 43.3234 20.2508 44.1912 21.3212 44.1912ZM48.8437 42.253C48.8437 43.3234 47.9759 44.1912 46.9055 44.1912C45.835 44.1912 44.9673 43.3234 44.9673 42.253C44.9673 41.1825 45.835 40.3148 46.9055 40.3148C47.9759 40.3148 48.8437 41.1825 48.8437 42.253ZM29.8493 44.1912C30.9197 44.1912 31.7875 43.3234 31.7875 42.253C31.7875 41.1825 30.9197 40.3148 29.8493 40.3148C28.7789 40.3148 27.9111 41.1825 27.9111 42.253C27.9111 43.3234 28.7789 44.1912 29.8493 44.1912ZM57.3718 42.253C57.3718 43.3234 56.504 44.1912 55.4336 44.1912C54.3631 44.1912 53.4954 43.3234 53.4954 42.253C53.4954 41.1825 54.3631 40.3148 55.4336 40.3148C56.504 40.3148 57.3718 41.1825 57.3718 42.253ZM12.7927 51.9439C13.8631 51.9439 14.7309 51.0762 14.7309 50.0057C14.7309 48.9353 13.8631 48.0675 12.7927 48.0675C11.7223 48.0675 10.8545 48.9353 10.8545 50.0057C10.8545 51.0762 11.7223 51.9439 12.7927 51.9439ZM38.3774 51.944C39.4478 51.944 40.3156 51.0762 40.3156 50.0058C40.3156 48.9353 39.4478 48.0676 38.3774 48.0676C37.3069 48.0676 36.4392 48.9353 36.4392 50.0058C36.4392 51.0762 37.3069 51.944 38.3774 51.944ZM23.2594 50.0058C23.2594 51.0762 22.3916 51.944 21.3212 51.944C20.2508 51.944 19.383 51.0762 19.383 50.0058C19.383 48.9353 20.2508 48.0676 21.3212 48.0676C22.3916 48.0676 23.2594 48.9353 23.2594 50.0058ZM46.9055 51.944C47.9759 51.944 48.8437 51.0762 48.8437 50.0058C48.8437 48.9353 47.9759 48.0676 46.9055 48.0676C45.835 48.0676 44.9673 48.9353 44.9673 50.0058C44.9673 51.0762 45.835 51.944 46.9055 51.944ZM31.7875 50.0058C31.7875 51.0762 30.9197 51.944 29.8493 51.944C28.7789 51.944 27.9111 51.0762 27.9111 50.0058C27.9111 48.9353 28.7789 48.0676 29.8493 48.0676C30.9197 48.0676 31.7875 48.9353 31.7875 50.0058ZM55.4336 51.944C56.504 51.944 57.3718 51.0762 57.3718 50.0058C57.3718 48.9353 56.504 48.0676 55.4336 48.0676C54.3631 48.0676 53.4954 48.9353 53.4954 50.0058C53.4954 51.0762 54.3631 51.944 55.4336 51.944ZM14.7309 57.7585C14.7309 58.829 13.8631 59.6968 12.7927 59.6968C11.7223 59.6968 10.8545 58.829 10.8545 57.7585C10.8545 56.6881 11.7223 55.8203 12.7927 55.8203C13.8631 55.8203 14.7309 56.6881 14.7309 57.7585ZM40.3156 57.7586C40.3156 58.829 39.4478 59.6968 38.3774 59.6968C37.3069 59.6968 36.4392 58.829 36.4392 57.7586C36.4392 56.6881 37.3069 55.8204 38.3774 55.8204C39.4478 55.8204 40.3156 56.6881 40.3156 57.7586ZM21.3212 59.6968C22.3916 59.6968 23.2594 58.829 23.2594 57.7586C23.2594 56.6881 22.3916 55.8204 21.3212 55.8204C20.2508 55.8204 19.383 56.6881 19.383 57.7586C19.383 58.829 20.2508 59.6968 21.3212 59.6968ZM48.8437 57.7586C48.8437 58.829 47.9759 59.6968 46.9055 59.6968C45.835 59.6968 44.9673 58.829 44.9673 57.7586C44.9673 56.6881 45.835 55.8204 46.9055 55.8204C47.9759 55.8204 48.8437 56.6881 48.8437 57.7586ZM29.8493 59.6968C30.9197 59.6968 31.7875 58.829 31.7875 57.7586C31.7875 56.6881 30.9197 55.8204 29.8493 55.8204C28.7789 55.8204 27.9111 56.6881 27.9111 57.7586C27.9111 58.829 28.7789 59.6968 29.8493 59.6968ZM57.3718 57.7586C57.3718 58.829 56.504 59.6968 55.4336 59.6968C54.3631 59.6968 53.4954 58.829 53.4954 57.7586C53.4954 56.6881 54.3631 55.8204 55.4336 55.8204C56.504 55.8204 57.3718 56.6881 57.3718 57.7586Z" fill="#C4C4C4"/>
<circle cx="29.8484" cy="34.5" r="1.9382" fill="#FFD500"/>
<circle cx="38.3767" cy="18.9944" r="1.9382" fill="#FFD500"/>
<circle cx="38.3767" cy="42.2529" r="1.9382" fill="#FFD500"/>
<circle cx="55.4323" cy="42.2529" r="1.9382" fill="#FFD500"/>
</svg>
