<svg width="21" height="20" viewBox="0 0 21 20" fill="none" xmlns="http://www.w3.org/2000/svg">
<path d="M7.09911 10.0004C7.09911 8.15945 8.59109 6.66667 10.432 6.66667C12.273 6.66667 13.7658 8.15945 13.7658 10.0004C13.7658 11.8414 12.273 13.3341 10.432 13.3341C8.59109 13.3341 7.09911 11.8414 7.09911 10.0004ZM5.29696 10.0004C5.29696 12.8365 7.59593 15.1355 10.432 15.1355C13.2682 15.1355 15.5671 12.8365 15.5671 10.0004C15.5671 7.16429 13.2682 4.86531 10.432 4.86531C7.59593 4.86531 5.29696 7.16429 5.29696 10.0004ZM14.5704 4.66171C14.5703 4.89905 14.6406 5.1311 14.7723 5.3285C14.9041 5.5259 15.0915 5.67979 15.3107 5.7707C15.53 5.86162 15.7713 5.88548 16.0041 5.83927C16.2369 5.79306 16.4507 5.67885 16.6186 5.51109C16.7865 5.34333 16.9009 5.12954 16.9473 4.89678C16.9937 4.66401 16.97 4.42271 16.8793 4.20339C16.7886 3.98408 16.6348 3.79659 16.4375 3.66465C16.2402 3.53271 16.0082 3.46223 15.7709 3.46214H15.7704C15.4523 3.46229 15.1472 3.5887 14.9222 3.81362C14.6972 4.03854 14.5706 4.34356 14.5704 4.66171ZM6.39188 18.1405C5.41688 18.0961 4.88694 17.9337 4.53477 17.7965C4.06787 17.6147 3.73473 17.3982 3.38448 17.0484C3.03422 16.6987 2.81742 16.3659 2.63645 15.899C2.49916 15.5469 2.33676 15.0168 2.29244 14.0418C2.24395 12.9877 2.23427 12.6711 2.23427 10.0005C2.23427 7.32989 2.24475 7.01412 2.29244 5.95912C2.33684 4.98412 2.50044 4.45506 2.63645 4.102C2.81822 3.63511 3.0347 3.30197 3.38448 2.95172C3.73425 2.60146 4.06707 2.38466 4.53477 2.20369C4.88678 2.0664 5.41688 1.904 6.39188 1.85967C7.446 1.81119 7.76265 1.80151 10.432 1.80151C13.1014 1.80151 13.4184 1.81199 14.4734 1.85967C15.4484 1.90408 15.9775 2.06768 16.3305 2.20369C16.7974 2.38466 17.1306 2.60194 17.4808 2.95172C17.8311 3.30149 18.0471 3.63511 18.2288 4.102C18.3661 4.45402 18.5285 4.98412 18.5728 5.95912C18.6213 7.01412 18.631 7.32989 18.631 10.0005C18.631 12.6711 18.6213 12.9868 18.5728 14.0418C18.5284 15.0168 18.3652 15.5468 18.2288 15.899C18.0471 16.3659 17.8306 16.699 17.4808 17.0484C17.131 17.3979 16.7974 17.6147 16.3305 17.7965C15.9785 17.9338 15.4484 18.0962 14.4734 18.1405C13.4193 18.189 13.1026 18.1987 10.432 18.1987C7.76145 18.1987 7.44568 18.189 6.39188 18.1405ZM6.30908 0.0605624C5.24447 0.109044 4.517 0.277851 3.8817 0.525061C3.22375 0.780351 2.66677 1.12285 2.11019 1.67855C1.55361 2.23425 1.21199 2.79211 0.956702 3.45006C0.709492 4.08576 0.540685 4.81283 0.492203 5.87744C0.442921 6.94372 0.431641 7.28461 0.431641 10.0004C0.431641 12.7162 0.442921 13.0571 0.492203 14.1234C0.540685 15.188 0.709492 15.915 0.956702 16.5507C1.21199 17.2083 1.55369 17.7668 2.11019 18.3223C2.66669 18.8777 3.22375 19.2197 3.8817 19.4757C4.5182 19.723 5.24447 19.8918 6.30908 19.9402C7.37592 19.9887 7.71625 20.0008 10.432 20.0008C13.1478 20.0008 13.4887 19.9895 14.555 19.9402C15.6197 19.8918 16.3467 19.723 16.9824 19.4757C17.6399 19.2197 18.1973 18.878 18.7539 18.3223C19.3105 17.7666 19.6514 17.2083 19.9074 16.5507C20.1546 15.915 20.3242 15.188 20.3719 14.1234C20.4204 13.0563 20.4316 12.7162 20.4316 10.0004C20.4316 7.28461 20.4204 6.94372 20.3719 5.87744C20.3234 4.81275 20.1546 4.08536 19.9074 3.45006C19.6514 2.79251 19.3096 2.23513 18.7539 1.67855C18.1982 1.12196 17.6399 0.780351 16.9832 0.525061C16.3467 0.277851 15.6196 0.108244 14.5558 0.0605624C13.4895 0.0120805 13.1486 0 10.4328 0C7.71705 0 7.37592 0.0112805 6.30908 0.0605624Z" fill="black"/>
</svg>
