<svg width="31" height="31" viewBox="0 0 31 31" fill="none" xmlns="http://www.w3.org/2000/svg">
<path opacity="1" fill-rule="evenodd" clip-rule="evenodd" d="M30.3173 15.4999C30.3173 23.6832 23.6834 30.317 15.5002 30.317C7.31694 30.317 0.683105 23.6832 0.683105 15.4999C0.683105 7.31669 7.31694 0.682861 15.5002 0.682861C23.6834 0.682861 30.3173 7.31669 30.3173 15.4999ZM15.5002 8.36579C14.591 8.36579 13.8538 9.10288 13.8538 10.0121C13.8538 10.9214 14.591 11.6585 15.5002 11.6585C16.4094 11.6585 17.1465 10.9214 17.1465 10.0121C17.1465 9.10288 16.4094 8.36579 15.5002 8.36579ZM15.5002 13.8536C14.591 13.8536 13.8538 14.5907 13.8538 15.4999V20.9877C13.8538 21.897 14.591 22.6341 15.5002 22.6341C16.4094 22.6341 17.1465 21.897 17.1465 20.9877V15.4999C17.1465 14.5907 16.4094 13.8536 15.5002 13.8536Z" fill="white"/>
</svg>
