<svg width="185" height="60" viewBox="0 0 185 60" fill="none" xmlns="http://www.w3.org/2000/svg">
<g clip-path="url(#clip0)">
<path d="M0.410156 0.400391V59.5999H59.6096L59.6092 0.400391H0.410156Z" fill="white"/>
<path d="M0.410156 0.400391V59.5999H59.6096L59.6092 0.400391H0.410156ZM55.6709 25.0083C55.5739 26.8528 54.9872 29.1507 54.4686 30.6861C52.3874 36.8716 49.974 40.7058 44.3855 40.7058C42.7399 40.7049 39.8219 40.2685 38.7453 37.3406L38.4896 36.6464L38.0316 37.2268C36.2844 39.4404 33.6872 40.7185 30.9059 40.7307C28.7735 40.7396 27.0603 40.0255 25.9515 38.6636L25.6476 38.2898L25.3242 38.6462C24.1401 39.9539 22.078 40.7032 19.6666 40.7032C17.773 40.7032 16.1381 40.0597 15.0628 38.8926L14.7694 38.5751L14.4642 38.8837C13.2678 40.0911 11.3844 40.699 9.01497 40.6418C6.14007 40.5754 4.3904 38.9709 4.3341 36.3492C4.24773 32.3092 8.15771 23.8098 9.77529 21.2258C10.8264 19.4994 12.2713 18.6612 14.1941 18.6612C15.5035 18.6603 16.3989 18.9346 16.931 19.499C17.4145 20.0108 17.5097 20.4426 17.5529 21.4827L17.6084 22.8273L18.3196 21.6859C20.0354 18.9203 22.8794 18.5376 25.698 18.5371C27.6572 18.5371 29.3671 19.2585 30.0533 20.3736L30.3064 20.7859L30.6739 20.4735C32.1268 19.239 34.1754 18.5596 36.4436 18.5596C38.9193 18.5591 40.7185 19.1747 41.7917 20.3888C42.0364 20.6644 42.1968 20.8575 42.4216 21.3286L42.6968 21.9065L43.1112 21.418C44.6814 19.5591 46.8269 18.6188 49.4901 18.6188C51.5979 18.6188 53.1977 19.1772 54.2446 20.2834C55.557 21.6682 55.7445 23.6168 55.6709 25.0083Z" fill="#FFED00"/>
<path d="M0.410156 0.400391V59.5999H59.6096L59.6092 0.400391H0.410156ZM57.338 27.2791C57.0687 29.4339 55.6133 33.4252 54.8394 35.0199C52.7651 39.2965 49.9909 42.5816 44.6496 42.5812C41.7967 42.5807 39.4472 41.6718 38.076 39.923C36.0651 41.6828 33.5763 42.6078 30.8974 42.607C28.8328 42.607 27.0078 42.0109 25.6167 40.9081C24.0812 41.9902 22.0107 42.593 19.7153 42.5926C17.7976 42.5926 16.0712 42.0668 14.7207 41.0935C13.2268 42.085 11.2697 42.5769 8.97094 42.5232C5.14649 42.4321 2.50611 40.0064 2.43118 36.4855C2.33043 31.808 6.27088 23.2455 8.12722 20.2804C9.51747 17.9982 11.6376 16.7688 14.236 16.7688C17.0572 16.7688 18.08 17.5749 18.5829 18.6011C20.7593 16.7532 23.6439 16.6465 25.6988 16.6469C27.9654 16.6469 29.3882 17.2485 30.6002 18.2116C32.2699 17.2091 34.1872 16.6867 36.4715 16.6867C39.3909 16.6863 41.5601 17.3657 43.0723 18.8623C44.8384 17.3937 47.047 16.7235 49.5202 16.7235C52.7917 16.724 54.9423 17.9034 56.2043 19.6615C57.9844 22.1427 57.6669 24.6396 57.338 27.2791Z" fill="#E3000B"/>
<path d="M0 0V60.0008L60 60L60.0008 0H0ZM59.1749 0.825937L59.1741 59.1745H0.82636L0.825513 0.825937H59.1749Z" fill="black"/>
<path d="M57.0524 18.0106V17.6025L57.3302 17.6017C57.5329 17.6017 57.6371 17.6732 57.6371 17.8045C57.64 17.9095 57.5715 18.0106 57.3636 18.0106H57.0524ZM58.0473 18.8582L57.8754 18.5584C57.7251 18.2964 57.6828 18.2549 57.5554 18.2105L57.5545 18.2024C57.806 18.1724 57.958 18.0106 57.9571 17.7854C57.9571 17.5496 57.8073 17.371 57.4876 17.371H56.7459V18.8599H57.0529L57.0537 18.2503L57.1083 18.2498C57.2404 18.2498 57.2942 18.2651 57.353 18.326C57.4148 18.3861 57.5042 18.5115 57.5558 18.6173L57.6748 18.8607L58.0473 18.8582ZM57.3153 16.9544C57.9546 16.9548 58.4745 17.4696 58.4728 18.1089C58.4745 18.7481 57.9529 19.2646 57.3153 19.2646C56.6778 19.2646 56.1642 18.7464 56.1642 18.1089C56.1642 17.4696 56.6761 16.9544 57.3153 16.9544ZM57.3153 16.6699C56.5207 16.6699 55.8789 17.3117 55.8789 18.1076C55.8789 18.9039 56.5199 19.5444 57.3153 19.5448C58.1117 19.5448 58.7539 18.9043 58.7539 18.1076C58.7539 17.3121 58.1117 16.6699 57.3153 16.6699Z" fill="black"/>
<path d="M49.4959 18.211C46.3946 18.211 44.2499 19.4408 42.8004 21.1574C42.5557 20.6443 42.3694 20.4187 42.1074 20.1236C40.9195 18.7795 39.0111 18.1547 36.4495 18.1542C33.9467 18.1542 31.8605 18.9357 30.4118 20.1668C29.6591 18.9438 27.865 18.1348 25.7038 18.1348C22.8789 18.1343 19.8004 18.5344 17.9736 21.4775C17.9296 20.4174 17.8339 19.8578 17.2383 19.2274C16.514 18.4603 15.3422 18.2618 14.2013 18.2609C12.1227 18.2618 10.558 19.1694 9.43108 21.0186C7.79868 23.6251 3.83876 32.2091 3.92724 36.3672C3.98651 39.0532 5.78824 40.9883 9.01324 41.0654C11.5313 41.1246 13.5078 40.4511 14.766 39.1824C15.8946 40.4083 17.6147 41.1263 19.6746 41.1276C21.9679 41.1268 24.2751 40.438 25.6382 38.933C26.7867 40.3436 28.5935 41.1644 30.9164 41.153C33.9564 41.1382 36.6226 39.6976 38.3668 37.4903C39.3218 40.0934 41.7454 41.1268 44.3938 41.1263C50.1974 41.1268 52.7472 37.1364 54.8707 30.8261C55.3486 29.4058 55.9883 27.0308 56.0928 25.0373C56.2685 21.7209 54.8643 18.211 49.4959 18.211ZM10.8793 34.0756C13.8838 33.5545 14.6369 34.6399 14.5416 35.6454C14.2584 38.6528 11.4978 39.3259 9.10087 39.27C7.36222 39.2294 5.79713 38.4326 5.75437 36.4141C5.6786 32.8826 9.28037 24.7126 10.9763 22.0041C11.7586 20.7197 12.7132 20.083 14.2351 20.0834C15.6758 20.083 16.0339 20.8234 16.011 21.712C15.9564 24.0759 12.1337 31.2663 10.8793 34.0756ZM20.658 31.3019C20.4582 31.84 20.0823 32.9669 19.7788 34.159C20.7647 33.9131 21.503 33.7429 22.7684 33.7721C24.2116 33.8076 25.1349 34.405 25.1344 35.5988C25.1344 38.4902 21.9365 39.3394 19.7208 39.3403C17.2857 39.3403 15.1462 37.9551 15.1462 35.2923C15.1462 32.1702 16.8383 27.436 18.4262 24.2842C20.3757 20.4123 22.3688 19.898 25.7999 19.898C27.3083 19.898 29.0452 20.5419 29.0452 21.966C29.0452 23.94 27.3756 24.6927 25.7174 24.788C25.0083 24.8286 23.9195 24.8676 23.2679 24.821C23.2679 24.821 22.7142 25.6626 22.1291 27.1595C25.1988 26.7273 26.5014 27.4245 25.9832 29.1992C25.2822 31.5991 23.2027 31.7574 20.658 31.3019ZM35.7573 23.8376C34.9263 23.8371 34.3848 24.3629 33.9797 24.9306C33.0907 26.1803 31.1628 31.1876 30.8618 33.2467C30.659 34.6543 31.2644 34.943 31.9299 34.943C32.9959 34.9422 34.1922 33.8136 34.6007 31.9517C34.6007 31.9517 32.57 31.9026 33.1296 30.1021C33.6736 28.3542 34.7057 27.9766 36.4164 27.9059C39.7866 27.7674 39.4543 30.2571 39.1847 31.5838C38.3083 35.8947 35.2425 39.3547 30.9033 39.3547C27.9319 39.3547 26.0882 37.7117 26.0886 34.6818C26.0882 32.5245 27.1576 29.1365 28.0068 27.1544C29.814 22.9342 31.7085 19.9822 36.5354 19.9822C39.431 19.9822 41.7154 21.0232 41.3797 23.7347C41.1341 25.7257 40.1372 26.8949 38.3278 27.0359C37.8219 27.0761 35.7493 27.0245 36.4355 25.0644C36.6772 24.3761 36.7759 23.8376 35.7573 23.8376ZM53.9855 27.3996C53.4736 29.94 52.3268 32.9466 51.0809 35.1869C49.0476 38.8416 46.5812 39.3534 44.4248 39.3263C42.27 39.3005 39.84 38.5059 39.8218 35.1797C39.8087 32.7933 40.8378 29.4223 41.712 27.2154C43.2373 23.2119 44.7926 19.9471 49.7157 20.0055C55.4549 20.0724 54.4312 25.1774 53.9855 27.3996ZM49.8918 24.8963C49.8304 26.4293 47.5841 32.5605 46.7861 33.9122C46.4407 34.4998 46.0512 34.9837 45.3476 34.9833C44.7372 34.9833 44.4595 34.5489 44.4438 34.0515C44.4006 32.668 46.9398 25.7337 47.8072 24.6064C48.1933 24.0099 48.6226 23.9142 49.1162 23.9214C49.8363 23.9299 49.91 24.4497 49.8918 24.8963Z" fill="black"/>
<path d="M72.1875 50.9946L87.5852 8.42773H94.8377L110.18 50.9946H72.1875ZM135.396 50.9946H123.123H112.467V8.98562H127.697C136.958 8.98562 143.374 14.3971 143.374 23.3791C143.374 28.6791 141.087 32.8074 137.237 35.2063L142.983 50.9946H135.396ZM176.513 18.5255H167.14V50.9946H153.193V18.5255H143.765V8.98562H176.568V18.5255H176.513Z" fill="black"/>
<path d="M158.116 16.3007C155.159 17.0817 153.43 20.0943 154.211 23.0511C154.992 26.0079 158.004 27.7374 160.961 26.9563C163.918 26.1753 165.648 23.1627 164.866 20.2059C164.085 17.2491 161.073 15.5196 158.116 16.3007Z" fill="#6D6E71"/>
<path d="M126.196 24.8372C129.153 24.0561 130.882 21.0435 130.101 18.0867C129.32 15.1299 126.307 13.4005 123.35 14.1815C120.394 14.9626 118.664 17.9752 119.445 20.932C120.226 23.8888 123.239 25.6182 126.196 24.8372Z" fill="#6D6E71"/>
<path d="M126.202 24.8261C123.245 25.6071 121.516 28.6197 122.297 31.5765C123.078 34.5333 126.09 36.2627 129.047 35.4817C132.004 34.7006 133.733 31.6881 132.952 28.7313C132.171 25.7745 129.159 24.045 126.202 24.8261Z" fill="#D1D3D4"/>
<path d="M129.034 35.4804C126.077 36.2614 124.348 39.274 125.129 42.2308C125.91 45.1876 128.922 46.917 131.879 46.136C134.836 45.3549 136.565 42.3423 135.784 39.3856C135.003 36.4288 131.991 34.6993 129.034 35.4804Z" fill="#D1D3D4"/>
<path d="M118.389 38.3319C115.433 39.113 113.703 42.1256 114.484 45.0824C115.265 48.0392 118.278 49.7686 121.235 48.9876C124.191 48.2065 125.921 45.1939 125.14 42.2371C124.359 39.2803 121.346 37.5509 118.389 38.3319Z" fill="#D1D3D4"/>
<path d="M94.2816 33.3625C97.2384 32.5815 98.9678 29.5689 98.1868 26.6121C97.4058 23.6553 94.3932 21.9259 91.4364 22.7069C88.4795 23.488 86.7501 26.5005 87.5311 29.4573C88.3122 32.4141 91.3248 34.1436 94.2816 33.3625Z" fill="#A7A9AC"/>
<path d="M94.2869 33.3612C91.3301 34.1423 89.6007 37.1549 90.3817 40.1117C91.1628 43.0685 94.1754 44.7979 97.1322 44.0169C100.089 43.2358 101.818 40.2232 101.037 37.2664C100.256 34.3096 97.188 32.5802 94.2869 33.3612Z" fill="#6D6E71"/>
<path d="M83.6238 36.2128C80.667 36.9938 78.9376 40.0064 79.7186 42.9632C80.4997 45.9201 83.5123 47.6495 86.4691 46.8685C89.4259 46.0874 91.1553 43.0748 90.3743 40.118C89.5932 37.1612 86.5807 35.4317 83.6238 36.2128Z" fill="#D1D3D4"/>
<path d="M81.0081 50.9916C79.6691 49.7084 77.7165 49.1505 75.8197 49.7084C74.9271 49.9316 74.0902 50.4337 73.4766 50.9916H81.0081Z" fill="#A7A9AC"/>
<path d="M93.2868 50.9926C93.2868 50.881 93.2311 50.8252 93.2311 50.7137C92.45 47.7569 89.4374 46.0274 86.4806 46.8085C84.4164 47.3664 82.9658 48.9842 82.5195 50.9368H93.2868V50.9926Z" fill="#D1D3D4"/>
<path d="M103.871 47.9207C103.09 44.9639 100.078 43.2345 97.1208 44.0155C94.1641 44.7966 92.4347 47.8092 93.2157 50.766C93.2157 50.8775 93.2715 50.9333 93.2715 51.0449H103.76C104.094 50.0407 104.15 48.9807 103.871 47.9207Z" fill="#6D6E71"/>
<path d="M75.8194 49.7099C78.7762 48.9288 80.5057 45.9162 79.7246 42.9594C79.2783 41.23 77.9952 39.891 76.4331 39.2773L72.6953 49.5983C73.6995 49.933 74.7595 49.9888 75.8194 49.7099Z" fill="#A7A9AC"/>
<path d="M83.6128 36.203C86.5696 35.422 88.2991 32.4094 87.518 29.4526C86.7928 26.7747 84.1707 25.0452 81.4928 25.4358L78.1455 34.6409C79.4844 36.0914 81.5486 36.7609 83.6128 36.203Z" fill="#A7A9AC"/>
<path d="M84.6867 18.8041C84.5751 18.4136 84.4635 18.0789 84.2962 17.7441L81.5625 25.2756C84.0172 24.2714 85.412 21.482 84.6867 18.8041Z" fill="#6D6E71"/>
<path d="M92.3896 8.47656H87.6475L86.3086 12.2144C87.0339 12.326 87.8149 12.326 88.5959 12.1028C90.437 11.6007 91.8317 10.1502 92.3896 8.47656Z" fill="#A7A9AC"/>
<path d="M98.9729 19.8095L96.0162 11.5527C95.1793 12.8359 94.9004 14.398 95.2909 15.96C95.8488 17.8569 97.2435 19.2516 98.9729 19.8095Z" fill="#6D6E71"/>
<path d="M106.826 41.5039C104.483 42.6197 103.144 45.2975 103.869 47.9196C104.204 49.2585 105.041 50.3185 106.045 51.0437H110.229L106.826 41.5039Z" fill="#A7A9AC"/>
<path d="M112.461 42.0605V50.8752C114.19 49.592 115.083 47.3047 114.469 45.0174C114.135 43.79 113.409 42.7858 112.461 42.0605Z" fill="#A7A9AC"/>
<path d="M102.924 30.6839L99.5774 21.3672C98.2943 22.7061 97.6807 24.7145 98.1827 26.6113C98.7406 28.8987 100.693 30.405 102.924 30.6839Z" fill="#6D6E71"/>
<path d="M103.152 31.3574C101.311 32.6406 100.419 34.9837 101.032 37.271C101.702 39.8931 104.156 41.511 106.778 41.3436L103.152 31.3574Z" fill="#6D6E71"/>
<path d="M115.529 27.6769C114.246 28.0116 113.186 28.7927 112.461 29.8527V36.2126C113.744 38.0536 116.087 39.002 118.375 38.3883C121.331 37.6073 123.061 34.5947 122.28 31.6379C121.499 28.6253 118.486 26.8959 115.529 27.6769Z" fill="#6D6E71"/>
<path d="M112.684 17.0236C112.628 17.0236 112.517 17.0794 112.461 17.0794V27.5677C113.409 27.8466 114.469 27.9024 115.529 27.6234C118.486 26.8424 120.216 23.8298 119.435 20.873C118.654 17.972 115.641 16.2425 112.684 17.0236Z" fill="#6D6E71"/>
<path d="M112.461 17.0709C112.517 17.0709 112.628 17.0151 112.684 17.0151C115.641 16.2341 117.371 13.2215 116.589 10.2647C116.478 9.76261 116.255 9.37209 116.032 8.92578H112.461V17.0709Z" fill="#6D6E71"/>
<path d="M127.416 8.98438H116.426C116.426 9.43069 116.482 9.877 116.593 10.3233C117.374 13.2801 120.387 15.0096 123.344 14.2285C125.743 13.5591 127.36 11.3833 127.416 8.98438Z" fill="#A7A9AC"/>
<path d="M127.93 8.98438C129.213 10.937 131.612 11.997 134.011 11.3275C134.624 11.1601 135.182 10.937 135.628 10.6023C133.397 9.54226 130.775 8.98438 127.93 8.98438Z" fill="#A7A9AC"/>
<path d="M140.706 15.2426C140.595 14.9079 140.483 14.5732 140.316 14.2384C139.423 13.1227 138.363 12.1743 137.136 11.3932C136.132 11.0585 135.072 11.0027 133.956 11.2816C130.999 12.0627 129.27 15.0753 130.051 18.0321C130.832 20.9889 133.844 22.7183 136.801 21.9373C139.758 21.212 141.543 18.1994 140.706 15.2426Z" fill="#A7A9AC"/>
<path d="M139.692 32.6393C139.971 32.5835 140.194 32.472 140.473 32.3604C142.035 30.4078 143.039 27.9531 143.318 25.0521C142.258 22.5974 139.524 21.2585 136.847 21.9837C133.89 22.7647 132.16 25.7773 132.941 28.7341C133.722 31.6351 136.735 33.4204 139.692 32.6393Z" fill="#A7A9AC"/>
<path d="M137.241 35.2043C138.412 34.4791 139.472 33.5307 140.309 32.4707C140.086 32.5265 139.863 32.5265 139.639 32.5823C136.683 33.3633 134.953 36.3759 135.734 39.3327C136.292 41.5085 138.077 43.0148 140.142 43.3495L137.241 35.2043Z" fill="#A7A9AC"/>
<path d="M140.535 44.2383C138.862 45.5772 138.025 47.8087 138.638 49.9845C138.75 50.3192 138.862 50.6539 139.029 50.9887H142.99L140.535 44.2383Z" fill="#A7A9AC"/>
<path d="M135.4 50.9953H138.803C138.803 50.6606 138.747 50.3258 138.636 49.9911C137.855 47.0342 134.842 45.3048 131.885 46.0858C129.542 46.6995 127.98 48.7079 127.812 50.9953H135.4Z" fill="#A7A9AC"/>
<path d="M143.708 18.5243H148.841C150.905 17.2969 151.965 14.8422 151.295 12.3875C150.905 10.8812 149.845 9.65384 148.562 8.98438H143.652V18.5243H143.708Z" fill="#A7A9AC"/>
<path d="M140.586 14.5605C140.642 14.7837 140.642 15.0069 140.698 15.23C140.976 16.3458 141.59 17.2942 142.427 17.9637C141.981 16.7363 141.367 15.5647 140.586 14.5605Z" fill="#A7A9AC"/>
<path d="M151.347 12.3875C152.128 15.3443 155.141 17.0737 158.097 16.2927C161.054 15.5116 162.784 12.4991 162.003 9.54226C161.947 9.31911 161.891 9.15174 161.835 8.98438H151.57C151.124 10.0444 151.012 11.2159 151.347 12.3875Z" fill="#A7A9AC"/>
<path d="M161.895 8.98438C161.95 9.15174 161.95 9.3749 162.006 9.54226C162.787 12.4991 165.8 14.2285 168.757 13.4475C170.932 12.8896 172.439 11.0486 172.773 8.98438H161.895Z" fill="#A7A9AC"/>
<path d="M176.506 10.6022V8.98438H173.828C174.609 9.76541 175.502 10.3233 176.506 10.6022Z" fill="#A7A9AC"/>
<path d="M175.5 17.3508C175.612 17.7971 175.779 18.1876 175.946 18.5224H176.504V12.4414C175.444 13.7803 174.998 15.5656 175.5 17.3508Z" fill="#6D6E71"/>
<path d="M175.511 17.3543C174.73 14.3975 171.717 12.6681 168.761 13.4491C165.804 14.2301 164.074 17.2427 164.855 20.1995C165.246 21.5385 166.083 22.6543 167.143 23.3795V18.5259H175.678C175.623 18.1354 175.567 17.7448 175.511 17.3543Z" fill="#6D6E71"/>
<path d="M154.188 23.0435C153.965 22.2625 153.63 21.593 153.184 21.0352V27.8972C154.244 26.5582 154.69 24.773 154.188 23.0435Z" fill="#A7A9AC"/>
<path d="M167.141 29.5182C165.913 27.3982 163.403 26.2824 160.948 26.8961C157.991 27.6772 156.262 30.6898 157.043 33.6466C157.824 36.6034 160.837 38.3329 163.793 37.5518C165.3 37.1613 166.471 36.2129 167.141 34.9298V29.5182Z" fill="#A7A9AC"/>
<path d="M167.127 37.7191C166.067 37.3286 164.896 37.217 163.78 37.5517C160.823 38.3328 159.094 41.3454 159.875 44.3022C160.656 47.259 163.669 48.9884 166.625 48.2074C166.793 48.1516 166.96 48.0958 167.127 48.04V37.7191Z" fill="#6D6E71"/>
<path d="M163.184 50.9939H167.2V48.0371C167.033 48.0929 166.866 48.0929 166.698 48.1487C165.08 48.595 163.853 49.655 163.184 50.9939Z" fill="#A7A9AC"/>
<path d="M156.094 50.9876H158.827C157.935 50.7645 156.986 50.7645 156.094 50.9876Z" fill="#A7A9AC"/>
<path d="M153.184 40.3986V50.9985H156.14C158.986 50.1616 160.659 47.2048 159.878 44.3038C159.097 41.4028 156.085 39.6176 153.184 40.3986Z" fill="#A7A9AC"/>
<path d="M153.184 29.7949V40.3948C156.085 39.6137 157.814 36.6011 157.033 33.6443C156.531 31.6917 155.025 30.297 153.184 29.7949Z" fill="#A7A9AC"/>
<path d="M127.074 50.9975C125.79 49.2122 123.447 48.3196 121.216 48.9333C119.933 49.268 118.928 49.9933 118.203 50.9975H127.074Z" fill="#A7A9AC"/>
<path d="M95.3362 15.9578C94.5551 13.001 91.5425 11.2716 88.5857 12.0526C87.3583 12.3874 86.2983 13.1126 85.5731 14.1168L84.5131 17.0736C84.4573 17.6315 84.5131 18.2452 84.6805 18.8031C85.4615 21.7599 88.4741 23.4893 91.4309 22.7083C94.3319 21.9272 96.1172 18.9146 95.3362 15.9578Z" fill="#6D6E71"/>
<path d="M171.953 48.8727V48.5938H173.906V48.8727H173.125V50.9927H172.79V48.8727H171.953Z" fill="white"/>
<path d="M174.626 48.5938L175.351 50.6022L176.132 48.5938H176.579V50.9927H176.244V48.9843L175.519 50.9927H175.24L174.459 48.9843V50.9927H174.18V48.5938H174.626Z" fill="white"/>
</g>
<defs>
<clipPath id="clip0">
<rect width="184.286" height="60" fill="white"/>
</clipPath>
</defs>
</svg>
