<svg width="50" height="50" viewBox="0 0 50 50" fill="none" xmlns="http://www.w3.org/2000/svg">
<rect opacity="0.4" x="0.5" y="0.5" width="49" height="49" rx="24.5" stroke="#E4E4E4"/>
<path fill-rule="evenodd" clip-rule="evenodd" d="M17.3856 18.7698C18.1503 18.7698 18.7703 18.1498 18.7703 17.3851C18.7703 16.6204 18.1503 16.0005 17.3856 16.0005C16.6209 16.0005 16.001 16.6204 16.001 17.3851C16.001 18.1498 16.6209 18.7698 17.3856 18.7698Z" stroke="transparent" stroke-linecap="round"/>
<path fill-rule="evenodd" clip-rule="evenodd" d="M32.6151 18.7693C33.3798 18.7693 33.9997 18.1494 33.9997 17.3846C33.9997 16.6199 33.3798 16 32.6151 16C31.8504 16 31.2305 16.6199 31.2305 17.3846C31.2305 18.1494 31.8504 18.7693 32.6151 18.7693Z" stroke="transparent" stroke-linecap="round"/>
<path fill-rule="evenodd" clip-rule="evenodd" d="M25.0008 18.7693C25.7656 18.7693 26.3855 18.1494 26.3855 17.3846C26.3855 16.6199 25.7656 16 25.0008 16C24.2361 16 23.6162 16.6199 23.6162 17.3846C23.6162 18.1494 24.2361 18.7693 25.0008 18.7693Z" stroke="transparent" stroke-linecap="round"/>
<path fill-rule="evenodd" clip-rule="evenodd" d="M17.3846 34.0002C18.1494 34.0002 18.7693 33.3803 18.7693 32.6156C18.7693 31.8509 18.1494 31.231 17.3846 31.231C16.6199 31.231 16 31.8509 16 32.6156C16 33.3803 16.6199 34.0002 17.3846 34.0002Z" stroke="transparent" stroke-linecap="round"/>
<path fill-rule="evenodd" clip-rule="evenodd" d="M32.6151 34.0002C33.3798 34.0002 33.9997 33.3803 33.9997 32.6156C33.9997 31.8509 33.3798 31.231 32.6151 31.231C31.8504 31.231 31.2305 31.8509 31.2305 32.6156C31.2305 33.3803 31.8504 34.0002 32.6151 34.0002Z" stroke="transparent" stroke-linecap="round"/>
<path fill-rule="evenodd" clip-rule="evenodd" d="M25.0008 34.0002C25.7656 34.0002 26.3855 33.3803 26.3855 32.6156C26.3855 31.8509 25.7656 31.231 25.0008 31.231C24.2361 31.231 23.6162 31.8509 23.6162 32.6156C23.6162 33.3803 24.2361 34.0002 25.0008 34.0002Z" stroke="transparent" stroke-linecap="round"/>
<path fill-rule="evenodd" clip-rule="evenodd" d="M17.3846 26.3845C18.1494 26.3845 18.7693 25.7646 18.7693 24.9999C18.7693 24.2352 18.1494 23.6152 17.3846 23.6152C16.6199 23.6152 16 24.2352 16 24.9999C16 25.7646 16.6199 26.3845 17.3846 26.3845Z" stroke="transparent" stroke-linecap="round"/>
<path fill-rule="evenodd" clip-rule="evenodd" d="M32.6151 26.3845C33.3798 26.3845 33.9997 25.7646 33.9997 24.9999C33.9997 24.2352 33.3798 23.6152 32.6151 23.6152C31.8504 23.6152 31.2305 24.2352 31.2305 24.9999C31.2305 25.7646 31.8504 26.3845 32.6151 26.3845Z" stroke="transparent" stroke-linecap="round"/>
<path fill-rule="evenodd" clip-rule="evenodd" d="M25.0008 26.3845C25.7656 26.3845 26.3855 25.7646 26.3855 24.9999C26.3855 24.2352 25.7656 23.6152 25.0008 23.6152C24.2361 23.6152 23.6162 24.2352 23.6162 24.9999C23.6162 25.7646 24.2361 26.3845 25.0008 26.3845Z" stroke="transparent" stroke-linecap="round"/>
</svg>
