<svg width="100" height="100" viewBox="0 0 100 100" fill="none" xmlns="http://www.w3.org/2000/svg">
<circle cx="55" cy="55" r="40.5" fill="black" fill-opacity="0.5" stroke="#EDBA00"/>
<path fill-rule="evenodd" clip-rule="evenodd" d="M62.6025 54.2426C62.1883 54.2426 61.8525 54.5784 61.8525 54.9926C61.8525 55.4069 62.1883 55.7426 62.6025 55.7426H75.2772L69.3148 61.705C69.022 61.9978 69.022 62.4727 69.3148 62.7656C69.6077 63.0585 70.0826 63.0585 70.3755 62.7656L78.1485 54.9926L70.3755 47.2197C70.0826 46.9268 69.6077 46.9268 69.3148 47.2197C69.022 47.5126 69.022 47.9874 69.3148 48.2803L75.2772 54.2426L62.6025 54.2426Z" fill="#FFD500"/>
<path fill-rule="evenodd" clip-rule="evenodd" d="M46.5459 55.7426C46.9602 55.7426 47.2959 55.4069 47.2959 54.9926C47.2959 54.5784 46.9602 54.2426 46.5459 54.2426L33.8713 54.2426L39.8336 48.2803C40.1265 47.9874 40.1265 47.5126 39.8336 47.2197C39.5407 46.9268 39.0659 46.9268 38.773 47.2197L31 54.9926L38.773 62.7656C39.0659 63.0585 39.5407 63.0585 39.8336 62.7656C40.1265 62.4727 40.1265 61.9978 39.8336 61.705L33.8713 55.7426H46.5459Z" fill="#FFD500"/>
</svg>
