<svg width="100" height="100" viewBox="0 0 100 100" fill="none" xmlns="http://www.w3.org/2000/svg">
<circle cx="50" cy="50" r="50" fill="#FFD500"/>
<path d="M11.1144 58.0994H13.2744L13.2744 47.5394H11.1144L11.1144 58.0994ZM10.8104 45.0594C10.8104 45.8114 11.4184 46.4034 12.1864 46.4034C12.9544 46.4034 13.5784 45.8114 13.5784 45.0594C13.5784 44.3074 12.9544 43.7154 12.1864 43.7154C11.4184 43.7154 10.8104 44.3074 10.8104 45.0594ZM22.5246 47.5394V53.8434L16.3966 47.3474H15.6926L15.6926 58.0994H17.8526L17.8526 51.7634L23.9646 58.2914H24.6846L24.6846 47.5394H22.5246ZM26.4908 52.8194C26.4268 55.8434 29.0188 58.3554 32.1068 58.2914C34.1388 58.2914 35.8668 57.3154 36.7788 55.6674L35.1468 54.5154C34.3948 55.6994 33.3868 56.2914 32.1228 56.2914C30.1548 56.2914 28.7148 54.8514 28.7148 52.8354C28.7148 50.8194 30.1548 49.3474 32.1228 49.3474C33.3868 49.3474 34.3948 49.9394 35.1468 51.1234L36.7788 49.9714C35.8348 48.3234 34.1228 47.3474 32.1228 47.3474C29.0508 47.2834 26.4428 49.7954 26.4908 52.8194ZM38.6144 58.0994H45.9104V56.1474H40.7744V53.4754H44.4064V51.6354H40.7744V49.4914H45.7184V47.5394H38.6144V58.0994ZM47.7863 58.0994L54.5703 58.0994V56.1474L49.9463 56.1474V47.5394L47.7863 47.5394V58.0994ZM56.1769 58.0994H63.4729V56.1474H58.3369V53.4754H61.9689V51.6354H58.3369V49.4914H63.2809V47.5394H56.1769V58.0994ZM73.8448 47.5394H71.4608L69.1408 51.7314L66.8048 47.5394H64.4048L68.0528 53.9554V58.0994H70.2128V53.9394L73.8448 47.5394ZM75.3332 58.0994H77.4932V47.5394H75.3332V58.0994ZM75.0292 45.0594C75.0292 45.8114 75.6372 46.4034 76.4052 46.4034C77.1732 46.4034 77.7972 45.8114 77.7972 45.0594C77.7972 44.3074 77.1732 43.7154 76.4052 43.7154C75.6372 43.7154 75.0292 44.3074 75.0292 45.0594ZM86.7433 47.5394V53.8434L80.6153 47.3474H79.9113V58.0994H82.0713V51.7634L88.1833 58.2914H88.9033V47.5394H86.7433Z" fill="black"/>
</svg>
