<svg width="24" height="19" viewBox="0 0 24 19" fill="none" xmlns="http://www.w3.org/2000/svg">
<path d="M21.1136 4.74235C21.1136 4.95652 21.1136 5.17069 21.1136 5.35427C21.1136 11.6876 16.357 19 7.68688 19C5.00756 19 2.53897 18.2045 0.431641 16.8583C0.792897 16.8889 1.18426 16.9195 1.54551 16.9195C3.74316 16.9195 5.79028 16.1546 7.41593 14.8696C5.33871 14.839 3.59264 13.4316 3.02065 11.5346C3.32169 11.5958 3.59264 11.6264 3.92379 11.6264C4.34525 11.6264 4.76672 11.5652 5.15808 11.4428C2.99054 11.0145 1.36489 9.08696 1.36489 6.76167C1.36489 6.73108 1.36489 6.73108 1.36489 6.70048C1.99709 7.06763 2.7196 7.2818 3.50232 7.3124C2.23792 6.45572 1.39499 4.98712 1.39499 3.30435C1.39499 2.41707 1.63583 1.59098 2.02719 0.887279C4.34525 3.79388 7.8374 5.69082 11.751 5.90499C11.6607 5.56844 11.6306 5.17069 11.6306 4.80354C11.6306 2.14171 13.7379 0 16.357 0C17.7117 0 18.946 0.58132 19.789 1.49919C20.8727 1.28502 21.8662 0.887279 22.7994 0.336554C22.4382 1.4686 21.6856 2.38647 20.7222 2.99839C21.6856 2.87601 22.5887 2.63124 23.4316 2.23349C22.8295 3.21256 22.0468 4.06924 21.1136 4.74235Z" fill="black"/>
</svg>
