<svg width="121" height="121" viewBox="0 0 121 121" fill="none" xmlns="http://www.w3.org/2000/svg">
<circle cx="60.5" cy="60.5" r="60.5" fill="#FFD500"/>
<path d="M51.0196 52.5H48.0946L43.9946 59.675L39.9196 52.5H36.9696L42.6696 62.35V69H45.3196V62.35L51.0196 52.5ZM62.6468 63.725C62.7718 63.15 62.8468 62.6 62.8468 62.075C62.8468 58.875 60.4218 56.45 57.1718 56.45C53.6968 56.375 50.7468 59.35 50.8218 62.875C50.8218 66.5 53.6718 69.275 57.4218 69.275C59.2968 69.275 60.9218 68.625 62.3218 67.3L61.0718 65.5C59.9718 66.475 58.7718 66.95 57.4968 66.95C55.3968 66.95 53.8218 65.725 53.4968 63.725H62.6468ZM53.5468 61.675C53.9468 59.85 55.3468 58.675 57.0718 58.675C58.7968 58.675 60.1968 59.8 60.2218 61.675H53.5468ZM76.5796 61.325C76.5796 58.4 74.8546 56.45 71.9796 56.45C70.4546 56.45 69.2296 56.95 68.3046 57.925V56.725H65.8546V69H68.4796V61.675C68.4796 60 69.6546 58.825 71.2796 58.825C72.8796 58.825 73.9546 59.975 73.9546 61.675V69H76.5796V61.325ZM80.2345 69H82.8595V56.725H80.2345V69ZM79.7595 52.15C79.7595 53.125 80.5595 53.875 81.5595 53.875C82.5345 53.875 83.3345 53.125 83.3345 52.15C83.3345 51.175 82.5345 50.4 81.5595 50.4C80.5595 50.4 79.7595 51.175 79.7595 52.15Z" fill="black"/>
</svg>
