<svg width="29" height="20" viewBox="0 0 29 20" fill="none" xmlns="http://www.w3.org/2000/svg">
<path fill-rule="evenodd" clip-rule="evenodd" d="M25.0132 0.590685C26.1946 0.908746 27.1261 1.84021 27.4441 3.02158C28.0348 5.17985 28.0121 9.67815 28.0121 9.67815C28.0121 9.67815 28.0121 14.1537 27.4441 16.312C27.1261 17.4934 26.1946 18.4248 25.0132 18.7429C22.855 19.3109 14.2219 19.3109 14.2219 19.3109C14.2219 19.3109 5.61149 19.3109 3.4305 18.7202C2.24913 18.4021 1.31767 17.4706 0.999607 16.2893C0.431641 14.1537 0.431641 9.65543 0.431641 9.65543C0.431641 9.65543 0.431641 5.17985 0.999607 3.02158C1.31767 1.84021 2.27185 0.886028 3.4305 0.567966C5.58878 0 14.2219 0 14.2219 0C14.2219 0 22.855 0 25.0132 0.590685ZM18.6522 9.65539L11.4731 13.7902V5.52059L18.6522 9.65539Z" fill="black"/>
</svg>
