<svg width="118" height="33" viewBox="0 0 118 33" fill="none" xmlns="http://www.w3.org/2000/svg">
<g opacity="0.6">
<path d="M24.157 15.704C24.81 14.9726 25.2018 13.98 25.2018 12.8045C25.2018 9.7482 22.668 7.71069 19.3766 7.71069H13.1596V24.9512H21.2052C24.5227 24.9512 27.0304 22.8614 27.0304 19.8313C27.0304 17.7938 25.9071 16.4093 24.157 15.704ZM19.0893 11.4984C20.1603 11.4984 20.8133 12.0992 20.8133 13.0134C20.8133 13.9277 20.1603 14.5285 19.0893 14.5285H17.4697V11.4984H19.0893ZM20.9178 21.1635H17.4697V18.1333H20.9178C21.9627 18.1333 22.6419 18.6297 22.6419 19.6484C22.6419 20.6672 21.9627 21.1635 20.9178 21.1635ZM29.4603 24.9512H41.7376V20.9023H33.9533V17.8982H39.2822V14.1367H33.9533V11.7596H41.4242V7.71069H29.4603V24.9512ZM55.1421 24.9512H59.9746L52.138 7.39723H50.7013L42.8648 24.9512H47.6973L48.3242 23.5145H54.5151L55.1421 24.9512ZM52.9217 19.9096H49.9177L51.4328 15.913L52.9217 19.9096ZM63.5007 24.9512H67.9937V11.7596H73.1658V7.71069H58.3285V11.7596H63.5007V24.9512ZM75.1482 24.9512H86.7725V20.9023H79.6412V7.71069H75.1482V24.9512ZM89.1275 24.9512H101.405V20.9023H93.6205V17.8982H98.9494V14.1367H93.6205V11.7596H101.091V7.71069H89.1275V24.9512ZM109.951 25.2646C113.503 25.2646 116.272 23.2794 116.272 19.8835C116.272 17.3497 114.731 15.8869 111.857 14.6852L109.872 13.8493C108.801 13.4053 108.383 13.0657 108.383 12.4388C108.383 11.6551 109.036 11.3416 109.924 11.3416C111.231 11.3416 111.988 12.0208 112.772 13.1702L115.776 10.8714C114.783 8.88618 112.876 7.39723 109.872 7.39723C106.372 7.39723 103.838 9.40862 103.838 12.491C103.838 14.9203 105.458 16.4877 108.2 17.6893L109.977 18.4729C111.178 18.9954 111.727 19.2566 111.727 20.0664C111.727 20.9023 111.152 21.3202 109.951 21.3202C108.018 21.3202 106.947 20.2231 106.111 19.0999L103.081 21.3986C104.308 23.7234 106.79 25.2646 109.951 25.2646Z" fill="white"/>
<path d="M9.16968 23.1372L9.16968 22.361L3.29846 22.361L3.29846 20.0424L2.60187 20.0424L2.60188 25.4459L3.29846 25.4459L3.29846 23.1372L9.16968 23.1372ZM9.16968 18.9472L9.16968 18.171L6.00519 18.171L6.00519 14.4891L9.16968 14.4891L9.16968 13.7129L2.60187 13.7129L2.60187 14.4891L5.30861 14.4891L5.30861 18.171L2.60187 18.171L2.60187 18.9472L9.16968 18.9472ZM9.16968 11.9017L9.16968 7.57291L8.47309 7.57291L8.47309 11.1255L6.00519 11.1255L6.00519 8.49837L5.30861 8.49837L5.30861 11.1255L3.29846 11.1255L3.29846 7.69232L2.60187 7.69232L2.60187 11.9017L9.16968 11.9017Z" fill="white"/>
</g>
</svg>
