<svg width="102" height="34" viewBox="0 0 102 34" fill="none" xmlns="http://www.w3.org/2000/svg">
<g opacity="0.6">
<path d="M50.5276 0.647705C50.8434 3.08236 51.1828 5.51362 51.5056 7.94715C51.7308 9.54613 51.9541 11.1474 52.0846 12.756C51.5436 12.4806 51.0355 12.1077 50.4267 11.9856C50.4208 12.2632 50.4767 12.5366 50.5217 12.8097C50.9194 15.0798 51.296 17.355 51.5743 19.6427C51.6112 19.9661 51.6702 20.2883 51.6767 20.6152C51.6112 20.5914 51.541 20.5756 51.4954 20.5219C51.1527 20.1809 50.8223 19.8287 50.4779 19.49C51.1428 23.4744 51.8574 27.4532 52.51 31.4399C52.6214 32.0743 52.7001 32.6635 52.8346 33.269C52.9498 32.8823 52.9597 32.4752 53.0246 32.0788C53.2603 29.634 53.3989 27.181 53.5919 24.7328C53.8076 25.1681 54.0456 25.5922 54.2731 26.0219C54.4205 26.2808 54.5392 26.5556 54.7146 26.7993C54.7667 26.8084 54.8193 26.8174 54.8725 26.8276C54.8767 25.7341 54.8877 24.6412 54.8872 23.5482C54.9141 22.9251 54.8632 22.3009 54.9222 21.6795C54.9246 20.4707 54.9258 19.2627 54.9427 18.0538C55.3632 18.8675 55.7752 19.6839 56.1985 20.4964C56.2629 20.4139 56.3857 20.3443 56.3594 20.225C56.2284 18.1466 56.0722 16.0687 55.9705 13.9886C55.9225 13.5707 55.9325 13.1486 55.9178 12.7291C56.0184 12.7647 56.067 12.8611 56.1225 12.9425C56.6436 13.7579 57.1684 14.5709 57.6766 15.3936C57.7491 15.5005 57.9029 15.4694 58.0158 15.4699C58.5994 15.4162 59.1669 15.2559 59.719 15.0699C60.5453 14.7804 61.3666 14.4007 61.9777 13.7737C62.414 13.8557 62.842 13.9982 63.2496 14.1723C63.259 15.5621 63.2335 16.9524 63.2423 18.3422C63.2756 19.1236 63.1774 19.9248 63.409 20.6858C63.5862 21.2309 64.0514 21.6162 64.4718 21.9905C65.2209 22.6249 66.0066 23.2177 66.792 23.8097C67.1323 24.076 67.5995 24.0345 68.0083 24.0119C68.4978 23.9762 68.9317 23.7402 69.3709 23.5496C69.7843 23.3653 70.1904 23.164 70.5887 22.9503C71.1179 22.6676 71.5711 22.2503 71.8811 21.7488C72.0776 21.4412 72.1241 21.0757 72.1866 20.7268C72.3036 19.9771 72.3571 19.2192 72.3518 18.4609C72.3793 17.0927 72.1355 15.7382 72.001 14.3801L71.9732 14.3377C71.9638 14.0697 71.9121 13.8056 71.8752 13.5405C71.8197 13.1854 71.7805 12.8201 71.6208 12.4916C71.4758 12.1784 71.2472 11.9076 70.9893 11.6746C70.3033 11.0617 69.5557 10.5031 68.7247 10.0858C68.3732 9.89131 67.9665 10.0626 67.6238 10.1876C66.4273 10.6778 65.3218 11.3498 64.2306 12.0266C63.9739 12.1758 63.7581 12.4068 63.6838 12.6923C63.6207 12.9332 63.4932 13.1509 63.3446 13.3511C62.9417 13.312 62.5771 13.1297 62.1911 13.0245C62.3409 11.1202 62.5473 9.22073 62.6882 7.3153C62.7087 6.95344 62.8031 6.56698 62.64 6.22265C62.4663 5.82008 62.1596 5.49355 61.8871 5.15261C60.8783 3.95564 59.8757 2.75329 58.8301 1.58629C58.6073 1.55462 58.3883 1.60777 58.1824 1.68523C57.5041 1.9227 56.8292 2.17346 56.1445 2.39341C56.048 2.42564 55.9456 2.43638 55.8462 2.44995C55.745 1.87945 55.8825 1.30471 55.893 0.732517C54.9228 0.721208 53.95 0.77577 52.9793 0.725449C52.2927 0.684174 51.6051 0.674845 50.9179 0.647705H50.5276ZM57.89 3.0931C57.9814 3.09088 58.0704 3.11954 58.1503 3.16661C58.2058 3.26273 58.226 3.37128 58.2365 3.48041C58.543 5.08335 58.6386 6.71229 58.7321 8.33728C58.7596 8.71101 58.7251 9.09069 58.7789 9.46103C58.7976 10.2402 58.8046 11.019 58.7935 11.7976C58.6117 11.8293 58.4275 11.81 58.2468 11.7863C57.7181 11.7354 57.188 11.8129 56.6693 11.9022C56.4026 11.931 56.1392 11.9805 55.8725 12.0054C55.81 9.78331 55.8453 7.55984 55.8214 5.33778C55.8225 4.83004 55.8193 4.32315 55.8228 3.81541C55.8216 3.6882 55.8637 3.51801 56.0187 3.49596C56.6012 3.32577 57.2061 3.23983 57.7979 3.10582C57.8283 3.09777 57.8596 3.09385 57.89 3.0931H57.89ZM68.4571 11.0456C68.5349 11.3142 68.4642 11.5946 68.3753 11.8513C68.18 12.2646 67.8326 12.5869 67.4572 12.8493C67.1221 13.0986 66.6686 13.1297 66.3563 13.4147C66.3136 13.3496 66.2952 13.2798 66.2993 13.204C66.3004 12.9558 66.2811 12.7039 66.349 12.4619C67.0227 11.9514 67.7472 11.507 68.4571 11.0456ZM56.6006 12.6514C56.7953 12.6604 56.9947 12.6491 57.1854 12.6994C57.707 12.7401 58.2237 12.8306 58.7307 12.9567L58.7818 13.0797C58.7842 13.1266 58.7874 13.1735 58.7921 13.221C58.5973 13.5263 58.3614 13.8031 58.1298 14.0818C57.9088 14.1599 57.7956 13.9371 57.6605 13.8189C57.2997 13.4361 56.9409 13.0505 56.6006 12.6514ZM68.6691 13.6606C68.8305 14.8231 68.9913 15.9864 69.0843 17.1563C69.1194 17.5707 69.087 17.9883 69.1355 18.4016C69.1624 18.7425 69.0987 19.0812 69.1092 19.4221C69.1022 20.0842 69.037 20.7441 68.9557 21.4011C68.8989 21.7431 68.8671 22.0971 68.7232 22.4188C68.3934 22.602 68.0653 22.7917 67.7057 22.915C67.6174 22.9534 67.52 22.9576 67.4265 22.9503C67.1744 22.6998 66.8873 22.466 66.7101 22.1573C66.592 20.9072 66.4832 19.6523 66.4382 18.3959C66.3844 18.0047 66.4057 17.6077 66.3899 17.2142C66.3192 16.227 66.3475 15.2353 66.3388 14.2458C66.489 14.1808 66.6393 14.1155 66.7949 14.0606C67.0762 13.9329 67.3694 13.8319 67.6472 13.6945C67.9864 13.6651 68.3282 13.6646 68.6691 13.6606Z" fill="white"/>
<path d="M37.2256 3.5203C37.3724 3.48355 37.5654 3.52426 37.632 3.66957C37.6876 4.41026 37.6648 5.1583 37.7239 5.89842C37.732 5.93687 37.749 6.01433 37.7572 6.05334C37.8233 6.04712 37.8946 6.04769 37.9496 6.00359C38.3443 5.7418 38.7314 5.46927 39.1344 5.21936C39.3262 5.10628 39.5191 4.98359 39.7384 4.92648C39.9431 4.89764 40.094 5.0667 40.1969 5.21484C40.4952 5.64229 40.7215 6.11214 40.949 6.57804C41.2051 7.15193 41.5057 7.71678 41.6507 8.32968C41.7256 8.56659 41.4735 8.70285 41.3121 8.82215C40.5004 9.37173 39.6642 9.88965 38.7987 10.3578C38.5993 10.4805 38.4999 10.182 38.3642 10.0892C38.532 9.8953 38.708 9.70702 38.8887 9.52326C38.9601 9.46107 38.9139 9.36099 38.8987 9.28409C38.6864 8.63274 38.5063 7.97178 38.2917 7.32156C38.2858 7.28707 38.2741 7.21865 38.2683 7.18416C38.0794 7.1378 37.8847 7.1672 37.7127 7.25201C37.697 7.28085 37.6654 7.33852 37.6496 7.36735C37.6092 8.40601 37.6543 9.44524 37.6467 10.4845C37.642 11.7668 37.6543 13.0492 37.6525 14.3315C37.6975 14.6877 37.6712 15.0468 37.6777 15.4047C37.6823 16.3319 37.6888 17.2592 37.7028 18.1865C37.8718 18.5947 38.2835 18.831 38.5443 19.1686C38.3051 19.1805 38.0677 19.1562 37.8326 19.1211C37.4829 19.1154 37.1297 19.09 36.7835 19.0872C36.2209 19.0352 35.6508 19.0719 35.0929 19.1448C34.8414 19.1754 34.5841 19.1494 34.3356 19.2008C34.0104 19.2014 33.6642 19.2608 33.359 19.1234C33.1999 19.0532 33.0397 18.9837 32.8754 18.9255C32.8836 18.9068 32.8993 18.8701 32.9075 18.8514C33.2017 18.6863 33.4566 18.4647 33.7017 18.2391C33.9175 18.0276 34.1379 17.7924 34.1982 17.491C34.3783 16.657 34.3993 15.8027 34.4555 14.9557C34.4631 12.4849 34.4976 10.0146 34.5274 7.54489C34.5192 7.4516 34.5484 7.347 34.4987 7.26219C34.5818 7.05186 34.5163 6.8059 34.5368 6.58143C34.3911 6.62271 34.2467 6.66625 34.1034 6.71261C34.0373 6.71487 33.9713 6.71713 33.9063 6.71939C33.8759 6.67133 33.8432 6.62384 33.814 6.57635C33.9128 6.45196 34.0444 6.35979 34.1648 6.25632C35.0286 5.43478 35.89 4.61042 36.7502 3.78548C36.8724 3.64639 37.0449 3.56271 37.2256 3.5203Z" fill="white"/>
<path d="M11.5488 4.07353C12.0465 4.11876 12.5424 4.20866 13.0453 4.19905C13.864 4.23919 14.6862 4.24598 15.5043 4.18491C16.1575 4.1606 16.8072 4.05091 17.461 4.06674C17.43 4.26916 17.2248 4.36415 17.1271 4.52981C16.84 4.99684 16.609 5.50175 16.4815 6.03154C16.4277 6.42054 16.4049 6.8135 16.4037 7.2059C16.3821 9.29509 16.3961 11.3848 16.4236 13.474C16.4008 13.5713 16.5096 13.6103 16.5885 13.5741C17.8347 13.2739 19.1247 13.1812 20.406 13.2179C20.8668 13.2371 21.3464 13.2004 21.7902 13.3389C21.7814 13.3875 21.7733 13.4362 21.7651 13.4848C21.6259 13.534 21.4809 13.5798 21.3686 13.677C21.0171 13.958 20.6967 14.2735 20.3662 14.5772C20.2832 14.6648 20.1458 14.7519 20.1879 14.8904C20.3154 15.5808 20.3458 16.2847 20.4855 16.9728C20.7581 17.9323 21.0797 18.8788 21.3329 19.8445C21.4388 19.8445 21.537 19.8072 21.6089 19.7303C21.7633 19.5771 21.9487 19.4572 22.1124 19.3142C22.1732 18.6916 22.1961 18.0646 22.2124 17.4393C22.2563 17.0078 22.2405 16.5747 22.2545 16.1422C22.2715 13.8698 22.2259 11.5918 21.9423 9.33354C21.8118 9.3635 21.6797 9.39177 21.5592 9.44945C20.9423 9.71915 20.3388 10.0194 19.7645 10.366C19.6095 10.4536 19.4645 10.5763 19.4078 10.7465C19.2774 11.14 19.3142 11.5613 19.3364 11.9678C19.2423 11.9966 19.1487 12.026 19.0552 12.0554C18.5645 11.2916 18.0558 10.5299 17.7084 9.69201C17.609 9.40478 17.454 9.11303 17.5131 8.80149C17.7523 8.69123 17.947 8.51426 18.1651 8.37234C19.037 7.77583 19.9563 7.23247 20.9458 6.83838C21.0803 6.79428 21.2692 6.70325 21.3803 6.83669C22.2966 7.72438 23.1838 8.64034 24.0621 9.56309C24.5352 10.0742 25.0533 10.6068 25.1954 11.304C25.3299 12.1182 25.3498 12.9437 25.3533 13.7664C25.3457 14.7078 25.3779 15.6509 25.3077 16.5906C25.3024 17.3132 25.2808 18.0352 25.2802 18.7578C25.6159 18.9054 26.0048 18.9189 26.3586 18.8285C26.3434 18.9325 26.2603 19.0037 26.1855 19.0716C25.696 19.503 25.1995 19.9276 24.6989 20.3466C24.3574 20.6236 24.1873 21.0443 23.8475 21.3231C23.4849 21.6318 22.9411 21.6583 22.4984 21.521C22.0452 21.2937 22.0463 20.7441 22.0095 20.3172C21.4183 20.7283 20.8388 21.1557 20.261 21.5843C19.9885 21.7878 19.6277 21.6725 19.3242 21.6159C19.1025 21.5566 18.8189 21.4723 18.7581 21.2269C18.5014 20.4761 18.2493 19.7235 17.9914 18.9732C17.7125 18.1296 17.385 17.2973 17.1973 16.4283C17.1172 16.1496 17.2599 15.8765 17.4031 15.6429C17.7897 15.0408 18.3441 14.567 18.8698 14.083C18.0517 14.2339 17.2002 14.36 16.4698 14.7711C16.4634 16.7161 16.4879 18.6605 16.4815 20.6056C16.5207 21.4356 16.4798 22.2667 16.5084 23.0968C16.5102 24.0749 16.516 25.0531 16.5423 26.0307C16.6026 26.7934 16.7295 27.624 17.2768 28.2154C17.4739 28.4518 17.7938 28.5309 18.0131 28.7401C17.9844 28.8289 17.9458 28.9137 17.9002 28.9957C17.8014 28.9962 17.7031 29.0019 17.6055 28.9895C16.5195 28.8193 15.4242 28.6966 14.3248 28.6542C13.2897 28.6468 12.25 28.6089 11.2202 28.7294C11.1687 28.566 10.9974 28.4376 11.0096 28.2612C11.5833 27.9508 12.1359 27.5194 12.3617 26.9003C12.6482 26.1149 12.6856 25.273 12.7564 24.4509C12.8295 22.9622 12.8523 21.4706 12.8085 19.9808C12.7693 18.9828 12.778 17.9804 12.6482 16.9881C11.5716 17.8028 10.2389 18.2139 8.92137 18.4966C8.93248 20.5677 8.96172 22.6388 8.97634 24.7099C8.99798 25.1447 8.95529 25.5829 9.0085 26.016C9.1395 26.4909 9.62253 26.7346 10.0254 26.9687C10.1178 27.028 10.267 27.1558 10.1839 27.2644C10.0161 27.2847 9.86171 27.2062 9.70206 27.1728C9.1892 27.0659 8.66465 27.0331 8.1436 26.9885C6.41029 26.876 4.67172 26.8477 2.9349 26.8386C2.87291 26.8205 2.70157 26.7629 2.82964 26.7075C2.83432 26.6588 2.84367 26.5627 2.84835 26.5141C3.46764 26.2778 4.09044 25.934 4.43429 25.3612C4.64423 25.0191 4.6495 24.6121 4.68517 24.2281C4.73371 23.4739 4.71967 22.7174 4.75008 21.962C4.75125 20.9165 4.72786 19.8711 4.71207 18.8256C3.89044 18.4576 3.06765 18.09 2.26649 17.6813C1.70801 17.4149 1.31211 16.9253 0.972936 16.4357C0.688145 16.0031 0.433177 15.5497 0.233765 15.0736V14.9577C1.12732 14.5658 2.11152 14.4301 3.07525 14.3024C3.07583 14.3945 3.10332 14.5161 3.00156 14.5692C2.40099 14.917 1.76649 15.2104 1.18112 15.5841C1.37761 15.8064 1.62264 15.9794 1.86766 16.1473C2.54485 16.6008 3.27817 16.97 4.01968 17.3143C4.22202 17.4019 4.42143 17.5207 4.65008 17.5229C4.68634 17.1571 4.66295 16.7885 4.66704 16.4215C4.64072 15.6695 4.66119 14.9153 4.60271 14.1644C4.58342 13.5979 4.6033 13.0296 4.55008 12.4653C4.50271 10.578 4.41558 8.6918 4.34307 6.80615C4.22377 6.21473 3.68752 5.8116 3.12379 5.62784C3.13373 5.51532 3.20332 5.40224 3.32378 5.3768C3.52144 5.35927 3.72085 5.37962 3.91851 5.39206C4.18985 5.43051 4.46412 5.4062 4.73721 5.41185C5.1454 5.40676 5.55533 5.42994 5.96234 5.38584C6.58573 5.37397 7.2097 5.37114 7.83367 5.35644C8.36699 5.3163 8.90266 5.30895 9.43774 5.30669C9.41902 5.41807 9.39973 5.52889 9.38101 5.63971C9.04944 5.80368 8.8395 6.12879 8.7512 6.4703C8.68687 6.82481 8.69564 7.18667 8.69096 7.54571C8.69096 8.48825 8.68862 9.43079 8.72371 10.3722C8.74418 11.1638 8.73073 11.957 8.7857 12.7475C8.79623 13.3513 8.79915 13.9558 8.82254 14.5596C8.86991 15.3291 8.87049 16.1021 8.92956 16.8722C9.31435 16.8207 9.66054 16.6335 10.0038 16.4696C10.9348 15.9731 11.8418 15.4219 12.6669 14.7717C12.6757 11.568 12.5839 8.36216 12.3213 5.16929C12.309 4.83513 12.033 4.5954 11.7418 4.46083C11.5792 4.39751 11.5295 4.22901 11.5488 4.07353Z" fill="white"/>
<path d="M76.6558 4.00797C76.8336 3.97518 76.8768 4.16063 76.871 4.29237C76.8774 5.07603 76.9108 5.85912 76.9201 6.64278C76.947 7.10359 76.902 7.57062 76.971 8.0269C77.5371 8.02068 78.1031 8.04556 78.6698 8.0433C78.6815 8.14281 78.6914 8.24289 78.7049 8.3424C78.7534 8.5058 78.7265 8.67939 78.7774 8.84222C78.7967 9.0192 78.8143 9.1973 78.8248 9.3754C78.2803 9.38671 77.7359 9.39576 77.1915 9.40028C77.116 9.39519 77.0453 9.41611 76.978 9.44156C76.8757 11.0321 76.9599 12.6259 76.926 14.2181C76.8967 15.596 76.8289 16.9728 76.7897 18.3507C76.7418 18.5531 76.7698 18.7635 76.7546 18.9693C76.6926 20.5321 76.6049 22.096 76.5494 23.6593C76.5254 24.0574 76.4377 24.5165 76.7073 24.8586C77.1441 25.286 77.6493 25.6462 78.1681 25.9758C78.0605 26.0934 77.9628 26.2263 77.8283 26.3151C77.723 26.3156 77.633 26.2512 77.5406 26.2161C76.4722 25.7033 75.3927 25.2091 74.3628 24.6251C74.1009 24.4764 73.8441 24.3011 73.6786 24.05C73.5161 23.8194 73.4699 23.535 73.4675 23.2619C73.4874 21.7918 73.5073 20.3217 73.5693 18.8528C73.6196 17.3991 73.7862 15.9534 73.8161 14.4991C73.8459 12.9935 73.8313 11.4804 73.6734 9.98322C73.6611 9.76441 73.6307 9.54785 73.5833 9.33413C72.7529 9.33752 71.9231 9.32282 71.0933 9.32282C71.0828 9.18147 71.0769 9.04012 71.088 8.89876C72.0944 8.35654 73.0202 7.67861 73.8886 6.94754C74.7377 6.22042 75.5061 5.40566 76.1809 4.52419C76.3254 4.341 76.464 4.14932 76.6558 4.00797Z" fill="white"/>
<path d="M28.5747 5.05128C28.7074 4.9806 28.8337 4.85734 28.9963 4.87148C29.2349 4.90936 29.4489 5.02414 29.6741 5.10217C29.7998 5.6574 29.7986 6.23808 29.8898 6.79953C29.8969 6.86512 29.9039 6.93127 29.9109 6.99742C29.9319 7.01269 29.9729 7.04265 29.9939 7.05792C30.305 6.81592 30.6506 6.61916 30.9869 6.41166C31.2974 6.22394 31.6606 6.05941 32.036 6.11538C32.2734 6.17079 32.4003 6.39582 32.5144 6.58411C32.7705 7.08563 32.9921 7.60354 33.2044 8.12372C33.4448 8.68856 33.7027 9.25567 33.819 9.8584C33.805 10.0501 33.7114 10.2276 33.5383 10.3288C32.7734 10.8094 31.9898 11.2623 31.2062 11.7135C31.1185 11.7604 31.0337 11.826 30.9284 11.8181C30.8717 11.7214 30.7998 11.6349 30.7191 11.5575C30.9091 11.376 31.0846 11.1809 31.2612 10.9881C31.2495 10.9802 31.2249 10.9638 31.2132 10.9559C31.1629 10.6641 31.0635 10.3831 30.9846 10.0976C30.805 9.46826 30.6085 8.84348 30.4243 8.21588C30.3857 8.04173 30.1705 7.83875 29.9986 7.99763C29.9501 8.18026 29.9811 8.37137 29.9822 8.55739C30.0243 9.84257 30.0793 11.1266 30.1062 12.4118C30.1735 12.8568 30.108 13.3142 30.1828 13.7597C30.236 14.5937 30.3518 15.4232 30.4009 16.2577C30.5197 17.2743 30.5138 18.3062 30.6811 19.3188C30.7881 19.601 31.0957 19.7384 31.3536 19.8673C31.3705 19.8944 31.4039 19.9493 31.4202 19.977C31.4103 20.0098 31.3892 20.0765 31.3787 20.1093C29.7495 20.1477 28.1191 20.1404 26.4887 20.1421C26.3156 20.1421 26.1413 20.1506 25.9694 20.1229C26.0595 19.9069 26.2156 19.7146 26.425 19.597C26.6361 19.4822 26.8489 19.3607 27.0174 19.1905C27.0788 19.1317 27.1033 19.0508 27.0963 18.9694C27.0975 17.3665 27.0946 15.7641 27.091 14.1617C27.1092 13.9344 27.0495 13.7111 27.0595 13.4838C27.0606 12.2761 27.0425 11.0678 27.0314 9.86009C26.9641 9.15503 27.0244 8.44148 26.9256 7.73811C26.332 7.73754 25.7338 7.7104 25.1437 7.78278C25.0396 7.75564 24.8811 7.6957 24.8706 7.57697C26.0957 6.7232 27.3185 5.86321 28.5747 5.05128Z" fill="white"/>
<path d="M81.8247 5.57779C81.9042 5.42569 81.9902 5.26229 82.1598 5.18652C82.1978 5.20688 82.2744 5.24759 82.3124 5.26794C82.3726 5.74458 82.3615 6.22518 82.389 6.70352C82.4329 6.88728 82.4089 7.07725 82.4223 7.26441C82.4615 8.19224 82.5217 9.11895 82.5568 10.0474C82.834 10.0411 83.113 10.0541 83.3901 10.0304C83.5855 10.0666 83.7802 10.0117 83.9767 10.0151C84.2831 10.0185 84.5901 10.0157 84.8966 10.0049C84.8778 10.3776 84.9047 10.7575 84.8293 11.125C84.0901 11.1539 83.3498 11.1867 82.613 11.25C82.6212 12.0902 82.6077 12.9304 82.6206 13.77C82.6592 13.8961 82.6422 14.0284 82.6451 14.1579C82.6416 15.5528 82.6685 16.9482 82.6732 18.343C82.7293 18.982 82.6978 19.6248 82.72 20.266C82.7405 21.433 82.7738 22.5983 82.7948 23.7665C82.8358 24.3992 82.8135 25.0358 82.8837 25.6668C83.5048 25.9744 84.1153 26.3012 84.7352 26.6105C84.903 26.6744 85.0661 26.8462 85.255 26.7925C85.6726 26.5183 86.0445 26.1836 86.4287 25.8687C86.5252 25.8104 86.4632 25.699 86.441 25.6187C85.8071 25.4299 85.1468 25.3485 84.5012 25.2088C84.2773 25.1495 83.9773 25.1664 83.8568 24.9357C84.2755 24.8266 84.7147 24.8888 85.1428 24.9035C86.1357 24.9533 87.1287 25.0143 88.1211 25.0743C88.2258 25.0935 88.3901 25.0952 88.3948 25.2394C88.4181 25.4271 88.2287 25.5119 88.1135 25.6227C87.6532 26.0292 87.2439 26.485 86.8088 26.9158C86.5474 27.1714 86.3761 27.5106 86.055 27.7068C85.9439 27.7984 85.7854 27.7854 85.6562 27.7481C84.6012 27.4326 83.5539 27.0911 82.5264 26.7009C81.5814 26.3357 80.6165 25.9687 79.7931 25.3784C79.6826 25.2778 79.5306 25.1805 79.5224 25.02C79.4317 23.5115 79.4551 22.0007 79.4528 20.4899C79.4575 19.9053 79.4721 19.3212 79.4914 18.7371C79.499 16.2239 79.4329 13.7118 79.3791 11.1991C78.9604 11.2194 78.5399 11.2189 78.123 11.1838C77.9405 11.177 77.8516 10.9599 77.9218 10.8152C77.9744 10.7287 78.0446 10.654 78.1177 10.5822C78.9335 9.785 79.699 8.93519 80.3545 8.00735C80.9171 7.24122 81.389 6.41686 81.8247 5.57779Z" fill="white"/>
<path d="M96.3158 7.8247C96.4795 7.70597 96.6549 7.85863 96.6807 8.0226C96.7777 8.51903 96.7725 9.02846 96.859 9.52659C97.4678 9.1732 98.0812 8.82717 98.683 8.46192C98.8163 8.38333 98.9227 8.25046 99.0877 8.23123C99.1976 8.21144 99.3508 8.2171 99.4151 8.32339C99.6876 8.69148 99.9186 9.08726 100.163 9.47344C100.541 10.1129 100.927 10.7518 101.205 11.4394C101.303 11.6638 101.319 11.9183 101.272 12.1563C101.096 12.5029 100.744 12.7127 100.457 12.9654C99.6327 13.6094 98.7976 14.2404 97.9584 14.8658C97.8801 14.7493 97.7713 14.6577 97.6684 14.5644C97.8941 14.2291 98.1608 13.9204 98.3976 13.5924C98.4151 13.5161 98.3882 13.4404 98.3678 13.368C98.1625 12.7506 97.9713 12.1286 97.7666 11.5106C97.6649 11.1957 97.566 10.8807 97.4614 10.5675C97.2456 10.7123 97.0292 10.8576 96.8058 10.9916C96.8315 12.6906 96.9204 14.388 96.9479 16.0876C97.0093 16.6688 96.9731 17.2591 97.0076 17.8438C97.0672 18.3464 97.0187 18.8587 97.0754 19.3625C97.1052 20.6488 97.1754 21.9334 97.2386 23.218C97.2959 23.6624 97.6444 24.0028 98.0251 24.2227C98.5058 24.5009 99.0479 24.6654 99.5912 24.7864C99.6847 24.8107 99.78 24.8266 99.8765 24.8526C100.103 24.8814 100.328 24.9267 100.557 24.9487C100.554 25.0731 100.548 25.1975 100.544 25.3219C100.05 25.349 99.5549 25.3162 99.0613 25.3241C98.8485 25.3111 98.6333 25.3343 98.4251 25.293C97.7549 25.2947 97.0865 25.2212 96.4356 25.0686C95.7842 24.9295 95.1409 24.7576 94.5035 24.5688C93.7 24.3403 92.8597 24.1701 92.0193 24.2674C91.9638 24.1424 91.9059 24.018 91.8696 23.8874C92.572 23.8275 93.0585 23.2497 93.4263 22.7221C93.7123 22.1545 93.7117 21.5042 93.7252 20.8868C93.7445 19.1137 93.7006 17.3411 93.6889 15.568C93.6374 15.1027 93.6714 14.6283 93.6509 14.1596C93.6556 13.1814 93.5813 12.2066 93.5988 11.2285C93.3082 11.2126 93.0193 11.2669 92.7293 11.2556C92.7234 11.1872 92.7187 11.1182 92.7152 11.0498C92.8415 10.8649 92.9497 10.6636 93.1252 10.5161C94.2006 9.63288 95.2468 8.71579 96.3158 7.8247Z" fill="white"/>
<path d="M88.6045 9.19772C88.4478 9.20201 88.2913 9.21999 88.1425 9.2585C87.025 10.1015 85.9434 10.9921 84.8195 11.8255C84.6996 12.3677 84.6879 12.9294 84.6119 13.4779C84.6054 13.842 84.4592 14.1894 84.4628 14.5536C84.5288 16.0412 84.5133 17.5293 84.5344 19.0175C84.5285 19.3816 84.4072 19.7316 84.3926 20.0946C84.6113 20.3145 84.813 20.5503 85.03 20.7731C85.8089 21.5477 86.5899 22.3347 87.5139 22.9499C87.6578 23.0579 87.844 23.0785 88.0183 23.1096C88.4627 23.1492 88.9113 23.1993 89.3574 23.1337C89.5738 23.1467 89.737 22.9875 89.8574 22.8326C90.2633 22.2559 90.7229 21.7167 91.1615 21.1632C91.3954 20.846 91.6849 20.5625 91.8603 20.2091C91.4756 19.6725 91.1843 19.0619 90.7142 18.5892C90.6609 18.5937 90.5539 18.6036 90.5007 18.6076C90.4609 18.9609 90.375 19.3056 90.296 19.6522C90.0685 20.5534 89.8209 21.4586 89.4028 22.2983C89.3554 22.3825 89.3048 22.5521 89.1762 22.4679C88.5294 22.1162 88.0528 21.4764 87.8867 20.7787C87.7861 20.1981 87.8192 19.6055 87.7683 19.0203C87.7519 18.2864 87.7382 17.5525 87.7376 16.818C87.7323 16.723 87.7464 16.6213 87.6966 16.5353C87.754 16.4483 87.7306 16.3468 87.7083 16.254C87.7352 15.856 87.6086 15.4226 87.8238 15.0511C88.4431 15.0443 89.0399 15.223 89.6381 15.3565C89.9966 15.4407 90.3533 15.5314 90.7112 15.6208C90.7867 15.6428 90.8618 15.6592 90.9408 15.6773C91.2004 15.744 91.4621 15.804 91.7229 15.8696C91.8171 15.8899 91.9419 15.9173 92.0109 15.8286C92.5308 15.3604 92.8513 14.7305 93.1776 14.1323C93.0653 13.7569 92.8937 13.395 92.7609 13.0241C92.5627 12.5181 92.3621 12.0129 92.1703 11.5046C92.0469 11.2162 91.9598 10.9129 91.8253 10.6296C91.4282 10.3876 91.0013 10.1892 90.5914 9.96527C90.4376 9.88781 90.2832 9.81148 90.1294 9.73628C89.7229 9.54234 89.3226 9.32438 88.8852 9.20338C88.7925 9.19808 88.6985 9.19515 88.6045 9.19772ZM88.5022 10.1886C88.6121 10.1911 88.708 10.2448 88.7303 10.3709C88.9577 10.9364 89.1887 11.4992 89.4203 12.0629C89.7197 12.7759 89.9916 13.5008 90.3092 14.2058C90.3074 14.2539 90.3071 14.302 90.3077 14.35C89.951 14.3675 89.5955 14.3025 89.2434 14.2652C88.7382 14.2369 88.2358 14.1674 87.7317 14.1267C87.7335 13.55 87.7972 12.9764 87.8194 12.4008C87.892 11.7251 87.8382 11.0118 88.1382 10.3808C88.1967 10.2654 88.3608 10.1854 88.5022 10.1886H88.5022Z" fill="white"/>
<path d="M44.9276 10.3525C45.4229 10.447 45.9334 10.3842 46.434 10.4407C46.8826 10.4492 47.3276 10.4962 47.7714 10.5504C48.0211 10.5589 48.2749 10.5708 48.5211 10.5142C48.5153 10.5617 48.51 10.6098 48.5047 10.6573C48.2925 10.992 48.089 11.3358 47.9358 11.7005C47.3931 12.8336 46.7586 13.9214 46.1293 15.0115C45.5633 15.9772 45.0598 16.9763 44.5025 17.9471C43.0323 20.5011 41.4294 22.9912 39.5926 25.315C38.5932 25.3337 37.595 25.2505 36.6032 25.1363C35.6617 24.9944 34.7237 24.8152 33.8085 24.5556C33.4927 24.4737 33.1822 24.3725 32.8728 24.2712C32.657 24.196 32.4389 24.1276 32.2266 24.044C32.005 23.9625 31.788 23.8715 31.5711 23.7816C31.1834 23.6182 30.805 23.4361 30.4337 23.2422C30.4073 23.0319 30.5682 22.847 30.6611 22.6666C31.0529 22.0707 31.5722 21.568 32.0997 21.0857C32.8623 21.1355 33.6225 21.2237 34.3839 21.2847C34.5728 21.3379 34.7956 21.2616 34.9622 21.3814C34.9441 21.486 34.8307 21.4956 34.75 21.5251C34.1219 21.6924 33.4903 21.8462 32.8652 22.0237C32.733 22.0475 32.7155 22.1951 32.6629 22.2923C32.5617 22.5592 32.4249 22.8249 32.4173 23.115C32.8675 23.3231 33.3769 23.353 33.8623 23.4361C35.4587 23.6453 37.0803 23.7409 38.6862 23.5831C39.2686 22.6598 39.8768 21.7512 40.4698 20.8336C40.6464 20.5836 40.7926 20.3139 40.9891 20.0776C41.0791 19.969 41.0259 19.8169 41.0025 19.6937C40.5926 18.2971 40.14 16.9124 39.6949 15.526C39.502 14.9408 39.3101 14.3551 39.1131 13.7716C39.0119 13.49 38.9224 13.2039 38.8195 12.9229C38.7102 12.6362 38.623 12.3405 38.4844 12.0652C38.3154 11.8627 38.0213 11.8209 37.7692 11.796C37.792 11.7203 37.83 11.6502 37.8798 11.5874C38.0815 11.5851 38.2827 11.5789 38.4844 11.5676C39.123 11.5065 39.7704 11.5382 40.4113 11.4952C41.244 11.5065 42.0733 11.3935 42.9031 11.3675C42.7417 11.7056 42.2621 11.6649 42.0534 11.9589C41.9481 12.0725 41.9347 12.2342 41.9768 12.3761C42.3013 13.5759 42.6271 14.7763 42.9779 15.9693C43.0288 16.1039 43.0411 16.2639 43.1621 16.3617C43.751 15.4706 44.2615 14.5337 44.8013 13.6138C45.0177 13.2288 45.2375 12.8454 45.4381 12.4525C45.5352 12.2619 45.544 12.0454 45.6212 11.8486C45.6943 11.6196 45.7726 11.3918 45.8562 11.1662C45.896 11.0678 45.9381 10.9694 45.9785 10.871C45.5738 10.8337 45.2294 10.5979 44.9276 10.3525Z" fill="white"/>
</g>
</svg>
