<svg width="112" height="28" viewBox="0 0 112 28" fill="none" xmlns="http://www.w3.org/2000/svg">
<g opacity="0.6">
<path d="M3.2296 20.1951H7.08072V5.41751H3.2296V20.1951ZM23.1057 20.1951L19.2098 14.7095C20.6427 13.8362 21.5383 12.3585 21.5383 10.5001C21.5383 7.36546 19.0754 5.41751 15.8288 5.41751H10.0298V20.1951H13.8809V15.6051H15.4706L18.8067 20.1951H23.1057ZM13.8809 8.77605H15.8512C16.926 8.77605 17.6201 9.47014 17.6201 10.5001C17.6201 11.5524 16.926 12.2465 15.8512 12.2465H13.8809V8.77605ZM31.4952 20.4638C35.9061 20.4638 39.4885 17.1724 39.4885 12.8063C39.4885 8.46258 35.9061 5.14883 31.4952 5.14883C27.0843 5.14883 23.5466 8.46258 23.5466 12.8063C23.5466 17.1724 27.0843 20.4638 31.4952 20.4638ZM31.5176 16.9261C29.1442 16.9261 27.4873 15.314 27.4873 12.8063C27.4873 10.3434 29.1442 8.68649 31.5176 8.68649C33.8014 8.68649 35.5478 10.3434 35.5478 12.8063C35.5478 15.314 33.8014 16.9261 31.5176 16.9261ZM50.9381 5.41751V12.8063L42.9224 5.14883H41.691V20.1951H45.5421V12.6943L53.5578 20.4638H54.7892V5.41751H50.9381ZM77.8304 5.14883L71.5387 12.8287L65.2471 5.14883H64.0156V20.1951H67.8667V14.0154L70.9118 17.5754H72.1432L75.2107 13.993V20.1951H79.0618V5.14883H77.8304ZM91.1013 20.1951H95.2435L88.5264 5.14883H87.295L80.5779 20.1951H84.7201L85.2575 18.9636H90.5639L91.1013 20.1951ZM89.1981 15.8738H86.6233L87.9219 12.448L89.1981 15.8738ZM106.017 5.41751V12.8063L98.0015 5.14883H96.7701V20.1951H100.621V12.6943L108.637 20.4638H109.868V5.41751H106.017Z" fill="white"/>
</g>
</svg>
