<svg width="77" height="51" viewBox="0 0 77 51" fill="none" xmlns="http://www.w3.org/2000/svg">
<g opacity="0.6">
<path d="M32.1095 7.68121C31.8159 6.37337 30.7216 4.74525 29.1468 3.38403C26.3176 0.981879 21.6201 -0.833079 17.7767 0.394687C17.5365 0.474758 17.0827 1.11533 17.0827 1.46231C17.056 1.86267 17.6966 2.02281 18.177 1.91605C18.3105 1.88936 18.5507 1.86267 18.4973 1.64914C18.3105 1.35555 17.9902 1.46231 17.8034 1.32886C17.8567 1.1954 18.0436 1.1954 18.177 1.14202C20.6326 0.714973 22.5009 1.14202 24.6361 2.10288C26.9582 3.19719 29.7073 4.69186 30.6682 7.54775C30.9618 8.58869 30.775 10.03 29.9209 10.7239C28.3728 12.0318 25.944 12.1652 24.0489 11.7115C23.9956 10.4036 24.1023 9.20257 24.0756 7.81466C25.4102 7.84135 27.3586 8.10825 27.6522 8.69545C27.7056 8.80221 27.5988 8.98904 27.4653 9.06911C27.1717 9.22926 26.9048 9.41609 26.9582 9.52285C27.0383 9.683 27.6255 9.9499 27.8657 9.81645C28.2127 9.65631 28.5063 9.28264 28.6397 8.85559C28.7465 8.48192 28.613 7.9748 28.3728 7.7079C27.4386 6.72035 24.8764 6.48013 24.0756 6.53351C24.0756 6.53351 24.0223 5.22568 23.9956 4.74525C23.9422 3.97122 23.4084 3.41072 23.3283 3.67762C22.9813 4.61179 22.9013 5.94632 22.8746 6.5602C22.5276 6.61358 21.8603 6.72035 20.9528 7.06732C20.4457 7.28085 19.8318 7.52106 19.3781 8.00149C19.1646 8.24171 19.1112 8.69545 19.1913 8.96235C19.5116 9.9499 21.2464 11.5246 22.7144 12.272C22.7678 12.7524 22.7678 13.4731 23.0347 13.6332C23.2482 13.74 23.4618 13.82 23.7287 13.7133C24.0223 13.6065 24.0489 12.9926 24.0489 12.8058C26.2376 13.4731 28.7999 13.3663 30.6415 11.9517C32.1629 10.6705 32.4031 8.98904 32.1095 7.68121ZM22.7144 11.2577C21.6735 10.8574 20.3123 10.0033 19.6717 8.98904C19.5116 8.72214 19.4582 8.48192 19.9386 8.2684C20.7927 7.89473 22.1806 7.81466 22.8212 7.81466C22.7945 8.74883 22.7411 10.1634 22.7144 11.2577ZM33.8711 7.46768C34.0312 8.96235 34.0579 11.8716 33.8978 12.2186C33.791 12.4855 33.4173 12.4855 33.1771 12.4054C32.67 12.272 32.8034 11.578 32.7501 11.0976C32.7768 9.70969 32.8034 8.29509 33.017 6.98725C33.0704 6.74704 33.1504 6.64028 33.3373 6.64028C33.5508 6.64028 33.8177 7.1207 33.8711 7.46768ZM35.2323 10.8307C35.4458 11.2844 36.6469 11.3912 37.1273 11.3111C38.1949 11.151 38.7821 10.6972 38.8622 10.3503C38.969 9.81645 38.2216 9.65631 37.7145 9.52285C36.7803 9.28264 35.9262 9.44278 34.9921 9.17588C34.7519 9.1225 34.6184 8.93566 34.6184 8.69545C34.565 8.18833 34.7252 7.62783 35.0455 7.33423C35.9796 6.53351 38.9156 6.37337 39.8231 6.90718C39.9832 7.01394 39.9298 7.28085 39.8231 7.44099C39.6095 7.76128 39.1825 7.65452 38.8088 7.7079C37.7412 7.81466 36.6202 7.7079 35.6593 8.08156C35.4992 8.13495 35.5259 8.45523 35.8462 8.50861C37.1273 8.72214 39.1024 8.58868 39.5295 9.60293C39.743 10.11 39.6896 11.231 39.3426 11.6047C38.5953 12.4588 37.1273 12.4054 36.5134 12.272C36.0864 12.1652 35.0455 11.7916 34.7786 10.7773C34.7252 10.4036 34.8319 10.11 35.0455 9.9499C35.606 9.49616 36.2732 9.60293 37.0206 9.73638C37.4476 9.81645 38.1416 10.11 38.1949 10.2168C38.3017 10.4303 38.2483 10.6439 37.3942 10.7506C36.5134 10.8307 36.0597 9.9499 35.3924 10.2969C35.259 10.377 35.1789 10.7239 35.2323 10.8307ZM41.291 7.22747C41.9583 7.92142 42.679 9.57623 43.1861 10.4036C43.2928 10.5638 43.453 10.457 43.453 10.2969C43.4797 8.8289 42.9459 7.68121 42.7857 6.31999C42.759 6.18654 42.7056 5.91963 42.8391 5.89294C43.1327 5.83956 43.4263 6.26661 43.6131 6.53351C44.2804 7.4143 44.6007 9.17588 44.4405 10.5371C44.3871 10.9641 44.1736 11.8983 43.8 12.0585C43.6131 12.1385 43.1861 12.1919 43.0526 12.0851C42.412 11.578 41.5579 9.01573 41.3177 9.04242C41.2644 9.04242 41.211 9.14919 41.1843 9.36271C41.1042 10.0834 41.0508 11.9784 41.0508 11.9784C40.9974 12.4321 40.7038 12.3787 40.5704 12.3787C40.3035 12.3787 40.1167 12.2186 40.09 12.0585C40.0099 11.4179 40.0366 10.5104 40.09 9.86983C40.17 9.04242 40.4103 7.9748 40.7038 7.38761C40.8373 7.06732 41.1309 7.06732 41.291 7.22747ZM45.5615 9.1225L45.9352 8.16164C45.6683 8.10825 45.1078 7.84135 45.001 7.33423C45.001 7.25416 45.4014 7.1474 45.5615 7.12071C46.7626 6.98725 47.59 6.8538 48.6576 6.90718C48.8978 6.90718 49.5117 7.7079 49.3516 8.00149C49.2448 8.21502 48.3373 8.18833 47.9904 8.16164C47.6434 8.13494 46.9761 8.21502 46.9761 8.21502L46.6558 9.1225C47.163 9.09581 47.9904 9.01573 48.2306 9.17588C48.3373 9.22926 48.3373 9.70969 48.284 9.81645C48.1772 10.0834 47.59 10.0033 47.243 10.0033C46.8694 10.0033 46.2822 10.03 46.2822 10.03C46.3089 9.97659 45.8284 11.0175 45.9352 11.2577C46.0153 11.4446 47.7502 10.9108 48.1772 10.9908C48.4441 11.0442 48.6576 11.5513 48.4708 11.7115C47.6701 12.4855 46.3622 13.1261 45.6683 12.8859C45.001 12.6723 44.7074 11.8983 44.8409 11.3111C44.9476 10.8307 45.1879 9.97659 45.1879 9.97659C45.1612 9.97659 45.0544 9.89652 45.0277 9.36271C45.0277 9.14919 45.5615 9.1225 45.5615 9.1225ZM53.889 7.68121C53.7021 7.46768 53.3285 7.28085 53.0349 7.4143C52.2609 7.73459 51.8071 8.34847 51.2199 9.04242C50.8463 9.52285 50.4192 10.2969 50.1523 10.6972C50.0722 10.6172 50.0189 10.3236 50.0455 10.1367C50.179 8.88228 51.4068 7.94811 51.2733 6.8538C51.2466 6.64028 50.7929 7.12071 50.6594 7.25416C49.8587 8.21502 49.1381 9.44278 49.2982 10.8574C49.3516 11.3378 49.5918 11.8182 49.5918 11.8182C49.5918 11.8182 48.711 13.74 48.4441 15.0478C48.3107 15.7151 48.284 16.3823 48.4708 16.8628C48.6576 17.3165 49.3516 17.9037 49.4317 17.53C49.7519 15.8752 50.2324 14.2204 50.6861 12.6723C50.6861 12.6723 50.9797 12.7791 51.3267 12.7524C52.5811 12.619 53.7555 11.4446 54.1025 9.97659C54.2893 9.14919 54.316 8.32178 53.889 7.68121ZM52.7947 10.7506C52.3409 11.151 51.7537 11.4713 51.2733 11.4179C51.5402 10.9375 51.8338 10.3503 52.1808 9.84314C52.4477 9.46947 52.9548 8.77552 53.3819 8.5353C53.5153 8.45523 53.5954 8.61538 53.5954 8.85559C53.5687 9.60293 53.3018 10.2702 52.7947 10.7506ZM36.5134 2.28972C36.3533 2.12957 36.033 2.07619 35.7928 2.10288C35.686 1.35555 34.2981 1.43562 33.7643 1.56907C32.7501 1.83598 32.0828 2.55662 31.7091 3.33065C31.4422 3.89115 31.5757 4.71856 31.9493 4.95877C31.896 5.09222 31.896 5.33244 31.9227 5.46589C31.976 5.75949 32.2163 6.05308 32.4031 6.05308C32.5899 6.05308 32.7501 5.59934 32.8034 5.51927C33.2572 5.65272 33.791 5.75949 34.3515 5.62603C35.4725 5.35913 36.2999 4.50503 36.6469 3.67762C36.8337 3.22388 36.8604 2.63669 36.5134 2.28972ZM32.3764 4.21143C32.2429 4.05129 32.2963 3.731 32.3497 3.57086C32.4031 3.43741 32.5365 3.25058 32.67 3.11712C32.8568 2.9036 33.0704 2.77015 33.3106 2.63669C33.444 2.58331 33.7109 2.50324 33.8711 2.55662C33.3106 2.95698 32.7234 3.65093 32.3764 4.21143ZM34.7519 4.63848C34.138 4.8787 33.4173 4.77194 33.2305 4.69186C33.7643 3.73101 34.6985 2.9036 35.339 2.77015C35.686 2.71676 35.9796 2.71676 36.0597 3.01036C36.1665 3.4641 35.8462 4.21143 34.7519 4.63848Z" fill="white"/>
<path d="M0.241089 20.5459H0.321161L5.17884 26.7648L10.0098 20.5459H10.0899V31.8093H8.59523V24.6562L5.17884 29.1403H5.12546L1.73576 24.6562V31.8093H0.241089V20.5459Z" fill="white"/>
<path d="M18.7107 20.7864H17.136V31.8096H18.7107V20.7864Z" fill="white"/>
<path d="M25.2764 26.2846C25.2764 23.0284 27.5184 20.6262 30.3743 20.6262C32.2159 20.6262 33.4971 21.4269 34.3778 22.7615L33.1768 23.6956C32.5095 22.7081 31.6554 22.1743 30.3476 22.1743C28.3725 22.1743 26.9312 23.9358 26.9312 26.2579C26.9312 28.6334 28.3992 30.3416 30.401 30.3416C31.6821 30.3416 32.643 29.8078 33.3903 28.7401L34.6181 29.6743C33.6038 31.1957 32.296 31.943 30.3476 31.943C27.4917 31.9697 25.2764 29.5676 25.2764 26.2846Z" fill="white"/>
<path d="M46.4952 20.7864H48.2835L44.7337 25.7241L48.7906 31.8096H46.8956L43.7194 27.032L42.5984 28.5266V31.8096H41.0237V20.7864H42.5984V26.2579L46.4952 20.7864Z" fill="white"/>
<path d="M54.9298 20.7864H61.2822V22.3077H56.5046V26.8985H60.7217V28.3932H56.5046V30.2615H61.4957V31.8096H54.9298V20.7864Z" fill="white"/>
<path d="M67.2341 20.7864H68.969L71.7982 26.5515L74.6007 20.7864H76.2288L72.5722 28.2864V31.8096H70.9975V28.3131L67.2341 20.7864Z" fill="white"/>
<path d="M0.000488281 39.6033H0.0805599L4.93824 45.8222L9.76923 39.6033H9.82261V50.8667H8.35463V43.7136L4.93824 48.1976H4.88486L1.49516 43.7136V50.8667H0.000488281V39.6033Z" fill="white"/>
<path d="M17.2424 45.3415C17.2424 42.0853 19.5378 39.6831 22.3937 39.6831C25.2496 39.6831 27.545 42.0853 27.545 45.3415C27.545 48.5977 25.2496 50.9999 22.3937 50.9999C19.5378 50.9999 17.2424 48.5977 17.2424 45.3415ZM25.9169 45.3415C25.9169 42.9927 24.4756 41.2579 22.3937 41.2579C20.3118 41.2579 18.8706 43.0194 18.8706 45.3415C18.8706 47.6903 20.3118 49.4252 22.3937 49.4252C24.4756 49.4252 25.9169 47.6903 25.9169 45.3415Z" fill="white"/>
<path d="M36.0867 46.9699V39.8435H37.6614V46.8898C37.6614 48.6514 38.4621 49.4521 39.9034 49.4521C41.3447 49.4521 42.1454 48.6514 42.1454 46.8898V39.8435H43.7202V46.9699C43.7202 49.6656 42.0654 51.0002 39.9301 51.0002C37.7148 51.0002 36.0867 49.6656 36.0867 46.9699Z" fill="white"/>
<path d="M53.2748 47.9575C53.7285 48.9184 54.5025 49.4522 55.5435 49.4522C56.6111 49.4522 57.305 48.8917 57.305 48.0109C57.305 46.9699 56.6111 46.623 55.7303 46.1692L55.0363 45.8223C53.5684 45.1016 52.5808 44.2742 52.5808 42.5393C52.5808 40.8578 53.7018 39.6567 55.3566 39.6567C56.6378 39.6567 57.5719 40.2172 58.2125 41.3916L57.0114 42.2457C56.6378 41.5251 56.1306 41.1781 55.3833 41.1781C54.5826 41.1781 54.1022 41.6852 54.1022 42.4592C54.1022 43.34 54.5826 43.687 55.6769 44.2208L56.3709 44.5678C57.8922 45.3151 58.8798 46.0892 58.8798 47.9308C58.8798 49.9593 57.4652 50.9735 55.5701 50.9735C53.8886 50.9735 52.6609 50.0661 51.9669 48.6515L53.2748 47.9575Z" fill="white"/>
<path d="M67.3942 39.8167H73.7732V41.3647H68.9689V45.9555H73.2127V47.4501H68.9689V49.3185H73.96V50.8665H67.3942V39.8167Z" fill="white"/>
</g>
</svg>
