<svg width="86" height="39" viewBox="0 0 86 39" fill="none" xmlns="http://www.w3.org/2000/svg">
<g opacity="0.6">
<path d="M24.5982 29.6076C28.9967 29.6076 32.4248 27.1496 32.4248 22.9452C32.4248 19.8081 30.5167 17.997 26.9591 16.5093L24.5012 15.4744C23.1752 14.9246 22.6577 14.5041 22.6577 13.7279C22.6577 12.7577 23.4663 12.3696 24.5659 12.3696C26.183 12.3696 27.1209 13.2105 28.0911 14.6335L31.8104 11.7874C30.5814 9.32949 28.2205 7.48603 24.5012 7.48603C20.1674 7.48603 17.0303 9.97632 17.0303 13.7926C17.0303 16.8004 19.0355 18.7409 22.4313 20.2286L24.6306 21.1988C26.1183 21.8456 26.7974 22.169 26.7974 23.1716C26.7974 24.2066 26.0859 24.724 24.5982 24.724C22.205 24.724 20.879 23.3657 19.844 21.975L16.0924 24.821C17.6125 27.6994 20.6849 29.6076 24.5982 29.6076ZM35.5804 29.2195H41.1431V7.87412H35.5804V29.2195ZM49.9954 29.2195H55.5581V12.8871H61.9617V7.87412H43.5917V12.8871H49.9954V29.2195ZM64.4161 29.2195H69.9788V20.6813H77.7731V29.2195H83.3359V7.87412H77.7731V15.6684H69.9788V7.87412H64.4161V29.2195Z" fill="white"/>
<path d="M11.8784 27.641L11.8784 26.6708L4.5394 26.6708L4.5394 23.7725L3.66866 23.7725L3.66866 30.5269L4.5394 30.5269L4.5394 27.641L11.8784 27.641ZM11.8784 22.4035L11.8784 21.4333L7.92281 21.4333L7.92281 16.8308L11.8784 16.8308L11.8784 15.8606L3.66866 15.8606L3.66866 16.8308L7.05208 16.8308L7.05208 21.4333L3.66866 21.4333L3.66866 22.4035L11.8784 22.4035ZM11.8784 13.5966L11.8784 8.18561L11.0077 8.18561L11.0077 12.6263L7.92281 12.6263L7.92281 9.34244L7.05208 9.34244L7.05208 12.6263L4.53939 12.6263L4.53939 8.33488L3.66866 8.33488L3.66866 13.5966L11.8784 13.5966Z" fill="white"/>
</g>
</svg>
