<svg width="126" height="33" viewBox="0 0 126 33" fill="none" xmlns="http://www.w3.org/2000/svg">
<g opacity="0.6">
<path d="M21.4804 7.71069L18.2413 15.9913L14.2708 7.39723H12.8341L8.86354 15.9913L5.62442 7.71069H0.609011L7.71418 25.2646H9.15089L13.5655 16.2526L17.954 25.2646H19.3907L26.4959 7.71069H21.4804ZM37.0379 24.9512H41.8705L34.0339 7.39723H32.5972L24.7606 24.9512H29.5931L30.2201 23.5145H36.411L37.0379 24.9512ZM34.8175 19.9096H31.8135L33.3286 15.913L34.8175 19.9096ZM58.9067 24.9512L54.3614 18.5513C56.0332 17.5325 57.0781 15.8085 57.0781 13.6404C57.0781 9.9833 54.2047 7.71069 50.417 7.71069H43.6514V24.9512H48.1444V19.5962H49.9991L53.8912 24.9512H58.9067ZM48.1444 11.629H50.4431C51.697 11.629 52.5068 12.4388 52.5068 13.6404C52.5068 14.8681 51.697 15.6779 50.4431 15.6779H48.1444V11.629ZM60.6919 24.9512H65.1849V18.055H71.4803V24.9512H75.9733V7.71069H71.4803V14.0061H65.1849V7.71069H60.6919V24.9512ZM87.8012 25.2646C92.9472 25.2646 97.1267 21.4247 97.1267 16.3309C97.1267 11.2633 92.9472 7.39723 87.8012 7.39723C82.6552 7.39723 78.5279 11.2633 78.5279 16.3309C78.5279 21.4247 82.6552 25.2646 87.8012 25.2646ZM87.8273 21.1374C85.0584 21.1374 83.1254 19.2566 83.1254 16.3309C83.1254 13.4575 85.0584 11.5245 87.8273 11.5245C90.4918 11.5245 92.5293 13.4575 92.5293 16.3309C92.5293 19.2566 90.4918 21.1374 87.8273 21.1374ZM99.6963 24.9512H111.321V20.9023H104.189V7.71069H99.6963V24.9512Z" fill="white"/>
<path d="M116.18 22.0812L117.602 23.1149L116.18 24.1411L116.18 24.2456L118.684 24.2456L118.684 23.9545L116.912 23.9545L117.986 23.1634L117.986 23.0589L116.919 22.2715L118.684 22.2715L118.684 21.9805L116.18 21.9805L116.18 22.0812ZM118.684 19.5919L118.684 19.2822L116.18 20.3495L116.18 20.4577L118.684 21.525L118.684 21.219L118.184 21.01L118.184 19.8009L118.684 19.5919ZM117.923 19.9129L117.923 20.898L116.71 20.4055L117.923 19.9129ZM118.684 16.9048L117.617 17.6922C117.524 17.3675 117.266 17.1735 116.934 17.1735C116.52 17.1735 116.221 17.4758 116.221 17.9609L116.221 18.8266L118.684 18.8266L118.684 18.5356L117.65 18.5356L117.65 18.0094L118.684 17.2444L118.684 16.9048ZM116.482 18.5356L116.482 17.9721C116.482 17.6474 116.676 17.4758 116.938 17.4758C117.203 17.4758 117.389 17.6474 117.389 17.9721L117.389 18.5356L116.482 18.5356ZM118.684 16.5052L118.684 15.0461L118.423 15.0461L118.423 16.2142L116.221 16.2142L116.221 16.5052L118.684 16.5052ZM116.221 13.1611L116.221 13.4858L117.378 14.1612L116.221 14.8329L116.221 15.1613L117.665 14.3068L118.684 14.3068L118.684 14.0157L117.665 14.0157L116.221 13.1611ZM116.221 10.9997L118.072 10.9997L116.18 12.567L116.18 12.6715L118.684 12.6715L118.684 12.3804L116.837 12.3804L118.725 10.8131L118.725 10.7086L116.221 10.7086L116.221 10.9997ZM120.18 22.0812L121.602 23.1149L120.18 24.1411L120.18 24.2456L122.684 24.2456L122.684 23.9545L120.912 23.9545L121.986 23.1634L121.986 23.0589L120.919 22.2715L122.684 22.2715L122.684 21.9805L120.18 21.9805L120.18 22.0812ZM122.725 20.1853C122.725 19.48 122.173 18.9053 121.453 18.9053C120.732 18.9053 120.18 19.48 120.18 20.1853C120.18 20.8943 120.732 21.4615 121.453 21.4615C122.169 21.4615 122.725 20.898 122.725 20.1853ZM122.456 20.1816C122.456 20.745 122.024 21.1593 121.449 21.1593C120.878 21.1593 120.449 20.745 120.449 20.1816C120.449 19.6255 120.882 19.2076 121.449 19.2076C122.024 19.2076 122.456 19.6255 122.456 20.1816ZM120.221 16.7139L122.072 16.7139L120.18 18.2812L120.18 18.3857L122.684 18.3857L122.684 18.0946L120.837 18.0946L122.725 16.5273L122.725 16.4228L120.221 16.4228L120.221 16.7139ZM122.684 13.8218L121.617 14.6092C121.524 14.2845 121.266 14.0905 120.934 14.0905C120.52 14.0905 120.221 14.3927 120.221 14.8778L120.221 15.7436L122.684 15.7436L122.684 15.4525L121.65 15.4525L121.65 14.9264L122.684 14.1614L122.684 13.8218ZM120.482 15.4525L120.482 14.889C120.482 14.5644 120.676 14.3927 120.938 14.3927C121.203 14.3927 121.389 14.5644 121.389 14.889L121.389 15.4525L120.482 15.4525ZM122.725 12.3611C122.725 11.6558 122.173 11.0811 121.453 11.0811C120.732 11.0811 120.18 11.6558 120.18 12.3611C120.18 13.0701 120.732 13.6373 121.453 13.6373C122.169 13.6373 122.725 13.0739 122.725 12.3611ZM122.456 12.3574C122.456 12.9209 122.024 13.3351 121.449 13.3351C120.878 13.3351 120.449 12.9209 120.449 12.3574C120.449 11.8013 120.882 11.3834 121.449 11.3834C122.024 11.3834 122.456 11.8013 122.456 12.3574ZM122.684 10.5615L122.684 8.93819L122.423 8.93819L122.423 10.2704L121.497 10.2704L121.497 9.28524L121.236 9.28524L121.236 10.2704L120.482 10.2704L120.482 8.98297L120.221 8.98297L120.221 10.5615L122.684 10.5615Z" fill="white"/>
</g>
</svg>
