<svg width="135" height="24" viewBox="0 0 135 24" fill="none" xmlns="http://www.w3.org/2000/svg">
<g opacity="0.6">
<g filter="url(#filter0_d)">
<path d="M4.36903 15.1707H8.08829C11.3548 15.2192 13.9583 12.9553 13.9098 9.80197C13.9583 6.60017 11.3548 4.46563 8.08829 4.49798H4.36903V15.1707ZM7.15039 12.6642V7.02061H8.07212C9.83473 7.02061 11.0637 7.99085 11.0637 9.80197C11.0637 11.5646 9.81856 12.6642 8.07212 12.6642H7.15039ZM15.4375 10.6429C15.4375 13.4889 17.4265 15.3647 20.1594 15.3647C22.8599 15.3647 24.8812 13.4566 24.8812 10.6429V4.49798H22.0998V10.8531C22.0998 12.0659 21.3075 12.8097 20.1594 12.8097C19.0112 12.8097 18.2189 12.0659 18.2189 10.8531V4.49798H15.4375V10.6429ZM16.3592 1.95917C16.3592 2.34727 16.5209 2.70302 16.8444 3.01027C17.1678 3.31751 17.5235 3.46305 17.9278 3.46305C18.7848 3.46305 19.5125 2.75154 19.5125 1.95917C19.5125 1.10212 18.8172 0.439123 17.9278 0.439123C17.5235 0.439123 17.1516 0.584659 16.8282 0.891904C16.5209 1.18298 16.3592 1.53873 16.3592 1.95917ZM20.8062 1.97534C20.8062 2.36344 20.9679 2.7192 21.2913 3.02644C21.6147 3.33368 21.9705 3.47922 22.3747 3.47922C23.2318 3.47922 23.9595 2.76771 23.9595 1.97534C23.9595 1.11829 23.2641 0.455294 22.3747 0.455294C21.9705 0.455294 21.5986 0.600831 21.2751 0.908074C20.9679 1.19915 20.8062 1.5549 20.8062 1.97534ZM33.6297 4.49798V9.83431L27.8406 4.30393H26.9512V15.1707H29.7326V9.75346L35.5217 15.3647H36.4111V4.49798H33.6297ZM47.6141 4.49798H44.5578L42.5688 8.21724L40.5798 4.49798H37.5074L41.1781 11.1118V15.1707H43.9595V11.0795L47.6141 4.49798ZM53.9036 15.1707H56.8952L52.044 4.30393H51.1546L46.3034 15.1707H49.295L49.6831 14.2813H53.5155L53.9036 15.1707ZM52.5291 12.0497H50.6695L51.6074 9.57558L52.5291 12.0497ZM61.7246 15.1707H64.5059V10.9016H68.4031V15.1707H71.1844V4.49798H68.4031V8.39512H64.5059V4.49798H61.7246V15.1707ZM79.881 15.1707H82.8726L78.0214 4.30393H77.132L72.2808 15.1707H75.2723L75.6604 14.2813H79.4929L79.881 15.1707ZM78.5065 12.0497H76.6469L77.5848 9.57558L78.5065 12.0497ZM93.4188 15.1707L90.6051 11.2088C91.6562 10.562 92.2869 9.47856 92.2869 8.16873C92.2869 5.95334 90.5404 4.49798 88.1633 4.49798H83.9751V15.1707H86.7565V11.8557H87.9046L90.314 15.1707H93.4188ZM86.7565 6.92358H88.1795C88.9557 6.92358 89.457 7.40871 89.457 8.16873C89.457 8.92875 88.9557 9.43005 88.1795 9.43005H86.7565V6.92358ZM94.524 15.1707H97.3053V4.49798H94.524V15.1707ZM94.2006 1.943C94.2006 2.86473 94.9444 3.57624 95.8985 3.57624C96.8526 3.57624 97.6126 2.84856 97.6126 1.943C97.6126 1.02127 96.8526 0.293587 95.8985 0.293587C94.9444 0.293587 94.2006 1.02127 94.2006 1.943ZM101.731 15.1707H104.513V7.00444H107.715V4.49798H98.5296V7.00444H101.731V15.1707ZM114.291 15.1707H117.283L112.432 4.30393H111.542L106.691 15.1707H109.683L110.071 14.2813H113.903L114.291 15.1707ZM112.917 12.0497H111.057L111.995 9.57558L112.917 12.0497ZM117.611 12.9714C118.387 14.443 119.94 15.3647 121.864 15.3647C124.079 15.3647 125.777 14.1034 125.777 12.0335C125.777 10.5297 124.904 9.59175 123.044 8.81556L121.815 8.2981C121.12 8.02319 120.894 7.81297 120.894 7.42488C120.894 6.9721 121.266 6.74571 121.848 6.74571C122.608 6.74571 123.093 7.10146 123.61 7.87766L125.47 6.45463C124.823 5.1448 123.578 4.30393 121.815 4.30393C119.632 4.30393 118.08 5.56524 118.08 7.45722C118.08 8.89641 119.018 9.899 120.78 10.6752L121.88 11.1603C122.721 11.5322 122.963 11.6778 122.963 12.1467C122.963 12.6642 122.592 12.9229 121.864 12.9229C120.78 12.9229 120.117 12.3893 119.487 11.5484L117.611 12.9714ZM127.355 15.1707H130.136V4.49798H127.355V15.1707Z" fill="white"/>
</g>
</g>
<defs>
<filter id="filter0_d" x="0.369019" y="0.293701" width="133.767" height="23.0711" filterUnits="userSpaceOnUse" color-interpolation-filters="sRGB">
<feFlood flood-opacity="0" result="BackgroundImageFix"/>
<feColorMatrix in="SourceAlpha" type="matrix" values="0 0 0 0 0 0 0 0 0 0 0 0 0 0 0 0 0 0 127 0"/>
<feOffset dy="4"/>
<feGaussianBlur stdDeviation="2"/>
<feColorMatrix type="matrix" values="0 0 0 0 0 0 0 0 0 0 0 0 0 0 0 0 0 0 0.25 0"/>
<feBlend mode="normal" in2="BackgroundImageFix" result="effect1_dropShadow"/>
<feBlend mode="normal" in="SourceGraphic" in2="effect1_dropShadow" result="shape"/>
</filter>
</defs>
</svg>
